<svg width="609" height="344" viewBox="0 0 609 344" fill="none" xmlns="http://www.w3.org/2000/svg">
<path d="M380.728 114.839L379.606 337.492C379.592 340.263 381.835 342.517 384.606 342.517L413.038 342.517C415.79 342.517 418.025 340.294 418.038 337.542L419.161 114.839L420.12 102.911C420.141 102.644 420.184 102.379 420.248 102.119L422.918 91.244C422.987 90.9622 423.081 90.687 423.198 90.4215L426.406 83.1349M380.728 114.839L379.737 102.509M380.728 114.839L358.325 134.858M379.737 102.509L376.867 90.8201M379.737 102.509L357.631 126.201M376.867 90.8201L371.348 78.2851C371.223 78.0004 371.071 77.728 370.895 77.4714L363.499 66.6876C363.325 66.4343 363.128 66.1976 362.911 65.9805L353.368 56.4365M376.867 90.8201L355.614 117.994M353.368 56.4365L341.817 48.514M353.368 56.4365L339.115 93.8516M341.817 48.514L328.854 42.8075M341.817 48.514L331.005 88.2888M328.854 42.8075L317.165 39.9374M328.854 42.8075L321.904 84.2815M317.165 39.9374L304.835 38.9463M317.165 39.9374L313.696 82.2668M304.835 38.9463L292.907 39.9052C292.64 39.9266 292.375 39.9695 292.115 40.0333L280.817 42.8075M304.835 38.9463L305.04 81.5709M280.817 42.8075L267.853 48.514M280.817 42.8075L288.175 84.2815M267.853 48.514L256.684 56.1753C256.431 56.3491 256.194 56.5459 255.977 56.7631L246.76 65.9803C246.542 66.1976 246.346 66.4344 246.172 66.6878L238.511 77.8571M267.853 48.514L279.073 88.2888M238.511 77.8571L232.805 90.8206M238.511 77.8571L258.47 108.892M182.31 77.8571L176.032 68.7031M176.032 68.7031L174.65 66.6877C174.476 66.4344 174.279 66.1976 174.062 65.9804L164.845 56.7631C164.628 56.5459 164.391 56.3491 164.137 56.1753L152.968 48.514M176.032 68.7031L152.968 48.514M152.968 48.514L140.005 42.8075M140.005 42.8075L128.316 39.9374M140.005 42.8075L181.799 77.9679C182.384 78.46 182.848 79.0797 183.156 79.7793L184.634 83.1352M128.316 39.9374L116.387 38.9785C116.12 38.9571 115.852 38.9571 115.586 38.9785L103.657 39.9374M128.316 39.9374L180.235 81.5753C180.803 82.0308 181.463 82.3568 182.171 82.5305L184.634 83.1352M103.657 39.9374L91.9677 42.8075M103.657 39.9374L163.784 82.2669M91.9677 42.8075L155.577 84.2821M91.9677 42.8075L79.0044 48.514M79.0044 48.514L67.8344 56.1753C67.581 56.3491 67.3442 56.5459 67.1269 56.7631L57.5834 66.3069M79.0044 48.514L146.475 88.2889M57.5834 66.3069L49.6615 77.8571M57.5834 66.3069L131.435 100.782M49.6615 77.8571L43.9549 90.8201M49.6615 77.8571L125.872 108.892M43.9549 90.8201L41.0848 102.509M43.9549 90.8201L121.865 117.994M41.0848 102.509L40.0932 114.839M41.0848 102.509L119.849 126.201M40.0932 114.839L119.153 134.858M40.0932 114.839L38.9464 342.517M38.9464 342.517L6.00006 342.517C3.23861 342.517 1 340.278 1 337.517V5.99998C1 3.23856 3.23858 1 6 1H603.138C605.9 1 608.138 3.23858 608.138 6.00001L608.138 337.517C608.138 340.279 605.899 342.517 603.138 342.517L569.801 342.518M38.9464 342.517L115.941 296.169C117.436 295.269 118.354 293.655 118.362 291.91L119.153 134.858M232.805 90.8206L229.935 102.51M232.805 90.8206L254.464 117.994M229.935 102.51L228.944 114.839M229.935 102.51L252.448 126.201M228.944 114.839L227.796 342.517M228.944 114.839L251.752 134.858M227.796 342.517L195.757 342.517C192.986 342.517 190.743 340.263 190.757 337.492L191.878 114.839L190.92 102.911C190.898 102.644 190.855 102.38 190.791 102.119L188.121 91.2442C188.052 90.9625 187.958 90.6873 187.842 90.4218L184.634 83.1352M227.796 342.517L250.453 295.74C250.779 295.068 250.949 294.332 250.953 293.585L251.752 134.858M115.988 38.9463L171.281 80.6936C172.04 81.2663 172.946 81.6109 173.893 81.6871L181.1 82.2667M491.886 134.858L570.948 114.839M163.784 82.2669L172.441 81.5707M163.784 82.2669L155.577 84.2821M569.955 102.51L491.19 126.201M569.955 102.51L570.947 114.84L569.801 342.518M569.955 102.51L567.082 90.8206M491.19 126.201L489.174 117.994M491.19 126.201L491.885 134.858L491.094 291.89C491.085 293.646 491.998 295.277 493.499 296.189L569.801 342.518M155.577 84.2821L146.475 88.2889M489.174 117.994L567.082 90.8206M489.174 117.994L485.168 108.892M567.082 90.8206L561.569 78.287C561.443 78.0016 561.291 77.7287 561.115 77.4716L553.455 66.3074M561.381 77.8576L485.168 108.892M485.168 108.892L479.604 100.782M455.463 84.2818L462.22 87.2562C463.692 87.9045 465.387 87.8044 466.773 86.9873L532.035 48.5145M553.455 66.3074L479.604 100.782M553.455 66.3074L543.585 56.4372M479.604 100.782L472.674 93.8516M472.674 93.8516L543.585 56.4372M472.674 93.8516L464.564 88.2891M543.585 56.4372L532.42 48.7794C532.163 48.6035 531.891 48.4519 531.606 48.3265L519.071 42.8084M121.865 117.994L119.849 126.201M121.865 117.994L125.872 108.892M125.872 108.892L131.435 100.782M119.849 126.201L119.153 134.858M131.435 100.782L138.365 93.8516M138.365 93.8516L67.4543 56.4372M138.365 93.8516L146.475 88.2889M429.371 77.8576L429.241 77.9675C428.655 78.4597 428.191 79.0796 427.883 79.7794L426.406 83.1349M426.406 83.1349L428.867 82.5305C429.575 82.3568 430.235 82.0309 430.803 81.5753L482.723 39.9383M519.071 42.8084L507.382 39.9383M519.071 42.8084L457.279 83.0975C456.12 83.8532 454.699 84.0948 453.356 83.7648L447.256 82.2669M507.382 39.9383L495.453 38.9795C495.186 38.958 494.918 38.958 494.652 38.9795L482.723 39.9383M507.382 39.9383L447.256 82.2669M482.723 39.9383L471.457 42.7044C471.175 42.7736 470.9 42.8671 470.635 42.984L458.071 48.5149M458.071 48.5149L446.901 56.1763C446.648 56.35 446.411 56.5468 446.194 56.764L436.977 65.9814C436.76 66.1986 436.563 66.4353 436.389 66.6885L435.007 68.704M458.071 48.5149L435.007 68.704M435.007 68.704L428.728 77.858M371.159 77.8576L353.024 106.644C352.138 108.049 352.008 109.803 352.678 111.323L355.614 117.994M355.614 117.994L357.533 125.81C357.597 126.07 357.64 126.335 357.661 126.602L358.325 134.858M358.325 134.858L357.526 293.608C357.522 294.34 357.679 295.064 357.986 295.729L379.58 342.517M305.04 81.5709L313.696 82.2668M305.04 81.5709L296.383 82.2668M292.507 39.9376L296.383 82.2668M296.383 82.2668L288.175 84.2815M313.696 82.2668L321.904 84.2815M288.175 84.2815L279.502 88.1003C279.217 88.2256 278.945 88.3772 278.688 88.5531L270.963 93.8516M321.904 84.2815L331.005 88.2888M331.005 88.2888L339.115 93.8516M270.963 93.8516L256.304 56.4372M270.963 93.8516L264.033 100.782M339.115 93.8516L346.047 100.782M246.434 66.3074L264.033 100.782M264.033 100.782L258.47 108.892M363.239 66.3074L346.047 100.782M346.047 100.782L351.609 108.891M258.47 108.892L254.464 117.994M254.464 117.994L252.448 126.201M252.448 126.201L251.752 134.858M429.942 82.2667L438.599 81.5704M438.599 81.5704L447.256 82.2669M438.599 81.5704L495.054 38.9463M429.051 77.8578L443.102 66.3076L471.035 42.8081" stroke="url(#paint0_linear_317_54)" stroke-linecap="round" stroke-linejoin="round"/>
<defs>
<linearGradient id="paint0_linear_317_54" x1="245.407" y1="233.498" x2="333.409" y2="-20.0521" gradientUnits="userSpaceOnUse">
<stop stop-color="#FF6D44"/>
<stop offset="0.296875" stop-color="#FFA959"/>
<stop offset="1" stop-color="#E7E7E8"/>
</linearGradient>
</defs>
</svg>
