<svg width="219" height="282" viewBox="0 0 219 282" fill="none" xmlns="http://www.w3.org/2000/svg">
<path d="M88.4667 128.764V181.849L89.9113 179.322M88.4667 128.764L88.9736 125.471M88.4667 128.764L89.9113 129.85M88.9736 125.471L90.7009 121.906M88.9736 125.471L90.3837 126.781M90.7009 121.906L94.333 117.909L100.2 114.192M90.7009 121.906L91.9935 123.459M100.2 114.192L104.932 112.493M100.2 114.192L100.846 116.27M104.932 112.493L110.202 111.789M104.932 112.493L105.256 114.687M110.202 111.789L116.016 112.653L122.799 115.701M110.202 111.789L110.167 114.031M122.799 115.701L127.488 119.593L130.116 123.392L131.08 126.006M122.799 115.701L121.906 117.677M131.08 126.006L131.42 128.764M131.08 126.006L129.624 127.28M131.42 128.764V181.85L129.941 179.322M131.42 128.764L129.941 129.85M129.941 179.322V129.85M129.941 179.322L128.651 177.117V130.798M129.941 129.85L129.624 127.28M129.941 129.85L128.651 130.798M129.624 127.28L128.725 124.844L126.276 121.303L121.906 117.677M129.624 127.28L128.352 128.392M121.906 117.677L115.585 114.836L110.167 114.031M121.906 117.677L121.128 119.401M110.167 114.031L105.256 114.687M110.167 114.031L110.137 115.988M105.256 114.687L100.846 116.27M105.256 114.687L105.539 116.601M100.846 116.27L95.3778 119.734L91.9935 123.459M100.846 116.27L101.409 118.083M91.9935 123.459L90.3837 126.781M91.9935 123.459L93.1221 124.815M90.3837 126.781L89.9113 129.85M90.3837 126.781L91.6149 127.925M89.9113 129.85V179.322M89.9113 129.85L91.1724 130.798M89.9113 179.322L91.1724 177.117V130.798M128.651 130.798L128.353 128.392L127.512 126.111M127.512 126.111L125.22 122.797L121.128 119.401M127.512 126.111L130.118 123.392M121.128 119.401L115.21 116.741L110.137 115.988M110.137 115.988L105.539 116.601M105.539 116.601L101.41 118.084L96.2908 121.327L93.1221 124.815M93.1221 124.815L91.6149 127.925M91.6149 127.925L91.1724 130.798M116.015 112.653L115.208 116.741M125.221 122.797L127.49 119.594M94.3319 117.909L96.2888 121.327M135.121 188.165V126.05M135.121 126.05L134.722 122.823M135.121 126.05L133.118 127.52M134.722 122.823L133.594 119.764M134.722 122.823L132.751 124.547M133.594 119.764L130.519 115.319M133.594 119.764L131.711 121.729M130.519 115.319L125.033 110.765L117.096 107.199M130.519 115.319L128.879 117.634M117.096 107.199L110.293 106.188L104.127 107.011M117.096 107.199L116.512 110.153M104.127 107.011L98.5893 108.999L91.7246 113.348M104.127 107.011L104.565 109.98M91.7246 113.348L87.4748 118.026M91.7246 113.348L93.1389 115.819M87.4748 118.026L85.4534 122.197L84.8607 126.05M87.4748 118.026L89.2246 120.127M84.8607 126.05V188.165L88.4851 181.823V128.776L84.8607 126.05ZM86.8138 184.744V127.52L87.3598 123.97L85.4514 122.197M133.118 184.744V127.52M133.118 127.52L132.751 124.547M133.118 127.52L131.408 128.776M132.751 124.547L131.711 121.729M132.751 124.547L131.068 126.02M131.711 121.729L128.879 117.634M131.711 121.729L130.104 123.408M128.879 117.634L123.824 113.439L116.512 110.153M128.879 117.634L127.476 119.612M116.512 110.153L110.246 109.222L104.565 109.98M116.512 110.153L116.014 112.676M104.565 109.98L99.4632 111.812M104.565 109.98L104.937 112.516M99.4632 111.812L93.1389 115.819M99.4632 111.812L98.5905 108.999M99.4632 111.812L100.211 114.214M93.1389 115.819L89.2246 120.127M93.1389 115.819L94.3466 117.929M89.2246 120.127L87.362 123.97L88.9918 125.485M89.2246 120.127L90.7175 121.923M135.119 188.166L131.406 181.823V128.776L131.066 126.02L130.102 123.408L127.476 119.612M127.476 119.612L122.79 115.723M122.79 115.723L116.012 112.676L110.203 111.813M122.79 115.723L125.031 110.766M110.203 111.813L104.937 112.516M110.203 111.813L110.291 106.188M104.937 112.516L100.208 114.214L94.3451 117.928L90.7162 121.923L88.9898 125.485L88.4833 128.776M140.333 122.224V197.071L140.302 197.016M140.333 122.224L139.853 118.336M140.333 122.224L135.098 126.066M139.853 118.336L138.493 114.65M139.853 118.336L137.037 120.8M138.493 114.65L134.788 109.294M138.493 114.65L133.573 119.786M134.788 109.294L128.177 103.807L118.613 99.5086M134.788 109.294L132.445 112.602M118.613 99.5086L110.417 98.291M118.613 99.5086L117.781 103.731M110.417 98.291L102.987 99.2826M110.417 98.291L110.291 106.221M102.987 99.2826L96.3137 101.678M102.987 99.2826L104.132 107.043M96.3137 101.678L88.0419 106.919M96.3137 101.678L97.5634 105.698M88.0419 106.919L82.9213 112.555M88.0419 106.919L91.739 113.376M82.9213 112.555L80.486 117.581L79.7712 122.224M82.9213 112.555L87.4933 118.049M79.7712 122.224V197.071L79.8006 197.019L84.8809 188.129V126.066M79.7712 122.224L84.8809 126.066M82.5633 192.182V124.324L83.2114 120.115L80.4847 117.581M137.472 192.182V124.325L137.037 120.8M137.472 192.182L135.098 188.129V126.066M137.472 192.182L140.302 197.016M137.037 120.8L135.804 117.458L132.445 112.602M137.037 120.8L134.7 122.842M132.445 112.602L126.451 107.627L117.781 103.731M132.445 112.602L130.501 115.345M117.781 103.731L110.349 102.626L103.614 103.526L97.5634 105.698M117.781 103.731L117.09 107.231M97.5634 105.698L90.0637 110.449L85.4218 115.559L83.2134 120.115L85.4737 122.216M97.5634 105.698L98.5984 109.03M84.8809 126.066L85.4737 122.216M110.291 106.221L117.089 107.231L125.019 110.795L130.501 115.345M110.291 106.221L104.132 107.043M128.175 103.806L125.017 110.795M130.501 115.345L133.573 119.786M135.098 126.066L134.7 122.842M134.7 122.842L133.573 119.786M104.132 107.043L98.5984 109.03M98.5984 109.03L91.739 113.376M91.739 113.376L87.4933 118.049M87.4933 118.049L85.4737 122.216M140.302 197.016L143.813 203.014M140.302 197.016L140.302 122.247M148.233 210.567V116.424L147.629 111.533M148.233 210.567L148.183 210.481L143.813 203.014M148.233 210.567L153.905 220.254M147.629 111.533L145.918 106.897M147.629 111.533L143.278 115.339M145.918 106.897L141.259 100.16M145.918 106.897L138.462 114.68M141.259 100.16L132.943 93.2584M141.259 100.16L134.761 109.329M132.943 93.2584L120.913 87.8527M132.943 93.2584L130.277 99.1604M120.913 87.8527L110.604 86.3209M120.913 87.8527L118.603 99.5551M110.604 86.3209L101.259 87.5681M110.604 86.3209L110.414 98.3382M101.259 87.5681L92.8651 90.5816M101.259 87.5681L102.992 99.3288M92.8651 90.5816L82.4608 97.1731M92.8651 90.5816L94.7951 96.7908M82.4608 97.1731L76.0203 104.263M82.4608 97.1731L88.0631 106.958M76.0203 104.263L72.9569 110.584M76.0203 104.263L79.8824 108.902M72.9569 110.584L72.0578 116.424M72.9569 110.584L77.1695 114.499M72.0578 116.424V210.567L76.3739 203.015M72.0578 116.424L76.3739 119.669M76.3739 203.015V119.669M76.3739 203.015L79.8013 197.017V122.247M76.3739 119.669L77.1695 114.499M76.3739 119.669L79.8013 122.247M77.1695 114.499L79.8824 108.902M77.1695 114.499L80.5162 117.608M79.8013 122.247L80.5162 117.608M130.277 99.1604L128.159 103.848M130.277 99.1604L137.638 105.271L141.764 111.235L143.278 115.339M130.277 99.1604L119.627 94.3747L110.499 93.0185L102.226 94.1227L94.7951 96.7908M128.159 103.848L134.763 109.33L138.463 114.68L139.821 118.363M128.159 103.848L118.604 99.5548L110.416 98.3381L102.994 99.3288L96.3275 101.723M143.813 203.014V119.669M143.813 119.669L143.278 115.339M143.813 119.669L140.302 122.247M143.813 119.669L148.234 116.424M143.278 115.339L139.821 118.363M94.7951 96.7908L85.584 102.626L79.8824 108.902M94.7951 96.7908L96.3275 101.723M79.8824 108.902L82.9481 112.588M139.821 118.363L140.302 122.247M96.3275 101.723L88.0645 106.957L82.9481 112.588M82.9481 112.588L80.5162 117.608M161.622 233.437V106.594M161.622 233.437L161.531 233.283M161.622 233.437L172.471 251.972M161.622 106.594L160.808 100.005M161.622 106.594L153.904 112.26M160.808 100.005L158.503 93.7578L152.225 84.6814M160.808 100.005L147.579 111.576M152.225 84.6814L141.021 75.3822M152.225 84.6814L141.217 100.217M141.021 75.3822L124.813 68.0986M141.021 75.3822L136.366 85.6865M124.813 68.0986L110.923 66.0348M124.813 68.0986L120.898 87.9255M110.923 66.0348L98.3313 67.7155M110.923 66.0348L110.74 77.728M98.3313 67.7155L87.0225 71.7755M98.3313 67.7155L100.02 79.1594M87.0225 71.7755L73.0039 80.6572L64.3264 90.2087L60.1988 98.7255M87.0225 71.7755L90.3906 82.6163M60.1988 98.7255L58.9879 106.594M60.1988 98.7255L73.0033 110.627M58.9879 106.594V233.437L59.0728 233.289L66.5221 220.254V112.26L58.9879 106.594ZM148.182 210.481V116.46L147.579 111.576M147.579 111.576L145.871 106.945M145.871 106.945L141.217 100.217M145.871 106.945L158.502 93.7578M141.217 100.217L132.912 93.3244L120.898 87.9255M120.898 87.9255L110.602 86.3956L101.269 87.6413L92.8861 90.6508M92.8861 90.6508L82.4954 97.2342M92.8861 90.6508L90.3906 82.6163M82.4954 97.2342L76.0631 104.314L73.0033 110.627M82.4954 97.2342L73.0026 80.6572M73.0033 110.627L72.1061 116.46V210.48M110.74 77.728L110.603 86.3956M110.74 77.728L122.567 79.4854L136.366 85.6865M110.74 77.728L100.02 79.1594M132.914 93.3246L136.366 85.6865M136.366 85.6865L145.905 93.604L151.25 101.332L153.212 106.651L153.904 112.26M153.904 112.26L148.183 116.46M153.904 112.26L153.905 220.254M101.271 87.6415L100.02 79.1594M100.02 79.1594L90.3906 82.6163M90.3906 82.6163L78.4565 90.1779L71.0686 98.3096M76.0654 104.314L71.0686 98.3096M71.0686 98.3096L64.3277 90.209M71.0686 98.3096L67.5544 105.561L66.5232 112.26L72.1082 116.46M153.905 220.254L161.533 233.284M161.623 233.438L161.533 233.284M161.533 233.284L161.532 106.661M72.1082 210.481L72.0564 210.571L66.5232 220.254M189.264 280.656V86.3035L188.017 76.2074L184.486 66.6359L174.866 52.7284L157.699 38.4801L132.865 27.3196M132.865 27.3196L111.581 24.1578L92.2892 26.7329M132.865 27.3196L127.974 52.0931M92.2892 26.7329L74.9611 32.9542L53.4818 46.5626L40.1861 61.1971L33.8613 74.2473L32.006 86.3035M92.2892 26.7329L95.9598 51.629M32.006 86.3035V280.656L48.3979 251.972V98.6304L32.006 86.3035ZM161.532 106.661L160.719 100.083M161.532 106.661L172.471 98.6304M160.719 100.083L158.419 93.8469M160.719 100.083L171.486 90.6645M158.419 93.8469L152.151 84.7864M158.419 93.8469L168.701 83.1121M152.151 84.7864L140.967 75.5031M152.151 84.7864L161.111 72.1395M140.967 75.5031L124.787 68.2322M140.967 75.5031L147.567 60.8975M124.787 68.2322L110.921 66.1722L98.3515 67.8497M124.787 68.2322L127.974 52.0931M98.3515 67.8497L87.0623 71.9029M98.3515 67.8497L95.9598 51.629M87.0623 71.9029L73.0681 80.769M87.0623 71.9029L82.2879 56.5383M73.0681 80.769L64.4057 90.3037M73.0681 80.769L65.3405 67.2749M64.4057 90.3037L60.2853 98.8061L59.0762 106.661M64.4057 90.3037L54.8502 78.8218M59.0762 106.661V233.284L58.9824 233.447L48.3966 251.971M59.0762 106.661L48.3966 98.6299L49.8598 89.1178M172.471 98.6304L189.262 86.3037M172.471 98.6304L172.471 251.972M172.471 98.6304L171.486 90.6645M188.015 76.2076L171.486 90.6645M171.486 90.6645L168.701 83.1121M168.701 83.1121L184.484 66.6355M168.701 83.1121L161.111 72.1395M32.0047 280.656L0.931641 280.656V1H218.442V280.656L189.262 280.656L172.471 251.972M110.919 66.1725L111.579 24.1578M127.974 52.0931L147.567 60.8975M127.974 52.0931L111.181 49.5984L95.9598 51.629M95.9598 51.629L82.2879 56.5383M82.2879 56.5383L74.9598 32.9546M82.2879 56.5383L65.3405 67.2749M157.698 38.4796L147.567 60.8975M147.567 60.8975L161.111 72.1395M65.3405 67.2749L53.4803 46.5625M65.3405 67.2749L54.8502 78.8218M161.111 72.1395L174.865 52.728M54.8502 78.8218L40.1843 61.1974M54.8502 78.8218L49.8598 89.1178M60.284 98.8064L49.8598 89.1178M49.8598 89.1178L33.8592 74.2473" stroke="url(#paint0_linear_317_48)" stroke-linecap="round" stroke-linejoin="round"/>
<defs>
<linearGradient id="paint0_linear_317_48" x1="88.4916" y1="191.384" x2="201.759" y2="48.6077" gradientUnits="userSpaceOnUse">
<stop stop-color="#FF6D44"/>
<stop offset="0.296875" stop-color="#FFA959"/>
<stop offset="1" stop-color="#E7E7E8"/>
</linearGradient>
</defs>
</svg>
