<svg width="1379" height="506" viewBox="0 0 1379 506" fill="none" xmlns="http://www.w3.org/2000/svg">
<path d="M139.91 362.28L175.287 220.917L207.027 197.36L235.574 201.051M1124.8 483.471L996.623 502.143L989.499 504.645M233.035 115.331L166.891 18.3954M166.891 18.3954L114.41 1L85.8454 31.0495M166.891 18.3954L218.056 153.449M1246.04 397.025L1284.88 498.749M2.05513 477.53L40.3495 478.164L93.4545 452.168M93.4545 452.168L139.398 422.195L224.983 430.899L259.842 411.101M93.4545 452.168L2.61218 450.779L2.05513 451.018M93.4545 452.168L654.897 460.762L751.295 461.061L848.53 450.093L946.61 437.645L1045.55 439.802M1045.55 439.802L1145.35 421.844L1246.04 397.025M1045.55 439.802L1063.46 469.677M1045.55 439.802L1026.55 375.099L1010.04 360.475M1214.08 374.086L1227.35 388.768L1291.37 389.668M1214.08 374.086L1262.7 374.628L1291.37 389.668M1214.08 374.086L1158.42 311.491L1177.38 373.85M1291.37 389.668L1314.05 389.936M1291.37 389.668L1304.1 396.346M1010.91 216.236L1010.98 216.081L1011.22 215.727L1012.19 214.076L1012.33 212.995L1015.08 206.724L1015.33 206.136L1049.36 128.409M1377.18 299.638L1369.31 296.944L1347.07 267.331L1326.42 175.302L1368.32 228.745L1373.21 234.993L1374.6 236.755L1377.12 238.831L1377.18 238.887M1377.18 500.276L1284.88 498.749M1284.88 498.749L1292.79 504.644M1284.88 498.749L1175.75 472.246L1108.89 474.977L1093.69 468.99L1037.51 470.268L960.577 453.956L854.5 478.982L749.411 488.576L645.299 487.191L542.146 486.464L530.453 504.644M924.163 393.033L838.933 415.137L754.343 417.615M924.163 393.033L934.604 417.618L946.614 437.645L960.576 453.955L977.006 471.645L996.626 502.141L997.546 504.643M924.163 393.033L915.002 389.996L906.9 385.136L899.682 370.58M924.163 393.033L981.359 371.348M754.343 417.615L587.055 415.459L574.144 435.872L485.816 434.613M754.343 417.615L751.3 461.06L748.318 504.643M754.343 417.615L756.688 383.364M485.816 434.613L398.187 433.365L311.247 429.859L277.446 454.984L204.014 504.643M485.816 434.613L421.77 504.643M485.816 434.613L535.076 380.751L756.688 383.364M1036.51 269.723L1077.74 193.843M1024.93 270.423L1067.65 208.856L1058.21 155.398L1049.36 128.409L1058.89 114.931M1058.89 114.931L1060.28 112.96M1058.89 114.931L1039.61 97.821L1018.63 95.5288L997.683 122.702L1001.29 149.484M1060.28 112.96L1077.25 88.9563M1060.28 112.96L1056.14 72.0919M1077.25 88.9563L1077.54 88.5503L1077.69 88.334L1090.56 70.1209M1077.25 88.9563L1076.84 87.7287L1072.19 83.9646L1071.59 83.8213L1056.14 72.0919M1202.28 360.801L1237.05 361.169L1262.7 374.628L1336.53 375.451M1336.53 375.451L1336.61 375.402L1356.72 362.435M1336.53 375.451L1297.39 400.679M2.05513 165.589L34.6076 102.284M34.6076 102.284L104.718 141.646L175.284 220.917L246.306 339.482M34.6076 102.284L73.5571 95.6412L140.086 90.145M34.6076 102.284L2.05513 106.793M140.086 90.145L171.907 133.152L235.57 201.051L290.088 323.155M140.086 90.145L207.023 197.36L274.372 333.461M290.088 323.155L322.418 340.088L343.139 329.946L362.047 314.615L418.13 321.204L474.5 321.72L487.162 304.648L498.799 292.374L550.918 303.643M290.088 323.155L296.749 338.074M550.918 303.643L603.283 306.166L616.178 292.067L621.924 283.476L627.267 279.94L641.272 264.628M550.918 303.643L541.456 305.153L531.157 322.24L519.909 331.64M550.918 303.643L559.643 298.435L600.418 264.361M641.272 264.628L600.418 264.361M641.272 264.628L652.848 251.971M641.272 264.628L806.198 265.706M652.848 251.971L656.272 248.226M652.848 251.971L615.51 251.748L600.418 264.361M652.848 251.971L690.31 252.195M656.272 248.226L619.977 248.016L615.51 251.749L504.243 251.085L467.402 233.837L430.68 169.264L425.406 163.216M656.272 248.226L673.363 229.538M656.272 248.226L802.644 249.075M673.363 229.538L680.185 222.08L682.258 217.721L684.243 215.809L686.145 212.399L687.969 204.965L689.719 196.802L690.913 190.705L693.015 190.49L718.167 199.956M673.363 229.538L522.934 228.793M673.363 229.538L735.806 229.848L767.159 229.65L797.798 225.536M718.167 199.956L717.046 202.683L715.882 207.917L714.668 213.569L713.405 215.502L712.085 216.133L710.709 218.553L709.272 222.213M718.167 199.956L734.146 204.684L743.672 206.678L768.638 207.661L776.585 205.503L793.25 202.251L793.593 202.239L793.96 202.789L794.34 205.616L795.15 212.366L795.58 213.583L796.029 217.448L796.498 220.328L796.988 221.839L797.5 224.069L798.315 225.466L799.191 228.601L799.811 233.82L800.463 238.252M800.463 238.252L801.151 242.095L801.877 244.997L802.644 249.075M800.463 238.252L766.566 238.696L699.075 238.336L697.059 241.523M800.463 238.252L834.464 231.665L858.582 232.031M802.644 249.075L803.454 252.18M802.644 249.075L839.537 249.289L876.55 243.469M803.454 252.18L804.314 256.892L805.228 260.396L806.198 265.706M803.454 252.18L765.613 252.433L727.898 252.419L690.31 252.195M803.454 252.18L841.424 253.096L879.522 253.324M806.198 265.706L847.812 265.695L889.579 262.734M806.198 265.706L810.793 287.198L812.159 289.9L861.695 293.975L865.13 300.902L866.746 301.114L872.882 300.007L929.084 297.149M929.084 297.149L936.019 306.218M929.084 297.149L985.51 275.69L995.064 272.23M995.064 272.23L1023.63 270.501M995.064 272.23L936.019 306.218M1023.63 270.501L1015.81 209.868M1023.63 270.501L1054.42 268.639L1055.78 269.803L1067.65 290.157M1067.65 290.157L1082.2 292.742L1129.47 327.31M1067.65 290.157L1005.46 292.745L960.173 324.197L951.945 326.524L887.377 336.74L823.176 345.126L759.339 344.335L695.864 343.709L632.746 343.21L569.982 342.579M1067.65 290.157L1130.18 293.324L1193.06 296.909L1227.46 319.649M974.857 373.814L906.901 385.136L756.688 383.364M756.688 383.364L759.344 344.334L760.063 333.943L761.32 315.481L762.377 299.495L762.846 292.694L763.686 280.925L765.052 260.907M1202.63 504.644L1175.75 472.246L1145.35 421.845L1119.24 359.942L1096.56 359.063L1060.03 359.66M1104.92 164.266L1100.76 136.244L1090.55 70.1209L1109.39 84.6011L1109.94 85.0216L1131.92 101.914L1173.42 104.383L1215.07 90.1812M1104.92 164.266L1123.27 144.284L1135.73 138.951L1183.11 163.57M1104.92 164.266L1077.74 193.843M1008.4 164.611L1030.23 105.193M1015.81 209.868L1013.4 212.999L1012.19 214.076L1011.22 215.727L1010.91 216.236L973.579 264.723L931.501 266.525L889.578 262.735L886.018 257.399L882.976 257.305L882.61 257.293L879.522 253.324M1015.81 209.868L1058.21 155.398L1100.76 136.244L1143.47 121.614L1186.34 133.777L1200.13 125.008M1183.11 163.57L1198.29 222.183L1227.07 259.756M1183.11 163.57L1230.68 192.121L1278.46 185.636M972.759 198.681L969.011 138.493L965.509 133.237L965.343 132.99M1288.08 183.562L1278.46 185.636M1288.08 183.562L1260.96 131.318L1278.46 185.636M1288.08 183.562L1311.72 178.467M1183.42 296.357L1179.12 291.31L1163.55 269.167L1149.13 194.617L1135.73 138.951L1088.56 239.521L1056.2 269.422M1294.84 262.783L1278.46 185.636M362.048 314.615L306.186 303.716L250.73 189.391L237.491 204.12M1083.48 352.449L1029.5 335.325L961.149 358.253L559.533 354.006M559.533 354.006L493.976 353.312M559.533 354.006L569.982 342.579M559.533 354.006L535.071 380.751L462.17 379.893M493.976 353.312L507.57 341.951M493.976 353.312L364.017 351.938L317.792 378.19M493.976 353.312L462.17 379.893M317.792 378.19L259.842 411.101M317.792 378.19L246.306 339.482M317.792 378.19L462.17 379.893M259.842 411.101L179.537 410.031M259.842 411.101L422.235 413.264L462.17 379.893M1214.64 260.556L1198.28 222.182L1149.13 194.616L1100.17 282.712M1193.06 296.909L1213.95 349.056L1237.05 361.17L1356.72 362.435M1356.72 362.435L1360.18 360.213M1260.96 131.318L1245.08 141.492L1214.88 162.171M1214.88 162.171L1230.68 192.122L1242.6 258.417M1214.88 162.171L1172.8 158.21M1095.46 345.9L1082.2 292.742M1095.46 345.9L1076.7 356.156M1095.46 345.9L1140.59 321.231M166.888 18.3954L140.529 25.6088M140.529 25.6088L85.8434 31.0492L54.6967 52.6071L19.574 92.0663M140.529 25.6088L195.491 133.524L219.624 157.596L272.614 201.627M140.53 25.6089L111.782 42.42L54.6979 52.6071M54.6979 52.6071L20.2295 92.5112L1 107.241V504.249M54.6979 52.6071L36.9541 101.131M100.017 93.4566L111.783 42.4211L169.166 114.541M1118.73 292.744L1163.55 269.168L1214.64 260.557L1232.3 259.42L1251.44 292.599L1271.28 318.746M861.697 293.976L935.915 294.554M65.1777 282.899L20.6761 261.858M1285.74 254.212L1307.17 297.083M1215.07 90.1812L1229.21 135.67M1215.07 90.1812L1256.88 113.937L1298.83 150.776L1299.96 154.505L1300.61 154.588L1311.72 178.467M1355.9 329.794L1336.59 300.31L1330.47 290.962M409.985 219.299L395.294 241.676M395.294 241.676L379.369 272.231L362.05 314.615M395.294 241.676L343.901 213.424M395.294 241.676L446.927 278.89L493.967 291.116L498.934 291.765L501.3 292.622M1330.46 290.962L1326.39 292.474L1307.17 297.085L1251.44 292.598L1208.35 307.017M302.917 308.865L343.142 329.946L460.674 331.072L474.503 321.721L588.109 322.761L596.018 314.112L705.946 315.076L761.318 315.481L816.963 310.098L864.051 301.601M306.352 303.632L325.863 263.919L343.901 213.424M343.901 213.424L360.545 157.473M343.901 213.424L292.745 114.53M1163.27 504.644L1124.8 483.471L1093.69 468.989M139.783 362.772L99.8152 346.01M99.8152 346.01L20.6747 261.859L2.05513 232.227M99.8152 346.01L179.537 410.031M1305.7 273.005L1347.06 267.33L1377.18 260.085M946.769 249.757L917.751 237.254M917.751 237.254L879.524 253.323M917.751 237.254L913.687 227.569L909.849 218.848L906.217 207.869L902.776 203.521L900.482 205.244L899.51 205.895L866.178 213.634L832.947 222.849L799.813 233.82L766.775 235.652L635.592 234.969L631.992 237.977L598.598 237.799L583.8 247.806M917.751 237.254L922.058 248.335L926.633 261.932L948.18 282.259M1014.15 168.042L1034.98 132.317L1030.23 105.193L1047.96 131.609M1056.14 72.0919L1035.45 65.8351M886.024 257.398L926.637 261.931L944.025 251.418M412.841 221.943L420.545 226.718L458.332 254.767L572.472 255.467M572.472 255.467L726.5 256.413L765.341 256.408L804.316 256.892L836.539 257.09L845.552 256.138L882.612 257.292M572.472 255.467L552.712 268.83L469.146 268.266M572.472 255.467L583.8 247.806M619.58 154.332L602.858 117.832L600.365 110.848L611.184 142.863M882.979 257.305L922.06 248.336L944.023 251.419L967.396 237.288L1005.53 223.225M1214.87 162.172L1200.13 125.008M1200.13 125.008L1245.07 141.492L1260.95 131.318M1227.46 319.649L1266.64 319.993M1227.46 319.649L1239.16 327.387L1266.64 319.993M1266.64 319.993L1279.03 316.66L1316.68 297.852L1326.39 292.474L1330.46 290.962L1377.18 314.997M1011.93 213.933L1000.1 207.766L966.47 196.591L947.767 185.293L947.457 185.105L932.942 176.338L937.09 186.343L941.461 196.144L946.074 218.895L950.95 226.137L954.489 245.092M953.109 382.057L915.002 389.995L835.011 397.772L755.585 399.424L598.402 397.513M598.402 397.513L587.053 415.458L422.239 413.262L312.891 504.642M598.402 397.513L366.712 394.541M598.402 397.513L617.429 367.433M1200.14 125.008L1181.85 159.063M1360.18 360.213L1377.18 393.479M1360.18 360.213L1377.18 372.936M1131.31 101.443L1159.97 80.6945L1161.28 79.7416M1008.19 361.177L971.366 363.174M1008.19 361.177L981.359 371.348M1008.19 361.177L1010.04 360.475L1060.04 359.66L1076.7 356.156M971.366 363.174L899.682 370.58M971.366 363.174L961.153 358.251L951.949 326.523M971.366 363.174L981.359 371.348M899.682 370.58L828.452 369.787M899.682 370.58L893.212 357.533L887.381 336.739L882.096 331.771L820.914 333.167L760.062 333.943L639.342 332.785L617.429 367.433M828.452 369.787L831.543 384.247L835.011 397.774L838.932 415.138L843.398 435.069L848.534 450.094L854.498 478.982L860.947 504.644M828.452 369.787L617.429 367.433M828.452 369.787L823.179 345.127L820.914 333.168L818.851 321.985L816.964 310.099L815.233 303.762M617.429 367.433L410.322 365.124L389.748 379.037L366.712 394.541M366.712 394.541L340.744 412.178L311.246 429.859L224.987 430.898L95.1355 504.643M366.712 394.541L214.909 392.717L139.38 362.336L65.1795 282.899L104.722 141.645L140.089 90.145M1294.98 312.37L1319.85 339.312M1319.85 339.312L1377.18 339.861M1319.85 339.312L1256.28 338.701M1319.85 339.312L1347.25 350.397L1377.18 350.698M556.662 95.2574L553.362 135.049L550.747 171.157M1347.62 404.254L1377.18 424.065M966.465 196.59L971.754 206.058L973.271 206.941L976.806 208.14L977.605 208.316M977.605 208.316L976.776 208.036M977.605 208.316L1002.84 213.88M924.693 183.627L903.36 177.102L880.293 195.578L878.36 195.711L850.698 198.016L823.104 209.801L805.755 212.186L795.148 212.367L768.257 213.86L741.431 213.796L714.666 213.571L687.967 204.967L661.332 195.341L634.759 186.943L608.25 192.882L604.764 196.695L601.13 217.275L593.373 221.68L589.229 222.48L584.891 226.496L554.772 222.869L549.512 228.925L487.762 259.153L452.791 258.932M220.878 155.942L241.83 128.222L292.747 114.532L311.325 114.068L360.546 157.475L409.986 219.301L419.942 228.517M419.942 228.517L420.546 226.719L430.683 169.265L440.255 163.068M419.942 228.517L459.65 265.275L499.068 291.159L519.465 291.316L552.714 268.831L1001.23 271.858M867.803 300.925L865.134 300.903L813.638 296.65L762.377 299.496L711.349 299.301L660.553 299.251L525.56 298.16M1021.41 129.211L1018.63 95.529L1014.8 80.8177M1014.8 80.8177L1031.42 65.8621M1014.8 80.8177L1028.55 70.8434M1014.8 80.8177L994.186 114.97M499.117 205.319L504.216 172.309L509.13 154.282L493.576 168.161M536.44 111.574L533.883 108.028L536.956 111.158L553.366 135.048L572.883 148.253L582.273 151.918M460.854 181.476L456.979 185.116M1339.21 130.667L1312.65 148.65M1312.65 148.65L1304.59 159.523M1312.65 148.65L1323.58 150.385L1350.7 163.693L1358.06 194.965M1312.65 148.65L1302.14 153.494M1267.56 144.036L1256.88 113.936M241.828 128.221L210.218 132.766M169.166 114.541L184.885 142.176M169.166 114.541L195.494 133.525L250.732 189.391L272.616 201.628L325.864 263.921L379.37 272.232L433.137 307.644M20.6743 261.858L2.05513 287.264M1303.4 180.26L1299.97 154.503L1298.84 150.774M1130.19 293.325L1140.59 321.231M1140.59 321.231L1158.42 311.491M1329.16 178.783L1323.59 150.387M471.055 143.432L469.418 145.771L460.713 159.367L455.509 167.385M471.055 143.432L495.018 134.771L507.535 128.488L507.773 128.37L514.432 125.029M471.055 143.432L466.331 157.608L461.458 176.294L457.065 179.586M898.105 181.017L895.822 152.945L893.5 132.816M940.565 123.42L918.615 120.787L893.5 132.818M1186.34 133.777L1173.42 104.383L1161.28 79.7416M464.234 177.912L476.655 154.374L477.038 153.647L497.685 145.107L495.817 158.355M533.878 108.028L514.429 125.027L510.544 151.71M1042.97 358.342L1029.5 335.324L1016.89 308.162L1005.46 292.744L995.066 272.231M608.166 148.315L595.156 125.071M595.156 125.071L591.306 122.41L589.066 121.766M595.156 125.071L597.8 121.623L600.367 110.848M595.156 125.071L593.407 144.852M1256.28 338.701L1280.41 349.725M1256.28 338.701L1239.16 327.388M1280.41 349.725L1347.25 350.396L1377.18 362.513M1280.41 349.725L1213.95 349.056L1189.05 345.934M1280.41 349.725L1336.61 375.403M812.163 289.901L813.637 296.65L815.233 303.762M815.233 303.762L761.869 307.142L708.758 306.736L655.899 306.609L603.287 306.167L596.02 314.113L541.46 305.154L487.166 304.649L433.137 307.644M815.233 303.762L864.053 301.602L866.75 301.115M872.881 300.007L877.279 322.679L882.091 331.772L908.222 333.441M1042.66 123.714L1039.61 97.8211L1035.45 65.8351M818.155 220.377L796.745 221.084L767.831 220.199L739.234 220.07L710.711 218.555L682.26 217.722L653.881 219.684L645.379 226.789L615.097 226.642L603.034 234.799L512.511 234.327M805.762 212.185L795.585 213.583L768.127 215.917L740.736 215.788L713.411 215.503L686.151 212.399L658.959 208.113M658.959 208.113L631.832 206.307L604.771 196.695L577.776 211.417L573.569 217.152L546.07 215.628M658.959 208.113L656.475 215.101M658.959 208.113L661.338 195.34L663.622 179.519M546.07 215.628L518.639 216.909L493.227 216.797M546.07 215.628L541.612 218.022M546.07 215.628L550.845 214.976L555.427 213.006L559.416 211.475L567.631 204.221L567.667 204.19L585.683 188.283M1054.42 268.64L1055.78 269.804L1089.48 284.091L1107.86 292.194M685.255 170.258L662.438 159.967L660.556 166.54L658.889 179.452M1138.07 504.643L1124.8 483.47M477.879 212.678L555.422 213.006L559.411 211.475L566.72 209.31L581.805 204.374M581.805 204.374L585.678 188.283L611.598 176.432M581.805 204.374L577.771 211.417L550.841 214.977L497.177 214.745M581.805 204.374L608.251 192.882L611.598 176.432M611.598 176.432L637.578 179.147L663.618 179.519L675.465 187.364M366.19 115.958L390.773 113.599L385.091 118.94M366.19 115.958L347.323 130.072L327.836 128.628M366.19 115.958L385.091 118.94M556.666 95.2574L537.471 110.743M476.549 154.407L466.329 157.608L448.399 173.807M952.462 288.26L858.512 287.556M858.512 287.556L810.794 287.199L763.279 286.555L668.844 286.136L621.925 283.477L575.203 285.435L504.742 284.907M858.512 287.556L861.696 293.976M858.512 287.556L850.222 270.839L847.812 265.696L845.552 256.139M982.245 276.934L501.99 273.582M501.99 273.582L478.355 273.417M501.99 273.582L492.507 278.965L491.898 279.313M501.99 273.582L526.96 259.4L765.052 260.907M1037.51 155.466L1034.98 132.318L1044.53 139.424M550.817 85.1086L539.089 105.11M769.184 200.405L792.106 198.43L792.321 197.688L801.304 196.611M964.876 132.792L943.781 123.806L947.094 179.139L947.761 185.292M1146.78 144.689L1143.48 121.613L1131.92 101.913M769.282 198.87L792.108 198.428M769.282 198.87L769.186 200.403L768.981 203.407L768.872 204.829L768.759 206.087L768.643 207.66L768.395 211.619L768.263 213.858L768.126 215.916L767.983 217.932L767.833 220.197L767.514 224.874M769.282 198.87L769.377 197.585L769.468 196.226L769.555 194.993L769.639 193.74L769.723 192.547L769.878 190.254L769.954 189.159L770.026 188.098L770.231 185.093M792.108 198.428L798.396 198.08M792.108 198.428L792.577 200.315L793.197 201.465L793.245 202.213M792.108 198.428L791.662 197.684L746.655 198.804M941.665 328.15L936.019 306.218M936.019 306.218L877.281 322.678L818.847 321.984L760.715 324.307L645.346 323.287M1031.42 65.8621L1035.45 65.8351M1031.42 65.8621L1028.55 70.8434M747.132 197.528L769.419 196.906L791.236 195.71L804.271 195.111M1347.08 297.191L1369.31 296.944L1377.18 283.746M1015.08 206.724L998.605 202.067L976.939 200.071M1350.7 163.694L1339.22 130.667L1328.17 112.049M1377.18 326.806L1355.91 329.794M457.652 263.428L600.418 264.361M923.979 183.406L921.428 163.096L918.611 120.786L915.901 116.78M425.406 163.216L440.253 163.068L448.091 173.402M425.406 163.216L394.081 127.296L394.054 127.485L385.12 188.207M876.55 243.469L913.686 227.57L950.945 226.137L967.97 237.075M876.55 243.469L873.742 226.968M876.55 243.469L879.522 253.324M473.71 207.172L543.29 207.451L547.663 205.774L566.057 204.316M1096.57 359.063L1076.7 356.156M1077.69 88.3329L1076.83 87.7277L1072.19 83.9636L1056.14 72.0904M769.951 189.159L789.85 189.222M970.702 197.997L947.097 179.138L921.43 163.095L895.821 152.946L870.27 161.333L844.777 179.756L819.341 194.651L813.793 196.431L793.779 202.514L793.253 202.251L781.666 203.456L768.925 204.119L745.373 202.555L725.766 201.718M344.382 143.22L360.059 131.142L366.189 115.958M653.883 219.683L578.303 219.342M732.21 185.955L750.996 186.503L770.131 186.569L808.008 185.696L815.058 184.563M1006.53 163.501L1015.02 146.576M751.51 184.84L770.231 185.093M770.231 185.093L788.983 185.153M770.231 185.093L770.295 183.961L770.358 183.164L770.419 182.118M788.983 185.153L807.765 185.208M788.983 185.153L788.78 184.209L788.584 183.253L788.393 181.115L788.207 179.913M788.983 185.153L789.19 186.125L789.405 187.127L790.329 191.448L790.578 192.616L790.836 193.315L791.102 195.066L791.376 196.353L792.261 199.126M314.199 341.669L322.422 340.089L383.795 340.706L418.134 321.205L433.137 307.644M433.137 307.644L446.928 278.891L459.65 265.274M639.084 504.644L645.3 487.191L654.903 460.763L691.82 355.391L695.87 343.71L699.543 333.364L705.95 315.077L708.761 306.736L711.351 299.302L713.747 292.243L715.966 286.367L718.031 280.597L739.24 220.07L740.004 217.693L740.737 215.789L741.439 213.796L742.112 211.426L742.758 209.386L743.38 207.415L743.979 205.944L744.554 204.695L745.109 203.319L745.643 201.793L746.159 200.282L746.657 198.805L747.138 197.529L748.052 194.921L748.486 193.573L748.906 192.48L749.71 190.191L750.823 187.01L751.173 185.994L751.512 184.842L751.842 183.876L752.163 182.911L752.475 181.872L752.779 181.05M1021.09 192.993L1019.63 185.902L1015 168.549L990.143 153.721L980.617 145.759M980.617 145.759L980.039 138.818M980.617 145.759L965.593 133.199L965.342 132.989L948.144 126.345L943.783 123.805L940.562 123.419L915.902 116.78L868.438 150.728M868.438 150.728L870.269 161.334L872.171 188.353L873.817 196.089M868.438 150.728L859.601 157.176M859.601 157.176L859.405 155.531M859.601 157.176L843.436 168.969L836.379 174.724M836.379 174.724L830.886 179.204M836.379 174.724L825.125 175.406M830.886 179.204L825.841 179.55L807.066 182.504L788.582 183.253L751.837 183.875L733.702 181.414M830.886 179.204L827.435 182.018M827.435 182.018L827.397 182.048L827.299 182.129L820.437 187.098L818.2 188.78L817.668 188.405L816.877 188.742L815.767 189.304L813.879 190.394L812.157 191.519L811.08 191.897L809.089 192.676M827.435 182.018L827.395 182.044L817.658 188.246L817.62 188.353L818.488 189.315L820.225 200.206L821.148 206.21L822.446 209.893L824.152 212.806L825.095 219.368M809.089 192.676L807.553 193.77L806.549 195.118L803.104 196.96L798.608 198.569L795.653 199.465M809.089 192.676L790.704 192.965L769.594 194.366L747.822 195.561L725.772 195.368L703.99 189.161L682.25 178.139L660.552 166.539L638.897 166.728L636.669 165.691L633.766 166.724L631.716 164.283L630.329 164.342L611.836 149.177L593.406 144.852L588.997 144.52L567.257 168.426L563.613 175.055L559.961 197.799L555.927 198.915L551.871 204.16L547.661 205.775L523.363 205.68L499.118 205.32L474.926 204.167M795.653 199.465L792.575 200.315L789.598 200.513L769.133 201.141L746.403 199.542L724.504 197.976L706.513 195.57M795.653 199.465L792.903 200.854M846.407 166.802L842.489 167.194L824.429 170.93M493.725 246.159L511.793 247.388L547.738 247.596L559.759 240.769L697.059 241.523M697.059 241.523L801.151 242.094L836.064 236.915L858.582 232.031M697.059 241.523L690.31 252.195M858.582 232.031L866.798 230.251L873.742 226.968M1067.65 208.855L1077.74 193.843M1077.74 193.843L1088.55 239.521L1100.17 282.712M894.958 183.357L872.17 188.354L846.168 193.948M846.168 193.948L820.224 200.206L794.341 205.617L768.518 209.6L742.753 209.386L717.047 202.685L691.4 190.906L675.465 187.364M846.168 193.948L846.732 199.711M846.168 193.948L844.775 179.757L843.435 168.97M675.465 187.364L689.72 196.802L715.883 207.918L742.106 211.425L768.391 211.62L821.147 206.21L829.617 207.021M497.177 214.745L479.39 214.667M497.177 214.745L492.135 216.49M497.177 214.745L513.504 209.093M752.771 181.049L770.473 181.164L788.202 179.914L805.96 175.965L822.167 171.739M1326.02 292.128L1285.74 254.212L1232.3 259.419L1179.11 291.309L1161.85 295.128M478.555 237.241L484.066 220.832M1377.18 212.757L1366.4 226.295M1292.05 139.719L1296.56 145.873L1298.49 148.505L1302.15 153.495M1302.15 153.495L1301.11 154.23M1302.15 153.495L1328.18 112.049M715.246 186.902L731.251 187.465L769.912 189.708L789.966 189.771L809.519 188.753L817.656 188.246M765.052 260.907L765.343 256.408L765.617 252.432L765.876 248.861L766.975 232.708L767.164 229.649L767.343 227.337M765.052 260.907L805.233 260.395L836.542 257.089M767.343 227.337L767.514 224.874M767.343 227.337L736.729 227.231L706.198 227.082M767.343 227.337L797.802 225.536L798.035 225.505L798.605 225.428L803.584 224.289M767.514 224.874L797.504 224.068L803.584 224.289M767.514 224.874L618.751 224.172M770.419 182.118L770.479 181.163M770.419 182.118L752.624 181.458L735.103 178.191L734.557 178.718L733.994 180.795L733.415 182.03L732.821 184.099L732.209 185.953L731.579 186.95L730.929 187.976L729.571 190.124L729.061 190.904L728.125 190.857L727.368 191.322L714.37 186.897L712.565 187.148L711.648 187.68L705.726 184.708L704.43 182.918L697.389 178.268L697.278 178.196L685.254 170.256L676.157 169.421L662.437 159.966L641.136 160.852L635.707 165.063M770.419 182.118L788.394 181.114L806.397 177.392L824.43 170.928L841.565 161.286L859.408 155.53L860.683 156.388M868.235 229.573L866.182 213.634L863.911 207.139M863.911 207.139L848.631 212.183M863.911 207.139L896.408 204.529L899.513 205.895L900.423 205.233L902.659 203.371L906.959 199.311L906.991 199.282L932.941 176.337M700.029 180.015L715.852 179.659M715.852 179.659L733.702 181.414M715.852 179.659L716.664 174.929L717.454 173.933M715.852 179.659L715.018 181.53M733.702 181.414L752.158 182.909M733.702 181.414L715.018 181.53M1015 168.549L1029.54 173.684M575.89 114.616L572.877 148.253L571.731 163.503M1001.29 149.484L980.042 138.817L976.776 128.386L965.596 133.198M1001.29 149.484L1015.45 145.435M1001.29 149.484L1002.24 160.934M549.002 99.5544L550.819 85.1086M566.184 204.215L551.875 204.161L528.023 192.95L504.222 172.31L480.471 163.051L463.83 178.682L460.43 181.263L450.181 176.149M1363.15 303.221L1373.41 305.009M1363.15 303.221L1365.66 304.946L1377.18 312.914M1363.15 303.221L1351.89 301.988M1373.41 305.009L1377.18 305.039M1373.41 305.009L1377.18 305.667M532.508 163.084L555.93 198.916L569.915 201.166M1377.18 362.651L1363.23 362.503M498.988 227.912L512.508 227.391L544 231.627L734.848 232.596L766.975 232.71L799.194 228.603L823.843 220.39L825.138 219.657L830.132 218.217L831.505 217.838M385.091 118.94L382.628 132.179M385.091 118.94L393.927 127.362M475.043 208.937L513.504 209.093M513.504 209.093L538.744 209.196L543.288 207.453L562.126 207.529M513.504 209.093L523.363 205.681L528.019 192.95L532.505 163.084M410.235 139.807L428.128 147.939L435.2 159.148L440.257 163.067L446.253 175.833L449.311 180.997L484.07 220.832L513.836 240.518M611.838 149.178L608.972 165.234M608.972 165.234L607.336 178.38M608.972 165.234L631.026 164.312L632.369 165.728L633.698 166.773L635.122 168.565L644.503 179.245M608.972 165.234L586.271 161.556M803.584 224.289L821.786 220.125M618.751 224.172L615.099 226.641L584.897 226.495L565.308 237.621L518.934 237.372M618.751 224.172L589.235 222.479L559.796 216.473L530.436 218.975L524.739 225.711L512.113 225.858L488.106 215.349L481.922 218.002M618.751 224.172L628.77 217.397M852.218 210.998L850.703 198.014M732.456 203.271L744.829 204.007L768.816 205.46L776.589 205.504L793.78 202.515L802.676 197.526M907.415 126.152L915.906 116.78M342.626 141.67L347.324 130.073L339.814 139.19M718.625 187.94L730.593 188.507L769.838 190.82L790.205 190.884L810.057 189.835L815.767 189.305M557.748 211.105L534.021 211.008L513.061 219.047L500.986 218.993M821.786 220.125L818.159 220.377L796.749 221.084L767.678 222.484L709.278 222.215L706.198 227.082M821.786 220.125L825.139 219.655L830.877 218.046L831.507 217.836L848.631 212.183M706.198 227.082L645.383 226.789L635.595 234.969L603.039 234.799L598.602 237.799L565.31 237.622L559.764 240.771L513.836 240.518M706.198 227.082L699.08 238.336L631.995 237.977L624.204 244.487L518.939 243.894L513.836 240.518M593.55 120.264L600.368 110.848L586.468 117.998L584.703 117.433M637.581 179.147L634.764 186.942L631.83 206.307L628.77 217.397M628.77 217.397L656.475 215.101M628.77 217.397L573.568 217.151L571.309 218.257M358.523 142.453L360.056 131.143M433.188 157.592L428.127 147.939L412.618 141.655M1089.48 284.091L1100.17 282.712M1100.17 282.712L1109.21 292.261M715.018 181.53L704.427 182.919M715.018 181.53L714.16 184.931M489.694 143.918L489.889 143.582L495.016 134.77L490.728 143.944L487.525 149.31M367.515 138.622L360.062 131.143M791.372 196.353L801.739 196.389M499.282 147.639L508.785 151.745M873.742 226.968L875.638 226.541L877.423 225.125L891.638 212.853L899.793 206.02L900.48 205.243L901.431 204.194L902.654 203.37L907.309 201.251L937.084 186.342L971.5 205.605L976.776 208.036M558.306 173.447L567.258 168.427M879.493 205.888L878.365 195.711M530.181 151.322L526.71 160.902M394.083 127.296L393.926 127.362L357.604 142.845M357.604 142.845L354.923 152.517M357.604 142.845L353.625 151.371M1035.45 65.8351L1028.55 70.8434M994.186 114.97L973.611 128.337L964.88 132.792M994.186 114.97L997.682 122.703M259.824 121.852L264.215 113.379M1368.32 228.745L1377.18 232.013M382.885 118.592L390.768 113.599L407.646 137.806M714.866 198.712L723.623 199.466L745.898 201.037L769.031 202.643L782.829 201.93L793.195 201.465L798.609 198.569L801.305 196.609L801.743 196.389L803.904 195.753L806.55 195.118L809.791 193.83L816.395 190.401L818.201 188.78L820.438 187.098L827.3 182.129M1353.78 200.121L1346.83 194.801M1353.78 200.121L1351.37 203.009M1353.78 200.121L1377.18 172.017M685.249 170.258L683.774 174.673L682.249 178.139L681.259 186.751M234.458 117.42L239.595 110.509M1359.77 217.852L1351.36 203.009L1350.99 202.751L1344.48 198.341M709.275 222.213L585.126 221.64M568.107 106.779L568.939 98.6264M722.111 189.009L729.917 189.579L749.708 190.189M291.591 114.842L288.897 113.151L264.222 113.378L239.599 110.508L233.038 115.331M249.191 126.241L251.078 118.338M948.18 282.259L953.944 287.695M948.18 282.259L967.865 282.401M948.18 282.259L491.074 278.956M306.248 303.843L298.813 302.298M737.024 204.33L744.261 205.318L768.757 206.088M509.009 221.262L516.49 221.184L530.433 218.974M451.479 257.713L458.33 254.766L467.402 233.836M1350.92 202.635L1346.83 194.801L1339.95 192.552M692.996 175.37L699.837 175.1M699.837 175.1L713.272 174.211L717.06 174.432M699.837 175.1L698.807 177.939L698.331 178.893M717.06 174.432L734.555 178.718L752.316 182.39L770.325 183.562L788.779 184.208L807.067 182.504L825.125 175.406M717.06 174.432L735.102 178.191M717.06 174.432L698.807 177.938L697.388 178.268M825.125 175.406L824.429 170.929M825.125 175.406L825.842 179.549L826.806 181.765L827.396 182.043M656.475 215.101L684.248 215.81L712.09 216.135L740.001 217.692L767.982 217.933L796.033 217.448L824.154 212.806L848.631 212.183M656.475 215.101L653.885 219.684M882.933 192.308L877.229 195.787L877.198 195.806M1000.09 207.765L1002.84 213.88M1002.84 213.88L1011.14 215.71M484.982 221.264L488.107 215.348M967.398 237.288L973.585 264.724L980.183 271.716L985.516 275.691M636.819 165.66L641.137 160.853M1006.73 211.101L1013.15 211.128M1377.18 232.78L1371.03 232.201M476.433 210.767L534.019 211.007L538.744 209.194L559.98 209.28M164.784 118.833L169.163 114.541M1110.85 81.9866L1112.85 87.2559M906.954 199.312L906.09 193.799L903.362 177.102M537.039 218.412L513.064 219.046L508.021 220.981M708.788 184.916L713.72 185.415L750.64 187.524L770.025 188.099L789.514 187.643M789.514 187.643L808.497 186.685L815.056 184.563L827.339 181.639L828.718 180.973M789.514 187.643L809.003 187.703L819.447 187.106M789.514 187.643L770.13 186.569L751.34 185.417L732.82 184.1L714.162 184.932L713.278 185.898L711.972 185.894M639.27 165.752L641.134 160.853M477.643 212.357L493.827 207.253L499.121 205.319M706.289 184.149L705.159 185.27L703.99 189.162L702.98 194.24M975.911 141.823L980.041 138.818M587.9 187.268L582.897 186.757M582.897 186.757L581.883 191.386M582.897 186.757L586.271 161.556M582.897 186.757L559.841 198.555M990.144 153.722L994.292 166.654L1019.63 185.903L1024.55 185.09M604.306 122.504L602.861 117.833M812.161 289.901L762.843 292.696L713.742 292.243L664.854 291.199L616.179 292.068L519.463 291.316L515.446 294.033M425.89 151.939L428.125 147.939M889.582 262.734L893.377 271.129L914.207 297.906M501.835 151.694L506.316 151.793L510.435 152.46L530.179 151.321M501.835 151.694L504.382 155.734M501.835 151.694L497.68 145.107M520.791 227.734L524.736 225.71L554.775 222.868L559.793 216.473M983.461 231.362L982.409 227.296M1373.21 234.992L1377.18 235.163M896.404 204.529L900.283 205.209M1308.89 142.759L1292.05 139.719L1288.93 142.075M725.701 190.113L729.571 190.125M806.96 193.754L790.969 194.191L769.511 195.61L747.368 196.865L724.939 197.256L723.624 199.466L719.319 200.223M480.965 216.742L484.684 216.759M831.504 217.835L832.948 222.848L834.467 231.664L836.066 236.915L837.755 243.983L839.539 249.287L843.066 256.4M505.854 155.286L506.32 151.794L517.77 157.534M474.926 204.167L471.557 204.338M474.926 204.167L472.416 205.472M474.926 204.167L480.467 163.051M636.731 165.755L636.587 165.651L633.266 166.071M462.781 175.89L461.457 176.293L460.479 179.484M676.157 169.423L683.779 174.674L701.259 183.337L705.726 184.711L708.544 184.917L711.415 185.894L712.565 187.151L715.163 188.989L726.585 193.234L748.267 194.248L769.68 193.146L810.613 190.95L813.613 190.394M410.232 139.807L407.649 137.806M1109.94 85.0207L1110.84 81.9866M973.609 128.336L976.773 128.385L997.68 122.701M287.572 115.922L288.894 113.152M1187.76 99.4923L1161.28 79.7416L1149.86 80.9598L1110.84 81.9877L1109.39 84.6015M725.417 190.66L727.745 191.091L748.694 193.025L769.722 192.548M466.479 268.248L469.146 268.266M469.146 268.266L467.91 268.871M469.146 268.266L487.765 259.153L526.956 259.401L547.739 247.598L583.8 247.806M583.8 247.806L619.978 248.017L624.201 244.488L766.117 245.288L801.879 244.998L837.754 243.985L866.8 230.252M842.795 169.49L842.487 167.193L841.562 161.287M724.938 197.255L725.774 195.368L726.583 193.232L727.367 191.322M618.071 153.328L616.811 151.792L597.799 121.624L592.501 121.711L591.304 122.411L589.065 121.767L575.893 114.617L556.663 95.2574M509.065 127.721L507.849 128.018L506.229 129.143M972.784 130.102L973.608 128.337M1010.47 212.988L1012.33 212.995M693.02 190.489L691.404 190.905M722.689 201.003L723.175 200.235L724.072 198.694M2.05513 450.768L2.61218 450.776L54.4786 421.47M54.4786 421.47L99.8158 346.009M54.4786 421.47L2.05513 365.002M54.4786 421.47L139.398 422.194L179.537 410.031M805.963 175.963L806.394 177.392L806.838 181.706L807.294 183.302L807.763 185.207L810.991 191.715M1037.5 470.267L977.007 471.644L868.885 504.642M1311.72 178.467L1326.42 175.3M987.348 229.928L982.407 227.295L976.776 208.036M976.776 208.036L971.753 206.057L941.456 196.142L906.216 207.869L877.577 225.356M586.271 161.556L589.526 143.94L588.473 145.099M586.271 161.556L563.615 175.055L541.26 173.021L536.832 166.937L532.507 163.083L509.133 154.282M1309.36 166.743L1323.58 150.387M516.495 221.185L511.523 221.973M1184.2 504.644L1108.89 474.977M65.1759 282.9L2.05513 201.158M292.747 114.53L272.616 201.626M1082.2 292.741L1016.89 308.161L960.178 324.196M1377.18 337.525L1355.91 329.795L1294.98 312.37L1279.03 316.661M179.537 410.031L214.905 392.717L246.306 339.482M507.57 341.951L569.982 342.579M507.57 341.951L445.508 341.327M507.57 341.951L519.909 331.64M569.982 342.579L579.463 332.212M579.463 332.212L639.338 332.786L645.346 323.287M579.463 332.212L519.909 331.64M579.463 332.212L588.106 322.761L645.346 323.287M645.346 323.287L660.549 299.251L664.852 291.199L668.842 286.136L690.31 252.195M246.306 339.482L274.372 333.461M274.372 333.461L298.875 344.387M298.875 344.387L364.017 351.937L383.791 340.706L445.508 341.327M298.875 344.387L342.135 364.363L410.318 365.123L445.508 341.327M445.508 341.327L460.671 331.072L519.909 331.64M559.074 197.499L541.261 173.021M584.7 117.434L568.94 98.6265L550.814 85.1086M539.092 105.11L533.885 108.029L530.185 151.322L541.058 168.218M880.298 195.577L906.094 193.798L914.675 192.487M606.738 129.703L618.977 153.929M1077.53 88.5502L1076.87 87.8264L1071.59 83.8214M655.578 179.405L638.083 166.736L636.742 165.743L636.146 165.358L619.582 154.333M471.688 235.146L446.838 178.169L446.248 175.834L440.252 163.068M729.042 190.93L732.927 191.232L749.309 191.316L769.799 191.382M732.93 191.232L748.905 192.478M474.822 168.357L477.039 153.647M629.994 178.354L631.583 165.372M515.94 227.533L515.365 227.28L512.312 226.624L507.96 232.166M804.273 195.111L807.555 193.77L810.106 192.681L811.081 191.897L811.386 191.517L813.88 190.394L815.351 189.716L816.077 189.304L817.669 188.405M262.112 122.769L251.08 118.339L238.727 123.672M495.508 146.009L490.731 143.944L471.057 143.432L469.42 145.771L458.258 160.136L448.095 173.402M734.15 204.684L743.377 207.414M643.6 179.234L635.123 168.567M1001.89 208.668L998.603 202.066L994.29 166.654L969.008 138.493L948.142 126.346M982.411 227.297L946.073 218.895L909.852 218.848L875.642 226.542M1376.55 504.249H2.40004M1377.95 171.545V504.248" stroke="url(#paint0_linear_317_53)" stroke-linecap="round" stroke-linejoin="round"/>
<defs>
<linearGradient id="paint0_linear_317_53" x1="742.276" y1="495.277" x2="748.151" y2="1.06984" gradientUnits="userSpaceOnUse">
<stop offset="0.078125" stop-color="#0F0D19" stop-opacity="0"/>
<stop offset="0.3125" stop-color="#4100CC" stop-opacity="0.5"/>
<stop offset="0.833333" stop-color="#FF6D44"/>
</linearGradient>
</defs>
</svg>
