<svg width="215" height="188" viewBox="0 0 215 188" fill="none" xmlns="http://www.w3.org/2000/svg">
<path d="M164.517 32.7764L174.279 46.389M164.517 32.7764L152.004 43.5924M164.517 32.7764L152.486 21.1309M164.517 32.7764L176.908 35.1172M174.279 46.389L181.455 61.5292L185.813 77.7076M174.279 46.389L160.035 54.7918M174.279 46.389L185.079 46.5117M185.813 77.7076L187.212 94.4014M185.813 77.7076L169.523 80.5559M185.813 77.7076L190.668 74.9953M187.212 94.4014L170.676 94.2897M187.212 94.4014L185.609 111.07M187.212 94.4014L195.904 86.6978M142.107 34.0101L152.486 21.1309M152.486 21.1309L138.574 11.8282M152.486 21.1309L160.296 23.4382L171.261 34.0507L180.157 46.4559L186.697 60.2522L190.668 74.9953M130.663 26.3537L138.573 11.8282M152.004 43.5924L145.893 37.6743M152.004 43.5924L160.035 54.7918M118.043 20.8692L123.234 5.16644M118.043 20.8692L121.197 22.24M118.043 20.8692L115.528 20.2808M123.234 5.16644L138.574 11.8282M123.234 5.16644L106.957 1.359M123.234 5.16644L133.634 8.88828L134.993 9.43372L142.342 12.0031M206.966 46.7581L205.224 46.7389M206.966 46.7581L210.602 54.4296L212.809 62.6263M206.966 46.7581L202.018 39.8617M205.224 46.7389L209.049 54.8078L211.37 63.43M205.224 46.7389L200.019 39.4839M205.224 46.7389L201.135 46.6928M201.135 46.6928L198.714 46.6654M201.135 46.6928L205.403 55.6959M201.135 46.6928L195.329 38.5969L188.17 31.6711L181.313 29.6456M198.714 46.6654L195.974 46.6344M198.714 46.6654L203.243 56.2217L205.992 66.4342M198.714 46.6654L192.549 38.0727M195.974 46.6344L192.852 46.5997M195.974 46.6344L200.802 56.8168M195.974 46.6344L189.407 37.4786M192.852 46.5997L189.258 46.5582M192.852 46.5997L198.015 57.4952L201.151 69.1386M192.852 46.5997L185.825 36.8022M189.258 46.5582L185.079 46.5117M189.258 46.5582L194.813 58.2762M189.258 46.5582L181.702 36.0233M185.079 46.5117L191.085 59.1839L194.732 72.7249M185.079 46.5117L176.908 35.1172M160.035 54.7918L165.939 67.2472M210.603 54.4296L205.403 55.6959M205.403 55.6959L207.995 65.3169L208.825 75.2453L207.869 85.1613L205.166 94.7145L205.159 94.744L202.984 97.669L198.337 107.16L195.575 111.089M205.403 55.6959L200.802 56.8168M200.802 56.8168L203.732 67.6979L204.671 78.9269M200.802 56.8168L194.813 58.2762M194.813 58.2762L198.186 70.7969L199.266 83.717M194.813 58.2762L181.457 61.5293L165.939 67.2472M165.939 67.2472L169.524 80.5561L170.676 94.2897M190.668 74.9953L194.732 72.7249M190.668 74.9953L191.942 90.2077L190.48 105.399L185.607 111.07M194.732 72.7249L195.904 86.6978M194.732 72.7249L201.151 69.1386M201.151 69.1386L202.158 81.1537M201.151 69.1386L205.992 66.4342M205.992 66.4342L206.875 76.9727M205.992 66.4342L209.774 64.3217M209.774 64.3217L211.37 63.43M209.774 64.3217L210.558 73.7073L209.654 83.0798L207.247 91.5882L207.092 92.1389M209.774 64.3217L207.324 55.2281L203.29 46.7171L197.801 39.0647L191.034 32.5172L183.208 27.2857L179.89 26.1363L170.758 22.1712M211.37 63.43L212.809 62.6263M211.37 63.43L212.115 72.3281M212.809 62.6263L213.517 71.0856M170.676 94.2897L169.359 108.003M185.609 111.07L169.359 108.003M185.609 111.07L181.055 127.176M169.359 108.003L168.944 109.474M181.056 127.176L165.616 121.255M165.616 121.255L166.139 119.401M165.616 121.255L163.701 125.168M104.652 17.7325L106.957 1.359M104.652 17.7325L115.528 20.2808M104.652 17.7325L90.925 17.0432M106.957 1.359L90.2744 0.525879M159.566 133.617L173.7 142.199M159.566 133.617L159.372 133.881L157.056 137.028M159.566 133.617L160.215 132.293L161.726 129.203L161.869 128.913L162.25 128.132M173.7 142.199L181.055 127.176M173.7 142.199L163.785 155.656M173.7 142.199L179.626 133.769M151.412 144.692L163.785 155.656M151.412 144.692L141.411 154.123M151.412 144.692L154.294 140.778M163.785 155.656L151.628 167.115M90.2744 0.525879L90.925 17.0432M90.2744 0.525879L73.7202 2.69072M90.925 17.0432L77.3028 18.8199M90.925 17.0432L104.182 19.7094M151.628 167.115L141.411 154.123M151.628 167.115L137.627 176.208M141.411 154.123L129.892 161.61M141.411 154.123L150.195 144.644M77.3028 18.8199L73.7202 2.69072M77.3028 18.8199L64.2218 23.005M73.7202 2.69072L57.827 7.78183M137.627 176.208L129.892 161.61M137.627 176.208L122.23 182.644M129.892 161.61L117.224 166.913M129.892 161.61L139.694 151.47L150.195 144.644M122.23 182.644L117.224 166.913M122.23 182.644L105.937 186.223M117.224 166.913L103.815 169.861L90.0968 170.365L76.5094 168.409M117.224 166.913L128.144 156.304M1.35742 101.492L17.7241 100.128M1.35742 101.492L1.43601 84.8042L4.4837 68.3992M1.35742 101.492L4.24983 117.93M17.7241 100.128L37.4309 95.4412M17.7241 100.128L17.7919 86.39M17.7241 100.128L20.1044 113.66M37.4309 95.4412L53.9359 91.5159M37.4309 95.4412L37.4953 82.918M37.4309 95.4412L39.6004 107.776M53.9359 91.5159L67.9591 88.1811M53.9359 91.5159L53.9938 80.01L56.1017 68.7004M53.9359 91.5159L55.9261 102.849L59.9027 113.646M67.9591 88.1811L80.0218 85.3115M67.9591 88.1811L68.0146 77.5395L69.9643 67.0795M67.9591 88.1811L69.7988 98.6621L73.4779 108.649M80.0218 85.3115L80.0745 75.4139L81.8906 65.6848M80.0218 85.3115L81.7344 95.0609M80.0218 85.3115L99.7099 80.6301M99.7099 80.6301L99.7571 71.9458L101.351 63.4099M99.7099 80.6301L101.211 89.1835M99.7099 80.6301L121.593 75.425M121.593 75.425L127.45 74.0329M121.593 75.425L121.635 68.0908M121.593 75.425L122.86 82.65M127.45 74.0329L127.489 67.0584L128.772 60.2045M127.45 74.0329L128.654 80.9007L131.064 87.4452M4.24983 117.93L20.1044 113.66M4.24983 117.93L10.0179 133.59M20.1044 113.66L39.6004 107.776M20.1044 113.66L24.8533 126.552M39.6004 107.776L43.9281 119.529M39.6004 107.776L81.7344 95.0609M81.7344 95.0609L85.1549 104.349M81.7344 95.0609L101.211 89.1835M101.211 89.1835L104.212 97.3327M101.211 89.1835L116.432 84.5901M116.432 84.5901L122.86 82.65M116.432 84.5901L115.096 76.9708L115.14 69.2356M116.432 84.5901L119.106 91.8481L123.031 98.5147L128.081 104.373L134.093 109.238M122.86 82.65L128.655 80.9008M122.86 82.65L125.395 89.5328M77.3016 18.8198L91.7623 21.3292M91.7623 21.3292L104.182 19.7094M91.7623 21.3292L79.8377 25.1427M91.7623 21.3292L103.871 23.4292M104.182 19.7094L115.282 21.943M104.182 19.7094L115.528 20.2808M115.282 21.943L121.197 22.24M115.282 21.943L103.871 23.4292M115.282 21.943L124.71 23.8386M121.197 22.24L124.899 23.8485M145.893 37.6743L143.827 35.6746M145.893 37.6743L144.957 38.1716L134.508 37.1914L128.436 41.9846L123.317 47.7843M143.827 35.6746L142.108 34.0103L141.462 33.5772L135.783 29.7787M143.827 35.6746L140.002 37.7069L134.243 42.2516M135.783 29.7787L129.159 31.893M135.783 29.7787L132.83 27.8033M132.83 27.8033L132.421 27.5285L130.665 26.3538L129.596 25.8896M132.83 27.8033L130.689 28.0816L123.001 26.7476M129.596 25.8896L125.02 23.9019M129.596 25.8896L123.001 26.7476M125.02 23.9019L124.899 23.8485M125.02 23.9019L124.71 23.8386M124.899 23.8485L124.71 23.8386M64.2218 23.005L52.1044 29.4614M64.2218 23.005L57.827 7.78183M64.2218 23.005L79.8377 25.1427M52.1044 29.4614L41.3375 37.9807M52.1044 29.4614L43.1053 15.6325M52.1044 29.4614L68.7888 31.0267M41.3375 37.9807L32.2657 48.2858M41.3375 37.9807L30.0274 25.9872M41.3375 37.9807L58.9707 38.7911M32.2657 48.2858L25.1787 60.0467M32.2657 48.2858L19.0096 38.511M32.2657 48.2858L50.6979 48.1843M25.1787 60.0467L20.3028 72.8856L17.7919 86.39M25.1787 60.0467L10.404 52.8009M25.1787 60.0467L44.2345 58.9044M17.7919 86.39L1.43724 84.8043M17.7919 86.39L37.4953 82.918M24.8533 126.552L31.8199 138.393M24.8533 126.552L43.9281 119.529M24.8533 126.552L10.0179 133.59M31.8199 138.393L40.7808 148.805M31.8199 138.393L18.4792 147.975M31.8199 138.393L65.7388 123.563M40.7808 148.805L51.4506 157.452M40.7808 148.805L58.4495 139.812M40.7808 148.805L29.3635 160.622M51.4506 157.452L63.489 164.057M51.4506 157.452L68.1785 147.693M51.4506 157.452L42.3235 171.129M63.489 164.057L76.5094 168.409M63.489 164.057L79.1544 153.713M63.489 164.057L56.9451 179.157M76.5094 168.409L91.0264 157.677M76.5094 168.409L72.7623 184.447M154.294 140.778L156.295 138.06M154.294 140.778L150.195 144.644M156.295 138.06L157.056 137.028M156.295 138.06L150.195 144.644M157.056 137.028L147.9 142.979M162.25 128.132L163.701 125.168M162.25 128.132L160.866 129.564M163.701 125.168L157.545 127.748M166.139 119.401L166.366 118.596M166.139 119.401L162.639 122.8M166.366 118.596L167.274 115.384M166.366 118.596L159.154 120.188M167.274 115.384L163.604 116.195L155.874 116.486M167.274 115.384L168.087 112.506L168.214 112.056M168.214 112.056L168.944 109.474M168.214 112.056L167.59 112.615L160.26 112.893L153 111.857L146.041 109.541M168.944 109.474L164.217 109.653L155.874 116.486M181.055 127.176L186.329 120.077M195.904 86.6978L199.266 83.717M195.904 86.6978L194.559 100.651M199.266 83.717L202.158 81.1537M199.266 83.717L198.024 96.6199M202.158 81.1537L204.671 78.9269M202.158 81.1537L201.002 93.1526M204.671 78.9269L206.875 76.9727M204.671 78.9269L203.591 90.1402M206.875 76.9727L205.861 87.4973M206.875 76.9727L212.115 72.3281M212.115 72.3281L213.517 71.0856M212.115 72.3281L211.258 81.2148M213.517 71.0856L212.702 79.534M202.018 39.8617L200.019 39.4839M202.018 39.8617L195.919 33.9594M200.019 39.4839L193.754 33.4207L193.604 33.2759M200.019 39.4839L192.549 38.0727M192.549 38.0727L189.407 37.4786M192.549 38.0727L184.952 30.7204L176.165 24.8451M189.407 37.4786L185.825 36.8022M189.407 37.4786L181.313 29.6456M185.825 36.8022L181.702 36.0233M185.825 36.8022L177.162 28.4195L167.146 21.7225M181.702 36.0233L176.908 35.1172M181.702 36.0233L172.389 27.0099M176.908 35.1172L166.834 25.3694L155.188 17.5814M138.574 11.8282L155.188 17.5814M57.827 7.78183L43.1053 15.6325M43.1053 15.6325L30.0274 25.9872M30.0274 25.9872L19.0096 38.511M19.0096 38.511L10.404 52.8009M10.404 52.8009L4.4837 68.3992M4.4837 68.3992L20.3016 72.8855L56.1017 68.7004M10.0179 133.59L18.4792 147.975M18.4792 147.975L29.3635 160.622M29.3635 160.622L42.3235 171.129M42.3235 171.129L56.9451 179.157M56.9451 179.157L72.7623 184.447M72.7623 184.447L89.2687 186.829M89.2687 186.829L105.937 186.223M89.2687 186.829L90.0958 170.365L103.413 159.457L115.92 158.995M105.937 186.223L103.814 169.861L115.92 158.995M179.626 133.769L184.588 126.714L190.746 114.135M179.626 133.769L186.329 120.077M190.746 114.135L194.497 109.088M190.746 114.135L186.329 120.077M190.746 114.135L194.559 100.651M194.497 109.088L197.722 104.748M194.497 109.088L198.024 96.6199M194.497 109.088L188.802 120.72M197.722 104.748L200.525 100.977M197.722 104.748L201.002 93.1526M197.722 104.748L192.424 115.567M200.525 100.977L202.983 97.669L205.861 87.4973M200.525 100.977L203.591 90.1402M200.525 100.977L195.575 111.089M205.861 87.4973L203.591 90.1402M205.861 87.4973L211.258 81.2148M176.165 24.8451L171.95 23.3862M176.165 24.8451L179.891 26.1363L188.169 31.671L193.604 33.2759M176.165 24.8451L166.472 20.6373M171.95 23.3862L167.146 21.7225M171.95 23.3862L171.986 23.4095L181.313 29.6456M171.95 23.3862L161.624 18.903M167.146 21.7225L161.617 19.8077M167.146 21.7225L156.097 16.9251M161.617 19.8077L155.188 17.5814M161.617 19.8077L172.389 27.0099M161.617 19.8077L149.737 14.6496M155.188 17.5814L142.342 12.0031M142.342 12.0031L149.737 14.6496M147.9 142.979L137.289 147.423M147.9 142.979L154.87 135.766M147.9 142.979L139.693 151.47L128.144 156.304M137.289 147.423L128.144 156.304M137.289 147.423L145.056 139.878M137.289 147.423L126.056 149.896M128.144 156.304L115.92 158.995M186.329 120.077L190.481 105.398L194.559 100.651M194.559 100.651L198.024 96.6199M184.589 126.714L188.802 120.72M188.802 120.72L195.575 111.089M181.313 29.6456L172.389 27.0099M172.389 27.0099L160.298 23.4381L147.619 14.9602L138.926 11.1855L134.994 9.43373L133.635 8.88829M200.778 103.685L202.953 100.592M200.778 103.685L198.334 107.16M200.778 103.685L205.156 94.744L207.092 92.1389M202.953 100.592L204.902 97.8185L208.827 89.8039M202.953 100.592L207.092 92.1389M207.092 92.1389L208.827 89.8039M208.827 89.8039L210.391 87.6991L212.702 79.534M208.827 89.8039L211.258 81.2148M211.258 81.2148L212.702 79.534M198.024 96.6199L201.002 93.1526M201.002 93.1526L203.591 90.1402M193.604 33.2759L195.919 33.9594M193.604 33.2759L186.183 28.315M166.472 20.6373L161.624 18.903M166.472 20.6373L174.577 23.5373M161.624 18.903L156.097 16.9251M156.097 16.9251L149.737 14.6496M139.48 42.4922L134.243 42.2516M139.48 42.4922L144.955 38.1716M139.48 42.4922L134.865 47.7201L131.257 53.6886L128.772 60.2045M134.243 42.2516L129.391 47.7501M134.243 42.2516L121.953 41.6864M121.953 41.6864L114.677 41.3521M121.953 41.6864L128.374 36.6168L135.6 32.775M121.953 41.6864L116.539 47.8209L112.308 54.8238L109.395 62.4696M114.677 41.3521L106.448 40.9739M114.677 41.3521L121.492 35.9709M114.677 41.3521L108.933 47.863M106.448 40.9739L97.0691 40.5428M106.448 40.9739L113.707 35.2405L121.874 30.8965M106.448 40.9739L100.33 47.9106L95.5479 55.8286L92.2566 64.4729M97.0691 40.5428L86.2802 40.047M97.0691 40.5428L104.835 34.4086M97.0691 40.5428L90.5263 47.9647M86.2802 40.047L73.7352 39.47M86.2802 40.047L94.627 33.4509M86.2802 40.047L79.2459 48.027L73.7484 57.1351L69.9643 67.0795M73.7352 39.47L66.1325 48.0989L60.1905 57.9481M73.7352 39.47L58.9707 38.7911M73.7352 39.47L82.7584 32.3377M60.1905 57.9481L56.1017 68.7004M60.1905 57.9481L44.2345 58.9044M60.1905 57.9481L85.4111 56.4363M56.1017 68.7004L69.9643 67.0795M59.9027 113.646L65.7388 123.563M59.9027 113.646L73.4779 108.649M59.9027 113.646L43.9281 119.529M65.7388 123.563L73.2467 132.28M65.7388 123.563L78.8746 117.819M73.2467 132.28L82.1856 139.52M73.2467 132.28L85.8201 125.881M73.2467 132.28L58.4495 139.812M82.1856 139.52L92.2713 145.049M82.1856 139.52L94.0896 132.577M82.1856 139.52L68.1785 147.693M92.2713 145.049L103.18 148.69M92.2713 145.049L103.418 137.689M92.2713 145.049L79.1544 153.713M103.18 148.69L114.564 150.323L126.056 149.896M103.18 148.69L113.508 141.054M103.18 148.69L91.0264 157.677M126.056 149.896L134.667 142.167M126.056 149.896L115.92 158.995M134.667 142.167L142.074 135.519M134.667 142.167L124.037 142.563L113.508 141.054M134.667 142.167L145.056 139.878M142.074 135.519L148.512 129.741M142.074 135.519L151.737 133.389M142.074 135.519L132.187 135.889M148.512 129.741L154.159 124.671M148.512 129.741L139.269 130.087M148.512 129.741L157.545 127.748M154.159 124.671L159.154 120.188M154.159 124.671L145.483 124.997M154.159 124.671L162.639 122.8M159.154 120.188L150.978 120.496L142.879 119.339M159.154 120.188L167.588 112.615L168.085 112.506M128.772 60.2045L122.982 60.8813M131.064 87.4452L134.602 93.4539M131.064 87.4452L125.395 89.5328M134.602 93.4539L139.155 98.7351M134.602 93.4539L129.115 95.8529M139.155 98.7351L144.578 103.12M139.155 98.7351L133.905 101.408M144.578 103.12L150.695 106.467M144.578 103.12L139.608 106.02M150.695 106.467L157.311 108.669M150.695 106.467L146.041 109.541M157.311 108.669L164.215 109.653M157.311 108.669L142.879 119.339M129.159 31.893L121.492 35.9709M129.159 31.893L135.6 32.775M129.159 31.893L121.874 30.8965M121.492 35.9709L104.835 34.4086M121.492 35.9709L134.507 37.1915L141.338 33.5601L141.404 33.5394M104.835 34.4086L94.627 33.4509M104.835 34.4086L113.571 29.7601M90.5263 47.9647L85.4111 56.4363M90.5263 47.9647L108.933 47.863M90.5263 47.9647L50.6979 48.1843M85.4111 56.4363L81.8906 65.6848M85.4111 56.4363L104.443 55.2953M81.8906 65.6848L69.9643 67.0795M81.8906 65.6848L92.2566 64.4729M85.1549 104.349L90.1748 112.878M85.1549 104.349L73.4779 108.649M85.1549 104.349L104.212 97.3327M90.1748 112.878L96.6348 120.377M90.1748 112.878L99.9982 108.583M90.1748 112.878L78.8746 117.819M96.6348 120.377L104.327 126.603M96.6348 120.377L85.8201 125.881M96.6348 120.377L114.286 111.393M104.327 126.603L113.005 131.357M104.327 126.603L94.0896 132.577M104.327 126.603L121.036 116.855M113.005 131.357L122.392 134.485M113.005 131.357L103.418 137.689M113.005 131.357L128.652 121.024M122.392 134.485L130.114 128.776L139.269 130.087M122.392 134.485L132.187 135.889M122.392 134.485L113.508 141.054M139.269 130.087L132.187 135.889M139.269 130.087L145.483 124.997M157.545 127.748L151.737 133.389M157.545 127.748L162.639 122.8M58.9707 38.7911L50.6979 48.1843M58.9707 38.7911L68.7888 31.0267M82.7584 32.3377L94.627 33.4509M82.7584 32.3377L68.7888 31.0267M82.7584 32.3377L92.9119 26.9323M94.627 33.4509L104.018 28.4522M113.571 29.7601L123.001 26.7476M113.571 29.7601L121.874 30.8965M113.571 29.7601L104.018 28.4522M123.001 26.7476L114.156 25.2135M125.395 89.5328L129.115 95.8529M125.395 89.5328L104.212 97.3327M104.212 97.3327L108.616 104.816M73.4779 108.649L78.8746 117.819M43.9281 119.529L50.2805 130.322L58.4495 139.812M129.115 95.8529L133.905 101.408M129.115 95.8529L116.239 101.482M116.239 101.482L108.616 104.816M116.239 101.482L112.088 94.4319L109.259 86.7536L107.845 78.6939L107.891 70.5121L109.395 62.4696M116.239 101.482L121.58 107.681L127.941 112.826L135.117 116.754L142.879 119.339M108.616 104.816L99.9982 108.583M108.616 104.816L114.286 111.393M99.9982 108.583L95.3048 100.611L92.107 91.93L90.5075 82.8182L90.5578 73.5667L92.2566 64.4729M99.9982 108.583L106.036 115.592L113.226 121.41L121.339 125.853L130.113 128.777L142.879 119.339M78.8746 117.819L85.8201 125.881M37.4953 82.918L39.7862 70.6074L44.2345 58.9044M37.4953 82.918L115.14 69.2356M115.14 69.2356L121.635 68.0908M115.14 69.2356L116.561 61.6318L119.316 54.4036M121.635 68.0908L127.491 67.0584M121.635 68.0908L122.982 60.8813M133.905 101.408L139.608 106.02M133.905 101.408L114.286 111.393M114.286 111.393L121.036 116.855M85.8201 125.881L94.0896 132.577M58.4495 139.812L68.1785 147.693M92.2566 64.4729L101.351 63.4099M101.351 63.4099L109.395 62.4696M101.351 63.4099L104.443 55.2953M109.395 62.4696L122.982 60.8813M122.982 60.8813L125.596 54.0274M139.608 106.02L134.093 109.238M139.608 106.02L146.041 109.541M134.093 109.238L140.879 112.951M134.093 109.238L121.036 116.855M121.036 116.855L128.652 121.024M94.0896 132.577L103.418 137.689M68.1785 147.693L79.1544 153.713M44.2345 58.9044L50.6979 48.1843M104.443 55.2953L108.933 47.863M104.443 55.2953L119.316 54.4036M119.316 54.4036L125.596 54.0274M119.316 54.4036L123.317 47.7843M125.596 54.0274L131.258 53.6885M125.596 54.0274L129.391 47.7501M146.041 109.541L140.879 112.951M140.879 112.951L148.218 115.393L155.874 116.486M140.879 112.951L128.652 121.024M128.652 121.024L136.889 123.768L145.483 124.997M103.418 137.689L113.508 141.054M79.1544 153.713L91.0264 157.677M134.141 28.6811L130.687 28.0818L121.874 30.8965M108.933 47.863L123.317 47.7843M145.483 124.997L155.874 116.486M162.639 122.8L165.431 121.63M123.317 47.7843L129.391 47.7501M195.919 33.9594L188.865 29.2435M186.183 28.315L183.21 27.2856L174.577 23.5373M186.183 28.315L188.865 29.2435M186.183 28.315L177.998 24.7618M177.998 24.7618L174.577 23.5373M177.998 24.7618L181.083 25.8652L181.09 25.8678L188.865 29.2435M134.866 47.72L129.391 47.7501M91.0264 157.677L103.414 159.457L132.187 135.889M138.756 31.7679L135.6 32.775M135.6 32.775L141.337 33.5599L141.46 33.5769M104.018 28.4522L92.9119 26.9323M104.018 28.4522L114.156 25.2135M145.056 139.878L151.737 133.389M145.056 139.878L154.87 135.766M151.737 133.389L160.866 129.564M68.7888 31.0267L79.8377 25.1427M79.8377 25.1427L92.9119 26.9323M103.871 23.4292L114.156 25.2135M103.871 23.4292L92.9119 26.9323M114.156 25.2135L124.71 23.8386M160.866 129.564L161.868 128.913M160.866 129.564L154.87 135.766M154.87 135.766L160.214 132.293M204.904 97.8185L206.661 95.3194L210.393 87.6991" stroke="url(#paint0_linear_317_50)" stroke-linecap="round" stroke-linejoin="round"/>
<defs>
<linearGradient id="paint0_linear_317_50" x1="86.7636" y1="127.357" x2="151.678" y2="7.55177" gradientUnits="userSpaceOnUse">
<stop stop-color="#FF6D44"/>
<stop offset="0.296875" stop-color="#FFA959"/>
<stop offset="1" stop-color="#E7E7E8"/>
</linearGradient>
</defs>
</svg>
