<svg width="1375" height="429" viewBox="0 0 1375 429" fill="none" xmlns="http://www.w3.org/2000/svg">
<path d="M1 223.681V427.973L1373.64 427.972L1373.64 162.9M2.05408 372.114L119.29 356.142M119.29 356.142L240.774 339.592M119.29 356.142L160.57 358.4M119.29 356.142L79.1848 353.948M240.774 339.592L339.387 302.625M240.774 339.592L279.15 341.389M240.774 339.592L166.909 336.136M339.387 302.625L422.206 185.937M339.387 302.625L305.002 285.787M339.387 302.625L374.548 324.758M422.206 185.937L489.752 132.534M422.206 185.937L390.047 175.749M85.1682 270.935L179.456 210.437M616.668 216.857L557.883 286.43L487.009 332.319L400.54 347.072M616.668 216.857L650.266 252.414L684.759 291.421L720.151 313.691L762.704 304.735M616.668 216.857L665.756 204.717M616.668 216.857L583.899 185.89M400.54 347.072L292.002 365.591M400.54 347.072L578.67 355.41M400.54 347.072L318.543 343.233M292.002 365.591L246.87 363.12M292.002 365.591L2.05408 415.061M292.002 365.591L487.262 376.27M517.717 126.466L460.213 125.68M460.213 125.68L390.047 175.749M460.213 125.68L489.752 132.534M460.213 125.68L429.84 124.512L400.601 127.065M390.047 175.749L305.002 285.787M390.047 175.749L358.477 170.359L327.453 169.225M305.002 285.787L203.371 337.841L79.1848 353.948M305.002 285.787L271.334 273.679L238.335 265.776M79.1848 353.948L2.05408 363.951M79.1848 353.948L2.30123 349.743L2.05408 349.719M371.795 133.315L296.939 171.842L205.964 261.583M205.964 261.583L97.2191 321.586L2.05408 329.331M205.964 261.583L238.335 265.776M205.964 261.583L174.184 260.629M790.269 89.1217L769.727 159.236L746.871 228.407L732.696 250.07M732.696 250.07L737.542 254.753M732.696 250.07L707.778 225.994M844.353 29.0539L827.232 84.4539L808.454 158.192M808.454 158.192L787.49 230.923L763.789 268.34L762.135 268.308M808.454 158.192L828.195 162.007L848.216 169.236L868.549 180.3L889.213 195.173M808.454 158.192L788.971 157.395L769.726 159.237L750.697 163.364L726.931 230.729L721.041 238.811M575.257 140.196L520.509 144.204M575.257 140.196L604.807 155.306M575.257 140.196L546.243 130.777L489.752 132.534M520.509 144.204L455.004 201.498L374.548 324.758M520.509 144.204L551.872 161.773M520.509 144.204L489.752 132.534M374.548 324.758L279.15 341.389M374.548 324.758L411.089 329.212M279.15 341.389L160.57 358.4M279.15 341.389L318.543 343.233M160.57 358.4L203.079 360.725M160.57 358.4L2.05408 381.142M847.337 427.13L898.217 398.751L1108.69 410.264L1143.6 359.181L1372.8 368.558M675.599 198.425L678.658 200.295L697.343 216.784M675.599 198.425L675.587 198.185L674.172 197.565M675.599 198.425L674.172 197.565M674.172 197.565L664.81 191.831M664.81 191.831L655.631 184.471L650.136 180.695L639.539 174.76M664.81 191.831L654.393 187.216L634.953 176.738M639.539 174.76L657.226 144.359L657.572 143.762M639.539 174.76L628.724 168.703M628.724 168.703L641.389 157.884M628.724 168.703L626.687 167.561M626.687 167.561L625.749 167.037L604.807 155.306M626.687 167.561L634.045 160.266M604.807 155.306L551.872 161.773M604.807 155.306L634.953 176.738M551.872 161.773L488.502 223.049L411.089 329.212M551.872 161.773L583.899 185.89M411.089 329.212L318.543 343.233M411.089 329.212L448.592 330.746M318.543 343.233L203.079 360.725M203.079 360.725L246.87 363.12M203.079 360.725L2.05408 391.181M53.265 272.601L4.22491 275.493M4.22491 275.493L2.05408 275.621M4.22491 275.493L22.966 276.003M4.22491 275.493L2.05408 275.434M1372.79 290.467L1353.73 290.053M1353.73 290.053L1347.14 284.389L1341.33 279.411M1353.73 290.053L1255.88 287.926M1353.73 290.053L1372.79 306.403M1255.88 287.926L1256.22 294.103L1256.63 301.237L1257.09 309.569L1259.13 345.779M1255.88 287.926L1255.57 282.524L1255.3 277.761M1255.88 287.926L1162.64 285.899M1162.64 285.899L1132.52 285.245M1162.64 285.899L1168.06 280.742L1172.87 276.182M1162.64 285.899L1105.44 340.196M1132.52 285.245L1102.88 284.6M1132.52 285.245L1139.75 280.164M1132.52 285.245L1114.83 297.678M1102.88 284.6L1111.85 279.595M1102.88 284.6L961.273 281.523M1102.88 284.6L1080.95 296.829M961.273 281.523L942.103 286.786L913.412 286.116M961.273 281.523L978.203 276.873M961.273 281.523L907.542 280.355L885.172 285.46M885.172 285.46L857.369 284.812L762.704 304.735M885.172 285.46L859.685 291.275M885.172 285.46L913.412 286.116M762.704 304.735L796.338 305.733M762.704 304.735L729.599 271.526L697.289 236.682M477.138 126.253L459.914 125.896L429.842 124.514M707.778 225.994L697.343 216.784M707.778 225.994L665.756 204.717M665.756 204.717L634.953 176.738M665.756 204.717L697.289 236.682M634.953 176.738L583.899 185.89M583.899 185.89L522.767 251.258L448.592 330.746M448.592 330.746L246.87 363.12M448.592 330.746L526.376 333.928L594.001 321.613L650.266 252.413L697.289 236.682M246.87 363.12L2.05408 402.411M2.05408 271.098L64.0512 267.666M1013.88 427.129L1065.42 378.196L1193.89 384.21M1193.89 384.21L1372.79 392.584M1193.89 384.21L1210.97 329.728M1193.89 384.21L1180.43 427.129M967.673 42.4125L956.348 78.772M967.673 42.4125L986.518 58.616M967.673 42.4125L949.112 28.3922L930.831 16.8617L913.216 7.30724L908.875 5.32755L895.07 3.01256L877.562 1L860.273 1.84983L844.355 29.0539M967.673 42.4125L978.74 38.4066L996.861 53.1849M956.348 78.772L944.447 144.119L931.467 227.632L915.941 267.392L897.921 270.91L829.582 269.601M956.348 78.772L936.983 63.5283L917.906 50.348L899.114 39.7137M956.348 78.772L976.008 95.7861M829.582 269.601L807.375 269.175M829.582 269.601L850.594 258.382L868.55 180.3L884.518 100.563L899.114 39.7137M829.582 269.601L806.108 273.368M807.375 269.175L782.831 272.894M807.375 269.175L829.235 245.517L848.219 169.236L865.146 91.6015L880.606 32.7721L895.071 3.01326M807.375 269.175L785.447 268.756L767.958 271.265M782.831 272.894L775.698 273.974M782.831 272.894L806.108 273.368M782.831 272.894L771.979 272.672M680.786 427.13L686.855 424.734M686.855 424.734L723.278 427.13M686.855 424.734L880.165 348.405L1143.59 359.182L1184.43 299.428L1372.79 304.154M686.855 424.734L2.05408 379.683M889.213 195.173L872.181 266.6L804.672 278.118L786.397 277.721M889.213 195.173L904.196 113.34L917.903 50.3487L930.828 16.8618M889.213 195.173L910.187 211.183L953.049 244.286L974.942 260.925L996.835 265.323L1018.89 265.702M514.241 427.13L869.472 318.571L990.308 322.519L1031.58 303.437L1372.8 312.718M912.818 8.21908L899.114 39.7137M899.114 39.7137L880.606 32.7708L862.36 29.3411L844.355 29.0539M806.108 273.368L784.069 276.906M806.108 273.368L902.422 275.33L938.222 267.796L953.05 244.287L965.019 161.271L976.008 95.7861M655.629 184.471L666.528 160.297L683.752 147.264L706.837 101.15M706.837 101.15L690.295 115.17L673.872 129.45L657.572 143.762M706.837 101.15L723.506 87.6285L740.308 74.8547L757.245 63.0844M706.837 101.15L728.007 76.7454M877.564 1L862.363 29.3417L846.063 86.3641M846.063 86.3641L828.199 162.007L808.214 236.509M846.063 86.3641L827.236 84.4543L808.645 85.4939L790.271 89.1226M846.063 86.3641L865.147 91.6006L884.52 100.563L904.2 113.34L924.176 128.053L944.449 144.118L965.021 161.27L985.899 179.255L974.946 260.925L960.782 268.204L872.186 266.6L850.596 258.382L829.236 245.517L808.214 236.509M808.214 236.509L785.449 268.755L763.793 268.34L762.514 268.514M808.214 236.509L787.493 230.924L767.054 228.352L746.873 228.408L726.934 230.729L715.275 233.237M665.156 191.016L683.754 147.264L701.116 134.731M701.116 134.731L718.623 122.96L736.283 112.223L754.105 102.805L772.096 95.0017L791.57 43.6362L809.549 18.5041M701.116 134.731L723.508 87.6288L744.061 63.232M701.116 134.731L676.499 196.183L675.588 198.186M744.061 63.232L728.009 76.7448L712.073 90.7255L712.047 90.7493L696.249 104.955L695.023 106.195M744.061 63.232L760.233 50.4113L776.534 38.5195L792.97 27.7991L809.549 18.503L826.284 10.8946L843.188 5.2479L860.274 1.8493M685.979 206.759L694.781 186.145L718.62 122.96L740.306 74.8549L760.229 50.4118M697.343 216.784L713.239 177.132M713.239 177.132L736.281 112.223L757.245 63.0844M713.239 177.132L694.783 186.145L676.498 196.183L674.448 197.402M713.239 177.132L731.874 169.436L750.699 163.364L772.095 95.0012L790.269 89.1228L808.976 36.5264M757.245 63.0844L774.327 52.584M757.245 63.0844L776.533 38.5203M843.184 5.24908L826.564 31.5609L808.64 85.4947L788.97 157.396L767.049 228.353L747.267 260.115M709.842 227.989L731.872 169.436L754.102 102.804L774.327 52.584M774.327 52.584L791.568 43.6354L808.976 36.5264M774.327 52.584L792.967 27.7991M641.389 157.884L657.572 143.762M641.389 157.884L633.23 171.228M641.389 157.884L661.967 136.208L664.928 133.326M657.572 143.762L658.252 143.037L678.314 121.431L680.534 119.222M808.976 36.5264L826.282 10.8949M808.976 36.5264L826.568 31.5603L844.355 29.0539M400.601 127.065L371.795 133.313L343.392 142.78L343.097 142.909L338.159 145.117M400.601 127.065L327.453 169.225M338.159 145.117L325.903 150.77L312.401 156.587M338.159 145.117L343.109 142.911M338.159 145.117L315.375 155.006L312.401 156.587M312.401 156.587L309.279 157.457L237.321 186.405M312.401 156.587L275.812 173.652L266.902 177.721M237.321 186.405L266.902 177.721M237.321 186.405L142.968 262.473M237.321 186.405L208.177 197.452L112.293 266.691M142.968 262.473L174.184 260.629M142.968 262.473L112.293 266.691M142.968 262.473L31.3949 300.171M31.3949 300.171L2.05408 296.191M31.3949 300.171L63.9529 309.401M31.3949 300.171L2.05408 294.081M546.242 130.779L517.717 126.467L477.136 126.253L459.913 125.896L429.84 124.514L358.476 170.36L271.334 273.681L166.909 336.136M166.909 336.136L131.355 334.471L8.57735 349.001M166.909 336.136L2.05408 356.539M1097.15 427.128L1108.69 410.262L1372.79 424.709M49.2991 274.414L22.966 276.003M22.966 276.003L2.05408 277.263M22.966 276.003L41.9672 276.519M597.513 427.128L874.212 331.794L1056.84 338.429L1090.92 314.478L1301.65 320.733M1301.65 320.733L1346.63 322.069M1301.65 320.733L1313.15 347.742M1301.65 320.733L1293.73 302.168L1290.65 294.904L1283.57 278.303M1346.63 322.069L1372.79 322.845M1346.63 322.069L1316.14 283.757M1346.63 322.069L1372.79 354.934M347.69 427.128L540.126 379.162M540.126 379.162L487.262 376.27M540.126 379.162L830.632 306.75M540.126 379.162L898.213 398.75L945.161 372.566M830.632 306.75L862.395 298.834M830.632 306.75L796.338 305.733M830.632 306.75L1051.41 313.305M862.395 298.834L889.696 292.028M862.395 298.834L830.383 297.962M862.395 298.834L1031.58 303.435L1047.67 295.992M889.696 292.028L913.412 286.116M889.696 292.028L859.685 291.275M889.696 292.028L1047.67 295.992M913.412 286.116L952.591 276.351M952.591 276.351L978.203 276.873M952.591 276.351L968.957 272.273L993.262 272.739M952.591 276.351L927.332 275.837L907.541 280.354L829.838 278.666L803.035 283.546L789.2 283.224M978.203 276.873L993.262 272.739M978.203 276.873L1084.35 279.036M1084.35 279.036L1111.85 279.595M1084.35 279.036L1093.8 274.665M1084.35 279.036L1047.67 295.992M1111.85 279.595L1139.75 280.164M1111.85 279.595L1119.79 275.164M1139.75 280.164L1146.14 275.669M1139.75 280.164L1196.81 281.326M1196.81 281.326L1199.97 276.699M1196.81 281.326L1316.14 283.757M1196.81 281.326L1189.14 292.539L1184.43 299.425L1114.83 297.678M1316.14 283.757L1312.24 278.851M1316.14 283.757L1372.79 284.911M70.4422 264.741L47.6934 265.95M47.6934 265.95L31.3342 265.57M47.6934 265.95L2.05408 268.377M47.6934 265.95L64.2491 266.335M31.3342 265.57L16.2584 245.733L2.05408 224.917M31.3342 265.57L89.6013 250.168M31.3342 265.57L2.05408 267.097M94.0181 253.848L89.6013 250.168M89.6013 250.168L74.9692 228.69L60.5077 208.353M89.6013 250.168L142.91 227.291L191.531 204.704L195.056 203.384M986.518 58.616L1005.65 76.7078L1025.08 96.3987L1044.81 117.413L1064.84 139.483M986.518 58.616L996.861 53.1849M986.518 58.616L976.008 95.7861M1064.84 139.483L1085.17 162.35L1126.74 209.486L1147.96 233.288L1144.19 261.554L1119.79 275.164M1064.84 139.483L1072.12 129.484M1064.84 139.483L1057.68 176.112L1050.38 235.837M1119.79 275.164L1093.8 274.665M1119.79 275.164L1146.14 275.669M1080.95 296.829L1047.67 295.992M1080.95 296.829L1114.83 297.678M1080.95 296.829L1051.41 313.305M1051.41 313.305L1090.92 314.478L1114.83 297.678M1051.41 313.305L945.161 372.566M945.161 372.566L1004.32 375.335M945.161 372.566L578.67 355.41M487.262 376.27L578.67 355.41M487.262 376.27L264.417 427.129M60.6273 269.232L36.2294 270.61M36.2294 270.61L2.05408 272.543M36.2294 270.61L53.924 271.055M36.2294 270.61L2.05408 269.752M114.413 187.756L128.583 206.935L142.911 227.29L143.836 228.643M1129.61 194.914L1129.96 188.888L1132.08 165.429M163.652 167.025L177.517 185.285L191.53 204.705L191.675 204.913M1140.51 207.34L1141.58 185.735M1141.58 185.735L1143.43 162.905M1141.58 185.735L1129.96 188.887L1125.36 190.037M1141.58 185.735L1153.27 182.421L1165.02 179.044M208.583 151.583L222.134 169.316L234.919 186.864M1151.51 219.874L1151.96 214.475L1153.27 182.421L1154.82 160.333M895.072 3.01326L912.82 8.21991L925.969 9.17706L943.304 16.0841L960.892 25.9366M960.892 25.9366L978.742 38.4073M960.892 25.9366L949.115 28.3931L936.986 63.5298L924.176 128.054L910.192 211.184L893.931 266.995M249.769 140.558L263.033 157.371M249.769 140.558L208.583 151.584L163.653 167.025L114.412 187.758L60.5073 208.354L2.05408 224.003M249.769 140.558L287.714 132.322L322.688 130.051L354.998 135.121L360.092 137.216M263.033 157.371L273.666 171.459M263.033 157.371L222.134 169.317L177.518 185.286L128.582 206.937L74.9688 228.692L16.2584 245.734L2.05408 247.615M263.033 157.371L300.73 147.215L335.481 142.39L343.081 142.911M1162.94 231.92L1164.02 210.541L1165.02 179.044M1165.02 179.044L1166.29 157.787M1165.02 179.044L1176.83 175.695L1188.72 172.46L1200.69 169.416L1212.73 166.639L1224.87 164.191L1237.08 162.132L1249.4 160.516L1261.81 159.386L1274.33 158.784L1286.95 158.739L1299.68 159.279M1166.29 157.787L1154.83 160.332L1143.42 162.905L1132.08 165.427L1120.8 167.819M1166.29 157.787L1177.83 155.338L1189.44 153.051M1175.35 236.959L1176.16 206.591L1176.83 175.694L1177.83 155.338M287.717 132.321L300.733 147.214L308.88 156.977M1188.08 237.073L1188.37 202.724M1188.37 202.724L1188.71 172.46L1189.44 153.051M1188.37 202.724L1176.15 206.59L1151.97 214.474L1147.9 215.763M1188.37 202.724L1200.65 199.031L1213.02 195.597L1225.48 192.497L1238.04 189.804L1250.68 187.578L1263.44 185.876L1276.3 184.748L1289.27 184.233M1189.44 153.051L1201.13 150.985L1212.89 149.192L1224.74 147.719L1236.68 146.608L1248.7 145.895L1260.82 145.608M893.927 266.993L829.837 278.664L804.673 278.118L793.15 280.084M1201.12 150.985L1200.68 169.417L1200.65 199.032L1200.91 237.189L1199.5 238.185L1168.63 237.898M1235.6 251.207L1191.45 250.654M976.008 95.7861L995.967 114.292L1016.23 134.02L1036.8 154.71L1057.69 176.111L1078.87 197.986L1100.37 220.105L1122.18 242.25L1116.66 264.095L1093.8 274.665M1093.8 274.665L993.262 272.739M830.383 297.962L798.942 297.107L767.984 285.477L737.542 254.753M830.383 297.962L796.338 305.733M830.383 297.962L859.685 291.275M737.542 254.753L697.289 236.682M737.542 254.753L769.242 285.611L801.146 289.807L859.685 291.275M327.453 169.225L296.939 171.84L266.902 177.721M327.453 169.225L238.335 265.776M266.902 177.721L174.184 260.629M112.293 266.691L81.662 273.488M112.293 266.691L92.6707 271.365L81.662 273.488M81.662 273.488L68.0517 277.229L2.05408 292.948M81.662 273.488L60.8253 275.936L2.05408 284.371M322.687 130.051L335.479 142.389L338.029 144.987M1212.89 149.193L1212.73 166.64L1213.02 195.599L1213.82 237.307L1212.77 238.309L1200.2 237.689L1188.08 237.075L1175.35 236.96M1175.35 236.96L1167.68 236.89M1175.35 236.96L1170.98 238.982L1170.07 239.405M625.75 167.037L634.048 160.266L646.35 149.966L649.434 147.07L661.969 136.208L664.931 133.326L678.315 121.431L680.535 119.222L695.023 106.195M695.023 106.195L675.348 127.84L673.875 129.45L673.784 129.618L649.447 173.579L644.44 177.504M1371.84 247.63L1354.51 247.436M1354.51 247.436L1350.96 245.878L1341.66 241.786L1311.75 241.492L1297.69 241.969L1253.49 245.562L1237.42 245.385L1208.53 242.322L1194.72 241.54L1171.88 241.307M1354.51 247.436L1303.39 246.863M1354.51 247.436L1362.41 250.909L1372.79 251.033M1303.39 246.863L1286.63 246.674M1303.39 246.863L1305.29 248.492L1307.33 250.245M1303.39 246.863L1301.62 245.344L1298.41 242.595L1296.96 241.346L1295.59 240.173L1294.3 239.066M1286.63 246.674L1285.43 245.167L1284.31 243.759L1282.28 241.201L1281.34 240.036L1280.47 238.937L1266.97 239.355L1253.17 239.765L1239.4 239.094L1226.12 238.432M1286.63 246.674L1289.3 250.026M1372.79 257.185L1335.06 256.673M1335.06 256.673L1314.49 256.394M1335.06 256.673L1331.62 254.434M1335.06 256.673L1342.89 261.778L1365.66 262.115L1371.3 265.076L1372.79 265.099M1314.49 256.394L1294.15 256.119M1314.49 256.394L1341.33 279.411M1314.49 256.394L1307.33 250.245M1294.15 256.119L1274 255.846M1294.15 256.119L1292.4 253.923L1290.79 251.899L1289.3 250.026M1294.15 256.119L1296.05 258.506L1298.13 261.114L1300.4 263.976L1305.68 270.617L1308.78 274.501L1312.24 278.851M1274 255.846L1254.06 255.574M1274 255.846L1275.01 258.208L1276.1 260.789L1281.74 274.013L1283.57 278.303M1274 255.846L1273.07 253.672L1272.22 251.666L1271.43 249.812L1270.7 248.09L1270.02 246.488L1269.38 244.994L1268.78 243.596L1267.21 239.9L1266.75 238.81L1265.73 225.787L1263.44 185.877L1261.81 159.386L1260.82 145.608M1254.06 255.574L1254.19 257.914L1254.34 260.468L1254.49 263.265L1254.67 266.343L1254.85 269.747L1255.3 277.761M1254.06 255.574L1253.94 253.422L1253.82 251.437L1253.72 249.598L1253.63 247.892L1253.53 246.304L1253.46 244.821L1253.37 243.435L1253.31 242.136L1253.23 240.915M1254.06 255.574L1214.77 255.042M1214.77 255.042L1195.41 254.779M1214.77 255.042L1213.2 257.333L1211.49 259.832L1209.62 262.568L1205.29 268.896L1199.97 276.699M1214.77 255.042L1216.2 252.931M1195.41 254.779L1190.81 252.601M1195.41 254.779L1197.61 252.689M1195.41 254.779L1180.98 268.48L1172.87 276.182M1180.49 247.042L1203.28 247.307M1203.28 247.307L1219.92 247.501M1203.28 247.307L1204.91 245.759L1206.44 244.311L1209.21 241.687L1211.64 239.37L1212.76 238.309L1225.75 238.967L1239.05 240.204L1253.23 240.915M1203.28 247.307L1201.53 248.97L1197.61 252.689M1224.73 147.719L1224.86 164.19L1225.47 192.498L1226.66 234.262L1226.12 238.432M1226.12 238.432L1225.39 239.499L1224.62 240.633L1222.91 243.114L1220.98 245.938L1219.92 247.5L1217.54 250.982L1216.2 252.931M764.059 427.129L990.306 322.518L1210.97 329.728M1210.97 329.728L1372.79 335.016M1210.97 329.728L1217.63 308.496L1220.2 300.323L1222.4 293.315L1224.29 287.24L1225.97 281.921L1228.74 273.054L1229.92 269.319L1233.59 257.622M1236.67 146.608L1237.08 162.133L1238.03 189.805L1239.58 230.97L1239.57 238.557M1239.57 238.557L1239.22 239.633L1238.49 241.985L1238.09 243.275L1237.66 244.65L1237.2 246.12L1236.69 247.696L1236.17 249.387L1235.6 251.209L1234.98 253.176L1234.31 255.306L1233.59 257.622M1239.57 238.557L1266.75 238.81M1233.59 257.622L1372.79 259.592M1233.59 257.622L1193.02 257.048L1186.25 252.54L1182.61 249.413L1178.5 247.019L1175.56 245.428L1174.44 244.685L1173.36 243.953M1174.4 243.962L1206.44 244.31M1120.8 167.819L1119.27 183.062M1120.8 167.819L1109.57 169.993L1108.08 170.243M97.8668 427.129L631.307 322.969L669.471 324.356M669.471 324.356L720.148 313.691L869.468 318.569L1030.17 269.459L1053.88 269.889M669.471 324.356L874.209 331.794L1053.88 269.889M669.471 324.356L181.14 427.129M1053.88 269.889L1063.8 266.471M1053.88 269.889L1372.79 275.66M1063.8 266.471L1072.5 254.842M1063.8 266.471L1041.21 266.084M1063.8 266.471L1372.79 271.768M1253.31 242.134L1238.68 241.377L1225 240.065L1211.64 239.368M1263.7 427.129L1259.13 345.779M1259.13 345.779L1313.15 347.742M1259.13 345.779L1105.44 340.196M1255.3 277.761L1283.57 278.303M1255.3 277.761L1199.97 276.699M1253.23 240.915L1253.17 239.766L1253.1 238.684L1248.7 145.896M1253.23 240.915L1267.45 240.479L1280.91 239.487L1294.3 239.066M1372.79 249.276L1287.91 248.291L1271.06 248.951L1253.77 250.518L1235.88 250.298L1218.77 249.177L1185.75 248.779M1346.98 427.128L1313.15 347.742M1313.15 347.742L1372.8 349.909M1283.57 278.303L1312.24 278.851M1260.82 145.608L1273.04 145.772L1285.35 146.401M807.046 288.653L897.917 270.91L944.965 271.812L960.777 268.204L983.618 268.616L996.834 265.323M1372.8 265.859L1371.31 265.075L1347.4 264.705M1347.4 264.705L1342.9 261.778L1190.42 259.521L1169.48 256.95L1147.96 233.288L1151.88 220.289M1347.4 264.705L1352.35 267.933L1372.8 268.266M1347.4 264.705L1144.2 261.554L1122.18 242.251L1126.74 209.486L1131.53 197.111M1273.04 145.773L1274.32 158.785L1276.3 184.75L1278.96 224.013L1280.48 238.938M1094.59 263.736L1100.37 220.106L1105.8 185.765L1111.44 174.092M1091.63 151.467L1085.17 162.35L1078.87 197.987L1072.5 254.842M1072.5 254.842L1094.59 263.736M1072.5 254.842L1050.38 235.837M1041.21 266.084L1018.89 265.702M1041.21 266.084L1050.38 235.837M1041.21 266.084L1030.17 269.459L1006.75 269.036L993.262 272.739M1018.89 265.702L1028.58 216.764M1298.4 242.594L1360.18 243.221M1360.18 243.221L1372.79 243.349M1360.18 243.221L1363.81 244.593L1372.79 244.687M1360.18 243.221L1356.78 241.935M1018.89 265.701L1006.75 269.036L983.623 268.617L968.96 272.272L944.971 271.812L927.335 275.837L902.424 275.33L857.37 284.811L803.038 283.546L792.981 285.306M943.301 16.0841L930.829 16.8622M1285.35 146.401L1286.95 158.739L1289.27 184.233M1285.35 146.401L1297.77 147.509L1310.29 149.098L1322.92 151.167L1335.66 153.707L1348.51 156.701L1351.8 167.515M1289.27 184.233L1292.32 222.846L1294.3 239.066M1289.27 184.233L1302.36 184.364L1315.58 185.17L1328.92 186.668L1342.39 188.871L1355.99 191.779M1072.12 129.484L1052.88 108.396L1033.93 88.4659L1015.26 69.9688L996.861 53.1849M1072.12 129.484L1091.64 151.467L1108.08 170.243L1109.37 171.734M1050.38 235.837L1028.58 216.764M1173.36 243.953L1172.51 243.4M1173.36 243.953L1174.67 244.554L1175.05 244.659M1028.58 216.764L1036.8 154.711L1044.81 117.414L1052.88 108.396M1028.58 216.764L1007.08 197.83L985.896 179.255L995.965 114.293L1005.65 76.7079L1015.25 69.9688M1200.91 237.189L1213.82 237.306L1226.67 234.262L1239.58 230.97L1252.6 228.124L1265.73 225.787L1278.97 224.012L1292.32 222.846L1305.79 222.331M1305.79 222.331L1319.39 222.499L1333.12 223.376L1346.99 224.982L1361 227.327L1372.8 229.901M1305.79 222.331L1302.36 184.366L1299.68 159.279M1305.79 222.331L1308.22 239.196M1297.77 147.51L1299.68 159.279M1299.68 159.279L1312.53 160.417L1325.5 162.169L1338.59 164.536L1351.8 167.515M996.84 265.324L1007.09 197.831L1016.23 134.022L1025.09 96.3996L1033.93 88.4668M1348.51 156.703L1361.47 160.131L1372.79 163.453M1361.47 160.129L1365.13 171.092M1365.13 171.092L1369.73 195.391M1365.13 171.092L1351.8 167.515M1365.13 171.092L1372.8 173.46M1369.73 195.391L1372.8 215.195M1369.73 195.391L1355.99 191.779M1369.73 195.391L1372.8 196.339M1356.78 241.935L1341.66 241.786L1338.93 240.587M1356.78 241.935L1353.58 240.726L1338.93 240.587M1356.78 241.935L1372.79 242.092M1338.93 240.587L1324.37 240.447L1322.24 239.325L1319.39 222.499L1315.57 185.171L1312.53 160.417L1310.29 149.099M1338.93 240.587L1336.35 239.457L1333.12 223.376L1328.92 186.669L1325.5 162.169L1322.92 151.167M430.968 427.129L942.106 286.786L1372.8 296.818M1372.01 242.084L1368.34 240.866L1353.58 240.725L1350.58 239.588L1346.98 224.981L1342.39 188.87L1338.58 164.535L1335.66 153.706M14.5941 427.128L19.2566 426.279L29.5456 427.128M1351.8 167.515L1355.99 191.779M1372.79 239.796L1308.22 239.197M1169.65 238.969L1184.44 239.11L1197.2 239.797L1237.87 243.963L1253.41 244.129L1296.27 240.76L1309.93 240.311L1311.75 241.493L1317.93 245.521M1317.93 245.521L1320.28 247.054L1322.81 248.697L1325.52 250.465L1343.88 250.686L1365.66 262.116L1372.79 262.221M1317.93 245.521L1301.62 245.345L1286.03 245.923L1253.67 248.746L1236.44 248.543L1220.45 246.721L1204.91 245.76L1188.97 245.58L1176.16 244.711L1174.87 244.451M1317.93 245.521L1367.69 246.062L1371.84 247.632L1372.79 247.642M63.9529 309.401L97.219 321.585L131.354 334.47L238.335 265.776M63.9529 309.401L2.05408 307.561M63.9529 309.401L174.184 260.629M1199.97 276.699L1172.87 276.182M1216.2 252.931L1234.98 253.176L1253.89 252.43L1271.83 250.74L1289.3 250.026M1216.2 252.931L1197.61 252.689M1289.3 250.026L1307.33 250.245M1312.24 278.851L1341.33 279.411M1372.8 252.924L1272.22 251.665M7.6257 283.064L2.05408 283.365M355.001 135.12L358.495 137.749M930.609 427.129L1004.32 375.335M1004.32 375.335L1065.42 378.196L1105.44 340.196M1004.32 375.335L1056.84 338.429L1105.44 340.196M1341.33 279.411L1372.79 280.013M1307.33 250.245L1325.52 250.464L1328.45 252.371L1331.62 254.434M1197.61 252.689L1190.92 252.602L1182.62 249.414L1178.5 247.02L1175.89 245.52L1174.67 244.555L1174.36 243.964L1173.03 242.592L1172.76 242.304L1171.21 241.301M1172.87 276.182L1146.14 275.669M578.67 355.41L796.338 305.733M1355.99 191.779L1360.99 227.327L1364.89 239.722L1368.35 240.867L1372.41 241.497L1372.8 242.343M41.9672 276.519L45.1251 276.325M41.9672 276.519L2.05408 278.981M41.9672 276.519L43.9154 276.573M53.924 271.055L57.0357 270.875M53.924 271.055L2.05408 274.049M53.924 271.055L56.5024 271.12M64.2491 266.335L67.3204 266.169M64.2491 266.335L2.05408 269.71M64.2491 266.335L66.8246 266.396M2.05408 424.858L19.2573 426.278L526.376 333.927L880.165 348.401L1094.59 263.734L1352.34 267.931L1372.79 281.246M1184.84 248.478L1188.97 245.58L1191.01 244.145L1192.92 242.801L1194.71 241.541L1196.41 240.355M1188.08 237.073L1186.32 238.063L1180.35 241.394L1178.09 242.644M1178.09 242.644L1175.71 243.977M1178.09 242.644L1173.1 242.591M1178.09 242.644L1192.93 242.799L1207.15 243.633L1236.95 246.907L1253.59 247.096L1284.87 244.462L1299.96 243.922L1363.82 244.592L1367.69 246.059L1372.32 246.871L1372.8 247.989M1146.14 275.669L1151.85 271.662L1156.97 268.068L1165.76 261.889L1169.48 256.95L1172.51 243.4L1171.21 241.301M1198 239.24L1199.5 238.186M1109.57 169.994L1109.37 171.734M1109.37 171.734L1111.44 174.092L1125.35 190.037L1125.42 190.117L1131.53 197.111L1151.88 220.29L1157.78 226.905L1162.92 232.421M1331.62 254.434L1372.79 254.97M1331.62 254.434L1253.94 253.422M1171.21 241.301L1169.77 239.767M1171.21 241.301L1170.61 240.1L1169.77 239.767M1169.77 239.767L1169.03 238.961M1169.03 238.961L1166.69 236.881L1162.92 232.421M1169.03 238.961L1168.47 237.897L1167.49 236.888L1162.92 232.421M1170.73 240.102L1196.41 240.355L1197.99 239.24L1211.05 239.932L1238.29 242.631L1253.34 242.786L1294.94 239.62L1308.22 239.197L1309.92 240.31L1324.37 240.448L1334.38 245.7L1337.32 247.244L1343.88 250.685L1362.41 250.91L1366.83 252.852L1372.79 255.473M63.7514 274.286L144.072 228.941M712.039 90.7615L690.297 115.169L666.53 160.296L649.445 173.578L646.906 178.885M769.28 285.645L767.987 285.477L729.601 271.526L684.761 291.42L631.312 322.969L594.003 321.614L557.885 286.429L522.769 251.258L488.504 223.049L455.007 201.498L422.209 185.937M925.968 9.17605L913.613 6.39385M628.37 168.505L645.647 150.922L646.348 149.967L649.432 147.07M51.37 275.853L123.241 240.585L151.145 224.948L179.456 210.438L208.178 197.454" stroke="url(#paint0_linear_317_117)" stroke-linecap="round" stroke-linejoin="round"/>
<defs>
<linearGradient id="paint0_linear_317_117" x1="943.572" y1="-16.2277" x2="935.708" y2="449.929" gradientUnits="userSpaceOnUse">
<stop offset="0.078125" stop-color="#0F0D19" stop-opacity="0"/>
<stop offset="0.3125" stop-color="#4100CC" stop-opacity="0.5"/>
<stop offset="0.833333" stop-color="#FF6D44"/>
</linearGradient>
</defs>
</svg>
