<svg width="86" height="118" viewBox="0 0 86 118" fill="none" xmlns="http://www.w3.org/2000/svg">
<path d="M62.1133 12.4243L67.7306 17.641L72.4478 23.6043M72.4478 23.6043L74.5288 29.032M72.4478 23.6043L69.373 24.4456M72.4478 23.6043L74.2614 22.7789M74.5288 29.032L76.0508 34.0998M74.5288 29.032L72.1955 29.8489M74.5288 29.032L76.433 28.348M76.0508 34.0998L77.0045 38.7506L77.4017 42.9369M76.0508 34.0998L77.5961 33.3547M76.0508 34.0998L73.9483 34.694L71.9517 35.6432M77.4017 42.9369L77.7327 46.5737L77.954 49.7203M77.4017 42.9369L76.1125 43.4337M77.4017 42.9369L78.5569 42.4339M77.954 49.7203L77.8751 52.6037M77.954 49.7203L78.7758 49.4088L79.6609 49.3028L80.6997 48.4647L81.9172 46.6655L82.9215 44.3628L84.045 42.5755M77.954 49.7203L76.9743 50.0411L76.3748 50.7915M77.8751 52.6037L78.3054 52.418M77.8751 52.6037L77.3709 55.4876M77.8751 52.6037L76.7684 53.1569M42.655 113.916L40.7916 109.19L38.584 104.515M42.655 113.916L40.17 114.74M42.655 113.916L45.1708 113.168M38.584 104.515L35.8594 98.7766M38.584 104.515L43.0794 104.864M38.584 104.515L34.9272 105.059M35.8594 98.7766L36.701 95.8303M35.8594 98.7766L31.4525 99.4225M36.701 95.8303L36.7628 94.3854M36.701 95.8303L36.4427 95.6118L31.9809 91.8545M36.701 95.8303L43.654 99.0615M36.7628 94.3854L36.4321 93.1151M36.7628 94.3854L36.4368 94.1371L32.2354 90.9454M36.7628 94.3854L41.871 96.9142M36.4321 93.1151L36.425 91.2688M36.4321 93.1151L36.8095 93.3131L40.8898 95.4609M36.4321 93.1151L32.3208 89.9433M36.425 91.2688L36.8482 88.6308L37.4728 85.5117M36.425 91.2688L40.4588 93.4417M36.425 91.2688L32.5936 88.4417M37.4728 85.5117L38.1257 82.1032M37.4728 85.5117L41.0084 87.2819M37.4728 85.5117L33.9664 83.2492M38.1257 82.1032L38.8285 78.4596M38.1257 82.1032L34.7449 80.1085M38.1257 82.1032L41.517 83.7402L44.8291 84.9986M38.8285 78.4596L39.6759 74.799L40.8663 71.3497M38.8285 78.4596L35.6098 76.6796L32.3505 74.7046M38.8285 78.4596L42.0247 80.0546L45.1867 81.3054M40.8663 71.3497L42.3667 68.4028L43.9141 66.0132M40.8663 71.3497L37.763 69.8805M40.8663 71.3497L43.8594 72.5388L46.8545 73.6291M43.9141 66.0132L45.3155 63.9746M43.9141 66.0132L40.9807 64.6912M43.9141 66.0132L46.9437 66.5439M45.3155 63.9746L47.1064 62.138L49.4725 60.3626M45.3155 63.9746L42.7126 62.7573M45.3155 63.9746L47.9225 64.5553M49.4725 60.3626L52.3762 58.7048M49.4725 60.3626L47.5099 59.1038M49.4725 60.3626L51.214 61.2808M52.3762 58.7048L55.8768 57.2505M52.3762 58.7048L53.7976 59.7718M52.3762 58.7048L50.6997 57.3619M55.8768 57.2505L59.4672 56.1045M55.8768 57.2505L56.771 58.4731L56.7816 58.4879L57.4995 59.4732M55.8768 57.2505L54.6187 55.7961L52.788 54.1055M59.4672 56.1045L62.7152 55.3108M59.4672 56.1045L59.826 57.4936M59.4672 56.1045L58.6574 54.5088M62.7152 55.3108L65.6853 54.9758L68.8428 55.2187M62.7152 55.3108L62.2349 53.5663M62.7152 55.3108L62.5761 56.757M68.8428 55.2187L71.9163 55.5502M68.8428 55.2187L67.7293 56.4027M68.8428 55.2187L69.2364 53.3518M71.9163 55.5502L73.7587 56.0993L74.2312 55.7988M71.9163 55.5502L70.0342 56.6562M71.9163 55.5502L72.7411 53.6352M74.2312 55.7988L73.9809 55.8828M74.2312 55.7988L76.4652 55.6954M74.2312 55.7988L76.2894 53.7603M76.2894 53.7603L76.3748 50.7915M76.2894 53.7603L76.7684 53.1569M76.2894 53.7603L74.9997 53.9051M76.3748 50.7915L75.7576 47.6185L74.8547 44.1634M76.3748 50.7915L75.2372 51.1394L72.6337 51.1703L68.7689 50.8814L64.8244 50.9851L61.0495 51.5391L57.1339 52.6387M74.8547 44.1634L73.7203 40.0766L71.9517 35.6432M74.8547 44.1634L73.4204 44.7131M74.8547 44.1634L76.1125 43.4337M71.9517 35.6432L69.6249 30.8755L66.4571 25.6414L61.7154 20.1922L55.659 15.3704L48.7771 11.7668L41.7744 9.09082M71.9517 35.6432L69.1639 36.463L66.0621 37.7126M41.7744 9.09082L45.2955 6.771M41.7744 9.09082L34.5539 7.03802M77.6866 90.3109L78.0432 89.0659L78.0554 89.036L78.0664 89.0028L78.0696 88.9881L78.0767 88.9807M77.6866 90.3109L77.1642 91.138L76.9693 92.7008M77.6866 90.3109L77.4312 91.7364M76.9693 92.7008L77.0675 94.4179M76.9693 92.7008L76.3699 93.4842M76.9693 92.7008L77.4312 91.7364M77.0675 94.4179L77.044 95.4396L76.9828 96.3676M77.0675 94.4179L76.9828 96.3676M77.0675 94.4179L77.1888 93.2559M76.9828 96.3676L76.2661 97.5294M76.9828 96.3676L76.3272 98.1247M76.2661 97.5294L76.4198 95.4651M76.2661 97.5294L74.8722 98.4751M76.2661 97.5294L75.5981 99.4645M75.5981 99.4645L74.052 100.411M75.5981 99.4645L74.3402 101.117L72.8497 102.045M75.5981 99.4645L76.3272 98.1247M74.052 100.411L72.8497 102.045M74.052 100.411L74.8722 98.4751M74.052 100.411L72.1614 101.293M72.8497 102.045L71.2137 103.135L69.2261 103.809M72.8497 102.045L70.9025 102.945M69.2261 103.809L66.6889 104.05M69.2261 103.809L70.9025 102.945M66.6889 104.05L65.2681 104.138M66.6889 104.05L64.1598 103.869M66.6889 104.05L68.0977 103.228M65.2681 104.138L63.8474 104.103M65.2681 104.138L65.7375 104.067M63.8474 104.103L62.2978 103.797M63.8474 104.103L64.1598 103.869M62.2978 103.797L61.6519 103.473M62.2978 103.797L61.6523 103.632M61.6519 103.473L58.9308 102.742L55.6783 101.683M61.6519 103.473L61.6445 102.4L62.2836 100.805M55.6783 101.683L57.1458 102.365M55.6783 101.683L54.4872 100.355M55.6783 101.683L51.5951 100.371M51.5951 100.371L50.0871 98.9106M51.5951 100.371L53.4414 101.286M51.5951 100.371L46.9568 98.7898M46.9568 98.7898L45.4488 97.3055M46.9568 98.7898L49.085 100.096M46.9568 98.7898L41.871 96.9142M45.4488 97.3055L40.8898 95.4609M45.4488 97.3055L50.0871 98.9106M45.4488 97.3055L44.6185 95.1105M40.8898 95.4609L40.4588 93.4417M40.8898 95.4609L41.871 96.9142M32.3208 89.9433L28.8253 86.1606L26.8004 83.0347M32.3208 89.9433L32.5936 88.4417M32.3208 89.9433L32.2354 90.9454M26.8004 83.0347L26.7478 81.6796M26.8004 83.0347L25.841 82.3372M26.7478 81.6796L27.2783 80.1245M26.7478 81.6796L24.461 78.803M26.7478 81.6796L29.3387 85.0137L32.5936 88.4417M27.2783 80.1245L28.0214 77.9858M27.2783 80.1245L25.4536 77.7981M27.2783 80.1245L29.9508 83.1135L33.2134 86.1474M28.0214 77.9858L28.6534 75.6545M28.0214 77.9858L30.7525 80.6009L33.9664 83.2492M28.0214 77.9858L26.0292 76.1215M28.6534 75.6545L29.3285 72.9395M28.6534 75.6545L26.41 74.2543M28.6534 75.6545L31.5307 77.7865M29.3285 72.9395L30.0622 69.8274L31.0804 66.5633M29.3285 72.9395L26.6654 71.8466M29.3285 72.9395L32.3505 74.7046M31.0804 66.5633L32.8174 63.5871M31.0804 66.5633L27.2976 64.7827M31.0804 66.5633L34.4887 68.2234M32.8174 63.5871L34.9446 60.7024M32.8174 63.5871L29.6756 61.606L27.1433 59.0911M32.8174 63.5871L36.1198 65.4032L39.2856 67.0261M34.9446 60.7024L38.0773 59.7122M34.9446 60.7024L31.551 58.9486M34.9446 60.7024L38.0683 63.0984L40.9807 64.6912M34.9446 60.7024L35.4419 57.8048M38.0773 59.7122L40.1909 61.3292L42.7126 62.7573M38.0773 59.7122L40.5592 58.1538M42.7126 62.7573L44.8141 60.9133M42.7126 62.7573L40.9807 64.6912M47.9225 64.5553L50.4971 64.5199M47.9225 64.5553L49.2206 62.8957M47.9225 64.5553L46.9437 66.5439M50.4971 64.5199L52.5778 63.9684M50.4971 64.5199L50.5627 66.2695M50.4971 64.5199L51.1951 63.1217L52.8591 61.8033L54.2112 62.0043L56.0152 60.9991L58.0091 60.1623M52.5778 63.9684L54.0356 63.5429M52.5778 63.9684L53.3222 64.6958M52.5778 63.9684L52.8919 63.0681M54.0356 63.5429L54.789 63.9949M54.0356 63.5429L55.281 63.207M54.0356 63.5429L54.0521 62.8791M54.789 63.9949L56.0426 64.3582M54.789 63.9949L55.9763 63.5748M54.789 63.9949L53.3222 64.6958M56.0426 64.3582L57.5522 64.9148M56.0426 64.3582L57.0413 64.0566M56.0426 64.3582L54.8628 65.4182M57.5522 64.9148L59.2311 65.1944M57.5522 64.9148L56.7313 65.787M57.5522 64.9148L58.3466 64.4596M59.2311 65.1944L60.875 65.1824L60.9462 65.1602L62.3093 64.7292L62.4491 64.6848M59.2311 65.1944L58.6107 66.0937M59.2311 65.1944L59.796 64.6763M62.4491 64.6848L62.6346 64.5418M62.4491 64.6848L62.2465 65.4714M62.6346 64.5418L63.7205 64.1649M62.6346 64.5418L62.7462 64.313L62.8541 63.9603M63.7205 64.1649L63.8925 63.7293M63.7205 64.1649L63.6789 64.899M63.7205 64.1649L64.7627 63.4444L64.7756 63.4357M64.7756 63.4357L64.8314 63.0997M64.7756 63.4357L64.7814 63.4658L64.9135 64.1353M64.8314 63.0997L64.6445 62.8379M64.8314 63.0997L64.7238 63.1721L63.8925 63.7293M64.8314 63.0997L65.5773 62.4242M64.6445 62.8379L64.4429 62.4362L64.3765 62.1093M64.6445 62.8379L63.8736 63.4733M64.6445 62.8379L65.3504 62.1659M64.3765 62.1093L64.3727 62.0684L64.4155 61.9592L64.3247 61.7353L64.5357 61.1137M64.3765 62.1093L63.8776 62.9004L63.8438 62.9275M64.5357 61.1137L64.6957 61.1379L64.8082 61.0264L64.9393 59.9503M64.5357 61.1137L64.6283 60.2623M64.5357 61.1137L64.2011 61.3864L64.0207 62.1114L63.8133 62.8242L63.7576 62.9962L63.8736 63.4733M64.9393 59.9503L64.9238 59.8395L64.802 58.9772M64.9393 59.9503L64.9754 59.8912L64.9873 59.8422L64.8556 58.7703L64.9155 58.6505L65.2949 58.3842M64.9393 59.9503L64.6283 60.2623M64.802 58.9772L64.8526 58.7424L64.8101 58.65H64.6043M64.802 58.9772L64.7151 58.8351M64.6043 58.65L64.7151 58.8351M64.6043 58.65H64.1727L63.9726 58.5192L63.3326 58.6674M63.3326 58.6674L63.1326 58.9444M63.3326 58.6674L62.9805 58.826M63.1326 58.9444L62.8224 58.9917M63.1326 58.9444L62.9893 58.8332L62.8224 58.9917M63.1326 58.9444L63.3149 58.8928L63.4963 58.8413L63.9829 58.5955L64.4609 58.3559M62.8224 58.9917L61.8778 59.3209L61.6155 59.5576M62.8224 58.9917L62.969 59.3077L63.0975 60.1071M61.6155 59.5576L61.4773 59.7296M61.6155 59.5576L61.7188 59.5979M61.6155 59.5576L60.5871 60.0157L60.3245 60.2583L60.2048 60.4253M61.4773 59.7296L61.3704 60.1832L61.3118 61.324L61.1691 61.4013M61.4773 59.7296L60.8645 60.0646M61.1691 61.4013L61.1669 61.4078L61.1324 61.4129L58.8391 61.7582L58.8281 61.7498L58.9128 61.1163L58.8274 61.0534L57.4782 61.7746L56.7361 62.193L56.5392 62.2913L56.3872 62.405M61.1691 61.4013L61.3189 61.3848M61.1691 61.4013L58.8353 61.7404L58.8301 61.7581L58.8346 61.7945L59.0848 63.6228M56.3872 62.405L56.3032 62.473L56.4304 62.6675L57.0666 62.9719M56.3872 62.405L56.3031 62.4708L56.0905 62.639M57.0666 62.9719L57.9307 63.3323M57.0666 62.9719L56.8009 63.3687M57.0666 62.9719L57.0318 62.8296M57.9307 63.3323L58.8899 63.6209L59.0848 63.6228M57.9307 63.3323L57.8421 63.1554L57.1641 62.8269L57.0149 62.7612L56.5965 62.6191L56.1872 62.9828M57.9307 63.3323L57.7053 63.7752M59.0848 63.6228L60.2636 63.8112M59.0848 63.6228L59.1496 63.7477M60.2636 63.8112L61.5682 63.7539L62.2704 63.5758L62.4401 63.3806L62.5635 63.3236L62.9455 62.5557L63.0849 61.8503L63.1345 61.0032M60.2636 63.8112L60.1793 64.3681M60.2636 63.8112L60.1851 63.7466M63.1345 61.0032L63.0975 60.1071M63.1345 61.0032L63.7766 60.7786L64.2816 60.5281L64.6283 60.2623M63.1345 61.0032L62.4196 61.1765L61.5544 61.3497L61.2427 61.3903M63.0975 60.1071L63.7154 59.8665L64.2146 59.6468L64.5484 59.44M63.0975 60.1071L62.4502 60.3042L61.6891 60.2575L61.5209 60.2182L61.4336 60.1976L60.8645 60.0646M64.4609 58.3559L64.67 58.0283L64.6974 58.0167M64.4609 58.3559L65.2949 58.3842M64.4609 58.3559L64.4073 58.4103L64.2739 58.6503L64.3471 58.8776L64.5484 59.44M64.6974 58.0167L64.8852 57.9559L65.4279 57.8312L66.3767 57.3226M64.6974 58.0167L64.6722 58.0257M66.3767 57.3226L67.7293 56.4027M66.3767 57.3226L64.355 57.5042L63.7987 58.237L63.7913 58.2466M66.3767 57.3226L68.1442 57.3228M67.7293 56.4027L65.137 56.3618L62.5761 56.757M67.7293 56.4027L70.0342 56.6562M69.2364 53.3518L68.77 50.8813L67.7811 48.3693M69.2364 53.3518L72.7411 53.6352M69.2364 53.3518L65.6351 53.1711L62.2349 53.5663M67.7811 48.3693L66.4541 45.5454M67.7811 48.3693L63.5058 48.5354M67.7811 48.3693L71.8508 48.2572M66.4541 45.5454L64.6522 42.5039M66.4541 45.5454L62.0352 46.035L57.549 47.1594M66.4541 45.5454L70.4211 45.0371M64.6522 42.5039L64.6384 42.4846L62.1859 39.1647M64.6522 42.5039L68.6376 41.6255M64.6522 42.5039L64.6179 42.5122L60.2731 43.531L55.7601 44.9115M62.1859 39.1647L59.2133 35.4467M62.1859 39.1647L66.0621 37.7126M62.1859 39.1647L58.0126 40.7736L53.5251 42.5171M59.2133 35.4467L55.4541 31.2128M59.2133 35.4467L55.0217 37.5294L50.6018 39.7593M59.2133 35.4467L63.1136 33.5882M55.4541 31.2128L50.6143 26.9881L44.8704 23.2366M55.4541 31.2128L51.2045 33.761L46.9746 36.5348M55.4541 31.2128L59.471 28.9783M44.8704 23.2366L38.743 20.5149M44.8704 23.2366L48.5358 20.2385M44.8704 23.2366L41.2711 26.3647L37.9243 29.6216M38.743 20.5149L32.8738 18.8249M38.743 20.5149L35.8345 23.7084L33.279 26.8705M38.743 20.5149L41.9157 17.3207M32.8738 18.8249L27.1051 17.9291M32.8738 18.8249L35.4342 15.3356M32.8738 18.8249L30.7482 22.2585L29.1868 25.5023M27.1051 17.9291L21.4964 18.3211M27.1051 17.9291L25.4963 21.9804L24.9299 25.5445M27.1051 17.9291L28.9703 14.1516M21.4964 18.3211L16.0333 20.3535M21.4964 18.3211L20.7681 23.2402L21.0506 27.8607M21.4964 18.3211L22.9406 14.1783M16.0333 20.3535L11.4469 23.2147M16.0333 20.3535L16.5931 15.4303M16.0333 20.3535L16.3386 25.3003L18.1305 30.2957M11.4469 23.2147L7.56981 27.6452M11.4469 23.2147L11.224 18.123M11.4469 23.2147L12.7871 28.3266L15.0373 33.2725M7.56981 27.6452L4.89544 32.4328M7.56981 27.6452L6.75915 22.5957M7.56981 27.6452L9.51404 32.5201L12.715 37.3342M4.89544 32.4328L7.33791 37.1484L11.1989 41.9109M4.89544 32.4328L3.63104 27.3711L4.28247 22.806M4.89544 32.4328L3.25123 37.6502L2.88281 43.6605L5.70243 47.1215L5.7095 51.6923L6.80012 55.9131L8.48754 57.5685M11.1989 41.9109L15.1462 45.098M11.1989 41.9109L10.8865 47.4162M11.1989 41.9109L12.715 37.3342M15.1462 45.098L18.7009 47.6652M15.1462 45.098L16.558 41.6129M15.1462 45.098L14.7109 48.8315M18.7009 47.6652L21.4983 49.9736M18.7009 47.6652L17.9542 50.3351M18.7009 47.6652L20.0202 44.9299M21.4983 49.9736L24.039 52.3832L26.4341 54.5764M21.4983 49.9736L22.8373 47.6487M21.4983 49.9736L20.3759 52.1679M26.4341 54.5764L28.8582 56.7831M26.4341 54.5764L24.9024 56.5642M26.4341 54.5764L28.206 52.3507M28.8582 56.7831L31.551 58.9486M28.8582 56.7831L27.1433 59.0911M28.8582 56.7831L30.6935 54.4669M31.551 58.9486L33.1473 56.4046M31.551 58.9486L29.6745 61.6066L27.2976 64.7827M40.9807 64.6912L39.2856 67.0261M46.9437 66.5439L50.5627 66.2695M46.9437 66.5439L45.4062 68.991M50.5627 66.2695L53.3222 64.6958M50.5627 66.2695L48.4653 69.7672L46.8545 73.6291M50.5627 66.2695L53.2768 67.4582M53.3222 64.6958L54.8628 65.4182M54.8628 65.4182L56.7313 65.787M54.8628 65.4182L53.2768 67.4582M56.7313 65.787L58.6107 66.0937M56.7313 65.787L55.5847 68.0522M58.6107 66.0937L60.4692 65.9567L62.2465 65.4714M58.6107 66.0937L58.0587 68.1507M62.2465 65.4714L63.6789 64.899M62.2465 65.4714L62.0766 67.2229M63.6789 64.899L64.9135 64.1353M63.6789 64.899L63.7463 66.2362M64.9135 64.1353L65.9913 63.35M64.9135 64.1353L65.1623 65.3775M65.9913 63.35L66.8068 62.758M65.9913 63.35L65.6118 62.8268L65.5773 62.4242M65.9913 63.35L66.4207 64.5423M66.8068 62.758L67.6169 62.2558M66.8068 62.758L67.5634 63.7565M66.8068 62.758L66.3532 62.3609L66.1691 62.0124M67.6169 62.2558L68.6263 62.7152M67.6169 62.2558L67.2214 61.8334L66.7767 61.5512L66.372 61.2396M68.6263 62.7152L69.7337 63.5823M68.6263 62.7152L67.5634 63.7565M68.6263 62.7152L69.5847 61.7961M69.7337 63.5823L70.7976 65.2762M69.7337 63.5823L68.4694 64.851M69.7337 63.5823L70.906 62.34M70.7976 65.2762L71.7226 67.0667L72.6197 69.1236L73.24 70.8604M70.7976 65.2762L69.3772 66.4618M70.7976 65.2762L72.1844 63.9098M73.24 70.8604L73.5138 72.3079M73.24 70.8604L71.4321 71.7826M73.24 70.8604L74.9557 70.1982M73.5138 72.3079L73.5354 73.0042L72.5859 73.8211M73.5138 72.3079L71.5229 73.5982M73.5138 72.3079L75.6029 72.0223M72.5859 73.8211L71.8811 75.2454L72.1111 76.8855M72.5859 73.8211L71.5229 73.5982M72.5859 73.8211L72.916 74.0281M72.1111 76.8855L73.2436 77.8998M72.1111 76.8855L73.4766 76.597M72.1111 76.8855L71.2749 77.1516M73.2436 77.8998L74.6031 78.0019M73.2436 77.8998L74.2724 77.7739M73.2436 77.8998L72.7486 78.1121M74.6031 78.0019L75.2058 77.8679L75.438 77.8041M74.6031 78.0019L74.705 78.4499M75.438 77.8041L75.9901 77.6518M75.438 77.8041L75.2778 77.8758L74.2724 77.7739M75.9901 77.6518L76.3505 77.5523L76.3714 77.5223L76.4413 77.4212L77.0869 77.3809M75.9901 77.6518L76.472 77.7655L77.2876 77.8074M77.0869 77.3809L77.5751 77.4166M77.0869 77.3809L77.2447 77.2659M77.0869 77.3809L76.4256 77.465L75.7572 77.4866L74.2724 77.7739M77.5751 77.4166L78.0503 77.4653M77.5751 77.4166L77.2447 77.2659M78.0503 77.4653L78.1726 77.7101M78.0503 77.4653L78.6703 77.5286M78.1726 77.7101L78.3901 78.4174L78.3891 78.4477L78.8706 78.7241M78.1726 77.7101L78.8378 77.6625L79.1909 77.7256M78.1726 77.7101L77.2876 77.8074M78.8706 78.7241L79.9374 78.7234L80.436 78.6754L81.1263 78.5034L81.1291 78.5021M78.8706 78.7241L78.5766 78.88M78.8706 78.7241L79.1257 78.8413L79.1859 79.452L79.6021 80.5185L79.8604 81.2232M81.1291 78.5021L82.1753 77.7429M81.1291 78.5021L80.1774 78.3526M82.1753 77.7429L82.6463 76.2581M82.1753 77.7429L83.0753 77.4875L83.9079 75.8857M82.1753 77.7429L81.0812 77.7104M82.6463 76.2581L83.9079 75.8857M82.6463 76.2581L81.1988 76.2612M83.9079 75.8857L84.4062 75.3678L84.2867 74.7217M83.9079 75.8857L83.4773 73.9973L82.9951 72.1546M84.2867 74.7217L84.0503 73.5041L83.5568 71.7265M84.2867 74.7217L84.1973 72.9419M83.5568 71.7265L82.758 69.896L82.7039 69.5797M83.5568 71.7265L82.9951 72.1546M83.5568 71.7265L83.5977 71.2624M82.7039 69.5797L82.1403 68.2794L82.166 68.1702M82.7039 69.5797L82.8439 69.8409M82.7039 69.5797L82.6172 69.5361M82.166 68.1702L82.1667 68.1667L82.6295 66.188M82.166 68.1702L81.9374 67.9157L81.7596 67.8075L80.6884 65.7815M82.6295 66.188L82.4366 65.7355L81.8207 65.1972M82.6295 66.188L82.881 63.3251L82.8916 63.202L82.5959 60.5844L81.8863 58.5276M81.8207 65.1972L81.1611 64.6829M81.8207 65.1972L81.7702 67.2835M81.8207 65.1972L81.5714 63.0096M81.1611 64.6829L80.5046 64.1917L80.0579 63.9176M81.1611 64.6829L81.2445 66.3431M81.1611 64.6829L80.802 62.7025M80.0579 63.9176L80.0102 63.8215L79.8147 63.6409L79.5676 63.3213L78.5817 60.5465M80.0579 63.9176L80.543 64.8925M78.5817 60.5465L77.8608 61.0435M78.5817 60.5465L78.874 60.2495M78.5817 60.5465L78.1111 58.5005L78.2599 58.0328L78.2751 57.522L78.3398 57.5027M78.3398 57.5027L78.4039 57.0285M78.3398 57.5027L78.5535 58.0622L78.9039 59.2199L79.5507 60.66L80.0191 62.3371L80.802 62.7025M78.4039 57.0285L78.3862 56.7238L78.4133 56.6736L79.3129 56.6726M78.4039 57.0285L78.3963 56.7703L78.4092 56.6924M79.3129 56.6726L80.2879 56.6072L80.3046 56.6062L81.1572 56.3454L81.7756 56.0143L81.9557 55.7691L82.0107 55.6686L82.1792 55.3774M79.3129 56.6726L79.1621 56.2821M79.3129 56.6726L79.4005 56.9765L79.3396 57.3512L79.4278 58.0098M82.1792 55.3774L82.1853 55.3668L82.215 55.227M82.1792 55.3774L82.0325 56.2218L81.6187 57.0435M82.215 55.227L82.0974 54.7841M82.215 55.227L82.2015 55.2471L81.766 55.9058L81.7064 56.1841L81.5857 56.5171L81.5834 56.5187L81.136 56.7323M82.215 55.227L82.2479 55.1385M82.0974 54.7841L82.3084 54.1596L82.3663 54.0346L82.4043 53.9312L82.483 53.3473L82.4865 53.1382L82.606 52.0647M82.0974 54.7841L82.0796 54.8114L81.6762 55.4134L81.4266 55.3896L81.2582 55.4814L81.1058 55.6685L80.9374 55.7265L80.6927 55.868M82.606 52.0647L82.6311 52.0183L82.672 51.9416M82.606 52.0647L82.2146 52.7256L82.0703 52.7485M82.672 51.9416L82.6637 51.8624L82.6053 51.3309L82.6034 51.312L82.5335 51.261L82.4507 51.1802L82.2797 51.1451L82.2188 51.147L82.0636 51.1251L81.8165 51.091L81.5482 51.0749L81.5311 51.0784L81.5005 51.0021L81.3215 51.1448L81.2348 51.2652L81.3356 51.3528L81.4055 51.7432M82.672 51.9416L82.6443 52.145L82.501 53.2105L82.5612 53.4949L82.4827 54.3838M82.672 51.9416L82.6405 51.9066L82.615 51.878L82.56 51.3755L82.5732 51.2695L82.7783 51.0865M81.4055 51.7432L81.5627 52.4976M81.4055 51.7432L81.6773 51.7618M81.4055 51.7432L80.9377 51.8694M81.5627 52.4976L81.6194 53.3495M81.5627 52.4976L81.1023 52.7006M81.5627 52.4976L81.8633 52.3068L82.0256 51.8172L82.0054 51.7274L82.1244 51.6536M81.6194 53.3495L81.5321 54.1802L81.0718 54.434M81.6194 53.3495L81.9311 53.1034L82.2036 52.8142M81.6194 53.3495L81.1555 53.5824L80.5557 53.7908M81.0718 54.434L80.8795 55.1797L80.8773 55.1861L80.6927 55.868M81.0718 54.434L80.496 54.6106L79.8882 54.7343M81.0718 54.434L81.1542 53.5822L81.1023 52.7006M80.6927 55.868L80.5945 55.9878L80.5719 56.0336L80.1796 56.1637M80.6927 55.868L80.5866 56.01L80.4903 56.0335L80.4059 56.0029L79.9766 56.0371M80.1796 56.1637L79.9177 56.1189L79.4862 55.6699L79.1647 55.0537M80.1796 56.1637L80.2986 56.5855L80.2963 56.6068L80.3565 56.8257M79.1647 55.0537L79.0636 54.1116M79.1647 55.0537L79.8882 54.7343M79.1647 55.0537L78.9596 55.1575L78.9245 55.1752L78.7988 55.239M79.0636 54.1116L79.1032 53.8014L79.212 53.6684L79.8411 53.1034M79.0636 54.1116L79.8826 53.9512L80.5557 53.7908M79.0636 54.1116L78.8286 54.0984L78.7089 54.1641L78.6934 54.1947L78.7948 55.2283L78.8006 55.2392L79.18 55.9392L79.5618 56.2294L79.7489 56.2142L79.8591 56.2013L79.9779 56.0371L80.3525 55.2988L80.4978 54.6108L80.5557 53.7908M79.8411 53.1034L79.9216 53.0419L79.9854 53.0074L80.5004 51.1399M79.8411 53.1034L79.7617 53.1285L78.5312 53.7946M79.8411 53.1034L79.9182 53.0863L79.9613 53.0953L80.5268 52.9253M80.5004 51.1399L80.5317 51.0923L80.5681 51.0365L81.7968 49.1645M80.5004 51.1399L80.7008 48.4646L80.676 45.3371M80.5004 51.1399L78.8694 52.4802M81.7968 49.1645L83.2292 46.8035M81.7968 49.1645L81.9192 46.6657L81.9292 43.5992M81.7968 49.1645L81.5288 50.6419L81.5697 50.7128L81.6496 51.0758L81.8061 51.2059L82.1244 51.6536M83.2292 46.8035L82.9226 44.3627L82.9506 41.5856M83.2292 46.8035L84.1884 44.9018M83.2292 46.8035L82.8092 48.5025L82.6936 48.7634M82.9506 41.5856L82.9887 38.4899M82.9506 41.5856L83.7716 39.8984L84.0379 39.3569M82.9506 41.5856L81.9292 43.5992M82.9887 38.4899L82.7539 35.1565M82.9887 38.4899L81.8766 40.0584L81.862 40.0778M82.9887 38.4899L83.4819 37.2693L83.4552 36.9447L83.4178 36.7788M82.7539 35.1565L82.2024 31.4778M82.7539 35.1565L83.115 34.4707M82.7539 35.1565L81.8906 36.2594M82.2024 31.4778L81.8606 30.2851M82.2024 31.4778L82.3097 31.5285L83.1136 34.4712L83.4164 36.7793L83.4538 36.9452L83.5015 37.2183M82.2024 31.4778L81.5102 31.8405M81.8606 30.2851L81.058 27.4857M81.8606 30.2851L82.1396 31.0538L82.311 31.5276M81.058 27.4857L80.4866 27.3276M81.058 27.4857L79.1277 23.0034M79.1277 23.0034L78.6632 22.3873M79.1277 23.0034L78.6716 22.3879M78.6632 22.3873L78.5534 22.1747M78.6632 22.3873L77.6683 20.9375M78.5534 22.1747L78.333 21.8368L75.3501 17.4575M78.5534 22.1747L77.6683 20.9375M78.5534 22.1747L78.6716 22.3879M75.3501 17.4575L74.1043 16.8565M75.3501 17.4575L77.6683 20.9375M75.3501 17.4575L70.8865 13.1373M70.8865 13.1373L69.3484 12.1668L67.3708 11.7126M70.8865 13.1373L69.3787 12.1735M67.3708 11.7126L61.6158 7.90833M67.3708 11.7126L72.3804 16.71M67.3708 11.7126L64.9869 11.7948M61.6158 7.90833L58.812 7.82651M61.6158 7.90833L63.9885 8.65719M61.6158 7.90833L55.8113 5.00914M58.812 7.82651L52.4489 4.71024M58.812 7.82651L55.5917 8.47332M58.812 7.82651L64.9869 11.7948M52.4489 4.71024L48.9384 5.28032M52.4489 4.71024L55.8113 5.00914M52.4489 4.71024L46.0524 1.92795M48.9384 5.28032L45.2955 6.771M48.9384 5.28032L42.3232 2.40533M48.9384 5.28032L55.5917 8.47332M45.2955 6.771L52.1964 9.80121M45.2955 6.771L38.3788 4.06597L31.571 3.25693M34.5539 7.03802L27.6075 6.2347M34.5539 7.03802L31.4647 10.5794L28.9703 14.1516M34.5539 7.03802L38.3776 4.06633L42.3232 2.40533M27.6075 6.2347L20.9063 6.82479M27.6075 6.2347L24.8101 9.92084M27.6075 6.2347L31.571 3.25693M20.9063 6.82479L18.0744 10.9183M20.9063 6.82479L24.9433 3.40476M20.9063 6.82479L14.8811 8.70005M18.0744 10.9183L16.5931 15.4303M18.0744 10.9183L24.8101 9.92084M18.0744 10.9183L12.486 13.0148M16.5931 15.4303L22.9406 14.1783M16.5931 15.4303L11.224 18.123M18.1305 30.2957L20.8193 35.3456M18.1305 30.2957L15.0373 33.2725M18.1305 30.2957L21.0506 27.8607M20.8193 35.3456L23.8122 38.9917M20.8193 35.3456L23.3987 32.3372M20.8193 35.3456L18.6061 38.3318M23.8122 38.9917L26.9914 42.0697M23.8122 38.9917L21.727 41.942M23.8122 38.9917L26.2505 35.7791M26.9914 42.0697L30.0123 44.8529L32.7839 47.3488M26.9914 42.0697L29.4738 39.0562M26.9914 42.0697L24.7648 44.9391M32.7839 47.3488L35.3278 49.58M32.7839 47.3488L30.283 49.9245M32.7839 47.3488L35.7169 44.744M35.3278 49.58L37.6431 51.5393M35.3278 49.58L32.7427 52.0694M35.3278 49.58L38.4297 47.1037M37.6431 51.5393L39.6798 53.1962M37.6431 51.5393L40.7871 49.1317M37.6431 51.5393L35.0596 53.9735L33.1473 56.4046M39.6798 53.1962L41.5569 54.7059M39.6798 53.1962L42.9081 50.9106M39.6798 53.1962L37.105 55.5172M41.5569 54.7059L43.4351 56.1405M41.5569 54.7059L38.8958 56.7915M41.5569 54.7059L44.8014 52.5082M43.4351 56.1405L45.4366 57.6534L47.5099 59.1038M43.4351 56.1405L40.5592 58.1538M43.4351 56.1405L46.7188 54.1223M47.5099 59.1038L50.6997 57.3619M47.5099 59.1038L44.8141 60.9133M51.214 61.2808L53.7976 59.7718M51.214 61.2808L49.2206 62.8957M51.214 61.2808L52.86 61.8029L55.0392 60.5265M53.7976 59.7718L56.7634 58.4957L56.777 58.4802L59.826 57.4936M53.7976 59.7718L55.0392 60.5265M59.826 57.4936L62.5761 56.757M59.826 57.4936L59.9931 58.6461M62.5761 56.757L62.2743 57.9626M70.0342 56.6562L68.1442 57.3228M70.0342 56.6562L71.3847 57.3273M72.7411 53.6352L72.6348 51.1702L71.8508 48.2572M72.7411 53.6352L74.9997 53.9051M71.8508 48.2572L70.4211 45.0371M71.8508 48.2572L74.594 48.1823M70.4211 45.0371L68.6376 41.6255M70.4211 45.0371L73.4204 44.7131M68.6376 41.6255L66.0621 37.7126M68.6376 41.6255L71.6474 40.816M66.0621 37.7126L63.1136 33.5882M63.1136 33.5882L59.471 28.9783M63.1136 33.5882L66.6161 32.1168M59.471 28.9783L54.5699 24.3198L48.5358 20.2385M59.471 28.9783L63.1038 27.178M48.5358 20.2385L41.9157 17.3207M48.5358 20.2385L52.1672 17.5721M41.9157 17.3207L35.4342 15.3356M41.9157 17.3207L45.3522 14.3138M35.4342 15.3356L28.9703 14.1516M35.4342 15.3356L38.4605 11.9829M28.9703 14.1516L22.9406 14.1783M22.9406 14.1783L24.8101 9.92084M11.224 18.123L6.75915 22.5957M11.224 18.123L12.486 13.0148M6.75915 22.5957L7.73731 17.4582M6.75915 22.5957L3.63222 27.371L1.67188 33.1043M12.715 37.3342L16.558 41.6129M12.715 37.3342L15.0373 33.2725M16.558 41.6129L20.0202 44.9299M16.558 41.6129L18.6061 38.3318M20.0202 44.9299L22.8373 47.6487M20.0202 44.9299L21.727 41.942M22.8373 47.6487L25.6589 50.1108L28.206 52.3507M22.8373 47.6487L24.7648 44.9391M28.206 52.3507L30.6935 54.4669M28.206 52.3507L30.283 49.9245M30.6935 54.4669L33.1473 56.4046M30.6935 54.4669L32.7427 52.0694M33.1473 56.4046L35.4419 57.8048M35.4419 57.8048L37.2198 58.2863L38.8958 56.7915M35.4419 57.8048L37.105 55.5172M38.8958 56.7915L37.105 55.5172M38.8958 56.7915L40.5592 58.1538M44.8014 52.5082L48.6237 50.4397M44.8014 52.5082L46.7188 54.1223M44.8014 52.5082L42.9081 50.9106M48.6237 50.4397L53.0677 48.5844M48.6237 50.4397L50.6363 52.2183L52.788 54.1055M48.6237 50.4397L46.6903 48.6639L44.5537 46.7827M53.0677 48.5844L57.549 47.1594M53.0677 48.5844L55.1179 50.5647L57.1339 52.6387M53.0677 48.5844L51.0659 46.6023L48.8293 44.537M57.549 47.1594L55.7601 44.9115M57.549 47.1594L59.4349 49.3108M73.4204 44.7131L74.594 48.1823M73.4204 44.7131L71.6474 40.816M76.1125 43.4337L75.4523 39.4052M76.1125 43.4337L76.7437 46.9896M78.5569 42.4339L79.6755 42.1553M78.5569 42.4339L78.7273 46.2541M78.5569 42.4339L78.3315 38.1801M79.6755 42.1553L80.606 41.5972M79.6755 42.1553L79.6149 46.0101M79.6755 42.1553L79.5761 37.786M80.606 41.5972L80.7143 37.207M80.606 41.5972L81.862 40.0778M80.606 41.5972L80.676 45.3371M80.7143 37.207L80.4479 32.4757M80.7143 37.207L81.8906 36.2594M80.7143 37.207L79.5761 37.786M80.4479 32.4757L79.4556 27.5453M80.4479 32.4757L81.5102 31.8405M80.4479 32.4757L79.1753 32.9824L77.5961 33.3547M79.4556 27.5453L77.4866 22.2555M79.4556 27.5453L78.0963 27.8709M79.4556 27.5453L80.4866 27.3276M77.4866 22.2555L74.1043 16.8565M77.4866 22.2555L76.0714 22.3604M77.4866 22.2555L78.6716 22.3879M74.1043 16.8565L72.3804 16.71M74.1043 16.8565L69.5295 12.3452L69.3787 12.1735M69.3787 12.1735L69.2737 12.093L68.6048 11.6698M69.3787 12.1735L68.6048 11.6698M68.6048 11.6698L65.9558 9.94527L63.9885 8.65719M63.9885 8.65719L58.7956 5.99089M58.7956 5.99089L55.8113 5.00914M58.7956 5.99089L54.3105 4.35156M55.8113 5.00914L50.2942 2.59208L46.0524 1.92795M46.0524 1.92795L45.08 1.78656M46.0524 1.92795L42.3232 2.40533M45.08 1.78656L44.4819 1.56075M45.08 1.78656L43.8022 1.60133M44.4819 1.56075L43.8022 1.60133M44.4819 1.56075L39.7706 1.01611M44.4819 1.56075L50.2956 2.59181M43.8022 1.60133L39.7706 1.01611M39.7706 1.01611L35.5337 1.42711M39.7706 1.01611L33.8497 1L29.1191 1.35174M35.5337 1.42711L29.1191 1.35174M35.5337 1.42711L31.571 3.25693M35.5337 1.42711L42.3232 2.40533M29.1191 1.35174L23.1754 3.36807L18.7827 5.57152M29.1191 1.35174L24.9433 3.40476M18.7827 5.57152L14.8811 8.70005M18.7827 5.57152L24.9433 3.40476M14.8811 8.70005L9.85611 12.9282M14.8811 8.70005L12.486 13.0148M9.85611 12.9282L7.73731 17.4582M9.85611 12.9282L6.49477 18.5717L4.28247 22.806M7.73731 17.4582L12.486 13.0148M7.73731 17.4582L4.28247 22.806M4.28247 22.806L1.76695 28.979M1.76695 28.979L1.67188 33.1043M1.76695 28.979L1 36.949L1.05379 40.1313M1.05379 40.1313L2.09518 46.9929L4.31565 53.4194L5.61017 54.8589L6.43602 56.8465L6.33041 57.1384L6.28755 57.2553L5.82116 58.5395M1.05379 40.1313L1.67188 33.1043M1.05379 40.1313L2.88457 43.6605L3.53065 49.3162L5.71126 51.6923L8.06094 54.0343L8.16851 54.2788M5.82116 58.5395L5.67717 62.165M5.82116 58.5395L8.02962 59.7009L8.15135 62.4204L8.48729 65.0545L8.48982 65.0604M5.67717 62.165L6.64834 66.3909M5.67717 62.165L8.15276 62.4201L8.26303 62.0675M6.64834 66.3909L9.06336 70.4758L12.6422 73.3492M6.64834 66.3909L8.58607 65.827M12.6422 73.3492L15.2296 75.7627L15.9528 76.2777M12.6422 73.3492L13.4404 72.0541L13.9548 71.2621L14.4728 70.2874M15.9528 76.2777L15.9936 76.3067M15.9528 76.2777L16.2647 77.2085M15.9936 76.3067L16.2632 77.2086L16.7551 77.3329M15.9936 76.3067L16.4753 76.6493M16.7551 77.3329L17.3232 77.2537M16.7551 77.3329L16.4753 76.6493M16.7551 77.3329L16.7617 77.3615L17.9531 82.9176L18.6427 88.784L19.5957 95.4424M17.3232 77.2537L17.3552 77.2762M17.3232 77.2537L16.4753 76.6493M17.3552 77.2762L17.9413 77.694L18.3736 77.8157M17.3552 77.2762L19.1438 82.7076M18.3736 77.8157L20.4915 82.4284M18.3736 77.8157L21.307 78.6416M21.307 78.6416L20.5532 75.8576L20.3296 73.9102L19.918 72.5571M21.307 78.6416L23.0546 78.2789M23.0546 78.2789L23.5301 78.1804M23.0546 78.2789L25.034 81.9933M23.5301 78.1804L24.461 78.803M23.5301 78.1804L23.7905 78.126L23.96 77.7283M24.461 78.803L23.96 77.7283M24.461 78.803L25.4536 77.7981M24.461 78.803L25.841 82.3372M32.5936 88.4417L33.2134 86.1474M32.2354 90.9454L31.9809 91.8545M32.2354 90.9454L28.4404 86.6848M41.871 96.9142L43.654 99.0615M49.085 100.096L50.0973 100.424M49.085 100.096L43.654 99.0615M50.0973 100.424L52.1768 101.27M50.0973 100.424L53.4414 101.286M52.1768 101.27L49.1991 101.23M52.1768 101.27L54.9317 101.721M54.9317 101.721L54.7636 101.684L52.9525 101.939L49.1991 101.23M54.9317 101.721L55.5047 101.887M55.5047 101.887L57.1458 102.365M55.5047 101.887L55.493 101.904M57.1458 102.365L58.9779 102.831M58.9779 102.831L60.0524 103.224L61.6525 103.553L64.1598 103.869M58.9779 102.831L58.3012 101.549M64.1598 103.869L64.8677 102.922L65.9104 101.449M68.0977 103.228L70.9025 102.945M68.0977 103.228L69.3887 101.721M68.0977 103.228L64.8669 102.923L61.6433 102.401L58.3012 101.549M70.9025 102.945L72.1614 101.293M72.1614 101.293L72.9543 99.2678M72.1614 101.293L69.3887 101.721M72.9543 99.2678L73.3296 97.0302M72.9543 99.2678L74.8722 98.4751M72.9543 99.2678L70.3415 99.7421M73.3296 97.0302L73.4758 94.8589M73.3296 97.0302L70.9365 97.5012M73.3296 97.0302L75.1511 96.3219M73.4758 94.8589L73.6871 93.1031M73.4758 94.8589L71.4708 95.4453M73.4758 94.8589L75.1791 94.2152L76.3699 93.4842M73.6871 93.1031L74.1355 91.8769M73.6871 93.1031L72.0767 93.6968M73.6871 93.1031L75.2011 92.5066L75.4383 91.2891M74.1355 91.8769L75.4383 91.2891M74.1355 91.8769L74.8843 91.0707M74.1355 91.8769L72.798 92.4113M75.4383 91.2891L76.1263 90.5418M75.4383 91.2891L76.6376 90.6494M76.1263 90.5418L76.6975 90.0252M76.1263 90.5418L74.8843 91.0707M76.1263 90.5418L77.2722 89.8304M76.6975 90.0252L77.0034 89.3826M76.6975 90.0252L75.4267 90.528M76.6975 90.0252L76.9265 89.8623L77.6745 89.3617M77.0034 89.3826L77.1863 88.2549M77.0034 89.3826L75.7565 89.8677M77.0034 89.3826L78.1244 88.6644M77.1863 88.2549L78.2454 87.5218M77.1863 88.2549L75.9807 88.7364M77.1863 88.2549L76.8389 86.7456M78.2454 87.5218L78.9019 86.5661M78.2454 87.5218L77.8734 86.0267M78.2454 87.5218L78.1244 88.6644M78.9019 86.5661L79.0095 85.5467L78.7959 85.0034L78.792 84.994L78.9363 84.7834M78.9019 86.5661L78.7418 87.633M78.9019 86.5661L78.593 85.2872L78.7933 84.9989L78.9363 84.7834M78.9363 84.7834L79.1947 84.5092L79.3254 84.2316M78.9363 84.7834L79.4284 83.9894M79.3254 84.2316L79.4284 83.9894M79.3254 84.2316L78.861 84.8628L78.7882 84.9836L78.7779 85.0006L78.7734 85.0084L78.7074 85.1176L78.6172 85.2673L78.1859 85.622L78.0806 85.7083L77.6341 85.8466M79.3254 84.2316L79.7232 83.7284L79.9207 83.4546L80.1632 83.2362L80.1699 83.1518L80.2785 81.8441M79.4284 83.9894L79.7216 83.7507L79.939 83.4589L80.16 83.2721L80.2766 83.159M79.4284 83.9894L79.4856 82.511M80.2766 83.159L80.4547 81.8929M80.2766 83.159L80.1611 83.259L80.0098 83.4381M80.4547 81.8929L80.4663 81.1588M80.4547 81.8929L80.2785 81.8441M80.4663 81.1588L80.4076 80.8264M80.4663 81.1588L80.2663 81.0546M80.4076 80.8264L80.3626 80.4235L80.2827 80.1216M80.4076 80.8264L80.3414 80.4494L80.3846 80.3976M80.2827 80.1216L79.9715 78.7424L79.3966 78.4467M80.2827 80.1216L80.3846 80.3976M79.3966 78.4467L78.3988 78.4451L78.3797 78.4499L77.2486 78.7305M79.3966 78.4467L78.8674 77.7432M79.3966 78.4467L80.1774 78.3526M77.2486 78.7305L76.1006 78.6268L74.705 78.4499M77.2486 78.7305L77.831 79.0926M77.2486 78.7305L77.2876 77.8074M77.2486 78.7305L76.8496 79.7758L76.9815 80.7958M74.705 78.4499L72.7486 78.1121M74.705 78.4499L75.3484 77.8823M74.705 78.4499L74.1457 79.7035L74.1348 79.7276L74.1363 79.7405L74.33 81.4426M72.7486 78.1121L72.6812 78.1188M72.6812 78.1188L72.3687 79.3257L71.6682 81.6593M72.6812 78.1188L71.2749 77.1516M71.6682 81.6593L69.8744 83.4866M71.6682 81.6593L74.33 81.4426M71.6682 81.6593L69.4265 79.5361M71.6682 81.6593L73.3341 83.9302L73.9938 84.8069M69.8744 83.4866L68.2962 85.1155M69.8744 83.4866L71.5875 85.2499M69.8744 83.4866L68.0706 81.4075M68.2962 85.1155L66.868 86.5278L65.7745 87.7521M68.2962 85.1155L69.8071 86.3941L70.432 86.9648M68.2962 85.1155L66.5156 83.4288M65.7745 87.7521L65.291 88.8775M65.7745 87.7521L66.8016 88.031M65.7745 87.7521L63.9934 87.2239M65.291 88.8775L65.4233 90.068M65.291 88.8775L63.6348 88.903L63.611 88.9034L61.4291 88.7633M65.291 88.8775L66.1291 88.7088M65.4233 90.068L66.2611 91.2134M65.4233 90.068L66.3233 89.4354M65.4233 90.068L63.856 90.6542M66.2611 91.2134L67.632 92.0872L69.3504 92.6538M66.2611 91.2134L64.6927 92.3376M66.2611 91.2134L67.1498 90.1801M69.3504 92.6538L71.1635 92.7173M69.3504 92.6538L68.1322 94.1759M69.3504 92.6538L70.22 91.3689M71.1635 92.7173L71.9407 91.5632M71.1635 92.7173L70.2031 94.1606M71.1635 92.7173L72.798 92.4113M71.9407 91.5632L72.3942 90.7834M71.9407 91.5632L73.5064 91.4459M71.9407 91.5632L70.22 91.3689M72.3942 90.7834L72.6757 90.0587M72.3942 90.7834L70.6684 90.5146M72.3942 90.7834L73.9999 90.7763M72.6757 90.0587L72.8921 89.0283M72.6757 90.0587L70.922 89.8242L69.1334 89.4822L67.7019 89.1074M72.6757 90.0587L74.3339 90.0893M72.8921 89.0283L72.7872 87.718L72.7128 87.5779L72.7527 87.6445M72.8921 89.0283L71.1036 88.9589M72.8921 89.0283L74.5464 88.9774M72.7527 87.6445L74.4305 87.4571M72.7527 87.6445L71.8718 87.8105M72.7527 87.6445L72.9257 87.5L74.199 87.0658L75.5595 86.5008M74.4305 87.4571L75.7363 87.1762M74.4305 87.4571L74.1661 87.0767L74.4837 86.3375M74.4305 87.4571L74.5464 88.9774M75.7363 87.1762L76.8389 86.7456M75.7363 87.1762L75.9807 88.7364M75.7363 87.1762L75.2316 86.6367M76.8389 86.7456L77.8734 86.0267M76.8389 86.7456L76.252 86.2241M77.8734 86.0267L77.9845 85.883L78.1056 85.7007L78.4835 84.9773L78.8017 84.4001M77.8734 86.0267L77.6341 85.8466M78.8017 84.4001L78.8571 83.0015M78.8017 84.4001L79.4314 83.9176L79.8315 83.4718L79.9236 82.0465M78.8017 84.4001L77.9237 84.7076M78.8571 83.0015L78.6378 82.2201M78.8571 83.0015L77.9834 83.3527M78.8571 83.0015L79.4856 82.511M78.6378 82.2201L78.3301 81.7382L77.9707 81.1813L77.6663 80.4186L77.6882 79.5545L77.9137 79.1431L78.1633 78.9972L78.2329 78.9502M78.6378 82.2201L77.7982 82.528M78.6378 82.2201L79.3902 81.7032M78.2329 78.9502L78.5073 78.9003M78.2329 78.9502L78.1766 78.9815M78.5073 78.9003L78.5766 78.88M78.5073 78.9003L78.4033 78.9586M78.5766 78.88L78.7148 79.9136M79.8604 81.2232L79.9236 82.0465M79.8604 81.2232L79.3902 81.7032M79.8604 81.2232L80.2663 81.0546M79.9236 82.0465L79.4856 82.511M79.9236 82.0465L80.2785 81.8441M77.9237 84.7076L76.9941 84.9531L75.888 85.5206M77.9237 84.7076L77.4201 85.6836L77.2785 85.9565M77.9237 84.7076L77.9711 83.3578M75.888 85.5206L74.4837 86.3375M75.888 85.5206L75.7291 84.3488M75.888 85.5206L75.5595 86.5008M74.4837 86.3375L74.2705 85.3934M74.4837 86.3375L72.8128 87.176M74.5464 88.9774L74.3339 90.0893M74.5464 88.9774L75.9807 88.7364M74.3339 90.0893L73.9999 90.7763M74.3339 90.0893L75.7565 89.8677M73.9999 90.7763L73.5064 91.4459M73.9999 90.7763L75.4267 90.528M73.5064 91.4459L72.798 92.4113M73.5064 91.4459L74.8843 91.0707M70.22 91.3689L68.4971 90.8749L67.1498 90.1801M70.22 91.3689L70.6684 90.5146M67.1498 90.1801L66.3233 89.4354M67.1498 90.1801L67.5196 89.5258M66.3233 89.4354L66.1291 88.7088M66.3233 89.4354L66.7343 89.0444M66.1291 88.7088L66.4915 88.474M66.1291 88.7088L66.5295 88.5655L66.7733 88.4869M66.4915 88.474L66.7401 88.4314L66.9066 88.3763L67.0017 88.3908M66.4915 88.474L66.8016 88.031M66.4915 88.474L66.7343 89.0444M67.0017 88.3908L67.0438 88.4421L66.9498 88.7735M67.0017 88.3908L67.1002 88.3436L67.4729 88.1922L68.9059 87.9123L69.1736 88.1693L69.2606 88.2505L71.0208 88.0514L71.8718 87.8105M67.0017 88.3908L66.7733 88.4869M66.9498 88.7735L66.7343 89.0444M66.9498 88.7735L66.7733 88.4869M66.9498 88.7735L67.7019 89.1074M66.7343 89.0444L67.5196 89.5258M63.856 90.6542L61.7357 91.0179M63.856 90.6542L63.6233 88.9027L63.6172 88.8776L63.9934 87.2239M63.856 90.6542L64.6927 92.3376M61.7357 91.0179L59.3412 91.4257M61.7357 91.0179L61.4291 88.7633M61.7357 91.0179L62.6176 93.2519M59.3412 91.4257L56.959 91.5429M59.3412 91.4257L59.2253 88.5552M59.3412 91.4257L60.3894 94.1324M56.959 91.5429L54.2308 91.2098M56.959 91.5429L57.036 88.0698M56.959 91.5429L57.9965 94.8684M54.2308 91.2098L51.2031 90.5318M54.2308 91.2098L54.56 87.2306M54.2308 91.2098L55.3688 95.1M51.2031 90.5318L47.9142 89.6576M51.2031 90.5318L51.9723 94.4716M51.2031 90.5318L51.3713 86.5477L52.0438 82.7135L52.6835 78.5787M47.9142 89.6576L44.5225 88.7046M47.9142 89.6576L48.1052 85.9114M47.9142 89.6576L48.1582 93.3978M44.5225 88.7046L41.0084 87.2819M44.5225 88.7046L44.385 92.0937L44.6185 95.1105M44.5225 88.7046L44.8291 84.9986M41.0084 87.2819L41.518 83.74L42.026 80.0545L42.7381 76.2406M41.0084 87.2819L40.6187 90.5494M33.9664 83.2492L34.7449 80.1085M33.9664 83.2492L33.2134 86.1474M26.0292 76.1215L26.41 74.2543M26.0292 76.1215L25.4536 77.7981M26.0292 76.1215L24.8429 75.6533M26.41 74.2543L26.6654 71.8466M26.41 74.2543L24.8433 73.8328L22.7252 74.6589L20.5517 75.8581L18.0303 75.4271L15.7106 74.2418M26.6654 71.8466L26.9365 68.769L27.2976 64.7827M26.6654 71.8466L24.5516 71.3676L22.5227 71.9113L20.3279 73.9106L18.2929 73.8362L16.1365 72.7256M27.2976 64.7827L25.568 61.2116M27.2976 64.7827L23.9997 65.4012L20.7147 65.5713M25.568 61.2116L23.6693 58.4432M25.568 61.2116L23.3584 62.6832M25.568 61.2116L27.1433 59.0911M23.6693 58.4432L21.6245 56.0001L19.3618 54.2231M23.6693 58.4432L22.4928 59.9933M23.6693 58.4432L24.9024 56.5642M19.3618 54.2231L17.5121 52.9118M19.3618 54.2231L20.3759 52.1679M19.3618 54.2231L18.7075 55.7206M17.5121 52.9118L15.2966 51.9507M17.5121 52.9118L17.1451 54.1408M17.5121 52.9118L17.9542 50.3351M15.2966 51.9507L14.1812 52.1368M15.2966 51.9507L14.7109 48.8315M15.2966 51.9507L15.3765 52.6176L16.2187 52.9565M14.1812 52.1368L13.0001 51.6901L10.8865 47.4162M14.1812 52.1368L15.4262 52.6376M10.8865 47.4162L9.28516 50.9104L10.2353 51.9823M10.8865 47.4162L6.33262 42.3566L3.2524 37.6501L1.67188 33.1043M10.8865 47.4162L14.7109 48.8315M15.0373 33.2725L18.6061 38.3318M21.0506 27.8607L24.9299 25.5445M21.0506 27.8607L23.3987 32.3372M24.9299 25.5445L29.1868 25.5023M24.9299 25.5445L25.9337 29.5024L28.571 32.8808L31.991 36.0754L35.5957 39.2207L39.0463 42.1453L42.0205 44.6744L44.5537 46.7827M29.1868 25.5023L33.279 26.8705M29.1868 25.5023L28.4005 28.2163L25.9351 29.5025L23.3987 32.3372M33.279 26.8705L37.9243 29.6216M33.279 26.8705L30.9065 30.0286L28.5722 32.8805L26.2505 35.7791M37.9243 29.6216L42.6611 33.0452L46.9746 36.5348M37.9243 29.6216L34.7486 32.9265L31.9924 36.0753L29.4738 39.0562M46.9746 36.5348L50.6018 39.7593M46.9746 36.5348L42.7768 39.4216L39.0476 42.1452L35.7169 44.744M50.6018 39.7593L53.5251 42.5171M50.6018 39.7593L46.1173 42.2063L42.0218 44.6742L38.4297 47.1037M53.5251 42.5171L55.7601 44.9115M53.5251 42.5171L48.8293 44.537M55.7601 44.9115L51.0672 46.6019L46.6919 48.6636L42.9081 50.9106M59.4349 49.3108L61.0506 51.539L62.2349 53.5663M59.4349 49.3108L55.1193 50.5642L50.638 52.2179L46.7188 54.1223M59.4349 49.3108L63.5058 48.5354M62.2349 53.5663L58.6574 54.5088M62.2743 57.9626L59.9931 58.6461M62.2743 57.9626L62.0078 58.8367L61.8496 58.9698M59.9931 58.6461L57.4995 59.4732M59.9931 58.6461L60.1117 59.4379L60.0305 59.521L58.0091 60.1623M57.4995 59.4732L55.0392 60.5265M57.4995 59.4732L58.0091 60.1623M55.0392 60.5265L56.0162 60.9986L56.4726 61.1999L56.9162 61.5178M50.6997 57.3619L48.7436 55.7875L46.7188 54.1223M50.6997 57.3619L54.6197 55.7958L58.6574 54.5088M42.9081 50.9106L40.7871 49.1317M40.7871 49.1317L38.4297 47.1037M40.7871 49.1317L44.5537 46.7827M38.4297 47.1037L35.7169 44.744M35.7169 44.744L32.6822 42.0404L29.4738 39.0562M29.4738 39.0562L26.2505 35.7791M26.2505 35.7791L23.3987 32.3372M24.8101 9.92084L31.4659 10.5791L38.4605 11.9829M31.571 3.25693L24.9433 3.40476M55.5917 8.47332L62.1143 12.4243M55.5917 8.47332L52.1964 9.80121M64.9869 11.7948L70.2668 16.9641M64.9869 11.7948L62.1143 12.4243M70.2668 16.9641L72.3804 16.71M70.2668 16.9641L74.2614 22.7789M72.3804 16.71L76.0714 22.3604M78.6716 22.3879L80.4866 27.3276M80.4866 27.3276L81.5102 31.8405M81.5102 31.8405L81.8906 36.2594M81.8906 36.2594L81.862 40.0778M81.862 40.0778L81.9292 43.5992M80.676 45.3371L79.6149 46.0101M80.676 45.3371L81.9292 43.5992M78.8694 52.4802L78.3054 52.418M78.8694 52.4802L78.4757 53.8249L78.3668 54.4997L78.3054 55.4647L78.306 55.4708M78.8694 52.4802L79.6623 49.3026L79.6149 46.0101M78.3054 52.418L78.2506 54.884L77.3709 55.4876M78.3054 52.418L78.7769 49.4087L78.7273 46.2541M77.3709 55.4876L77.5501 57.1277M77.3709 55.4876L76.4652 55.6954M77.5501 57.1277L77.3855 58.7357L77.8608 61.0435M77.5501 57.1277L76.4939 57.4578M77.5501 57.1277L78.3929 56.6848L78.4165 56.6548L78.3076 55.4885M77.8608 61.0435L79.0063 63.6093L80.0189 66.0708L81.1833 68.3918M77.8608 61.0435L76.8819 61.3031L75.3696 61.7808L73.7482 62.8241L72.1844 63.9098M81.1833 68.3918L82.0752 70.337L82.9951 72.1546M81.1833 68.3918L79.945 68.8934L78.6118 69.3972L76.8178 69.7203L74.9557 70.1982M81.1833 68.3918L81.9356 67.9155L81.9623 67.7152L81.7574 67.3438L81.5098 66.9043M82.9951 72.1546L81.7154 72.6474L80.16 72.9686L78.4697 73.129L76.845 73.4053L75.6029 72.0223M81.0812 77.7104L79.8978 77.4051M81.0812 77.7104L80.1774 78.3526M81.0812 77.7104L81.1988 76.2612M79.8978 77.4051L78.6117 77.2067M79.8978 77.4051L79.5771 77.8712M79.8978 77.4051L79.7036 76.2369M78.6117 77.2067L77.2447 77.2659M78.6117 77.2067L78.2281 76.0902M78.6117 77.2067L78.6703 77.5286M77.2447 77.2659L76.6604 76.2457L75.9904 74.8656L75.3369 73.6209M74.2724 77.7739L73.4766 76.597M71.2749 77.1516L70.9187 75.4786L71.5229 73.5982M71.2749 77.1516L70.4798 77.9862L69.4265 79.5361M71.5229 73.5982L71.4321 71.7826M71.5229 73.5982L69.6097 74.7788M71.4321 71.7826L70.9876 70.0773L70.2783 68.31L69.3772 66.4618M71.4321 71.7826L69.6773 73.1851M69.3772 66.4618L69.3713 66.4515L68.4694 64.851M69.3772 66.4618L69.3561 66.4815L67.9997 67.785M68.4694 64.851L67.5634 63.7565M68.4694 64.851L67.2148 66.0838M67.5634 63.7565L66.4207 64.5423M66.1691 62.0124L65.9619 61.6722M66.1691 62.0124L65.5773 62.4242M66.1691 62.0124L66.7778 61.5507L67.1105 61.0038M65.9619 61.6722L65.5149 61.4165M65.9619 61.6722L65.3504 62.1659M65.9619 61.6722L66.372 61.2396M65.5149 61.4165L65.2572 61.2078L65.2437 61.0709L65.2743 60.8367M65.5149 61.4165L65.0518 61.8422L64.4726 62.4258L64.4137 62.4732L63.8796 62.8362L63.7434 62.8765L63.7 62.909L63.2986 63.2115L63.2377 63.2488L63.1784 63.2656L63.1105 63.2965L63.0477 63.3145L62.694 63.4034L62.4067 63.5413L62.3108 63.6051L62.208 63.5793L61.7139 63.2302L61.2945 62.5144L61.2881 62.5032L61.1689 61.4077L61.2427 61.3903M65.5149 61.4165L65.8538 61.133M65.2743 60.8367L65.2758 60.8229L65.282 60.7765L65.2868 60.7375L65.3677 60.5562L65.4717 60.5005L65.4685 60.0939M65.2743 60.8367L65.5926 60.8262L65.8538 61.133M65.4685 60.0939L65.4949 59.7603L65.4807 59.6066L65.4418 59.5451M65.4685 60.0939L65.377 60.0405M65.4685 60.0939L65.6074 60.0635M65.4418 59.5451L65.4527 59.4697L65.7974 59.3435M65.4418 59.5451L65.4582 59.5968L65.6621 59.83L65.7066 59.8839L65.6 59.8037L65.4463 59.7396L65.4199 59.7167L65.4319 59.6249L65.4367 59.5869M65.7974 59.3435L66.2586 59.223M65.7974 59.3435L66.087 59.8056L66.202 60.2559L66.0358 60.6247M65.7974 59.3435L65.4512 58.9472M66.2586 59.223L66.6052 58.9905M66.2586 59.223L66.5624 59.7286L66.6926 60.3487L66.5795 60.7854M66.2586 59.223L65.857 58.6941M66.6052 58.9905L67.2081 58.8162L68.4524 58.4255L70.1189 58.2545M66.6052 58.9905L67.039 59.6381M66.6052 58.9905L66.1416 58.4737M70.1189 58.2545L72.2319 57.4173M70.1189 58.2545L70.2639 59.2982M70.1189 58.2545L69.4117 57.6632M72.2319 57.4173L73.7963 56.1099M72.2319 57.4173L72.4209 59.0231M72.2319 57.4173L71.3847 57.3273M73.7963 56.1099L73.9809 55.8828M73.7963 56.1099L71.3847 57.3273M73.9809 55.8828L74.1905 55.3365L74.9997 53.9051M76.4652 55.6954L76.7684 53.1569M76.4652 55.6954L76.4939 57.4578M78.7273 46.2541L77.7341 46.5735L76.7437 46.9896M78.7273 46.2541L79.6149 46.0101M78.3315 38.1801L77.5961 33.3547M78.3315 38.1801L79.5761 37.786M78.3315 38.1801L77.0058 38.7504L75.4523 39.4052M77.5961 33.3547L76.433 28.348M76.433 28.348L74.2614 22.7789M76.433 28.348L78.0963 27.8709M74.2614 22.7789L76.0714 22.3604M14.4395 106.396L17.0368 101.356L19.5949 95.443L22.5695 94.9402M22.5695 94.9402L25.336 94.5524M22.5695 94.9402L20.7194 88.6042L19.1438 82.7076M22.5695 94.9402L24.9251 100.879M25.336 94.5524L28.1921 93.7781L30.7192 92.8842L31.9809 91.8545M25.336 94.5524L22.6943 88.3943M25.336 94.5524L27.9632 100.159M31.9809 91.8545L28.0527 87.046L25.034 81.9933M28.4404 86.6848L28.8242 86.1608L29.3376 85.0138L29.9494 83.1137L30.7514 80.601L31.5307 77.7865M28.4404 86.6848L28.0515 87.0462L27.0679 87.4562L25.1158 87.9884M28.4404 86.6848L25.841 82.3372M25.841 82.3372L25.034 81.9933M23.96 77.7283L24.1223 77.3472M24.1223 77.3472L24.5576 76.9289M24.1223 77.3472L24.8429 75.6533M24.8429 75.6533L24.8443 73.8323L24.5528 71.3672L24.3189 68.6639M24.8429 75.6533L24.5576 76.9289M20.4915 82.4284L22.6943 88.3943M20.4915 82.4284L22.3812 81.8969M20.4915 82.4284L19.1438 82.7076M22.6943 88.3943L25.1158 87.9884M22.6943 88.3943L20.718 88.6042L18.6411 88.7842L16.8061 89.0864L15.2305 88.8181L16.305 83.1689M27.9632 100.159L31.295 105.686M27.9632 100.159L31.4525 99.4225M27.9632 100.159L24.9251 100.879M31.295 105.686L34.314 110.816M31.295 105.686L34.9272 105.059M31.295 105.686L28.2108 106.311M34.314 110.816L37.0299 115.588M34.314 110.816L31.1905 111.471M34.314 110.816L37.6435 109.882M37.0299 115.588L33.9792 116.17M37.0299 115.588L40.17 114.74M20.2715 78.3496L22.3812 81.8969M22.3812 81.8969L25.1158 87.9884M22.3812 81.8969L23.9862 81.7168L25.034 81.9933M25.1158 87.9884L28.1916 93.7771L31.4525 99.4225M31.4525 99.4225L34.9272 105.059M34.9272 105.059L37.6435 109.882M37.6435 109.882L40.17 114.74M37.6435 109.882L40.7923 109.189L44.0567 108.798M19.1438 82.7076L17.9521 82.9179L16.8756 83.1037L16.3164 83.1109L16.3271 77.8301M24.9251 100.879L28.2108 106.311M24.9251 100.879L22.6022 101.803M28.2108 106.311L31.1905 111.471M28.2108 106.311L26.1405 107.091M31.1905 111.471L33.9792 116.17M31.1905 111.471L28.9723 112.041M33.9792 116.17L31.2166 116.784L27.7593 116.432M19.5957 95.4424L22.6022 101.803M19.5957 95.4424L15.7131 95.1001M22.6022 101.803L26.1405 107.091M22.6022 101.803L20.3334 104.858L17.8301 109.416M26.1405 107.091L28.9723 112.041M26.1405 107.091L24.0031 108.753L21.4766 112.51M28.9723 112.041L31.2177 116.784M28.9723 112.041L26.8507 112.645L24.3809 114.818M13.8474 94.0842L13.4706 95.2312L12.3429 98.4685L10.1504 103.044L10.7623 103.356L10.9337 103.418L11.7812 103.823M13.8474 94.0842L13.8868 94.0169L15.2331 88.8179L15.1387 88.2697M13.8474 94.0842L13.9751 93.5986L15.1387 88.2697M15.1387 88.2697L16.3076 83.1689L16.3185 83.1106L16.2647 77.2085M16.2647 77.2085L16.3284 77.8296L16.8769 83.1032L16.8079 89.0859L15.7131 95.1001M56.337 82.5103L54.56 87.2306M56.337 82.5103L52.0426 82.7135L48.5456 82.1975M56.337 82.5103L60.2509 79.5711M56.337 82.5103L58.6687 84.5378M56.337 82.5103L56.4452 78.0356M54.56 87.2306L51.3703 86.5479L48.1052 85.9114M54.56 87.2306L57.036 88.0698M55.3688 95.1L57.8728 99.0032M55.3688 95.1L51.9723 94.4716M55.3688 95.1L57.9965 94.8684M57.8728 99.0032L62.2836 100.805M57.8728 99.0032L58.3012 101.549M57.8728 99.0032L60.3713 97.5927M57.8728 99.0032L53.3157 98.0133M62.2836 100.805L65.9104 101.449M62.2836 100.805L63.5137 99.068M65.9104 101.449L69.3887 101.721M65.9104 101.449L67.1015 99.6896M69.3887 101.721L70.3415 99.7421M11.7812 103.823L14.0553 99.6056L15.7131 95.1001M11.7812 103.823L14.4414 106.395L17.8317 109.416L21.4785 112.51L24.3823 114.819L25.9045 116.743M15.7131 95.1001L13.8652 94.0942L13.9834 93.5667L15.1372 88.2695M6.28636 57.2553L4.31445 53.4194L6.32921 57.1384M82.8906 63.2023L83.0172 62.801L83.0372 58.6523M27.7593 116.432L26.8491 112.646L24.002 108.753L17.0357 101.355L14.0531 99.6061L12.3398 98.4688M27.7593 116.432L25.9023 116.743M41.7755 9.09082L38.4605 11.9829M38.4605 11.9829L45.3522 14.3138M18.6061 38.3318L21.727 41.942M14.7109 48.8315L17.9542 50.3351M70.2678 16.9639L67.7322 17.6406L64.8356 18.7319M64.8356 18.7319L61.717 20.1916L58.2922 22.044M64.8356 18.7319L58.9245 13.6798M64.8356 18.7319L69.373 24.4456M58.2922 22.044L54.571 24.3196L50.6154 26.9879L46.5891 29.9424M58.2922 22.044L63.1038 27.178M58.2922 22.044L52.1672 17.5721M46.5891 29.9424L42.6621 33.0449L38.9048 36.2337L35.5976 39.2202L32.6832 42.0401L30.0133 44.8527L27.6459 47.595M46.5891 29.9424L51.2058 33.7607L55.023 37.5292L58.015 40.7731L60.2742 43.5309L62.037 46.0349L63.5058 48.5354M46.5891 29.9424L41.2724 26.3644L35.836 23.7083L30.7494 22.258L25.4989 21.98L20.7699 23.24L16.3404 25.3002L12.7886 28.3266L9.51583 32.52L7.33971 37.1482L6.3341 42.3565L5.70508 47.1213L9.28715 50.9104L8.87289 53.2061L7.98524 54.1124L6.74482 56.0012L6.73742 56.0218L6.43781 56.8464M27.6459 47.595L25.6599 50.1106L24.04 52.383L22.7877 54.2315M27.6459 47.595L24.7648 44.9391M27.6459 47.595L30.283 49.9245M22.7877 54.2315L21.6256 55.9998L20.8097 57.2483M22.7877 54.2315L20.3759 52.1679M22.7877 54.2315L24.9024 56.5642M20.8097 57.2483L20.2029 57.6448L19.752 58.0484M20.8097 57.2483L18.7075 55.7206M20.8097 57.2483L22.4928 59.9933M19.752 58.0484L20.1829 60.8477L21.3907 63.1478M19.752 58.0484L18.8041 56.5578L18.5448 56.0924L18.5059 55.9477L18.7075 55.7206M19.752 58.0484L20.6075 59.9942L21.195 60.1949L22.4928 59.9933M21.3907 63.1478L20.7163 65.5706L21.8855 68.4421M21.3907 63.1478L19.1099 63.293M21.3907 63.1478L23.3584 62.6832M21.8855 68.4421L22.5245 71.9108M21.8855 68.4421L19.6673 68.8952L19.512 68.624L19.0421 67.0106L18.4916 66.6338L17.2129 65.7795L15.4466 65.2446L14.2889 66.0151M21.8855 68.4421L24.3189 68.6639M22.5245 71.9108L22.7268 74.6583L23.7923 78.126M22.5245 71.9108L21.5442 71.1271L21.0159 70.5094M62.1143 12.4243L58.9245 13.6798M58.9245 13.6798L55.6601 15.3702L52.1672 17.5721M58.9245 13.6798L52.1964 9.80121M52.1672 17.5721L45.3522 14.3138M24.7648 44.9391L21.727 41.942M20.3759 52.1679L17.9542 50.3351M18.7075 55.7206L18.2316 55.522L18.223 55.5182M22.4928 59.9933L23.3584 62.6832M24.9024 56.5642L27.1433 59.0911M30.283 49.9245L32.7427 52.0694M63.1038 27.178L66.4581 25.6412L69.373 24.4456M63.1038 27.178L66.6161 32.1168M69.373 24.4456L72.1955 29.8489M76.0714 22.3604L78.0963 27.8709M76.3272 98.1247L76.0645 98.4224M76.3272 98.1247L76.296 97.9048M77.1888 93.2559L77.4312 91.7364M77.1888 93.2559L77.0186 94.4977L76.4198 95.4651M78.0767 88.9807L78.4142 88.3893L78.4612 88.3065M78.0767 88.9807L78.162 88.7156M78.0767 88.9807L78.0629 89.009L78.0342 89.0725L77.6109 89.9231M78.4612 88.3065L78.7418 87.633M78.4612 88.3065L78.1244 88.6644M78.4612 88.3065L78.5265 87.9912M78.7418 87.633L78.0765 88.627L77.7563 89.2702M79.4856 82.511L79.3902 81.7032M79.3902 81.7032L79.0349 81.0252M79.0349 81.0252L78.7148 79.9136M79.0349 81.0252L78.3286 81.7383L77.4805 81.7773M79.0349 81.0252L78.4335 80.921L77.9697 81.1813L77.6248 81.3031M79.0349 81.0252L79.6011 80.5184L80.034 80.2356L80.2817 80.1216M78.7148 79.9136L78.1869 80.1332L77.6651 80.4186L77.3503 80.5542L77.3472 80.5703L77.6248 81.3031M78.7148 79.9136L79.1847 79.452L79.5555 78.7994M78.4033 78.9586L78.1766 78.9815M78.4033 78.9586L78.1445 79.3012M78.1766 78.9815L78.0454 79.0166L77.831 79.0926M78.1766 78.9815L78.1315 79.0346L78.0703 79.2475L78.1882 80.1333L78.4346 80.9211M77.831 79.0926L77.3423 79.7197L77.3429 80.5581L76.9815 80.7958M76.9815 80.7958L76.049 81.0349L74.33 81.4426M76.9815 80.7958L77.4818 81.7773L77.7982 82.528M74.33 81.4426L75.0743 82.8784M69.4265 79.5361L68.3004 77.8052M69.4265 79.5361L68.0706 81.4075M68.3004 77.8052L68.0369 76.1667M68.3004 77.8052L69.7636 76.2776L69.6097 74.7788M68.3004 77.8052L66.9564 79.684M68.0369 76.1667L69.6097 74.7788M68.0369 76.1667L66.3502 78.147M68.0369 76.1667L68.0021 74.6613M69.6097 74.7788L69.6773 73.1851M75.6029 72.0223L74.9557 70.1982M83.5977 71.2624L82.8 69.8687L82.578 69.5179L81.8452 67.9732L81.928 67.7915L81.7663 67.4494L81.745 67.4043L81.7702 67.2835M83.5977 71.2624L84.1973 72.9419M81.7702 67.2835L81.5098 66.9043M81.5714 63.0096L81.0786 61.0671M81.5714 63.0096L80.802 62.7025M81.5714 63.0096L82.2792 63.3088M81.0786 61.0671L80.3945 59.1209L80.2682 57.9137L80.2331 57.2505M81.0786 61.0671L80.2813 60.8425M81.0786 61.0671L81.814 60.929L82.5947 60.5844L82.9773 59.7453L82.4395 57.691L82.728 56.483M80.2331 57.2505L80.3565 56.8257M80.2331 57.2505L79.3386 57.3518L78.4035 57.4929L78.2715 57.5228M80.2331 57.2505L81.0214 56.9107M80.3565 56.8257L81.136 56.7323M81.136 56.7323L81.0214 56.9107M81.136 56.7323L81.2309 56.5581L81.6213 56.3178L81.7888 56.0776L81.9544 55.7696L82.0094 55.6692L82.0365 55.6192L82.1779 55.3777L82.1814 55.3709L82.2191 55.2488L82.2352 55.1953L82.2479 55.1385M82.2479 55.1385L82.3941 54.6625L82.4472 54.4956M82.4472 54.4956L82.4753 54.4077L82.4827 54.3838M82.4472 54.4956L82.4434 54.4878M82.4472 54.4956L82.7145 55.0479M82.4827 54.3838L82.3842 53.9832L82.3542 53.9211L82.0782 53.8625L82.054 53.857L81.9468 53.8306L81.8321 53.9265M82.7783 51.0865L82.778 50.7074L82.8106 50.4481L82.8186 50.3821L82.8328 50.2694L82.8853 50.1637L82.961 49.9627M82.7783 51.0865L82.5273 51.2556L82.2461 51.1512M82.7783 51.0865L82.7096 50.8677M82.961 49.9627L83.2727 49.8111L83.7836 48.7185M82.961 49.9627L82.5185 50.1713L82.1042 50.3291L82.0111 50.3778L81.7754 50.5397M83.7836 48.7185L84.2487 47.367L84.2693 47.3074L84.4414 46.2071L84.5013 46.0141M83.7836 48.7185L83.4009 48.898L82.4877 49.5167L82.0666 49.8652M84.5013 46.0141L84.8275 44.0391L84.5187 41.8098M84.5013 46.0141L84.464 46.0627L83.8935 46.8121M84.5187 41.8098L84.0365 39.357L83.5015 37.2183M84.5187 41.8098L84.045 42.5755M83.5015 37.2183L83.4681 36.9385M83.5015 37.2183L83.7696 39.8982L84.045 42.5755M48.8293 44.537L44.5537 46.7827M48.8293 44.537L46.1162 42.2066L42.7757 39.4218L38.9032 36.2343L34.7475 32.9267L30.9056 30.0291L28.3993 28.2163M20.7147 65.5713L19.4621 64.7898L19.4231 64.6249M20.7147 65.5713L19.041 67.0103M19.4231 64.6249L19.1083 63.2934L18.6136 61.3824M19.4231 64.6249L19.0706 64.5542M18.6136 61.3824L18.0171 60.4841L17.6963 59.5451L17.4637 59.4489L17.0702 59.1187L16.7487 58.8897M18.6136 61.3824L20.1809 60.848L20.6061 59.9941M18.6136 61.3824L17.879 59.0838L17.6053 58.7501L17.2081 57.796L16.6518 56.7289M16.7487 58.8897L16.0745 58.2416M16.7487 58.8897L16.3457 59.6569M16.7487 58.8897L17.0118 58.2642M16.0745 58.2416L16.2272 57.4032L16.1132 57.2776M16.0745 58.2416L15.3991 59.7071L14.0572 60.8959M16.0745 58.2416L14.4412 56.3226M16.1132 57.2776L14.4412 56.3226M16.1132 57.2776L16.6518 56.7289M14.4412 56.3226L14.1974 56.167L12.2 55.6703L9.76012 55.7821M9.76012 55.7821L8.48825 54.0223M9.76012 55.7821L8.48754 57.5685M8.48754 57.5685L8.16992 59.0488L8.26303 62.0675M8.26303 62.0675L8.48982 65.0604M8.26303 62.0675L9.62109 62.2105M8.48982 65.0604L8.49658 65.1155L8.58607 65.827M8.48982 65.0604L8.89471 65.737L10.8875 69.0778L13.9536 71.2626L16.1365 72.7256M8.48982 65.0604L10.0186 65.1832L11.1598 65.1481L11.9157 64.748M8.58607 65.827L10.2935 69.7131L13.4395 72.0548L15.7106 74.2418M15.7106 74.2418L16.1365 72.7256M15.7106 74.2418L15.2285 75.7628M31.5307 77.7865L34.7449 80.1085M31.5307 77.7865L32.3505 74.7046M34.7449 80.1085L35.6108 76.6794L36.5281 73.1843L37.763 69.8805M44.8291 84.9986L48.1052 85.9114M44.8291 84.9986L45.1867 81.3054M48.1052 85.9114L48.5456 82.1975M57.036 88.0698L59.2253 88.5552M57.036 88.0698L58.6687 84.5378M59.2253 88.5552L61.4291 88.7633M59.2253 88.5552L60.172 85.7096M61.4291 88.7633L62.0401 86.4946M71.8718 87.8105L72.7132 87.5719L72.8128 87.176M75.5595 86.5008L76.252 86.2241M76.252 86.2241L76.4942 86.1275L77.2785 85.9565M77.2785 85.9565L77.6341 85.8466M78.1244 88.6644L78.162 88.7156M78.162 88.7156L78.1385 88.7479L77.7563 89.2702M77.6109 89.9231L76.6376 90.6494M77.6109 89.9231L77.1629 91.1381L76.357 91.8251M77.6109 89.9231L78.0541 89.0361M76.6376 90.6494L76.357 91.8251M76.6376 90.6494L77.2722 89.8304M76.357 91.8251L76.3699 93.4842M76.357 91.8251L75.2 92.5067L75.1511 96.3219M76.3699 93.4842L76.4198 95.4651M76.4198 95.4651L75.1511 96.3219M75.1511 96.3219L74.8722 98.4751M58.3012 101.549L54.4872 100.355M54.4872 100.355L50.0871 98.9106M54.4872 100.355L53.3157 98.0133M50.0871 98.9106L48.9168 96.7033M44.6185 95.1105L48.9168 96.7033M44.6185 95.1105L40.4588 93.4417M45.1867 81.3054L45.8186 77.4663L46.8545 73.6291M45.1867 81.3054L48.5456 82.1975M46.8545 73.6291L50.0131 74.5139M58.0091 60.1623L58.1891 60.3596M58.6574 54.5088L57.1339 52.6387M57.1339 52.6387L52.788 54.1055M49.1991 101.23L47.6565 102.614M49.1991 101.23L43.654 99.0615M47.6565 102.614L47.1643 105.174L47.0281 108.456M47.6565 102.614L42.4372 101.299L35.8613 98.776L30.7209 92.8835L27.0703 87.4558L23.9881 81.7164L22.0996 78.4771M47.6565 102.614L51.4756 103.034L54.3193 102.399L55.1304 101.778M47.0281 108.456L46.9434 112.664M47.0281 108.456L44.0567 108.798M47.0281 108.456L49.518 107.945M21.3892 63.1477L21.194 60.1944L20.2013 57.6447L18.5048 55.9473L18.4227 55.8748L18.4091 55.8503L18.3347 55.7166L18.2275 55.5243M18.2275 55.5243L18.223 55.5182M18.2275 55.5243L16.6518 56.7289M18.223 55.5182L18.2188 55.5166M18.223 55.5182L17.1451 54.1408M8.87109 53.2063L10.0507 52.002M10.0507 52.002L10.2353 51.9823M10.0507 52.002L8.48825 54.0223M79.5761 37.786L79.1763 32.9819L78.0963 27.8709M75.4523 39.4052L73.7216 40.0762L71.6474 40.816M75.4523 39.4052L73.9492 34.6935L72.1955 29.8489M71.6474 40.816L69.1648 36.4625L66.6161 32.1168M37.105 55.5172L35.0605 53.973L32.7427 52.0694M40.5592 58.1538L42.5731 59.5405L44.8141 60.9133M63.5058 48.5354L64.8273 50.9849L65.6367 53.1709L65.6877 54.9753L65.1388 56.3616L64.3565 57.5041L62.276 57.9625M74.594 48.1823L75.7591 47.618L76.7437 46.9896M74.594 48.1823L75.2387 51.1392L74.9997 53.9051M76.7437 46.9896L76.9757 50.0409L76.7684 53.1569M19.918 72.5571L18.3531 72.0599L16.5175 71.1313L14.4728 70.2874M19.918 72.5571L20.4198 72.1154M74.2705 85.3934L73.9938 84.8069M74.2705 85.3934L72.5679 86.4688L70.727 87.3436M74.2705 85.3934L75.7291 84.3488M73.9938 84.8069L72.2736 85.99M73.9938 84.8069L75.5137 83.6498M17.6797 58.6997L17.8801 59.084L19.6679 58.1052L19.8363 57.9912M43.654 99.0615L42.4355 101.299L43.0794 104.864M43.0794 104.864L44.0567 108.798M43.0794 104.864L47.1632 105.174L50.4146 105.155M44.0567 108.798L45.1708 113.168M45.1708 113.168L46.9421 112.664L48.5674 111.962L49.518 107.945M16.1365 72.7256L16.516 71.1314L17.155 69.7461L17.1576 69.7402M32.3505 74.7046L33.3104 71.4493L34.4887 68.2234M48.5456 82.1975L49.0958 78.4686L50.0131 74.5139M60.2509 79.5711L63.1308 77.0414L62.8203 74.7284L62.5011 72.2395M60.2509 79.5711L59.9375 76.5934L59.9578 73.5502M60.2509 79.5711L61.2423 81.4055L62.2585 83.0696M62.5011 72.2395L62.2882 69.5197L62.0766 67.2229M62.5011 72.2395L59.9578 73.5502M62.5011 72.2395L64.7007 70.6502M62.0766 67.2229L60.1291 67.8666M62.0766 67.2229L63.7463 66.2362M62.8541 63.9603L63.8736 63.4733M62.8541 63.9603L62.7746 63.4476M63.8736 63.4733L63.8925 63.7293M65.3504 62.1659L64.9937 61.7964M65.3504 62.1659L65.5773 62.4242M66.372 61.2396L66.5795 60.7854M66.372 61.2396L65.8538 61.133M66.5795 60.7854L67.1105 61.0038M66.5795 60.7854L66.0358 60.6247M65.857 58.6941L65.2949 58.3842M65.857 58.6941L66.1416 58.4737M65.857 58.6941L65.4512 58.9472M65.2949 58.3842L65.5768 58.0575M64.5484 59.44L64.6283 60.2623M64.5484 59.44L64.7423 58.9208L64.7151 58.8351M61.2427 61.3903L61.4198 62.3432L61.2907 62.5085L61.2891 62.5166L59.0862 63.632L58.959 63.6597M61.2427 61.3903L61.3032 60.1707L61.3689 60.183L61.6862 59.6145L61.6108 59.4956M65.8538 61.133L66.0358 60.6247M66.0358 60.6247L65.6322 60.4908L65.57 60.4457L65.6488 60.0537M65.4512 58.9472L64.9432 58.6506H64.8753L64.8482 58.715L64.7151 58.8351M65.4512 58.9472L65.127 58.8778M60.8645 60.0646L60.8607 60.0665M60.8607 60.0665L60.849 60.073L60.323 60.2585L60.0631 60.3007L58.9452 60.9742L58.9271 61.1085L58.8237 61.0766L58.4243 60.6891M60.8607 60.0665L61.3045 60.1706L61.4343 60.1986M58.4243 60.6891L58.1891 60.3596M58.4243 60.6891L56.9162 61.5178M58.4243 60.6891L60.158 59.7988M58.1891 60.3596L60.0519 59.5683L60.1269 59.5399L61.2266 59.1212L61.8398 58.8577L61.845 58.8258L62.0202 58.7933L62.9076 58.5044M58.1891 60.3596L56.4714 61.2003L55.0165 62.1679L54.0521 62.8791M52.788 54.1055L48.7425 55.7876L45.4354 57.6535L42.5717 59.5407L40.1898 61.3293L38.0672 63.0986L36.1181 65.4035L34.4887 68.2234M84.045 42.5755L84.1884 44.9018M34.4887 68.2234L37.763 69.8805M49.518 107.945L51.5014 107.252L52.9341 104.436M49.518 107.945L50.4146 105.155M52.9341 104.436L54.3182 102.398M52.9341 104.436L54.7309 103.021M52.9341 104.436L50.4146 105.155M16.6518 56.7289L14.7814 54.9374L11.7192 53.812L8.48825 54.0223M8.48825 54.0223L6.74219 56.0013M13.6394 61.667L13.6191 62.3437L14.1077 63.2446L15.4445 65.2445L16.3139 64.8239L17.4442 64.3813L19.0706 64.5542M44.8141 60.9133L47.1073 62.1376L49.2206 62.8957M39.2856 67.0261L37.763 69.8805M39.2856 67.0261L42.3679 68.4022L45.4062 68.991M33.2134 86.1474L36.8492 88.6304L40.6187 90.5494M78.2281 76.0902L77.5949 74.7448L76.8463 73.4048L75.3369 73.6209M78.2281 76.0902L79.7036 76.2369M78.2281 76.0902L76.6592 76.2456L75.0298 76.3409L73.4766 76.597M78.6703 77.5286L78.8095 77.5815L78.8674 77.7432M78.8674 77.7432L79.1909 77.7256M80.1774 78.3526L79.5771 77.8712M81.1988 76.2612L80.802 74.6462L80.1613 72.9681L79.407 71.2004L78.6133 69.397L77.6167 67.1213M81.1988 76.2612L79.7036 76.2369M77.6167 67.1213L76.3892 64.6918M77.6167 67.1213L76.0224 67.8079M77.6167 67.1213L78.9267 66.6065M76.3892 64.6918L75.3711 61.7807L74.7684 59.9676M76.3892 64.6918L74.9299 65.1638M76.3892 64.6918L77.8003 64.1109M74.7684 59.9676L74.4412 58.1149M74.7684 59.9676L76.2929 59.2627M74.7684 59.9676L72.25 61.2178M74.4412 58.1149L74.2325 55.7984M74.4412 58.1149L72.4209 59.0231M74.4412 58.1149L76.4939 57.4578M11.228 55.7148L11.417 56.2183L11.936 57.7054M11.936 57.7054L11.3755 59.199L10.8025 60.859L10.5996 62.8586L11.163 65.1484L12.5702 67.5941M11.936 57.7054L13.3089 57.5117M12.5702 67.5941L14.9997 69.6185L17.141 69.739M12.5702 67.5941L11.8494 68.3934M12.5702 67.5941L12.9113 67.1578L14.2889 66.0151M17.141 69.739L17.1604 69.7402L17.1707 69.7512L18.5142 71.2293M17.141 69.739L17.1587 69.7432L17.5229 69.2702M18.5142 71.2293L18.3544 72.06L18.2954 73.8361L18.0326 75.4269L17.9431 77.6941M18.5142 71.2293L20.4198 72.1154M18.5142 71.2293L18.7993 70.9268M17.625 62.6592L17.7197 62.1348M17.625 62.6592L16.5703 63.1924M17.625 62.6592L19.1099 63.293M79.5771 77.8712L79.291 77.7636L79.1909 77.7256M79.7036 76.2369L79.2086 74.705L78.4707 73.1286L77.6448 71.6251L76.819 69.7202L76.0224 67.8079M76.0224 67.8079L74.9299 65.1638M76.0224 67.8079L74.3267 68.301L72.6208 69.1233L70.9888 70.077L69.3713 71.4675L67.6319 72.9021L65.6771 74.8006L63.1323 77.041L63.6786 79.0296M74.9299 65.1638L73.7494 62.8241L72.25 61.2178M74.9299 65.1638L73.2862 66.043M72.25 61.2178L70.906 62.34M72.25 61.2178L72.4209 59.0231M72.25 61.2178L69.9638 60.3025M82.6473 76.2578L82.2907 74.3906L81.717 72.6468L80.8889 70.8179M80.8889 70.8179L79.9468 68.8931L78.9267 66.6065M80.8889 70.8179L79.408 71.2005L77.6461 71.625L75.6053 72.0219L74.875 72.7217M80.8889 70.8179L82.0769 70.337L82.7597 69.896M78.9267 66.6065L77.8003 64.1109M78.9267 66.6065L80.02 66.0704L80.6884 65.7815M77.8003 64.1109L76.8837 61.3028L76.2929 59.2627M77.8003 64.1109L79.0073 63.6096L79.5687 63.3216L79.7275 63.1841L79.7684 63.2192L79.8158 63.6412L80.3888 65.1238L80.6884 65.7815M76.2929 59.2627L76.4939 57.4578M76.2929 59.2627L77.3865 58.736L78.1122 58.5009L78.3482 58.46M20.4198 72.1154L20.497 72.0473M19.0706 64.5542L18.0344 64.9301L17.2115 65.7791L16.5956 67.2498M19.0706 64.5542L19.4576 64.7991M16.5956 67.2498L15.6055 69.1019L15.3663 69.0293L14.9984 69.6181L14.4728 70.2874M16.5956 67.2498L18.5103 68.1448L19.8512 69.7936M16.5956 67.2498L14.2889 66.0151M53.4414 101.286L53.452 101.29L54.7921 101.681M63.5137 99.068L65.1264 97.4208M63.5137 99.068L67.1015 99.6896M63.5137 99.068L60.3713 97.5927M65.1264 97.4208L66.6753 95.7507M65.1264 97.4208L62.3816 96.2566L60.3894 94.1324M65.1264 97.4208L68.189 97.755M66.6753 95.7507L68.1322 94.1759M66.6753 95.7507L64.3418 94.8981L62.6176 93.2519M66.6753 95.7507L69.2183 95.8493M68.1322 94.1759L66.2036 93.5525L64.6927 92.3376M68.1322 94.1759L70.2031 94.1606M70.6684 90.5146L70.9232 89.8241L71.1036 88.9589M70.6684 90.5146L68.9424 90.0404L67.5196 89.5258M71.1036 88.9589L71.0662 88.0384L71.0012 87.8216M71.1036 88.9589L69.2895 88.8166L67.8269 88.6375M71.0012 87.8216L70.727 87.3436M71.0012 87.8216L69.2173 88.2094L68.1876 88.2246L67.649 88.2552L67.1665 88.3209L67.0396 88.4092M71.0012 87.8216L72.5485 87.2699L72.8128 87.176M70.727 87.3436L70.432 86.9648M70.727 87.3436L68.9069 87.9118L68.6258 87.6625M70.432 86.9648L68.6258 87.6625M70.432 86.9648L72.2736 85.99M66.5156 83.4288L65.1692 81.8358M66.5156 83.4288L68.0706 81.4075M66.5156 83.4288L65.1181 85.4054L63.9934 87.2239M65.1692 81.8358L64.2657 80.5M65.1692 81.8358L66.9564 79.684M65.1692 81.8358L63.4512 84.2234L62.0401 86.4946M64.2657 80.5L63.6786 79.0296M64.2657 80.5L66.3502 78.147M64.2657 80.5L62.2585 83.0696M63.6786 79.0296L66.0844 76.6602M63.6786 79.0296L61.2435 81.4054L58.6687 84.5378M19.5684 68.6016L19.6856 68.9546M9.20312 56.5649L10.3698 57.8955M10.3698 57.8955L11.3744 59.1987L12.6715 59.3955M10.3698 57.8955L11.4158 56.2182L12.4854 55.7405M10.3698 57.8955L9.82201 59.7442M12.6715 59.3955L14.0572 60.8959M12.6715 59.3955L13.3089 57.5117M12.6715 59.3955L11.9988 61.1566M14.0572 60.8959L14.8239 61.0834L15.6036 62.6572M14.0572 60.8959L12.6945 61.7679M17.8478 61.424L17.0391 59.5581M19.1099 63.293L17.4453 64.381L16.5703 63.1924M53.2768 67.4582L55.5847 68.0522M53.2768 67.4582L51.5264 70.5677M55.5847 68.0522L58.0587 68.1507M55.5847 68.0522L54.5019 71.047M58.0587 68.1507L60.1291 67.8666M58.0587 68.1507L57.3013 71.0041M60.1291 67.8666L60.468 65.9567L60.8738 65.1824L61.2662 64.7073L61.5608 64.2915L61.5669 63.7539M60.1291 67.8666L60.0373 70.508L59.9578 73.5502M63.7463 66.2362L65.1623 65.3775M63.7463 66.2362L64.2034 68.4899M65.1623 65.3775L66.4207 64.5423M65.1623 65.3775L65.8195 67.2014M66.4207 64.5423L67.2148 66.0838M69.5847 61.7961L69.9638 60.3025M69.5847 61.7961L70.906 62.34M69.5847 61.7961L68.3475 61.449L67.6289 61.2039L67.1105 61.0038M69.9638 60.3025L70.2639 59.2982M69.9638 60.3025L68.6901 60.2752L67.8175 60.3602L67.2219 60.3641M70.2639 59.2982L68.6669 59.2757L67.6442 59.4983L67.039 59.6381M70.2639 59.2982L72.4209 59.0231M69.4117 57.6632L68.1442 57.3228M69.4117 57.6632L71.3847 57.3273M69.4117 57.6632L67.6622 58.012L66.6798 58.344L66.1416 58.4737M68.1442 57.3228L66.7431 57.7576L65.8908 58.0427L65.5768 58.0575M65.5768 58.0575L66.1416 58.4737M65.5768 58.0575L64.6722 58.0257M63.8925 63.7293L62.8978 64.2363L62.7474 64.3127L62.6852 64.3294L61.2677 64.7072L59.796 64.6763M64.2034 68.4899L64.7007 70.6502M64.2034 68.4899L62.2896 69.5193L60.0391 70.5078L57.3013 71.0041M64.2034 68.4899L65.8195 67.2014M64.7007 70.6502L65.2076 72.8521L65.6757 74.8011L66.0844 76.6602M64.7007 70.6502L66.4933 69.2105M66.0844 76.6602L66.3502 78.147M66.0844 76.6602L68.0021 74.6613M66.3502 78.147L66.9564 79.684M62.2585 83.0696L60.172 85.7096M62.2585 83.0696L63.45 84.2235L65.1171 85.4053L66.8668 86.5278L68.1371 87.2931L69.8053 86.3942L71.5875 85.2499M60.172 85.7096L62.0401 86.4946M60.172 85.7096L58.6687 84.5378M60.3894 94.1324L57.9965 94.8684M60.3894 94.1324L62.6176 93.2519M68.189 97.755L70.9365 97.5012M68.189 97.755L67.1015 99.6896M68.189 97.755L69.2183 95.8493M70.9365 97.5012L71.4708 95.4453M70.9365 97.5012L70.3415 99.7421M13.0578 51.6841L12.9669 51.744L11.7207 53.8119L12.2013 55.6697M15.7852 63.0249L16.3127 64.8238L18.0332 64.9303L19.0661 65.5394M78.5379 78.936L78.143 79.3006L77.6863 79.5541L77.341 79.719L76.8479 79.7754L75.8903 79.8159L74.1377 79.7277L74.1332 79.7273L72.3668 79.3254L70.478 77.9858L69.7617 76.2773L70.9167 75.4787L71.8792 75.2455L73.0397 75.2442L74.4847 74.9972L75.9875 74.8655L77.5922 74.745L79.2063 74.7051L80.7994 74.6464L82.2877 74.391L83.4753 73.9974L84.0483 73.5043L84.1959 72.9419M50.4146 105.155L51.4737 103.035L52.9515 101.938M25.4536 77.7981L24.5576 76.9289M19.8345 57.9916L18.8027 56.5576M84.1973 72.9419L84.405 75.3678L83.6261 77.0028L83.074 77.4875L81.7338 78.3166L81.1367 78.4999L81.1279 78.5021L80.478 78.6223L80.3916 78.7285M15.7866 63.0249L14.1088 63.2446L12.6626 63.7519M15.7866 63.0249L15.6036 62.6572M15.7866 63.0249L16.5703 63.1924M12.6626 63.7519L11.9141 64.3745M12.6626 63.7519L14.2889 66.0151M12.6626 63.7519L12.2874 62.3896L12.2826 62.2768L12.6945 61.7679M17.8594 69.705L18.5116 68.1447L18.7487 67.2139M18.7487 67.2139L18.4766 66.6629L18.5075 66.6046L19.4592 64.7989L19.4641 64.7896M18.7487 67.2139L18.7655 67.2485L19.4544 68.646L19.6873 68.9546L20.0703 69.4026M37.2188 58.2862L38.0763 59.7121M79.3633 61.9757L79.7504 63.1639M79.3633 61.9757L80.0211 62.3367L80.5058 64.1913L80.543 64.8925M79.3633 61.9757L79.3395 61.8935L79.3008 61.7637L78.8984 60.332M72.8128 87.176L72.5667 86.469L72.2736 85.99M72.2736 85.99L71.5875 85.2499M71.5875 85.2499L73.3332 83.9298L75.0743 82.8784M68.0706 81.4075L66.9564 79.684M2.09375 46.9932L3.52833 49.3165L5.60875 54.8591L6.7342 56.0222M53.3157 98.0133L48.9168 96.7033M53.3157 98.0133L51.9723 94.4716M48.9168 96.7033L48.1582 93.3978M40.4588 93.4417L40.6187 90.5494M45.4062 68.991L48.4665 69.7666L51.5264 70.5677M45.4062 68.991L43.8606 72.539L42.7381 76.2406M51.5264 70.5677L54.5019 71.047M51.5264 70.5677L50.0131 74.5139M54.5019 71.047L57.3013 71.0041M54.5019 71.047L53.4285 74.8137L52.6835 78.5787M57.3013 71.0041L56.7696 74.5976L56.4452 78.0356M65.8195 67.2014L67.2148 66.0838M65.8195 67.2014L66.4933 69.2105M67.2148 66.0838L67.9997 67.785M70.906 62.34L72.1844 63.9098M16.3457 59.6569L16.3008 59.7432M16.3457 59.6569L17.0714 59.1183L17.4605 58.8507L17.473 58.8423M75.3369 73.6209L74.0569 73.8451M75.3369 73.6209L74.875 72.7217M74.0569 73.8451L72.916 74.0281M74.0569 73.8451L74.4883 74.9967L75.0317 76.3405L75.7589 77.4862L76.3684 77.5503L76.4737 77.7651L76.1023 78.6265L75.8939 79.816L76.0514 81.0341L76.4985 82.1228L76.7813 82.834L76.9368 83.6453L76.9958 84.9528L76.4965 86.1268M74.0569 73.8451L73.5371 73.0039L74.875 72.7217M72.916 74.0281L73.0422 75.2445L73.4766 76.597M14.4728 70.2874L11.8494 68.3934M12.2625 62.3008L11.8995 62.7491M11.8995 62.7491L11.8125 64.2543M11.8995 62.7491L11.4922 62.7462M11.8125 64.2543L11.8498 64.4288L11.9177 64.7486L12.8769 67.0764L12.9333 67.2127L12.9439 67.2394L15.3242 69.0973L15.6022 69.1105L15.6573 69.1234L17.5229 69.2702M11.8125 64.2543L11.4922 62.7462M80.2785 81.8441L80.2663 81.0546M80.2663 81.0546L80.035 80.2355L79.6024 78.7954M16.5703 63.1924L16.8799 62.5372L15.8302 60.4088M63.9934 87.2239L62.0401 86.4946M64.6927 92.3376L62.6176 93.2519M70.2031 94.1606L72.0767 93.6968M70.2031 94.1606L69.2183 95.8493M72.0767 93.6968L72.798 92.4113M72.0767 93.6968L71.4708 95.4453M77.2722 89.8304L77.6745 89.3617M77.2722 89.8304L77.7563 89.2702M77.6745 89.3617L77.7563 89.2702M77.6745 89.3617L77.8992 89.1689L78.0696 88.9891M70.3415 99.7421L67.1015 99.6896M60.3713 97.5927L57.9965 94.8684M51.9723 94.4716L48.1582 93.3978M52.6835 78.5787L49.097 78.4686L45.8203 77.4662L42.7381 76.2406M52.6835 78.5787L56.4452 78.0356M58.3466 64.4596L58.8681 64.1664M58.3466 64.4596L57.0413 64.0566M58.3466 64.4596L59.796 64.6763M58.8681 64.1664L59.0449 63.6527L59.0839 63.5989M58.8681 64.1664L60.1793 64.3681M58.8681 64.1664L57.7053 63.7752M59.0839 63.5989L58.8407 61.7491L58.8275 61.7417L57.6531 61.7423M59.0839 63.5989L59.082 63.6178L59.094 63.6419M59.0839 63.5989L61.2932 62.5088L61.4334 62.445L61.4707 62.426L61.6775 62.3213M57.6531 61.7423L57.525 61.7523L57.2293 61.8628L56.493 62.2889L55.7751 62.2496M57.6531 61.7423L58.7208 61.1987L58.7359 61.0363L58.9536 60.9155M55.7751 62.2496L55.0178 62.1678L54.2122 62.0042L52.8919 63.0681M55.7751 62.2496L55.1445 62.7822M55.7751 62.2496L56.9162 61.5178M52.8919 63.0681L51.1961 63.1215L49.2206 62.8957M42.7381 76.2406L39.6776 74.7989L36.5291 73.1846L33.3126 71.4494L30.0633 69.8277L26.9376 68.7693L24.3189 68.6639M40.6187 90.5494L44.3859 92.0933L48.1582 93.3978M10.2353 51.9823L12.9655 51.744L13.0563 51.6841M82.879 63.3257L82.8961 63.2599L83.0162 62.8013L82.9801 60.0229L82.9831 59.7706L83.0362 58.6527L82.728 56.483M82.728 56.483L82.25 55.146M82.728 56.483L82.7145 55.0479M78.4433 54.1377L78.4102 54.4575M16.2187 52.9565L14.7834 54.9375L14.4648 56.2326M16.2187 52.9565L17.1451 54.1408M60.1793 64.3681L59.796 64.6763M60.1793 64.3681L61.5623 64.2916L62.8552 63.9601M57.7053 63.7752L56.8009 63.3687M57.7053 63.7752L57.0413 64.0566M56.8009 63.3687L55.9763 63.5748M56.8009 63.3687L56.1872 62.9828M55.9763 63.5748L55.281 63.207M55.9763 63.5748L57.0413 64.0566M66.9668 88.4053L67.0396 88.4092M67.0396 88.4092L67.8269 88.6375M67.8269 88.6375L67.7019 89.1074M67.8269 88.6375L67.7483 88.2494L67.4738 88.1917L67.2236 88.1234M75.9807 88.7364L75.7565 89.8677M55.281 63.207L56.1872 62.9828M55.281 63.207L55.1445 62.7822M56.1872 62.9828L56.0905 62.639M50.0131 74.5139L53.4273 74.8135L56.7685 74.5977L59.9578 73.5502M45.3522 14.3138L48.778 11.7663L52.1964 9.80121M72.1955 29.8489L69.6259 30.8752L66.6161 32.1168M67.2219 60.3641L66.6937 60.3483L66.2032 60.2555L65.7365 60.1947L65.6563 60.0523L65.6514 60.0439L65.6176 59.9837M67.2219 60.3641L67.1105 61.0038M67.2219 60.3641L67.039 59.6381M65.6176 59.9837L65.6607 59.9312L66.0881 59.8052L66.5636 59.7283L67.039 59.6381M65.6176 59.9837L65.6194 59.9887L65.6488 60.0537M65.6176 59.9837L65.6126 59.8093L65.5421 59.5838L65.4586 59.4314L65.3514 59.2733L65.3269 59.2369L65.2383 59.1064M78.3076 55.4885L78.306 55.4708M78.3076 55.4885L78.7947 55.2414L78.7962 55.2336L78.9158 55.0764L78.8271 54.0982L79.0343 53.8428L79.1065 53.772M78.306 55.4708L78.878 55.1928L78.9173 55.0762M56.9162 61.5178L57.4308 61.7459L57.5581 61.7832L57.6189 61.7588L58.8345 61.7581L58.842 61.7394L58.9282 61.1081L60.2048 60.4253M60.2048 60.4253L60.2936 60.1731L60.158 59.7988M60.158 59.7988L60.0314 59.5205L60.1126 59.4374L61.8429 58.8563L62.0316 58.76L63.3561 58.3738L63.7913 58.2466M60.158 59.7988L61.757 59.0146L61.8459 58.9279L61.8472 58.8848L61.9976 58.8697L62.8251 58.564M63.7913 58.2466L64.3386 58.1078M23.3584 62.6832L24.0006 65.4007L24.3189 68.6639M67.5196 89.5258L67.7019 89.1074M67.2236 88.1234L66.8016 88.031M67.2236 88.1234L67.0214 88.2523L66.8613 88.3541M67.2236 88.1234L68.6258 87.6625M66.8016 88.031L68.1387 87.2931L68.6258 87.6625M56.4452 78.0356L59.9398 76.5937L62.8223 74.7284L65.209 72.8522L67.1374 71.1647L68.743 69.6209L70.2794 68.3103L71.7237 67.067L73.2862 66.043M64.6722 58.0257L64.6536 58.0279L64.3386 58.1078M64.6722 58.0257L64.3386 58.1078M20.0703 69.4026L21.0159 70.5094M20.0703 69.4026L19.8512 69.7936M21.0159 70.5094L20.3586 70.8343M54.0521 62.8791L52.8906 63.0682M54.0521 62.8791L55.1445 62.7822M12.2812 62.2768L13.2852 61.8384M83.0385 58.6523L82.9853 59.7703L82.9824 60.0226M64.9349 61.7515L64.6543 62.1251L64.9937 61.7964M84.8288 44.0386L84.1884 44.9018M84.1884 44.9018L83.8935 46.8121M82.6936 48.7634L82.5918 48.92L82.122 49.7647L82.0666 49.8652M82.6936 48.7634L83.2201 48.1781L83.8935 46.8121M63.0477 63.3242L62.7746 63.4476M62.7746 63.4476L62.6664 63.3996L62.5401 63.368L62.5294 63.3696L62.3619 63.5526L62.3027 63.6466M12.584 62.3003L13.6215 62.3434L15.6036 62.6572M15.6036 62.6572L16.8811 62.5374L17.7208 62.1347L18.0191 60.4837L18.1682 60.3867M77.4805 81.7773L76.4956 82.1231L75.0743 82.8784M77.4805 81.7773L77.6248 81.3031M78.7949 56.3044L79.1608 56.2821L79.6569 56.2245L79.8517 56.0982L80.0292 56.0773L80.4064 56.0174L80.5852 56.0093L80.6902 55.9208L81.0502 55.6009L81.1994 55.5246L81.2999 55.3606L81.6406 54.8472L81.6745 54.7886L81.7589 54.5432L82.0468 53.8555M75.0743 82.8784L75.5137 83.6498M75.5137 83.6498L75.7291 84.3488M75.5137 83.6498L76.7797 82.8343L77.7982 82.528M75.7291 84.3488L76.9355 83.6456L77.9711 83.3578M64.7773 63.4356L65.6135 62.8269L66.355 62.3608L67.224 61.8328L67.6305 61.2038L67.8189 60.3602L67.6456 59.4983L67.2098 58.8161L66.6816 58.3442L65.8928 58.0424L64.9255 57.959M78.3535 57.0408L78.4565 57.0167L79.4019 56.9771L80.3582 56.8257M77.2876 77.8074L77.127 77.4663M81.0742 51.4892L81.2073 51.3037L81.3046 51.2763L81.5351 51.0821L81.5155 50.9974L81.5876 50.7278L81.6237 50.7059L81.6617 50.6177L81.7332 50.465L82.0666 49.8652M83.8935 46.8121L82.8082 48.5025L82.707 48.71M77.9711 83.3578L77.9682 83.3442M77.9711 83.3578L77.9834 83.3527M77.9682 83.3442L77.7982 82.528M77.9682 83.3442L77.9711 83.3462L77.9834 83.3527M16.0181 60.284L15.4004 59.7075L13.3089 57.5117M16.0181 60.284L15.8302 60.4088M16.0181 60.284L16.2491 59.8431L16.3008 59.7432M13.3089 57.5117L13.3948 55.9673M64.9922 59.8664L65.3436 59.2889L65.3527 59.2734M17.4645 59.4482L17.0213 59.5164L16.3008 59.7432M69.2183 95.8493L71.4708 95.4453M74.8843 91.0707L75.4267 90.528M75.4267 90.528L75.7565 89.8677M11.9988 61.1566L11.9902 61.1846L11.4922 62.7462M11.9988 61.1566L10.8014 60.8589L9.82201 59.7442M11.9988 61.1566L12.6945 61.7679M11.4922 62.7462L10.5979 62.8587L9.62109 62.2105M17.5229 69.2702L18.4234 70.4388M18.4234 70.4388L18.7993 70.9268M18.4234 70.4388L19.134 70.9068M18.7993 70.9268L19.134 70.9068M19.134 70.9068L19.144 70.9062L20.3586 70.8343M19.134 70.9068L19.1427 70.9087L19.8512 69.7936M20.3586 70.8343L20.497 72.0473M20.3586 70.8343L19.8512 69.7936M78.8984 60.332L79.552 60.6596L80.2813 60.8425M78.8984 60.332L78.876 60.2492L78.5762 59.2294M80.2813 60.8425L79.6526 59.1749L79.4278 58.0098M15.8302 60.4088L14.8795 61.0464L14.769 61.1208L13.2867 61.8384L12.6945 61.7679M66.4933 69.2105L67.1363 71.1643L67.6307 72.9023L68.0021 74.6613M66.4933 69.2105L67.9997 67.785M68.0021 74.6613L69.6773 73.1851M64.8086 59.8795L64.9387 59.8344L64.9848 59.8186L65.3204 59.2476M80.2793 60.8428L80.802 62.7025M82.2792 63.3088L82.8892 63.2021M82.2792 63.3088L82.275 63.2889L81.8125 60.9295L81.1361 59.052L81.0156 57.5668L81.0214 56.9107M82.2792 63.3088L82.4348 65.7358L82.1639 68.1702L82.1356 68.2736L82.1385 68.2798M82.1244 51.6536L82.2132 52.6995L82.2036 52.8142M82.1244 51.6536L82.1555 51.1379L82.3101 50.8142L82.7549 50.7727L82.8251 50.6432L82.819 50.3349L82.8338 50.2689L82.8284 50.0663L82.8644 49.9326M82.2036 52.8142L82.2249 52.7741L82.2285 52.7207L82.2359 52.6914L82.6237 51.9415L82.6165 51.8774M82.2036 52.8142L82.0648 53.859L81.688 54.5943L81.5762 54.7354L81.6745 54.8378L81.6925 55.2974L81.6583 55.4408L81.7824 55.9681L81.708 56.1836L81.6235 56.3172L81.5872 56.5166L81.6187 57.0435M80.5557 53.7908L80.5268 52.9253M80.5268 52.9253L80.4404 52.3742L80.7181 51.9877L81.0753 51.4894L81.322 51.3577L81.3494 51.337L81.7214 51.2327L81.7356 51.2443L82.0667 51.7061L82.086 51.8711M80.5268 52.9253L81.1023 52.7006M82.086 51.8711L82.1903 52.7075M82.086 51.8711L82.0645 51.6749L82.2206 51.147M79.8882 54.7343L79.9141 55.2397M79.8882 54.7343L79.8806 53.951L79.9157 53.109L79.9183 53.0636L79.9842 53.0076L80.403 52.4239L80.4385 52.374M9.82201 59.7442L9.62109 62.2105M9.82201 59.7442L8.19922 58.9177M9.62109 62.2105L10.0205 65.1834L11.8494 68.3934M11.8494 68.3934L10.8895 69.0778L10.2952 69.713L9.06445 70.4761M20.497 72.0473L21.5423 71.1274M64.3492 58.8775L64.0489 58.8652M64.0489 58.8652L63.5423 59.005M64.0489 58.8652L64.2166 59.6466L64.2836 60.5279L64.2024 61.3863L63.7038 61.6584M64.0489 58.8652L64.0252 58.6922L64.0066 58.5576M63.5423 59.005L62.9702 59.3078L62.5 59.6367M63.5423 59.005L63.7177 59.8658L63.7788 60.778L63.7038 61.6584M63.5423 59.005L63.4976 58.8409L63.4087 58.7282L63.3559 58.3896M62.5 59.6367L62.4517 60.304L62.4211 61.1763L62.4409 61.9847M62.5 59.6367L62.0819 59.4302L61.7188 59.5979M60.3691 97.5929L62.38 96.2568L64.34 94.8985L66.202 93.5528L67.6302 92.0876L68.4953 90.8752L68.9399 90.0409L69.1321 89.4825L69.2881 88.817L69.3187 88.2437M78.5762 59.2294L78.9066 59.2194L79.6548 59.1747L80.397 59.1202L81.1397 59.0513L81.8863 58.5276M78.5762 59.2294L78.3482 58.46M81.8863 58.5276L82.4417 57.6908L82.0338 56.2217L82.0126 55.6719M81.8863 58.5276L81.6187 57.0435M79.5555 78.7994L79.6012 78.7955L79.9703 78.7424L80.3916 78.7285M79.5555 78.7994L79.1924 78.8299L79.0568 78.8521L78.582 78.9291M80.3916 78.7285L80.1926 78.7453L80.0039 78.7614M16.248 59.8433L16.7341 59.6382M81.5098 66.9043L81.2445 66.3431M55.1445 62.7822L56.0905 62.639M81.8321 53.9265L81.5309 54.1803L81.4112 54.6374L81.3483 54.8783M81.8321 53.9265L81.8914 53.9071L81.8859 53.816L81.9284 53.1035L81.8611 52.3073L81.6759 51.7623L81.7291 51.2376L81.7336 51.2282L81.8147 51.0913L82.3079 50.8147L82.3926 50.4333L82.4799 50.2494L82.8841 50.1637L82.9599 49.9627L83.3995 48.8982L84.0253 47.5424L84.4402 46.207M81.8321 53.9265L81.6254 54.5268L81.6689 54.7591L81.5435 54.7848L81.3483 54.8783M81.3483 54.8783L80.8784 55.1798L80.8745 55.1808L80.3505 55.2987L79.9141 55.2397M81.3483 54.8783L81.2566 55.4812L81.1635 55.6812L81.148 55.7064L81.1229 55.7585L81.0436 55.8597L81.1554 56.3457L81.1403 56.6292L81.0214 56.9107M79.9141 55.2397L79.4851 55.67L79.1865 55.9448L79.153 55.9754L78.8273 56.2752L78.7945 56.2892M79.4278 58.0098L78.5548 58.0619L78.3203 58.1038M79.4278 58.0098L80.2693 57.9132L81.0179 57.5662L81.6187 57.0435M82.7145 55.0479L82.4745 54.4053M67.9997 67.785L68.7419 69.6205L69.3701 71.4677L69.6773 73.1851M72.1844 63.9098L73.2862 66.043M82.8121 50.448L82.413 50.3521M82.413 50.3521L82.0645 50.4216M82.413 50.3521L81.625 50.7059M82.413 50.3521L82.5198 50.1716L82.8116 49.9609M56.0905 62.639L56.3047 62.4858M82.7096 50.8677L82.5293 51.0857L82.547 51.249M82.7096 50.8677L82.7322 50.7705M80.2752 83.1592L80.1571 83.2948L80.0266 83.4423L79.8147 83.7132L79.4179 84.2292L79.1934 84.5094M65.3633 60.7363L65.5688 60.4832L65.5691 60.4461L65.6074 60.0635M65.6074 60.0635L65.6488 60.0537M63.2402 63.2369L63.7315 63.0153L63.842 62.9274L63.8809 62.7715L64.3618 62.0593L64.4133 61.9592L64.6935 61.1378L64.7238 61.0122L64.8275 61.0322L65.1915 61.0576M65.3016 61.2627L65.0955 61.4675L65.0259 61.5803L64.9937 61.7964M64.9937 61.7964L64.9506 61.7311L65.0479 61.5591L65.0756 61.449L65.1539 61.1655M84.2711 47.3066L84.0282 47.5418L83.2214 48.1776L82.4892 49.5162L82.0306 50.3447L82.0386 50.3991L81.9658 50.4616L81.7768 50.5395L81.6843 50.6027L81.6418 50.632L81.6373 50.6403L81.5954 50.7157L81.5519 50.7231L81.5101 50.746L81.5169 50.9969L81.5365 51.0816L81.3291 51.1905L81.2637 51.2266M61.6775 62.3213L62.4409 61.9847M61.6775 62.3213L61.5566 61.3494L61.6913 60.2572L61.883 59.7576L61.9361 59.3963M61.6775 62.3213L62.0344 62.9512M62.4409 61.9847L63.086 61.8504L63.7038 61.6584M62.4409 61.9847L62.4805 62.5041M63.7038 61.6584L63.5359 62.3769L63.5453 62.4091M80.3846 80.3976L80.3498 80.0913L80.1952 78.7455M56.3945 62.4214L56.531 62.6761M62.4805 62.5041L62.9469 62.5553L63.5331 62.4265L63.5453 62.4091M62.4805 62.5041L62.0344 62.9512M63.5453 62.4091L63.5163 62.4278L63.2399 63.2485L63.1806 63.2653L63.0463 63.2782L62.5648 63.3236L62.0344 62.9512M63.5453 62.4091L64.0223 62.1112L64.2584 61.9846L64.3885 61.9691L64.4623 61.7959L64.7873 61.0254L64.8005 61.0244L64.8392 61.0328L65.274 61.1668L65.5948 60.8257L65.6995 60.4766L65.7375 60.1947L65.6618 59.9312L65.5004 59.6881L65.427 59.671L65.3548 60.0263L65.3494 60.4953L65.2675 60.6975L65.2028 60.999L65.2031 61.0583L65.245 61.0708M80.9377 51.8694L80.7168 51.9873M80.9377 51.8694L81.1023 52.7006M80.9377 51.8694L80.9004 51.7314M61.1777 63.7387L61.7176 63.242L61.7156 63.2298M61.7156 63.2298L61.802 62.9937M61.7156 63.2298L61.276 63.6148L61.152 63.7273M61.7156 63.2298L62.0344 62.9512M78.3482 58.46L78.2611 58.0325L78.274 57.522M78.7945 56.2892L78.7578 56.3065L78.3848 56.3297M78.7945 56.2892L79.0641 56.0289L79.1707 55.9323L79.2593 55.7119M65.2934 60.8164L65.2782 60.7661L65.2656 60.6972L65.3529 60.026L65.4303 59.4398L65.3417 59.2884L65.3375 59.2832M65.698 60.4766L65.5621 60.4756L65.5144 60.5023L65.4229 60.5584L65.3379 60.7126M81.6559 55.2022L81.6491 54.8988M81.6491 54.8988L81.6192 54.8653L81.5293 54.7661M81.6491 54.8988L81.3555 55.3729M64.4432 62.4196L64.3653 62.0598L64.248 61.9741M61.8489 58.8848L61.8511 58.9695L61.9361 59.3963M61.9361 59.3963L62.1722 59.3882L62.8602 59.0703M61.9361 59.3963L61.7188 59.5979M12.9316 67.2124L12.9538 67.2282L15.3648 69.0297L15.6005 69.1102L15.6556 69.1231M55.5273 104.007L55.5759 106.983M82.1384 68.2732L81.9297 67.791M82.4707 53.0669L82.3654 53.8463L82.3496 53.9858M54.7514 103.423L54.1018 104.936L52.502 109.85M52.502 109.85L51.582 110.435M52.502 109.85L53.4746 108.971M55.2487 102.263L55.1714 102.425L54.4512 107.966M55.2487 102.263L55.493 101.904M55.2487 102.263L55.1734 102.407L54.7309 103.021M54.4512 107.966L53.4746 108.971M54.4512 107.966L55.5768 106.984L55.7398 106.196L55.5282 104.007L55.493 101.904M55.1671 102.45L54.7809 103.35L54.7287 103.512L54.0997 104.936L53.0741 106.17M53.0741 106.17L51.5 107.253L50.2754 111.353M53.0741 106.17L54.7128 103.055L54.7309 103.021M53.0741 106.17L51.582 110.435M51.582 110.435L50.2771 111.353L48.5684 111.962M79.3359 61.895L79.3582 61.9736L79.7031 63.2043L79.8752 63.5506M8.1713 59.0483L8.03125 59.7006M81.2445 66.3431L80.8808 65.5739L80.8496 65.5107M17.6976 59.5448L17.5939 59.2407L17.4966 58.8259L17.4086 58.6996L16.2285 57.4028M74.9557 70.1982L74.3257 68.3014L73.2862 66.043M78.6871 54.1855L78.3679 54.4996L78.252 54.8838L78.3064 55.4646M69.1757 88.1689L68.1895 88.2247M80.6884 65.7815L80.8666 65.5422L80.543 64.8925M67.615 62.2557L68.3455 61.4489L68.6879 60.2752L68.6647 59.2757L68.4505 58.4253L67.6604 58.0121L66.7415 57.7573L65.426 57.8311L64.9219 57.9589M80.7461 55.9757L80.8939 55.9264L80.9471 55.8877L80.997 55.8923L81.0627 55.8475L81.0946 55.8256L81.1214 55.7689L81.063 55.6304L81.0418 55.5708M80.9004 55.8841L80.9458 55.888L80.9845 55.86L81.1246 55.7814L81.6567 55.4409M54.7827 103.35L54.7407 103.467L53.4746 108.971M65.3029 61.2627L65.0449 61.6064" stroke="url(#paint0_linear_317_43)" stroke-linecap="round" stroke-linejoin="round"/>
<defs>
<linearGradient id="paint0_linear_317_43" x1="15.0453" y1="82.1364" x2="84.8291" y2="37.898" gradientUnits="userSpaceOnUse">
<stop stop-color="#FF6D44"/>
<stop offset="0.296875" stop-color="#FFA959"/>
<stop offset="1" stop-color="#E7E7E8"/>
</linearGradient>
</defs>
</svg>
