<svg width="1364" height="396" viewBox="0 0 1364 396" fill="none" xmlns="http://www.w3.org/2000/svg">
<path d="M1.0096 97.3825V394.573L1363.4 394.573L1363.4 19.6231M1008.79 394.266L1005.51 390.421M1005.51 390.421L983.398 364.485M1005.51 390.421L1087.64 390.422M1005.51 390.421L923.385 390.422M983.398 364.485L964.119 277.516M983.398 364.485L1059.9 364.486M983.398 364.485L906.897 364.485M964.119 277.516L971.696 282.024M964.119 277.516L951.749 288.636M971.696 282.024L982.81 288.635M971.696 282.024L963.661 274.511M982.81 288.635L1009.25 304.364M982.81 288.635L1038.81 288.635M1009.25 304.364L1035.71 320.107M1009.25 304.364L1059.05 304.365M1035.71 320.107L1041.91 321.989M1035.71 320.107L1059.9 364.486M1041.91 321.989H1081.73M1041.91 321.989L1107.3 341.875M1081.73 321.989H1149.01M1081.73 321.989L1059.05 304.365M1081.73 321.989L1107.3 341.875M1149.01 321.989H1203.48M1149.01 321.989L1175.58 339.664M1149.01 321.989L1122.5 304.365M1203.48 321.989L1175.58 339.664M1203.48 321.989L1209.61 318.107M894.181 53.5658L863.669 1M894.181 53.5658L900.12 143.22M894.181 53.5658L910.316 71.6592L934.558 70.2499M894.181 53.5658L903.188 73.9122M903.188 73.9122L918.255 80.5621M903.188 73.9122L924.69 122.485M918.255 80.5621L947.955 98.3522M918.255 80.5621L924.69 122.485M947.955 98.3522L955.202 152.5M947.955 98.3522L977.654 102.052M947.955 98.3522L941.083 71.6154M955.202 152.5L962.857 156.452M955.202 152.5L924.69 122.485M955.202 152.5L985.714 152.501M962.857 156.452L970.955 160.631M962.857 156.452L994.226 156.452M962.857 156.452L931.489 156.452M970.955 160.631H1003.23M970.955 160.631L938.679 160.631M970.955 160.631L979.534 165.06M1003.23 160.631L1012.77 165.06M1003.23 160.631L994.226 156.452M1003.23 160.631L1035.5 160.631M1012.77 165.06H1046M1012.77 165.06L979.534 165.06M1012.77 165.06L1022.89 169.76M1046 165.06L1057.15 169.76M1046 165.06L1035.5 160.631M1046 165.06L1079.24 165.06M1057.15 169.76H1091.4M1057.15 169.76L1069 174.756M1057.15 169.76L1022.89 169.76M1091.4 169.76H1125.66M1091.4 169.76L1079.24 165.06M1091.4 169.76L1104.34 174.757M1125.66 169.76L1139.68 174.756M1125.66 169.76L1112.48 165.06M1125.66 169.76L1159.91 169.76M1139.68 174.756H1175.02M1139.68 174.756L1154.62 180.081M1139.68 174.756L1104.34 174.757M1175.02 174.756L1191.11 180.082M1175.02 174.756L1159.91 169.76M1175.02 174.756L1210.36 174.757M1191.11 180.082H1227.61M1191.11 180.082L1208.29 185.765M1191.11 180.082L1154.62 180.081M1227.61 180.082L1246.01 185.765M1227.61 180.082L1210.36 174.757M1227.61 180.082L1264.1 180.082M1246.01 185.765H1283.74M1246.01 185.765L1265.71 191.846M1246.01 185.765L1208.29 185.765M1283.74 185.765L1304.76 191.847M1283.74 185.765L1264.1 180.082M1283.74 185.765L1321.47 185.765M1304.76 191.847H1343.81M1304.76 191.847L1327.3 198.369M1304.76 191.847L1265.71 191.846M1343.81 191.847L1363.39 197.178M1343.81 191.847L1321.47 185.765M1343.81 191.847L1363.39 191.846M1096.45 148.76L1066.75 98.2487M1096.45 148.76L1107.76 152.501M1096.45 148.76L1126.16 148.76M1096.45 148.76L1085.73 77.3757M1085.73 77.3757L1056.8 71.2567M1085.73 77.3757L1075.56 32.6187M1085.73 77.3757L1114.66 142.305M863.669 1L868.751 69.2919M863.669 1L833.157 19.2126M868.751 69.2919L900.12 143.22M868.751 69.2919L874.129 160.631M868.751 69.2919L837.383 52.601M900.12 143.22L931.489 156.452M900.12 143.22L906.403 160.631M931.489 156.452L938.679 160.631M931.489 156.452L924.69 122.485M938.679 160.631L946.297 165.06M938.679 160.631H906.403M946.297 165.06L954.384 169.759M946.297 165.06L979.534 165.06M946.297 165.06H913.062M954.384 169.759L962.981 174.756M954.384 169.759L988.639 169.76M954.384 169.759H920.129M962.981 174.756L972.141 180.081M962.981 174.756L998.321 174.756M962.981 174.756H927.642M972.141 180.081L981.92 185.765M972.141 180.081L1008.64 180.081M972.141 180.081H935.646M981.92 185.765L992.383 191.846M981.92 185.765L1019.65 185.766M981.92 185.765H944.192M992.383 191.846H1031.43M992.383 191.846H953.336M992.383 191.846L1003.6 198.368M1031.43 191.846H1070.48M1031.43 191.846L1044.07 198.368M1031.43 191.846L1019.65 185.766M1070.48 191.846H1109.52M1070.48 191.846L1084.53 198.368M1070.48 191.846L1057.38 185.765M1109.52 191.846H1148.57M1109.52 191.846L1124.99 198.368M1109.52 191.846L1095.11 185.765M1148.57 191.846H1187.62M1148.57 191.846L1132.83 185.765M1148.57 191.846L1165.45 198.368M1187.62 191.846L1205.92 198.368M1187.62 191.846L1226.67 191.846M1187.62 191.846L1170.56 185.765M1205.92 198.368H1246.38M1205.92 198.368H1165.45M1205.92 198.368L1225.58 205.381M1246.38 198.368L1267.57 205.381M1246.38 198.368L1286.84 198.369M1246.38 198.368L1226.67 191.846M1267.57 205.381H1309.55M1267.57 205.381H1225.58M1267.57 205.381L1290.42 212.941M1309.55 205.381L1334.04 212.941M1309.55 205.381L1351.53 205.381M1309.55 205.381L1286.84 198.369M1334.04 212.941H1363.39M1334.04 212.941H1290.42M1334.04 212.941L1360.52 221.117M774.646 56.7436L777.304 121.099M774.646 56.7436L781.473 58.8386M774.646 56.7436L743.278 65.0725M774.646 56.7436L802.646 42.648M777.304 121.099L780.119 165.059M777.304 121.099L745.028 75.9593M777.304 121.099L809.578 117.634M780.119 165.059L783.107 169.759M780.119 165.059L813.354 165.06M780.119 165.059L746.882 164.703M783.107 169.759L786.284 174.756M783.107 169.759L817.361 169.76M783.107 169.759L748.851 169.76M786.284 174.756L789.668 180.081M786.284 174.756L821.623 174.757M786.284 174.756L750.944 174.757M789.668 180.081L793.282 185.765M789.668 180.081L826.163 180.082M789.668 180.081L753.174 180.082M793.282 185.765L797.147 191.846M793.282 185.765L831.008 185.766M793.282 185.765L777.857 185.766M797.147 191.846H836.194M797.147 191.846L801.294 198.369M797.147 191.846L786.609 191.847M836.194 191.846L841.756 198.368M836.194 191.846L831.008 185.766M836.194 191.846L875.242 191.847M841.756 198.368L847.736 205.38M841.756 198.368L882.217 198.369M841.756 198.368L801.294 198.369M847.736 205.38L854.182 212.941M847.736 205.38L889.719 205.381M847.736 205.38L805.752 205.381M854.182 212.941H897.807M854.182 212.941L810.558 212.942M854.182 212.941L861.153 221.118M897.807 212.941L906.551 221.117M897.807 212.941L889.719 205.381M897.807 212.941L941.43 212.942M906.551 221.117H951.948M906.551 221.117L916.036 229.986M906.551 221.117L861.153 221.118M951.948 221.117H997.345M951.948 221.117L963.358 229.986M951.948 221.117L941.43 212.942M997.345 221.117H1042.74M997.345 221.117L1010.68 229.986M997.345 221.117L985.053 212.942M1042.74 221.117H1088.14M1042.74 221.117L1058 229.986M1042.74 221.117L1028.68 212.942M1088.14 221.117H1133.54M1088.14 221.117L1105.32 229.986M1088.14 221.117L1072.3 212.942M1133.54 221.117H1178.94M1133.54 221.117L1152.64 229.986M1133.54 221.117L1115.92 212.942M1178.94 221.117H1224.33M1178.94 221.117L1199.97 229.986M1178.94 221.117L1159.55 212.942M1224.33 221.117H1269.73M1224.33 221.117L1203.17 212.942M1224.33 221.117L1247.28 229.986M1269.73 221.117L1294.61 229.985M1269.73 221.117L1246.79 212.942M1269.73 221.117L1315.12 221.118M1294.61 229.985H1341.92M1294.61 229.985L1321.69 239.639M1294.61 229.985L1247.28 229.986M1341.92 229.985L1363.39 237.087M1341.92 229.985L1315.12 221.118M1341.92 229.985L1363.39 229.986M1342.21 33.6288L1357.01 94.8588M1342.21 33.6288L1328.07 50.7609M1342.21 33.6288L1363.39 38.1628M1342.21 33.6288L1317.72 64.0762M1357.01 94.8588L1363.39 109.328M1357.01 94.8588L1331.96 94.4004M1357.01 94.8588L1363.39 88.3875M194.31 71.0681L182.844 132.691L156.631 123.154M194.31 71.0681L219.923 84.5671M194.31 71.0681L168.699 89.861M194.31 71.0681L205.262 66.1075M906.403 160.631L913.062 165.06M906.403 160.631L874.129 160.631M913.062 165.06L920.129 169.759M913.062 165.06L879.826 165.06M920.129 169.759L927.642 174.756M920.129 169.759L885.874 169.76M927.642 174.756L935.646 180.081M927.642 174.756L892.303 174.757M935.646 180.081L944.192 185.765M935.646 180.081L899.152 180.082M944.192 185.765L953.336 191.846M944.192 185.765L906.466 185.765M953.336 191.846L914.29 191.847M953.336 191.846L963.142 198.369M1003.6 198.368H1044.07M1003.6 198.368L1015.67 205.381M1003.6 198.368L963.142 198.369M1044.07 198.368H1084.53M1044.07 198.368L1057.65 205.381M1084.53 198.368H1124.99M1084.53 198.368L1099.63 205.381M1124.99 198.368H1165.45M1124.99 198.368L1141.62 205.381M1165.45 198.368L1183.6 205.381M1225.58 205.381L1183.6 205.381M1225.58 205.381L1246.79 212.942M1290.42 212.941L1246.79 212.942M1290.42 212.941L1315.12 221.118M1360.52 221.117H1363.39M1360.52 221.117L1315.12 221.118M1360.52 221.117L1363.39 222.003M1209.61 318.107L1185.97 304.365M1209.61 318.107L1212.9 316.021M1185.97 304.365H1122.5M1185.97 304.365L1225.42 304.365M1185.97 304.365L1158.9 288.635M1122.5 304.365L1098.86 288.635M1122.5 304.365L1059.05 304.365M1098.86 288.635H1038.81M1098.86 288.635L1158.9 288.635M1098.86 288.635L1077.62 274.511M1038.81 288.635L1020.64 274.511M1038.81 288.635L1059.05 304.365M745.028 75.9593L743.278 65.0725M745.028 75.9593L746.882 164.703M745.028 75.9593L728.687 85.8189M1363.39 357.78L1338.75 288.635L1338.7 288.494L1334.02 275.354M1334.02 275.354L1332.78 274.512M1334.02 275.354L1343.5 288.635M1334.02 275.354L1251.89 341.64M1332.78 274.512L1314.14 261.759M1332.78 274.512L1362.53 274.511M1314.14 261.759L1297.22 250.187M1314.14 261.759L1329.52 261.758M1297.22 250.187L1294.16 248.098M1297.22 250.187L1299.57 250.186M1294.16 248.098L1289.4 244.84L1288.32 245.842M1294.16 248.098L1299.57 250.186M719.053 141.621L720.162 188.297M719.053 141.621L713.518 146.399M719.053 141.621L750.661 182.276M1363.39 316.501L1354.73 304.365M1354.73 304.365L1345.42 291.327M1354.73 304.365L1363.39 304.365M1345.42 291.327L1343.5 288.635M1345.42 291.327L1363.39 298.904M1343.5 288.635L1363.39 288.635M1059.9 364.486L1087.64 390.422M1059.9 364.486L1136.4 364.485M1087.64 390.422L1091.75 394.266M1087.64 390.422L1169.77 390.422M1271.22 261.758H1221.09M1271.22 261.758L1257.51 274.511M1271.22 261.758L1272.5 260.572M1221.09 261.758H1166.88M1221.09 261.758L1248.56 274.511M1221.09 261.758L1196.16 250.187M1166.88 261.758H1112.66M1166.88 261.758L1191.58 274.512M1166.88 261.758L1144.46 250.187M1112.66 261.758H1058.45M1112.66 261.758L1134.61 274.511M1112.66 261.758L1092.75 250.187M1058.45 261.758H1004.23M1058.45 261.758L1077.62 274.511M1058.45 261.758L1041.05 250.187M1004.23 261.758L989.346 250.186M1004.23 261.758L1020.64 274.511M1004.23 261.758L950.021 261.758M989.346 250.186L975.777 239.639M989.346 250.186L1041.05 250.187M989.346 250.186L937.643 250.187M975.777 239.639H926.361M975.777 239.639L1025.19 239.639M975.777 239.639L963.358 229.986M926.361 239.639H876.946M926.361 239.639L937.643 250.187M926.361 239.639L916.036 229.986M876.946 239.639H827.53M876.946 239.639L868.715 229.987M876.946 239.639L885.939 250.186M827.53 239.639H778.115M827.53 239.639L834.236 250.186M827.53 239.639L821.394 229.218M778.115 239.639H728.7M778.115 239.639L774.072 229.987M778.115 239.639L782.531 250.187M728.7 239.639H679.284M728.7 239.639L726.75 229.985L724.961 219.828M728.7 239.639L730.828 250.186M679.284 239.639H629.869M679.284 239.639L679.124 250.186M679.284 239.639L679.43 229.987M629.869 239.639H580.453M629.869 239.639L627.421 250.187M629.869 239.639L632.109 229.987M580.453 239.639H531.038M580.453 239.639L575.717 250.186M580.453 239.639L588.769 221.118M531.038 239.639H481.622M531.038 239.639L524.014 250.186M531.038 239.639L537.466 229.987M481.622 239.639H432.206M481.622 239.639L472.31 250.186M481.622 239.639L490.144 229.987M432.206 239.639H382.791M432.206 239.639L420.607 250.186M432.206 239.639L442.823 229.987M382.791 239.639H333.375M382.791 239.639L395.502 229.987M382.791 239.639L368.903 250.186M333.375 239.639H283.959M333.375 239.639L317.198 250.186M333.375 239.639L348.181 229.987M283.959 239.639H234.544M283.959 239.639L300.86 229.987M283.959 239.639L265.494 250.187M234.544 239.639H185.128M234.544 239.639L253.538 229.987M234.544 239.639L213.791 250.186M185.128 239.639H135.713M185.128 239.639L206.217 229.986M185.128 239.639L162.087 250.187M135.713 239.639H86.2975M135.713 239.639L158.896 229.987M135.713 239.639L110.383 250.187M86.2975 239.639H36.8822M86.2975 239.639L111.574 229.987M86.2975 239.639L58.68 250.187M36.8822 239.639H1M36.8822 239.639L64.253 229.987M36.8822 239.639L6.97598 250.186M1175.58 339.664L1172.09 341.875M1047.36 23.1608L1056.8 71.2567M1047.36 23.1608L1075.56 32.6187M1047.36 23.1608L1019.16 31.6663M1056.8 71.2567L1066.75 98.2487M1056.8 71.2567L1027.87 53.6041M1066.75 98.2487L1077.24 152.5M1066.75 98.2487L1037.05 88.4377M1077.24 152.5L1088.33 156.452M1077.24 152.5L1107.76 152.501M1077.24 152.5L1046.74 152.501M1088.33 156.452L1100.05 160.631M1088.33 156.452L1119.7 156.452M1088.33 156.452L1056.96 156.452M1100.05 160.631H1132.32M1100.05 160.631L1067.78 160.631M1100.05 160.631L1112.48 165.06M1132.32 160.631H1164.6M1132.32 160.631L1119.7 156.452M1132.32 160.631L1145.72 165.06M1164.6 160.631H1196.88M1164.6 160.631L1178.95 165.06M1164.6 160.631L1151.06 156.452M1196.88 160.631L1212.18 165.06M1196.88 160.631L1229.15 160.63M1196.88 160.631L1182.43 156.452M1212.18 165.06H1245.42M1212.18 165.06L1178.95 165.06M1212.18 165.06L1228.43 169.76M1245.42 165.06L1262.68 169.76M1245.42 165.06L1278.65 165.059M1245.42 165.06L1229.15 160.63M1262.68 169.76H1296.94M1262.68 169.76L1228.43 169.76M1262.68 169.76L1281.04 174.757M1296.94 169.76L1316.38 174.757M1296.94 169.76L1331.2 169.759M1296.94 169.76L1278.65 165.059M1316.38 174.757H1351.71M1316.38 174.757L1281.04 174.757M1316.38 174.757L1337.09 180.082M1351.71 174.757L1363.39 177.599M1351.71 174.757L1363.39 174.756M1351.71 174.757L1331.2 169.759M215.734 54.6209L191.245 57.9534L180.223 53.7779M215.734 54.6209L205.262 66.1075M215.734 54.6209L180.223 53.7779M215.734 54.6209L240.748 88.9588L243.801 92.2385L259.375 106.051L259.466 106.132L264.711 110.784M720.162 188.297L721.786 187.612L732.373 192.093M720.162 188.297L700.177 196.757M1282.06 394.266L1251.89 341.64M1251.89 341.64L1212.9 316.021M1251.89 341.64L1169.77 390.422M1212.9 316.021L1225.42 304.365M1103.76 99.0412L1101.22 93.0847M1103.76 99.0412L1109.4 107.607M1103.76 99.0412L1114.66 142.305M1114.66 142.305L1143.6 145.213M1114.66 142.305L1126.16 148.76M209.058 127.834L219.923 84.5671M209.058 127.834L235.272 132.69M209.058 127.834L197.67 130.855M209.058 127.834L195.153 130.411L182.768 133.094M219.923 84.5671L226.32 87.1111M132.301 114.531L155.187 76.5683M155.187 76.5683L133.349 106.132L129.102 106.132M155.187 76.5683L180.223 53.7779M155.187 76.5683L143.086 107.56M743.278 65.0725L712.753 95.4338M743.278 65.0725L728.687 85.8189M712.753 95.4338L713.518 146.399M712.753 95.4338L728.687 85.8189M712.753 95.4338L701.399 106.132M713.518 146.399L701.303 156.942M1363.39 254.506L1351.28 250.187M1351.28 250.187L1321.69 239.639M1351.28 250.187L1299.57 250.186M1351.28 250.187L1363.39 250.186M1321.69 239.639H1272.27M1321.69 239.639L1363.39 239.639M1272.27 239.639H1222.86M1272.27 239.639L1247.28 229.986M1272.27 239.639L1288.32 245.842M1222.86 239.639H1173.44M1222.86 239.639L1247.87 250.187M1222.86 239.639L1199.97 229.986M1173.44 239.639H1124.03M1173.44 239.639L1196.16 250.187M1173.44 239.639L1152.64 229.986M1124.03 239.639H1074.61M1124.03 239.639L1144.46 250.187M1124.03 239.639L1105.32 229.986M1074.61 239.639H1025.19M1074.61 239.639L1092.75 250.187M1074.61 239.639L1058 229.986M1025.19 239.639L1041.05 250.187M1025.19 239.639L1010.68 229.986M963.358 229.986L1010.68 229.986M963.358 229.986L916.036 229.986M941.43 212.942L931.702 205.381M941.43 212.942L985.053 212.942M931.702 205.381L922.68 198.369M931.702 205.381L973.686 205.381M931.702 205.381L889.719 205.381M922.68 198.369L914.29 191.847M922.68 198.369L963.142 198.369M922.68 198.369L882.217 198.369M914.29 191.847L906.466 185.765M914.29 191.847L875.242 191.847M906.466 185.765L899.152 180.082M906.466 185.765L868.737 185.766M899.152 180.082L892.303 174.757M899.152 180.082L862.658 180.082M892.303 174.757L885.874 169.76M892.303 174.757L856.962 174.757M885.874 169.76L879.826 165.06M885.874 169.76L851.617 169.76M879.826 165.06L874.129 160.631M879.826 165.06L846.59 165.06M874.129 160.631L841.853 119.206M837.383 52.601L806.016 66.3663M837.383 52.601L833.157 19.2126M837.383 52.601L841.853 119.206M806.016 66.3663L781.473 58.8386M806.016 66.3663L802.646 42.648M806.016 66.3663L809.578 117.634M781.473 58.8386L802.646 42.648M701.399 106.132L699.532 107.891M701.399 106.132L681.302 106.132M699.532 107.891L697.594 109.717M699.532 107.891L681.275 107.892M697.594 109.717L695.582 111.614M697.594 109.717L681.247 109.716M695.582 111.614L693.489 113.586M695.582 111.614L681.219 111.614M693.489 113.586L691.312 115.636M693.489 113.586L681.189 113.586M691.312 115.636L689.046 117.772M691.312 115.636L681.158 115.636M689.046 117.772L686.684 119.997M689.046 117.772L681.126 117.771M686.684 119.997L684.222 122.318M686.684 119.997L681.092 119.996M684.222 122.318L681.65 124.74M684.222 122.318L681.058 122.317M681.65 124.74L681.012 125.342M681.65 124.74L681.021 124.74M681.012 125.342L680.478 125.845M681.012 125.342L681.021 124.74M680.478 125.845L680.444 145.948M680.478 125.845L679.155 127.271M679.155 127.271L676.698 129.919M679.155 127.271L655.945 127.271M676.698 129.919L674.127 132.691M676.698 129.919L655.33 129.92M674.127 132.691L671.432 135.596M674.127 132.691L654.686 132.69M671.432 135.596L668.604 138.643M671.432 135.596L654.012 135.595M668.604 138.643L665.633 141.845M668.604 138.643L653.304 138.643M665.633 141.845L662.509 145.214M665.633 141.845L652.563 141.845M662.509 145.214L659.217 148.761M662.509 145.214L651.781 145.213M659.217 148.761L655.747 152.5M659.217 148.761L650.958 148.76M655.747 152.5L652.082 156.452M655.747 152.5L650.09 152.501M652.082 156.452L648.203 160.631M652.082 156.452L649.174 156.452M648.203 160.631L647.175 165.06M648.203 160.631L615.928 160.631M648.203 160.631L649.174 156.452M647.175 165.06L646.086 169.76M647.175 165.06L655.274 165.06M647.175 165.06L613.939 165.06M646.086 169.76L645.526 172.166M646.086 169.76L648.827 169.759M646.086 169.76L611.83 169.759M645.526 172.166L643.69 173.506M645.526 172.166L648.827 169.759M643.69 173.506L636.744 174.757M643.69 173.506L642.37 185.765M636.744 174.757L607.195 180.082M636.744 174.757L609.585 174.756M607.195 180.082H570.7M607.195 180.082L604.643 185.765M607.195 180.082L609.585 174.756M570.7 180.082H534.206M570.7 180.082L566.915 185.765M570.7 180.082L574.246 174.756M534.206 180.082H497.711M534.206 180.082L529.187 185.765M534.206 180.082L538.906 174.756M497.711 180.082H461.216M497.711 180.082L491.459 185.765M497.711 180.082L503.566 174.756M461.216 180.082H424.721M461.216 180.082L468.227 174.756M461.216 180.082L453.732 185.765M424.721 180.082L416.004 185.765M424.721 180.082L432.887 174.756M424.721 180.082L388.227 180.081M416.004 185.765H378.277M416.004 185.765L453.732 185.765M416.004 185.765L406.677 191.847M378.277 185.765L367.63 191.847M378.277 185.765L388.227 180.081M378.277 185.765L340.548 185.765M367.63 191.847H328.582M367.63 191.847L406.677 191.847M367.63 191.847L356.211 198.369M328.582 191.847L315.749 198.369M328.582 191.847L340.548 185.765M328.582 191.847L289.535 191.847M315.749 198.369H275.287M315.749 198.369L356.211 198.369M315.749 198.369L301.951 205.38M275.287 198.369L259.967 205.381M275.287 198.369L289.535 191.847M275.287 198.369L234.825 198.369M259.967 205.381L243.45 212.942M259.967 205.381L301.951 205.38M259.967 205.381L217.983 205.381M243.45 212.942L225.591 221.117M243.45 212.942L199.827 212.942M243.45 212.942L287.074 212.942M225.591 221.117L206.217 229.986M225.591 221.117L270.987 221.118M225.591 221.117L180.193 221.118M206.217 229.986L253.538 229.987M206.217 229.986L158.896 229.987M162.087 250.187L136.809 261.759M162.087 250.187L213.791 250.186M162.087 250.187L110.383 250.187M136.809 261.759L108.949 274.512M136.809 261.759L191.022 261.759M136.809 261.759L82.5942 261.759M108.949 274.512L78.0942 288.635M108.949 274.512L165.93 274.512M108.949 274.512L51.9688 274.512M78.0942 288.635L43.7323 304.365M78.0942 288.635L138.139 288.636M78.0942 288.635L18.0493 288.636M43.7323 304.365H1M43.7323 304.365L107.189 304.365M43.7323 304.365L5.22852 321.99M1247.28 229.986H1199.97M1199.97 229.986H1152.64M1152.64 229.986H1105.32M1105.32 229.986H1058M1058 229.986H1010.68M916.036 229.986L868.715 229.987M861.153 221.118L815.756 220.361M861.153 221.118L868.715 229.987M815.756 220.361L770.359 221.118M815.756 220.361L821.394 229.218M815.756 220.361L810.558 212.942M770.359 221.118L724.961 219.828M770.359 221.118L766.935 212.942M770.359 221.118L774.072 229.987M724.961 219.828L679.563 221.118M724.961 219.828L723.311 212.122M679.563 221.118H634.167M679.563 221.118L679.43 229.987M679.563 221.118L679.687 212.942M634.167 221.118H588.769M634.167 221.118L632.109 229.987M634.167 221.118L636.064 212.942M588.769 221.118H543.371M588.769 221.118L592.439 212.941M543.371 221.118H497.975M543.371 221.118L537.466 229.987M543.371 221.118L548.817 212.941M497.975 221.118H452.577M497.975 221.118L490.144 229.987M497.975 221.118L505.192 212.942M452.577 221.118H407.18M452.577 221.118L442.823 229.987M452.577 221.118L461.569 212.941M407.18 221.118H361.782M407.18 221.118L417.946 212.942M407.18 221.118L395.502 229.987M361.782 221.118H316.385M361.782 221.118L348.181 229.987M361.782 221.118L374.321 212.941M316.385 221.118H270.987M316.385 221.118L330.698 212.942M316.385 221.118L300.86 229.987M270.987 221.118L287.074 212.942M270.987 221.118L253.538 229.987M180.193 221.118H134.795M180.193 221.118L199.827 212.942M180.193 221.118L158.896 229.987M134.795 221.118H89.3981M134.795 221.118L156.203 212.942M134.795 221.118L111.574 229.987M89.3981 221.118H44.0009M89.3981 221.118L112.578 212.942M89.3981 221.118L64.253 229.987M44.0009 221.118H1M44.0009 221.118L68.9554 212.941M44.0009 221.118L16.9313 229.987M615.928 160.631H583.653M615.928 160.631L613.939 165.06M615.928 160.631L617.805 156.452M583.653 160.631H551.377M583.653 160.631L580.703 165.06M583.653 160.631L586.436 156.452M551.377 160.631H519.102M551.377 160.631L547.468 165.06M551.377 160.631L555.067 156.452M519.102 160.631H486.827M519.102 160.631L514.232 165.06M519.102 160.631L523.699 156.452M486.827 160.631H454.552M486.827 160.631L492.33 156.452M486.827 160.631L480.997 165.06M454.552 160.631L447.76 165.06M454.552 160.631L460.963 156.452M454.552 160.631L422.277 160.63M447.76 165.06H414.525M447.76 165.06L480.997 165.06M447.76 165.06L440.552 169.759M414.525 165.06L406.296 169.76M414.525 165.06L422.277 160.63M414.525 165.06L381.289 165.059M406.296 169.76H372.041M406.296 169.76L440.552 169.759M406.296 169.76L397.548 174.756M372.041 169.76H337.786M372.041 169.76L381.289 165.059M372.041 169.76L362.207 174.756M337.786 169.76H303.53M337.786 169.76L348.052 165.059M337.786 169.76L326.868 174.757M303.53 169.76H269.275M303.53 169.76L314.817 165.061M303.53 169.76L291.529 174.757M269.275 169.76H235.019M269.275 169.76L281.581 165.059M269.275 169.76L256.189 174.756M235.019 169.76H200.763M235.019 169.76L248.346 165.059M235.019 169.76L220.85 174.756M200.763 169.76H166.508M200.763 169.76L215.109 165.061M200.763 169.76L185.51 174.757M166.508 169.76L150.169 174.757M166.508 169.76L181.874 165.059M166.508 169.76L132.253 169.759M150.169 174.757H114.83M150.169 174.757L185.51 174.757M150.169 174.757L132.764 180.081M114.83 174.757L96.2689 180.082M114.83 174.757L132.253 169.759M114.83 174.757L79.4908 174.756M96.2689 180.082H59.7745M96.2689 180.082L132.764 180.081M96.2689 180.082L76.4537 185.765M59.7745 180.082L38.7258 185.765M59.7745 180.082L79.4908 174.756M59.7745 180.082L23.2796 180.081M38.7258 185.765H1M38.7258 185.765L76.4537 185.765M38.7258 185.765L16.205 191.846M1112.4 75.3097L1121.3 110.411M1112.4 75.3097L1101.22 93.0847M1112.4 75.3097L1103.36 62.9487M1112.4 75.3097L1136.36 102.553M1121.3 110.411L1115.74 110.074M1121.3 110.411L1131.67 111.041M1283.65 250.187H1247.87M1283.65 250.187L1272.5 260.572M1283.65 250.187L1288.32 245.842M1247.87 250.187H1196.16M1247.87 250.187L1272.5 260.572M1196.16 250.187H1144.46M1144.46 250.187H1092.75M1092.75 250.187H1041.05M937.643 250.187L950.021 261.758M937.643 250.187L885.939 250.186M868.715 229.987L821.394 229.218M821.394 229.218L774.072 229.987M774.072 229.987H679.43M679.43 229.987H632.109M632.109 229.987H537.466M537.466 229.987H490.144M490.144 229.987H442.823M442.823 229.987H395.502M395.502 229.987H348.181M348.181 229.987H300.86M300.86 229.987H253.538M158.896 229.987H111.574M111.574 229.987H64.253M64.253 229.987H16.9313M16.9313 229.987H1M16.9313 229.987L1 235.205M1027.87 53.6041L998.944 73.1953M1027.87 53.6041L1037.05 88.4377M1027.87 53.6041L1019.16 31.6663M998.944 73.1953L970.013 66.7928L941.083 71.6154M998.944 73.1953L1007.35 95.2026M998.944 73.1953L990.957 59.3496M1363.39 261.758H1329.52M1329.52 261.758L1362.53 274.511M1329.52 261.758L1299.57 250.186M833.157 19.2126L802.646 42.648M841.853 119.206L846.59 165.06M841.853 119.206L809.578 117.634M846.59 165.06L851.617 169.76M846.59 165.06H813.354M851.617 169.76L856.962 174.757M851.617 169.76H817.361M856.962 174.757L862.658 180.082M856.962 174.757H821.623M862.658 180.082L868.737 185.766M862.658 180.082H826.163M868.737 185.766L875.242 191.847M868.737 185.766H831.008M875.242 191.847L882.217 198.369M963.142 198.369L973.686 205.381M973.686 205.381H1015.67M973.686 205.381L985.053 212.942M1015.67 205.381H1057.65M1015.67 205.381L1028.68 212.942M1057.65 205.381H1099.63M1057.65 205.381L1072.3 212.942M1099.63 205.381H1141.62M1099.63 205.381L1115.92 212.942M1141.62 205.381H1183.6M1141.62 205.381L1159.55 212.942M1183.6 205.381L1203.17 212.942M1246.79 212.942L1203.17 212.942M1331.96 94.4004L1346.86 129.913L1363.39 129.917M1331.96 94.4004L1317.72 64.0762M1331.96 94.4004L1306.93 115.65M1317.72 64.0762L1293.23 103.851L1268.76 124.741M1317.72 64.0762L1304.1 73.5435M1103.36 62.9487L1094.6 77.4752M1103.36 62.9487L1126.83 86.5246M1126.83 86.5246L1150.28 93.1502M1126.83 86.5246L1136.36 102.553M1150.28 93.1502L1160.32 113.964M1150.28 93.1502L1173.75 90.5959M1160.32 113.964L1170.8 124.741M1160.32 113.964L1184.29 109.161M1160.32 113.964L1136.36 102.553M1170.8 124.741H1195.29M1170.8 124.741L1181.74 127.271M1170.8 124.741L1146.31 113.891M1195.29 124.741H1219.78M1195.29 124.741L1184.29 109.161M1195.29 124.741L1206.78 127.271M1219.78 124.741H1244.27M1219.78 124.741L1208.25 119.167M1219.78 124.741L1231.81 127.271M1244.27 124.741H1268.76M1244.27 124.741L1232.21 121.505M1244.27 124.741L1256.86 127.271M1268.76 124.741L1256.18 116.352M1268.76 124.741L1281.89 127.271M951.749 288.636H918.723M951.749 288.636L934.251 304.365M918.723 288.636L906.68 274.512M918.723 288.636L932.135 304.365M918.723 288.636L858.678 288.636M906.68 274.512H849.699M906.68 274.512L895.806 261.759M906.68 274.512L963.661 274.511M849.699 274.512H792.718M849.699 274.512L858.678 288.636M849.699 274.512L841.592 261.759M792.718 274.512H735.738M792.718 274.512L787.377 261.759M792.718 274.512L798.633 288.636M735.738 274.512H678.757M735.738 274.512L733.164 261.758M735.738 274.512L738.587 288.635M678.757 274.512H621.776M678.757 274.512L678.543 288.635M678.757 274.512L678.95 261.759M621.776 274.512H564.796M621.776 274.512L618.498 288.636M621.776 274.512L624.735 261.759M564.796 274.512H507.815M564.796 274.512L558.453 288.635M564.796 274.512L570.52 261.758M507.815 274.512H450.833M507.815 274.512L498.408 288.635M507.815 274.512L516.307 261.758M450.833 274.512H393.852M450.833 274.512L438.364 288.635M450.833 274.512L462.093 261.758M393.852 274.512H336.872M393.852 274.512L378.319 288.635M393.852 274.512L407.879 261.758M336.872 274.512H279.892M336.872 274.512L353.665 261.759M336.872 274.512L318.274 288.635M279.892 274.512H222.911M279.892 274.512L258.228 288.635M279.892 274.512L299.451 261.759M222.911 274.512H165.93M222.911 274.512L245.236 261.759M222.911 274.512L198.185 288.635M165.93 274.512L191.022 261.759M165.93 274.512L138.139 288.636M51.9688 274.512H1M51.9688 274.512L82.5942 261.759M51.9688 274.512L18.0493 288.636M809.578 117.634L813.354 165.06M979.534 165.06L988.639 169.76M1022.89 169.76L1033.66 174.756M1022.89 169.76L988.639 169.76M1033.66 174.756L1045.13 180.081M1033.66 174.756L1069 174.756M1033.66 174.756L998.321 174.756M1045.13 180.081H1081.62M1045.13 180.081L1057.38 185.765M1045.13 180.081L1008.64 180.081M1081.62 180.081H1118.12M1081.62 180.081L1095.11 185.765M1081.62 180.081L1069 174.756M1118.12 180.081H1154.62M1118.12 180.081L1104.34 174.757M1118.12 180.081L1132.83 185.765M1154.62 180.081L1170.56 185.765M1170.56 185.765H1208.29M1170.56 185.765L1132.83 185.765M1208.29 185.765L1226.67 191.846M1226.67 191.846H1265.71M1265.71 191.846L1286.84 198.369M1286.84 198.369H1327.3M1327.3 198.369L1351.53 205.381M1327.3 198.369L1363.39 198.368M1351.53 205.381H1363.39M1351.53 205.381L1363.39 208.811M681.275 107.892L681.302 106.132M681.275 107.892L681.247 109.716M681.275 107.892H618.775M618.775 107.892L617.559 109.717M618.775 107.892L619.946 106.132M618.775 107.892L597.941 107.89M617.559 109.717H596.33M617.559 109.717L638.788 109.716M617.559 109.717L616.296 111.613M596.33 109.717L594.656 111.614M596.33 109.717L597.941 107.89M596.33 109.717L575.1 109.716M594.656 111.614H573.013M594.656 111.614L616.296 111.613M594.656 111.614L592.915 113.585M573.013 111.614L570.846 113.586M573.013 111.614L575.1 109.716M573.013 111.614L551.373 111.613M570.846 113.586H548.777M570.846 113.586L592.915 113.585M570.846 113.586L568.59 115.635M548.777 113.586L546.076 115.637M548.777 113.586L551.373 111.613M548.777 113.586L526.709 113.585M546.076 115.637H523.562M546.076 115.637L568.59 115.635M546.076 115.637L543.264 117.771M523.562 115.637L520.288 117.772M523.562 115.637L526.709 113.585M523.562 115.637L501.049 115.636M520.288 117.772H497.31M520.288 117.772L543.264 117.771M520.288 117.772L516.874 119.996M497.31 117.772L493.415 119.998M497.31 117.772L501.049 115.636M497.31 117.772L474.333 117.771M493.415 119.998H469.955M493.415 119.998L516.874 119.996M493.415 119.998L489.352 122.317M469.955 119.998L465.388 122.319M469.955 119.998L474.333 117.771M469.955 119.998L446.495 119.996M465.388 122.319H441.425M465.388 122.319L489.352 122.317M465.388 122.319L460.622 124.739M441.425 122.319L436.132 124.741M441.425 122.319L446.495 119.996M441.425 122.319L417.462 122.318M436.132 124.741L430.603 127.272M436.132 124.741L460.622 124.739M436.132 124.741L411.645 124.74M430.603 127.272H405.566M430.603 127.272L455.641 127.27M430.603 127.272L424.82 129.92M405.566 127.272H380.529M405.566 127.272L411.645 124.74M405.566 127.272L399.208 129.919M380.529 127.272L373.596 129.92M380.529 127.272L387.156 124.74M380.529 127.272L355.49 127.271M373.596 129.92H347.983M373.596 129.92L399.208 129.919M373.596 129.92L366.338 132.691M347.983 129.92L340.125 132.691M347.983 129.92L355.49 127.271M347.983 129.92L322.371 129.919M340.125 132.691H313.911M340.125 132.691L366.338 132.691M340.125 132.691L331.889 135.595M313.911 132.691L305.045 135.596M313.911 132.691L322.371 129.919M313.911 132.691L287.698 132.69M305.045 135.596L295.741 138.644M305.045 135.596L331.889 135.595M305.045 135.596L278.201 135.595M295.741 138.644L285.969 141.846M295.741 138.644L268.236 138.643M295.741 138.644L323.246 138.643M285.969 141.846L275.688 145.214M285.969 141.846L314.167 141.845M285.969 141.846L257.768 141.845M275.688 145.214L264.862 148.761M275.688 145.214L246.759 145.213M275.688 145.214L304.619 145.213M264.862 148.761L253.444 152.501M264.862 148.761L294.561 148.76M264.862 148.761L235.161 148.76M253.444 152.501L241.383 156.453M253.444 152.501L283.954 152.5M253.444 152.501L222.932 152.5M241.383 156.453L228.625 160.632M241.383 156.453L272.752 156.453M241.383 156.453L210.014 156.452M228.625 160.632L215.109 165.061M228.625 160.632L260.901 160.631M228.625 160.632L196.351 160.631M215.109 165.061L248.346 165.059M215.109 165.061L181.874 165.059M185.51 174.757L169.259 180.082M185.51 174.757L220.85 174.756M169.259 180.082L151.909 185.766M169.259 180.082L205.754 180.081M169.259 180.082L132.764 180.081M151.909 185.766H114.182M151.909 185.766L189.637 185.766M151.909 185.766L133.346 191.847M114.182 185.766L94.2989 191.847M114.182 185.766L132.764 180.081M114.182 185.766L76.4537 185.765M94.2989 191.847H55.2519M94.2989 191.847L133.346 191.847M94.2989 191.847L72.9762 198.369M55.2519 191.847L32.5138 198.37M55.2519 191.847L76.4537 185.765M55.2519 191.847L16.205 191.846M32.5138 198.37H1M32.5138 198.37L72.9762 198.369M32.5138 198.37L8.06585 205.381M1331.2 169.759L1311.9 165.06M1331.2 169.759L1363.39 169.76M1278.65 165.059L1261.43 160.631M1278.65 165.059L1311.9 165.06M1229.15 160.63L1213.8 156.453M1229.15 160.63L1261.43 160.631M1182.43 156.452H1151.06M1182.43 156.452L1168.78 152.501M1182.43 156.452L1213.8 156.453M1151.06 156.452H1119.7M1151.06 156.452L1138.27 152.501M1119.7 156.452L1107.76 152.501M1056.96 156.452L1046.74 152.501M1056.96 156.452L1067.78 160.631M1056.96 156.452H994.226M994.226 156.452L985.714 152.501M1363.39 169.283L1345.13 165.06M1345.13 165.06H1311.9M1345.13 165.06L1325.98 160.631M1345.13 165.06L1363.39 165.059M1311.9 165.06L1293.7 160.631M1293.7 160.631H1261.43M1293.7 160.631L1276.54 156.452M1293.7 160.631L1325.98 160.631M1261.43 160.631L1245.17 156.453M1245.17 156.453H1213.8M1245.17 156.453L1229.8 152.5M1245.17 156.453L1276.54 156.452M1213.8 156.453L1199.29 152.501M1199.29 152.501H1168.78M1199.29 152.501L1229.8 152.5M1199.29 152.501L1185.55 148.76M1168.78 152.501H1138.27M1168.78 152.501L1155.86 148.76M1138.27 152.501H1107.76M1138.27 152.501L1126.16 148.76M1046.74 152.501H1016.23M1046.74 152.501L1037.05 88.4377M1016.23 152.501H985.714M1016.23 152.501L1007.35 95.2026M1016.23 152.501L1035.5 160.631M985.714 152.501L977.654 102.052M977.654 102.052L1007.35 95.2026M977.654 102.052L970.012 66.7923L962.757 57.2513M1007.35 95.2026L1037.05 88.4377M1145.72 165.06H1178.95M1145.72 165.06L1112.48 165.06M1145.72 165.06L1159.91 169.76M1178.95 165.06L1194.17 169.76M1228.43 169.76L1194.17 169.76M1228.43 169.76L1245.7 174.757M1281.04 174.757L1245.7 174.757M1281.04 174.757L1300.6 180.082M1337.09 180.082H1363.39M1337.09 180.082L1300.6 180.082M1337.09 180.082L1359.2 185.766M1131.67 111.041L1135.02 113.219M1131.67 111.041L1132.78 113.085L1141.97 129.919L1152.75 132.69M1135.02 113.219L1146.31 113.891M1135.02 113.219L1156.7 127.271M1146.31 113.891L1136.36 102.553M1146.31 113.891L1156.7 127.271M1181.74 127.271L1193.19 129.919M1181.74 127.271L1156.7 127.271M1181.74 127.271L1206.78 127.271M1193.19 129.919L1205.17 132.691M1193.19 129.919L1218.8 129.92L1231.39 132.691M1193.19 129.919L1167.57 129.92M1205.17 132.691L1217.73 135.596M1205.17 132.691L1231.39 132.691M1205.17 132.691L1178.96 132.691M1217.73 135.596L1230.91 138.643M1217.73 135.596L1271.42 135.595M1217.73 135.596L1164.05 135.595M1230.91 138.643L1244.76 141.845M1230.91 138.643L1203.41 138.643M1230.91 138.643L1258.41 138.643M1244.76 141.845L1259.32 145.213M1244.76 141.845L1216.55 141.845M1244.76 141.845L1272.95 141.845M1259.32 145.213L1274.65 148.76M1259.32 145.213L1230.39 145.214M1259.32 145.213L1288.25 145.214M1274.65 148.76L1290.83 152.5M1274.65 148.76L1244.95 148.76M1274.65 148.76L1304.36 148.76M1290.83 152.5L1307.91 156.452M1290.83 152.5L1260.32 152.5M1290.83 152.5L1321.34 152.501M1307.91 156.452L1325.98 160.631M1307.91 156.452L1339.28 156.452M1307.91 156.452L1276.54 156.452M1325.98 160.631H1358.25M1358.25 160.631L1363.39 161.761M1358.25 160.631L1363.39 160.631M1358.25 160.631L1339.28 156.452M1339.28 156.452L1321.34 152.501M1339.28 156.452L1363.39 156.452M1276.54 156.452L1260.32 152.5M1260.32 152.5H1229.8M1260.32 152.5L1244.95 148.76M1229.8 152.5L1215.25 148.76M1185.55 148.76H1155.86M1185.55 148.76L1172.53 145.213M1185.55 148.76L1215.25 148.76M1155.86 148.76H1126.16M1155.86 148.76L1143.6 145.213M676.946 394.266L677.005 390.422M677.005 390.422L677.397 364.486M677.005 390.422L759.131 390.421M677.005 390.422L594.878 390.422M677.397 364.486L677.738 341.875M677.397 364.486L753.896 364.485M677.397 364.486L600.896 364.486M677.738 341.875L678.039 321.99M677.738 341.875L749.333 341.875M677.738 341.875L606.143 341.875M678.039 321.99L678.305 304.365M678.039 321.99L745.32 321.989M678.039 321.99L610.757 321.99M678.305 304.365L678.543 288.635M678.305 304.365L741.762 304.364M678.305 304.365L614.848 304.365M678.543 288.635L738.587 288.635M678.543 288.635L618.498 288.636M678.95 261.759L679.124 250.186M678.95 261.759L733.164 261.758M678.95 261.759L624.735 261.759M679.124 250.186L730.828 250.186M679.124 250.186L627.421 250.187M679.687 212.942L679.802 205.381M679.687 212.942L636.064 212.942M679.687 212.942L723.311 212.122M679.802 205.381L679.908 196.49M679.802 205.381L700.177 196.757M679.802 205.381L637.818 205.38M679.908 196.49L680.006 175.324M679.908 196.49L700.177 196.757M679.908 196.49L639.445 198.369M680.006 175.324L680.098 145.766M680.006 175.324L640.959 191.847M680.006 175.324L701.303 156.942M680.098 145.766L680.444 145.948M680.098 145.766L676.494 149.588M655.945 127.271L655.33 129.92M655.945 127.271L656.531 124.74M655.945 127.271H605.869M605.869 127.271H580.831M605.869 127.271L604.106 129.92M605.869 127.271L607.555 124.739M580.831 127.271H555.793M580.831 127.271L578.493 129.92M580.831 127.271L583.066 124.739M555.793 127.271H530.755M555.793 127.271L552.882 129.92M555.793 127.271L558.577 124.74M530.755 127.271H505.718M530.755 127.271L534.088 124.74M530.755 127.271L527.269 129.919M505.718 127.271H480.679M505.718 127.271L509.599 124.741M505.718 127.271L501.657 129.92M480.679 127.271L476.045 129.92M480.679 127.271L485.111 124.74M480.679 127.271L455.641 127.27M476.045 129.92L471.193 132.691M476.045 129.92L501.657 129.92M476.045 129.92L450.433 129.92M471.193 132.691L466.107 135.596M471.193 132.691H497.406M471.193 132.691L444.979 132.691M466.107 135.596L460.771 138.644M466.107 135.596H492.952M466.107 135.596L439.263 135.596M460.771 138.644L455.166 141.846M460.771 138.644L433.265 138.643M460.771 138.644L488.276 138.644M455.166 141.846L449.27 145.214M455.166 141.846L483.366 141.846M455.166 141.846L426.965 141.846M449.27 145.214H420.339M449.27 145.214L478.2 145.213M449.27 145.214L443.06 148.76M420.339 145.214L426.965 141.846M420.339 145.214L413.36 148.76M420.339 145.214L391.409 134.052L389.904 134.364M389.904 134.364L388.309 134.457M389.904 134.364L362.478 140.052M388.309 134.457L370.567 135.502M388.309 134.457L390.306 133.624L392.552 132.691M370.567 135.502L370.401 135.596L362.478 140.052M370.567 135.502L370.154 135.595M362.478 140.052L353.961 148.761M362.478 140.052L333.549 145.213M353.961 148.761L344.977 152.501M353.961 148.761L383.661 148.761M353.961 148.761L324.261 148.76M344.977 152.501L335.488 156.453M344.977 152.501L375.489 152.5M344.977 152.501L314.465 152.5M335.488 156.453L325.451 160.631M335.488 156.453L366.858 156.453M335.488 156.453L304.121 156.453M325.451 160.631L314.817 165.061M325.451 160.631L357.726 160.631M325.451 160.631L293.177 160.631M314.817 165.061L348.052 165.059M314.817 165.061L281.581 165.059M291.529 174.757L278.742 180.082M291.529 174.757L326.868 174.757M291.529 174.757L256.189 174.756M278.742 180.082L265.092 185.766M278.742 180.082L315.237 180.082M278.742 180.082L242.247 180.081M265.092 185.766L250.487 191.847M265.092 185.766L302.82 185.765M265.092 185.766L227.365 185.765M250.487 191.847L234.825 198.369M250.487 191.847L289.535 191.847M250.487 191.847L211.44 191.846M234.825 198.369H194.362M234.825 198.369L217.983 205.381M194.362 198.369L176.001 205.381M194.362 198.369L211.44 191.846M194.362 198.369L153.901 198.368M176.001 205.381L156.203 212.942M176.001 205.381L217.983 205.381M176.001 205.381L134.017 205.38M156.203 212.942L112.578 212.942M156.203 212.942L199.827 212.942M58.68 250.187L28.3802 261.759M58.68 250.187H110.383M58.68 250.187L6.97598 250.186M28.3802 261.759L1 272.215M28.3802 261.759L82.5942 261.759M28.3802 261.759L1 261.758M1143.6 145.213H1172.53M1143.6 145.213L1131.95 141.845M1172.53 145.213L1160.16 141.845M1172.53 145.213L1201.46 145.213M1215.25 148.76H1244.95M1215.25 148.76L1201.46 145.213M1244.95 148.76L1230.39 145.214M1304.36 148.76H1334.05M1304.36 148.76L1321.34 152.501M1304.36 148.76L1288.25 145.214M1334.05 148.76H1363.39M1334.05 148.76L1317.18 145.213M1334.05 148.76L1363.39 154.925M651.781 145.213H622.851M651.781 145.213L650.958 148.76M651.781 145.213L652.563 141.845M622.851 145.213H593.921M622.851 145.213L621.259 148.76M622.851 145.213L624.363 141.845M593.921 145.213H564.991M593.921 145.213L591.559 148.76M593.921 145.213L596.164 141.845M564.991 145.213H536.06M564.991 145.213L561.859 148.76M564.991 145.213L567.964 141.845M536.06 145.213H507.13M536.06 145.213L532.159 148.76M536.06 145.213L539.765 141.845M507.13 145.213H478.2M507.13 145.213L511.565 141.845M507.13 145.213L502.459 148.76M478.2 145.213L483.366 141.846M478.2 145.213L472.76 148.76M443.06 148.76L436.511 152.5M443.06 148.76L472.76 148.76M443.06 148.76L413.36 148.76M436.511 152.5H405.999M436.511 152.5L467.022 152.5M436.511 152.5L429.594 156.452M405.999 152.5H375.489M405.999 152.5L413.36 148.76M405.999 152.5L398.225 156.453M375.489 152.5L383.661 148.761M375.489 152.5L366.858 156.453M314.465 152.5H283.954M314.465 152.5L324.261 148.76M314.465 152.5L304.121 156.453M283.954 152.5L294.561 148.76M283.954 152.5L272.752 156.453M222.932 152.5L210.014 156.452M222.932 152.5L235.161 148.76M222.932 152.5L192.42 152.5M210.014 156.452H178.646M210.014 156.452L196.351 160.631M178.646 156.452L164.075 160.631M178.646 156.452L192.42 152.5M178.646 156.452L147.277 156.452M164.075 160.631H131.8M164.075 160.631L196.351 160.631M164.075 160.631L148.638 165.06M131.8 160.631L115.402 165.06M131.8 160.631L147.277 156.452M131.8 160.631L99.5252 160.63M115.402 165.06H82.1663M115.402 165.06L148.638 165.06M115.402 165.06L97.9968 169.76M82.1663 165.06H48.9304M82.1663 165.06L99.5252 160.63M82.1663 165.06L63.7419 169.759M48.9304 165.06L29.4861 169.759M48.9304 165.06L67.25 160.631M48.9304 165.06L15.6944 165.06M29.4861 169.759H1M29.4861 169.759L63.7419 169.759M29.4861 169.759L8.81096 174.756M1131.95 141.845H1160.16M1131.95 141.845L1129.84 138.643M1160.16 141.845H1188.36M1160.16 141.845L1148.4 138.643M1188.36 141.845H1216.55M1188.36 141.845L1175.9 138.643M1188.36 141.845L1201.46 145.213M1216.55 141.845L1203.41 138.643M1216.55 141.845L1230.39 145.214M1272.95 141.845H1301.15M1272.95 141.845L1288.25 145.214M1272.95 141.845L1258.41 138.643M1301.15 141.845H1329.36M1301.15 141.845L1285.92 138.643M1301.15 141.845L1317.18 145.213M1329.36 141.845H1357.55M1329.36 141.845L1346.11 145.214M1329.36 141.845L1313.42 138.643M1357.55 141.845H1363.39M1357.55 141.845L1363.39 142.968M1357.55 141.845L1340.93 138.643M156.631 123.154L130.418 131.921M156.631 123.154L143.983 135.596M156.631 123.154L168.699 89.861M941.083 71.6154L916.366 78.4428M941.083 71.6154L934.558 70.2499M226.32 87.1111L234.273 90.2745M226.32 87.1111L205.262 66.1075M356.602 138.643L342.368 141.845M356.602 138.643L350.752 138.643M356.602 138.643L370.154 135.595M342.368 141.845H314.167M342.368 141.845L350.752 138.643M342.368 141.845L333.549 145.213M314.167 141.845L323.246 138.643M314.167 141.845L304.619 145.213M257.768 141.845H229.57M257.768 141.845L246.759 145.213M257.768 141.845L268.236 138.643M229.57 141.845H201.37M229.57 141.845L240.732 138.642M229.57 141.845L217.827 145.213M201.37 141.845H173.17M201.37 141.845L213.227 138.642M201.37 141.845L188.898 145.213M173.17 141.845H144.97M173.17 141.845L185.721 138.643M173.17 141.845L159.967 145.213M144.97 141.845H116.77M144.97 141.845L158.217 138.643M144.97 141.845L131.037 145.213M116.77 141.845L102.107 145.213M116.77 141.845L88.5708 141.845M116.77 141.845L130.712 138.642M102.107 145.213H73.1766M102.107 145.213L131.037 145.213M102.107 145.213L86.663 148.76M73.1766 145.213H44.2462M73.1766 145.213L88.5708 141.845M73.1766 145.213L56.9633 148.76M44.2462 145.213L27.2636 148.76M44.2462 145.213L15.3162 145.213M44.2462 145.213L60.3712 141.845M27.2636 148.76H1M27.2636 148.76L56.9633 148.76M27.2636 148.76L9.35288 152.5M1035.5 160.631H1067.78M1067.78 160.631L1079.24 165.06M1112.48 165.06L1079.24 165.06M1159.91 169.76H1194.17M1194.17 169.76L1210.36 174.757M1245.7 174.757L1264.1 180.082M1245.7 174.757L1210.36 174.757M1300.6 180.082L1321.47 185.765M1300.6 180.082L1264.1 180.082M1359.2 185.766H1363.39M1359.2 185.766L1363.39 186.843M1359.2 185.766L1321.47 185.765M609.585 174.756H574.246M609.585 174.756L611.83 169.759M574.246 174.756H538.906M574.246 174.756L577.574 169.759M538.906 174.756H503.566M538.906 174.756L543.318 169.759M503.566 174.756H468.227M503.566 174.756L509.063 169.759M468.227 174.756H432.887M468.227 174.756L474.808 169.759M432.887 174.756L440.552 169.759M432.887 174.756L397.548 174.756M388.227 180.081L397.548 174.756M388.227 180.081L351.732 180.081M340.548 185.765H302.82M340.548 185.765L351.732 180.081M302.82 185.765L315.237 180.082M302.82 185.765L289.535 191.847M227.365 185.765L211.44 191.846M227.365 185.765L242.247 180.081M227.365 185.765L189.637 185.766M211.44 191.846H172.393M172.393 191.846L153.901 198.368M172.393 191.846L189.637 185.766M172.393 191.846L133.346 191.847M153.901 198.368H113.438M153.901 198.368L134.017 205.38M113.438 198.368L92.0329 205.38M113.438 198.368L133.346 191.847M113.438 198.368L72.9762 198.369M92.0329 205.38H50.0498M92.0329 205.38L134.017 205.38M92.0329 205.38L68.9554 212.941M50.0498 205.38L25.3317 212.941M50.0498 205.38L72.9762 198.369M50.0498 205.38L8.06585 205.381M25.3317 212.941L1 220.384M25.3317 212.941L1 212.942M25.3317 212.941L68.9554 212.941M760.831 180.398L763.768 205.381M760.831 180.398L786.609 191.847M760.831 180.398L732.373 192.093M763.768 205.381L766.935 212.942M763.768 205.381H805.752M763.768 205.381L732.373 192.093M766.935 212.942L723.311 212.122M766.935 212.942H810.558M782.531 250.187L787.377 261.759M782.531 250.187L834.236 250.186M782.531 250.187L730.828 250.186M787.377 261.759L841.592 261.759M787.377 261.759L733.164 261.758M798.633 288.636L805.22 304.365M798.633 288.636L858.678 288.636M798.633 288.636L738.587 288.635M805.22 304.365L812.601 321.99M805.22 304.365L868.678 304.365M805.22 304.365L741.762 304.364M812.601 321.99L820.929 341.876M812.601 321.99L879.883 321.99M812.601 321.99L745.32 321.989M820.929 341.876L830.397 364.486M820.929 341.876L892.525 341.876M820.929 341.876L749.333 341.875M830.397 364.486L841.258 390.422M830.397 364.486L906.897 364.485M830.397 364.486L753.896 364.485M841.258 390.422L842.869 394.267M841.258 390.422L923.385 390.422M841.258 390.422L759.131 390.421M1 132.69H25.563M25.563 132.69H51.7764M25.563 132.69L40.637 129.92M25.563 132.69L9.76452 135.596M51.7764 132.69H77.9899M51.7764 132.69L36.6081 135.595M51.7764 132.69L66.249 129.92M77.9899 132.69L91.8612 129.919M77.9899 132.69L104.203 132.69M77.9899 132.69L63.4519 135.595M91.8612 129.919L105.111 127.271L122.369 120.949M91.8612 129.919L66.249 129.92M91.8612 129.919L111.166 128.191M721.785 187.611L723.311 212.122M730.828 250.186L733.164 261.758M738.587 288.635L741.762 304.364M741.762 304.364L745.32 321.989M745.32 321.989L749.333 341.875M749.333 341.875L753.896 364.485M753.896 364.485L759.131 390.421M759.131 390.421L759.907 394.265M1352.02 11.1709L1363.39 32.6134M1352.02 11.1709L1363.39 19.945M1352.02 11.1709L1328.07 50.7609M701.303 156.942L680.444 145.948M813.354 165.06L817.361 169.76M817.361 169.76L821.623 174.757M821.623 174.757L826.163 180.082M826.163 180.082L831.008 185.766M882.217 198.369L889.719 205.381M985.053 212.942H1028.68M1028.68 212.942H1072.3M1072.3 212.942H1115.92M1115.92 212.942H1159.55M1159.55 212.942H1203.17M1019.16 31.6663L990.957 59.3496M1173.75 90.5959L1197.21 103.452M1173.75 90.5959L1184.29 109.161M1197.21 103.452L1200.33 107.89L1201.61 109.716L1208.25 119.167M1197.21 103.452L1201.01 106.132M1208.25 119.167L1184.29 109.161M1208.25 119.167L1216.75 119.997L1220.98 120.219M1231.81 127.271L1244.41 129.919M1231.81 127.271L1206.78 127.271M1231.81 127.271L1256.86 127.271M1244.41 129.919L1257.59 132.69M1244.41 129.919L1218.8 129.919L1206.78 127.271M1244.41 129.919L1270.02 129.919M1257.59 132.69L1271.42 135.595M1257.59 132.69L1283.81 132.69M1257.59 132.69L1231.39 132.691M1271.42 135.595L1285.92 138.643M1271.42 135.595L1298.26 135.595M1285.92 138.643L1258.41 138.643M1285.92 138.643L1313.42 138.643M1317.18 145.213L1288.25 145.214M1317.18 145.213L1346.11 145.214M1 119.997H24.2198M24.2198 119.997H47.6796M24.2198 119.997L37.7701 117.771M24.2198 119.997L10.0873 122.318M47.6796 119.997H71.1392M47.6796 119.997L60.7474 117.771M47.6796 119.997L34.0508 122.319M71.1392 119.997H94.5989M71.1392 119.997L83.7241 117.771M71.1392 119.997L58.0138 122.317M94.5989 119.997H118.059M94.5989 119.997L106.701 117.771M94.5989 119.997L81.9766 122.319M118.059 119.997L123.941 118.871M118.059 119.997L105.94 122.319M118.059 119.997L123.108 119.996M681.302 106.132H660.85M660.85 106.132H640.398M660.85 106.132L660.018 109.716M640.398 106.132H619.946M640.398 106.132L638.788 109.716M619.946 106.132H599.495M597.941 107.89L599.495 106.132M597.941 107.89H577.108M575.1 109.716L577.108 107.89M575.1 109.716H553.87M551.373 111.613L553.87 109.716M551.373 111.613H529.733M526.709 113.585L529.733 111.613M526.709 113.585H504.64M501.049 115.636L504.64 113.585M501.049 115.636H478.535M474.333 117.771L478.535 115.636M474.333 117.771H451.357M446.495 119.996L451.357 117.771M446.495 119.996H423.035M417.462 122.318H393.499M417.462 122.318L423.035 119.996M417.462 122.318L411.645 124.74M393.499 122.318L387.156 124.74M393.499 122.318L399.576 119.996M393.499 122.318H369.535M387.156 124.74L411.645 124.74M387.156 124.74H362.667M355.49 127.271L362.667 124.74M355.49 127.271H330.452M322.371 129.919L330.452 127.271M322.371 129.919H296.759M287.698 132.69L278.201 135.595M287.698 132.69L296.759 129.919M287.698 132.69H261.485M278.201 135.595H251.358M278.201 135.595L268.236 138.643M251.358 135.595H224.514M251.358 135.595L261.485 132.69M251.358 135.595L240.732 138.642M224.514 135.595L197.67 130.855M224.514 135.595L213.227 138.642M224.514 135.595L235.272 132.69M197.67 130.855L185.721 138.643M197.67 130.855L184.292 133.217L182.768 133.094M185.721 138.643H158.217M185.721 138.643L213.227 138.642M159.967 145.213L146.063 148.76M159.967 145.213L188.898 145.213M159.967 145.213H131.037M146.063 148.76L131.399 152.5M146.063 148.76H116.363M146.063 148.76L175.762 148.76M131.399 152.5L115.91 156.452M131.399 152.5L100.887 152.5M131.399 152.5L161.909 152.5M115.91 156.452L99.5252 160.63M115.91 156.452L147.277 156.452M115.91 156.452H84.5407M99.5252 160.63L67.25 160.631M63.7419 169.759L44.1513 174.756M63.7419 169.759L97.9968 169.76M44.1513 174.756L23.2796 180.081M44.1513 174.756L79.4908 174.756M44.1513 174.756L8.81096 174.756M23.2796 180.081L1 185.764M23.2796 180.081L1 180.081M649.174 156.452H617.805M649.174 156.452L650.09 152.501M617.805 156.452H586.436M617.805 156.452L619.579 152.501M586.436 156.452H555.067M586.436 156.452L589.067 152.501M555.067 156.452H523.699M555.067 156.452L558.556 152.501M523.699 156.452H492.33M523.699 156.452L528.045 152.501M492.33 156.452H460.963M492.33 156.452L497.534 152.5M460.963 156.452L467.022 152.5M460.963 156.452L429.594 156.452M422.277 160.63L429.594 156.452M422.277 160.63L390.002 160.631M381.289 165.059H348.052M381.289 165.059L390.002 160.631M348.052 165.059L357.726 160.631M281.581 165.059H248.346M281.581 165.059L293.177 160.631M248.346 165.059L260.901 160.631M181.874 165.059L196.351 160.631M181.874 165.059L148.638 165.06M132.253 169.759L148.638 165.06M132.253 169.759L97.9968 169.76M79.4908 174.756L97.9968 169.76M1328.07 50.7609L1304.1 73.5435M1270.02 129.919L1283.81 132.69M1270.02 129.919L1256.86 127.271M1270.02 129.919L1295.63 129.919M1283.81 132.69H1310.02M1283.81 132.69L1298.26 135.595M1310.02 132.69L1325.1 135.595M1310.02 132.69L1295.63 129.919M1310.02 132.69L1336.24 132.691M1325.1 135.595H1351.95M1325.1 135.595L1340.93 138.643M1325.1 135.595L1298.26 135.595M1351.95 135.595L1363.39 137.71M1351.95 135.595L1336.24 132.691M1351.95 135.595L1363.39 135.595M1257 115.637H1244M1257 115.637L1256.18 116.352M1257 115.637L1258.63 114.234M1244 115.637L1232.91 113.586M1244 115.637L1252.33 117.177M1244 115.637L1242.71 115.636M1232.91 113.586H1211.58M1232.91 113.586L1254.97 113.586M1232.91 113.586L1222.24 111.614M1211.58 113.586L1208.77 111.614M1211.58 113.586L1211.85 113.78M1101.22 93.0847L1094.6 77.4752M1115.74 110.074L1110.83 109.775M1115.74 110.074L1109.4 107.607M1110.83 109.775L1109.4 107.607M1110.83 109.775L1124.1 129.92M1 156.452H21.8041M21.8041 156.452H53.1724M21.8041 156.452L39.8645 152.5M21.8041 156.452L2.70001 160.631M53.1724 156.452L70.3755 152.5M53.1724 156.452L84.5407 156.452M53.1724 156.452L34.975 160.63M70.3755 152.5H100.887M70.3755 152.5L39.8645 152.5M70.3755 152.5L86.663 148.76M100.887 152.5L116.363 148.76M100.887 152.5L84.5407 156.452M161.909 152.5L175.762 148.76M161.909 152.5L192.42 152.5M161.909 152.5L147.277 156.452M175.762 148.76H205.462M175.762 148.76L188.898 145.213M205.462 148.76H235.161M205.462 148.76L217.827 145.213M205.462 148.76L192.42 152.5M235.161 148.76L246.759 145.213M246.759 145.213L217.827 145.213M304.619 145.213H333.549M304.619 145.213L294.561 148.76M333.549 145.213L324.261 148.76M180.223 53.7779L168.699 89.861M180.223 53.7779L205.262 66.1075M234.273 90.2745L245.534 94.7527M234.273 90.2745L240.222 89.0657M245.534 94.7527L235.272 132.69M245.534 94.7527L260.741 115.633M260.741 115.633L271.147 129.919M260.741 115.633L280.376 127.271M280.376 127.271H305.413M280.376 127.271L289.2 124.74M280.376 127.271L271.147 129.919M305.413 127.271L313.688 124.74M305.413 127.271L330.452 127.271M305.413 127.271L296.759 129.919M313.688 124.74L321.608 122.318M313.688 124.74H338.178M313.688 124.74L289.2 124.74M321.608 122.318H345.572M321.608 122.318L329.196 119.996M321.608 122.318L297.645 122.318M345.572 122.318L352.656 119.997M345.572 122.318L369.535 122.318M345.572 122.318L338.178 124.74M352.656 119.997H376.116M352.656 119.997L359.447 117.771M352.656 119.997L329.196 119.996M376.116 119.997L382.425 117.772M376.116 119.997L399.576 119.996M376.116 119.997L369.535 122.318M382.425 117.772H405.402M382.425 117.772L388.48 115.636M382.425 117.772L359.447 117.771M405.402 117.772L410.993 115.636M405.402 117.772L428.379 117.771M405.402 117.772L399.576 119.996M410.993 115.636H433.507M410.993 115.636L416.364 113.585M410.993 115.636L388.48 115.636M433.507 115.636H456.02M433.507 115.636L438.433 113.585M433.507 115.636L428.379 117.771M456.02 115.636L460.501 113.586M456.02 115.636L478.535 115.636M456.02 115.636L451.357 117.771M460.501 113.586H482.571M460.501 113.586L464.808 111.613M460.501 113.586L438.433 113.585M482.571 113.586L486.45 111.614M482.571 113.586L504.64 113.585M482.571 113.586L478.535 115.636M486.45 111.614H508.09M486.45 111.614L490.181 109.716M486.45 111.614L464.808 111.613M508.09 111.614L511.41 109.716M508.09 111.614L529.733 111.613M508.09 111.614L504.64 113.585M511.41 109.716H532.64M511.41 109.716L490.181 109.716M511.41 109.716L514.607 107.89M532.64 109.716L535.441 107.891M532.64 109.716L553.87 109.716M532.64 109.716L529.733 111.613M535.441 107.891L538.138 106.132M535.441 107.891L514.607 107.89M535.441 107.891L556.275 107.89M538.138 106.132H558.59M538.138 106.132L517.687 106.132M558.59 106.132H579.042M558.59 106.132L556.275 107.89M579.042 106.132L599.495 106.132M579.042 106.132L577.108 107.89M1212.72 114.387L1214.77 114.342M1212.72 114.387L1211.85 113.78M1212.72 114.387L1220.98 120.219M1214.77 114.342L1232.57 113.95M1214.77 114.342L1211.85 113.78M278.567 115.636H298.426M298.426 115.636H320.939M298.426 115.636L306.02 113.585M298.426 115.636L290.517 117.771M320.939 115.636H343.453M320.939 115.636L313.493 117.771M320.939 115.636L328.089 113.585M343.453 115.636H365.967M343.453 115.636L336.471 117.771M343.453 115.636L350.158 113.585M365.967 115.636H388.48M365.967 115.636L359.447 117.771M365.967 115.636L372.226 113.585M388.48 115.636L394.296 113.585M394.296 113.585L399.886 111.613M394.296 113.585H372.226M394.296 113.585H416.364M399.886 111.613L405.263 109.716M399.886 111.613H378.245M399.886 111.613H421.526M405.263 109.716L410.442 107.89M405.263 109.716H384.033M405.263 109.716H426.493M410.442 107.89L415.429 106.132M410.442 107.89H389.607M410.442 107.89H431.274M415.429 106.132H394.976M415.429 106.132H435.88M128.634 131.974L104.203 132.69M104.203 132.69L90.2954 135.595M104.203 132.69L117.473 127.626L140.332 109.716L142.787 107.891M63.4519 135.595H36.6081M63.4519 135.595L48.1967 138.643M63.4519 135.595L90.2954 135.595M36.6081 135.595L20.6921 138.643M36.6081 135.595L9.76452 135.596M20.6921 138.643H1M20.6921 138.643L3.9723 141.845M20.6921 138.643L48.1967 138.643M1203.5 107.892H1243.78M1243.78 107.892H1264.61M1243.78 107.892L1254.45 109.716M1243.78 107.892L1233.5 106.132M1264.61 107.892H1265.97M1264.61 107.892L1253.95 106.132M1264.61 107.892L1265.75 108.078M1265.97 107.892L1265.75 108.078M1265.97 107.892L1268 106.132M1 124.74H19.8241M19.8241 124.74H44.3128M19.8241 124.74L34.0508 122.319M19.8241 124.74L4.95924 127.272M44.3128 124.74H68.801M44.3128 124.74L58.0138 122.317M44.3128 124.74L29.9973 127.27M68.801 124.74H93.2898M68.801 124.74L81.9766 122.319M68.801 124.74L55.0348 127.271M93.2898 124.74H108.637M93.2898 124.74L80.0729 127.27M93.2898 124.74L105.94 122.319M1156.7 127.271L1167.57 129.92M1256.86 127.271H1281.89M1281.89 127.271L1306.93 115.65M1281.89 127.271L1295.63 129.919M1306.93 115.65L1293.23 103.85L1280.13 95.6458M1306.93 115.65L1321.25 129.919M1220.66 119.997H1239.22M1239.22 119.997L1232.21 121.505M1239.22 119.997L1242.7 119.249M1129.84 138.643H1148.4M1129.84 138.643L1127.84 135.595M1148.4 138.643H1175.9M1148.4 138.643L1126.53 132.691M1175.9 138.643H1203.41M1175.9 138.643L1164.05 135.595M1203.41 138.643L1178.96 132.691M1258.41 138.643L1231.39 132.691M1313.42 138.643H1340.93M1313.42 138.643L1298.26 135.595M1340.93 138.643H1363.39M681.189 113.586H659.12M681.189 113.586L681.219 111.614M681.189 113.586L681.158 115.636M659.12 113.586L658.645 115.636M659.12 113.586L659.578 111.614M659.12 113.586H614.984M614.984 113.586L613.617 115.637M614.984 113.586L616.296 111.613M614.984 113.586L592.915 113.585M613.617 115.637H591.104M613.617 115.637L636.131 115.636M613.617 115.637L612.195 117.772M591.104 115.637L589.219 117.772M591.104 115.637L592.915 113.585M591.104 115.637L568.59 115.635M589.219 117.772H566.242M589.219 117.772L612.195 117.772M589.219 117.772L587.254 119.997M566.242 117.772L563.793 119.997M566.242 117.772L568.59 115.635M566.242 117.772L543.264 117.771M563.793 119.997H540.334M563.793 119.997L587.254 119.997M563.793 119.997L561.241 122.318M540.334 119.997L537.278 122.319M540.334 119.997L543.264 117.771M540.334 119.997L516.874 119.996M537.278 122.319H513.315M537.278 122.319L561.241 122.318M537.278 122.319L534.088 124.74M513.315 122.319L509.599 124.741M513.315 122.319L516.874 119.996M513.315 122.319L489.352 122.317M509.599 124.741L534.088 124.74M509.599 124.741L485.111 124.74M501.657 129.92L497.406 132.691M501.657 129.92L527.269 129.919M497.406 132.691L492.952 135.596M497.406 132.691L523.62 132.691M492.952 135.596L488.276 138.644M492.952 135.596L519.795 135.596M488.276 138.644L483.366 141.846M488.276 138.644L515.78 138.643M483.366 141.846L511.565 141.845M426.965 141.846L415.685 138.644M426.965 141.846L433.265 138.643M415.685 138.644L433.265 138.643M415.685 138.644L398.767 133.842L391.349 134.167L383.661 148.761M383.661 148.761L413.36 148.76M366.858 156.453L357.726 160.631M366.858 156.453L398.225 156.453M357.726 160.631L390.002 160.631M326.868 174.757L315.237 180.082M326.868 174.757L362.207 174.756M315.237 180.082L351.732 180.081M217.983 205.381L199.827 212.942M110.383 250.187L82.5942 261.759M18.0493 288.636L1 295.735M18.0493 288.636L1 288.635M1 113.585H19.1272M19.1272 113.585L31.9887 111.613M19.1272 113.585L5.74711 115.637M19.1272 113.585L41.1963 113.586M31.9887 111.613H53.6302M31.9887 111.613H10.348M31.9887 111.613L44.361 109.716M53.6302 111.613L65.5909 109.716M53.6302 111.613L41.1963 113.586M53.6302 111.613L75.271 111.614M65.5909 109.716H86.8207M65.5909 109.716H44.361M65.5909 109.716L77.1053 107.89M86.8207 109.716L97.9388 107.89M86.8207 109.716L75.271 111.614M86.8207 109.716H108.049M97.9388 107.89L108.65 106.132M97.9388 107.89L77.1053 107.89M97.9388 107.89L118.773 107.89M108.65 106.132H88.1979M108.65 106.132H129.102M1363.39 152.501H1321.34M1167.57 129.92L1178.96 132.691M1167.57 129.92H1124.1M1124.1 129.92L1125.8 132.49M433.265 138.643L439.263 135.596M515.78 138.643H543.285M515.78 138.643L519.795 135.596M515.78 138.643L511.565 141.845M543.285 138.643H570.79M543.285 138.643L539.765 141.845M543.285 138.643L546.638 135.595M570.79 138.643H598.295M570.79 138.643L567.964 141.845M570.79 138.643L573.481 135.595M598.295 138.643H625.8M598.295 138.643L596.164 141.845M598.295 138.643L600.326 135.595M625.8 138.643H653.304M625.8 138.643L624.363 141.845M625.8 138.643L627.169 135.595M653.304 138.643L652.563 141.845M653.304 138.643L654.012 135.595M1094.6 77.4752L1075.56 32.6187M637.818 205.38H595.834M637.818 205.38L636.064 212.942M637.818 205.38L639.445 198.369M595.834 205.38H553.851M595.834 205.38L592.439 212.941M595.834 205.38L598.983 198.369M553.851 205.38H511.868M553.851 205.38L548.817 212.941M553.851 205.38L558.522 198.368M511.868 205.38H469.884M511.868 205.38L505.192 212.942M511.868 205.38L518.059 198.369M469.884 205.38H427.901M469.884 205.38L461.569 212.941M469.884 205.38L477.598 198.369M427.901 205.38H385.917M427.901 205.38L437.135 198.369M427.901 205.38L417.946 212.942M385.917 205.38H343.935M385.917 205.38L374.321 212.941M385.917 205.38L396.674 198.369M343.935 205.38H301.951M343.935 205.38L356.211 198.369M343.935 205.38L330.698 212.942M301.951 205.38L287.074 212.942M134.017 205.38L112.578 212.942M68.9554 212.941L112.578 212.942M1304.1 73.5435L1280.13 95.6458M990.957 59.3496L962.757 57.2513M648.827 169.759L655.274 165.06M611.83 169.759H577.574M611.83 169.759L613.939 165.06M577.574 169.759H543.318M577.574 169.759L580.703 165.06M543.318 169.759H509.063M543.318 169.759L547.468 165.06M509.063 169.759H474.808M509.063 169.759L514.232 165.06M474.808 169.759H440.552M474.808 169.759L480.997 165.06M397.548 174.756L362.207 174.756M351.732 180.081L362.207 174.756M242.247 180.081H205.754M242.247 180.081L256.189 174.756M205.754 180.081L220.85 174.756M205.754 180.081L189.637 185.766M16.205 191.846L1 195.952M16.205 191.846L1 191.846M1280.13 95.6458L1268 106.132M1321.25 129.919L1346.86 129.912L1362.45 132.69M1321.25 129.919L1295.63 129.919M1321.25 129.919L1336.24 132.691M1362.45 132.69H1363.39M1362.45 132.69L1336.24 132.691M1362.45 132.69L1363.39 132.857M1233.99 296.399L1218.95 288.636M1233.99 296.399L1225.42 304.365M1233.99 296.399L1242.33 288.635M1218.95 288.636L1191.58 274.512M1218.95 288.636L1242.33 288.635M1218.95 288.636L1158.9 288.635M1191.58 274.512L1248.56 274.511M1191.58 274.512L1134.61 274.511M1019.65 185.766L1057.38 185.765M1019.65 185.766L1008.64 180.081M1220.98 120.219L1232.21 121.505M1242.7 119.249L1252.18 117.21M1242.7 119.249L1235.8 115.635L1232.57 113.95M1252.18 117.21L1252.33 117.177M1252.18 117.21L1242.71 115.636M1252.33 117.177L1256.18 116.352M1258.63 114.234L1259.37 113.586M1258.63 114.234L1254.97 113.586M1259.37 113.586L1261.66 111.614M1259.37 113.586L1254.97 113.586M1261.66 111.614L1262.3 111.061M1261.66 111.614L1243.88 111.613M1262.3 111.061L1263.86 109.717M1262.3 111.061L1254.45 109.716M1263.86 109.717L1265.75 108.078M1263.86 109.717L1254.45 109.716M1268 106.132L1253.95 106.132M655.274 165.06L676.494 149.588M613.939 165.06H580.703M580.703 165.06H547.468M547.468 165.06H514.232M514.232 165.06H480.997M256.189 174.756H220.85M650.958 148.76H621.259M650.958 148.76L650.09 152.501M621.259 148.76H591.559M621.259 148.76L619.579 152.501M591.559 148.76H561.859M591.559 148.76L589.067 152.501M561.859 148.76H532.159M561.859 148.76L558.556 152.501M532.159 148.76H502.459M532.159 148.76L528.045 152.501M502.459 148.76H472.76M502.459 148.76L497.534 152.5M472.76 148.76L467.022 152.5M324.261 148.76H294.561M67.25 160.631L84.5407 156.452M67.25 160.631L34.975 160.63M15.6944 165.06L1 168.435M15.6944 165.06L34.975 160.63M15.6944 165.06L1 165.06M291.018 119.996H305.736M305.736 119.996L313.493 117.771M305.736 119.996L297.645 122.318M305.736 119.996H329.196M313.493 117.771H290.517M313.493 117.771H336.471M328.089 113.585L334.963 111.613M328.089 113.585H306.02M328.089 113.585H350.158M334.963 111.613L341.574 109.716M334.963 111.613H313.32M334.963 111.613H356.604M341.574 109.716L347.94 107.89M341.574 109.716H320.345M341.574 109.716H362.804M347.94 107.89L354.071 106.132M347.94 107.89H327.106M347.94 107.89H368.774M354.071 106.132H333.619M354.071 106.132H374.524M577.108 107.89H556.275M553.87 109.716L556.275 107.89M451.357 117.771H428.379M423.035 119.996H399.576M423.035 119.996L428.379 117.771M369.535 122.318L362.667 124.74M362.667 124.74L338.178 124.74M330.452 127.271L338.178 124.74M296.759 129.919H271.147M261.485 132.69H235.272M261.485 132.69L271.147 129.919M182.768 133.094L170.827 135.595M170.827 135.595L158.217 138.643M170.827 135.595L143.983 135.596M158.217 138.643L130.712 138.642M131.037 145.213L116.363 148.76M116.363 148.76L86.663 148.76M34.975 160.63L2.70001 160.631M1 148.073L15.3162 145.213M15.3162 145.213L1 145.214M15.3162 145.213L32.1718 141.846M60.3712 141.845H88.5708M60.3712 141.845L32.1718 141.846M60.3712 141.845L75.7019 138.644M88.5708 141.845L103.207 138.644M130.712 138.642L103.207 138.644M130.712 138.642L143.983 135.596M213.227 138.642H240.732M32.1718 141.846L3.9723 141.845M32.1718 141.846L48.1967 138.643M75.7019 138.644H103.207M75.7019 138.644L48.1967 138.643M75.7019 138.644L90.2954 135.595M103.207 138.644L117.139 135.595M143.983 135.596L117.139 135.595M130.702 109.716H129.28M129.28 109.716L118.553 111.613M129.28 109.716L130.915 109.428M129.28 109.716L108.049 109.716M118.553 111.613L107.402 113.585M118.553 111.613L129.301 111.614M118.553 111.613L96.9117 111.614M107.402 113.585L95.8018 115.635M107.402 113.585L127.844 113.586M107.402 113.585L85.3332 113.586M95.8018 115.635L83.7241 117.771M95.8018 115.635L73.2882 115.637M95.8018 115.635L118.316 115.636M83.7241 117.771H60.7474M83.7241 117.771H106.701M58.0138 122.317L34.0508 122.319M58.0138 122.317L81.9766 122.319M29.9973 127.27L15.0249 129.919M29.9973 127.27L4.95924 127.272M29.9973 127.27L55.0348 127.271M15.0249 129.919L1 132.398M15.0249 129.919L1 129.92M15.0249 129.919L40.637 129.92M40.637 129.92H66.249M40.637 129.92L55.0348 127.271M66.249 129.92L80.0729 127.27M85.3332 113.586H63.2647M85.3332 113.586L96.9117 111.614M85.3332 113.586L73.2882 115.637M63.2647 113.586H41.1963M63.2647 113.586L75.271 111.614M63.2647 113.586L50.7748 115.636M41.1963 113.586L28.2605 115.637M28.2605 115.637L14.7936 117.772M28.2605 115.637L5.74711 115.637M28.2605 115.637L50.7748 115.636M14.7936 117.772L1 119.959M14.7936 117.772L1 117.771M14.7936 117.772L37.7701 117.771M37.7701 117.771H60.7474M37.7701 117.771L50.7748 115.636M60.7474 117.771L73.2882 115.637M106.701 117.771H124.752M106.701 117.771L118.316 115.636M1254.97 113.586L1243.88 111.613M1222.24 111.614H1208.77M1222.24 111.614L1211.98 109.716M1222.24 111.614L1243.88 111.613M1208.77 111.614L1206.09 109.716M1 100.74L14.6052 107.89M14.6052 107.89H35.4388M14.6052 107.89L1.90209 109.716M14.6052 107.89L26.8426 106.132M35.4388 107.89H56.2717M35.4388 107.89L23.1319 109.716M35.4388 107.89L47.2946 106.132M56.2717 107.89H77.1053M56.2717 107.89L44.361 109.716M56.2717 107.89L67.7466 106.132M77.1053 107.89L88.1979 106.132M118.773 107.89H132.05M118.773 107.89L108.049 109.716M118.773 107.89L129.102 106.132M259.507 106.132H272.264M272.264 106.132H292.716M272.264 106.132L264.607 107.89M292.716 106.132H313.168M292.716 106.132L285.439 107.89M313.168 106.132H333.619M313.168 106.132L306.272 107.89M333.619 106.132L327.106 107.89M374.524 106.132H394.976M374.524 106.132L368.774 107.89M394.976 106.132L389.607 107.89M435.88 106.132H456.331M435.88 106.132L431.274 107.89M456.331 106.132H476.783M456.331 106.132L452.107 107.89M476.783 106.132H497.235M476.783 106.132L472.94 107.89M497.235 106.132H517.687M497.235 106.132L493.774 107.89M517.687 106.132L514.607 107.89M284.95 122.318H297.645M284.95 122.318L289.2 124.74M284.95 122.318L264.711 110.784M297.645 122.318L289.2 124.74M329.196 119.996L336.471 117.771M336.471 117.771H359.447M372.226 113.585L378.245 111.613M372.226 113.585H350.158M378.245 111.613L384.033 109.716M378.245 111.613H356.604M384.033 109.716L389.607 107.89M384.033 109.716H362.804M389.607 107.89H368.774M265.395 109.716H277.887M277.887 109.716H299.116M277.887 109.716L270.04 111.613M277.887 109.716L285.439 107.89M299.116 109.716H320.345M299.116 109.716L291.681 111.613M299.116 109.716L306.272 107.89M320.345 109.716L327.106 107.89M320.345 109.716L313.32 111.613M362.804 109.716L356.604 111.613M362.804 109.716L368.774 107.89M426.493 109.716H447.722M426.493 109.716L421.526 111.613M426.493 109.716L431.274 107.89M447.722 109.716H468.952M447.722 109.716L452.107 107.89M447.722 109.716L443.168 111.613M468.952 109.716H490.181M468.952 109.716L464.808 111.613M468.952 109.716L472.94 107.89M490.181 109.716L493.774 107.89M514.607 107.89H493.774M593.985 394.266L594.878 390.422M594.878 390.422L600.896 364.486M594.878 390.422L512.751 390.422M600.896 364.486L606.143 341.875M600.896 364.486L524.396 364.485M606.143 341.875L610.757 321.99M606.143 341.875L534.547 341.875M610.757 321.99L614.848 304.365M610.757 321.99L543.476 321.989M614.848 304.365L618.498 288.636M614.848 304.365L551.39 304.364M618.498 288.636L558.453 288.635M624.735 261.759L627.421 250.187M624.735 261.759L570.52 261.758M627.421 250.187L575.717 250.186M636.064 212.942L592.439 212.941M639.445 198.369L640.959 191.847M639.445 198.369L598.983 198.369M640.959 191.847L642.37 185.765M640.959 191.847L601.912 191.846M642.37 185.765L604.643 185.765M642.37 185.765L676.494 149.588M1201.01 106.132H1213.05M1201.01 106.132L1203.5 107.891L1203.99 108.239M1213.05 106.132H1233.5M1213.05 106.132L1233.22 109.716M1233.5 106.132H1253.95M1132.83 185.765H1095.11M1095.11 185.765H1057.38M1008.64 180.081L998.321 174.756M998.321 174.756L988.639 169.76M746.882 164.703L735.338 161.317M746.882 164.703L748.851 169.76M962.757 57.2513L934.558 70.2499M1232.57 113.95L1242.71 115.636M272.709 113.585H283.951M283.951 113.585H306.02M283.951 113.585L277.447 115.243M283.951 113.585L291.681 111.613M306.02 113.585L313.32 111.613M350.158 113.585L356.604 111.613M416.364 113.585L421.526 111.613M416.364 113.585H438.433M421.526 111.613H443.168M431.274 107.89H452.107M748.851 169.76L750.944 174.757M748.851 169.76L742.319 169.759M750.944 174.757L753.174 180.082M750.944 174.757L746.452 174.756M753.174 180.082L753.847 181.689M753.174 180.082L749.661 178.638M1104.34 174.757L1069 174.756M1254.45 109.716H1233.22M681.158 115.636H658.645M681.158 115.636L681.126 117.771M658.645 115.636H636.131M658.645 115.636L658.148 117.771M636.131 115.636L635.172 117.771M636.131 115.636L637.938 111.614M612.195 117.772L635.172 117.771M612.195 117.772L610.713 119.996M587.254 119.997L610.713 119.996M587.254 119.997L585.205 122.317M561.241 122.318L585.205 122.317M561.241 122.318L558.577 124.74M534.088 124.74L558.577 124.74M527.269 129.919L523.62 132.691M527.269 129.919L552.882 129.92M523.62 132.691L519.795 135.596M523.62 132.691L549.833 132.691M519.795 135.596L546.638 135.595M511.565 141.845L539.765 141.845M497.534 152.5L528.045 152.501M497.534 152.5L467.022 152.5M453.732 185.765L445.723 191.846M453.732 185.765L491.459 185.765M406.677 191.847L396.674 198.369M406.677 191.847L445.723 191.846M356.211 198.369L396.674 198.369M330.698 212.942L287.074 212.942M330.698 212.942L374.321 212.941M265.494 250.187L245.236 261.759M265.494 250.187L317.198 250.186M265.494 250.187L213.791 250.186M245.236 261.759L299.451 261.759M245.236 261.759L191.022 261.759M198.185 288.635L170.647 304.365M198.185 288.635L258.228 288.635M198.185 288.635L138.139 288.636M170.647 304.365H107.189M170.647 304.365L139.791 321.99M170.647 304.365L234.103 304.365M107.189 304.365L72.5098 321.99M107.189 304.365L138.139 288.636M72.5098 321.99H5.22852M72.5098 321.99L33.3826 341.875M72.5098 321.99L139.791 321.99M5.22852 321.99L1 323.926M5.22852 321.99L1 321.99M1233.22 109.716L1243.88 111.613M1233.22 109.716L1211.98 109.716M493.774 107.89H472.94M464.808 111.613H443.168M438.433 113.585L443.168 111.613M1 113L10.348 111.613M10.348 111.613H1M10.348 111.613L23.1319 109.716M44.361 109.716H23.1319M88.1979 106.132H67.7466M1164.05 135.595L1152.75 132.69M1164.05 135.595H1127.84M1127.84 135.595L1127.61 135.25L1125.92 132.691M23.1319 109.716H1.90209M67.7466 106.132L47.2946 106.132M96.9117 111.614H75.271M96.9117 111.614L108.049 109.716M50.7748 115.636L73.2882 115.637M10.0873 122.318L1 123.811M10.0873 122.318L1 122.319M10.0873 122.318L34.0508 122.319M81.9766 122.319H105.94M105.94 122.319H116.484M1257.51 274.511H1248.56M1257.51 274.511L1254.54 277.282M1248.56 274.511L1254.54 277.282M1134.61 274.511H1077.62M1134.61 274.511L1158.9 288.635M1077.62 274.511H1020.64M1020.64 274.511L963.661 274.511M950.021 261.758L963.661 274.511M950.021 261.758L895.806 261.759M885.939 250.186H834.236M885.939 250.186L895.806 261.759M834.236 250.186L841.592 261.759M575.717 250.186H524.014M575.717 250.186L570.52 261.758M524.014 250.186H472.31M524.014 250.186L516.307 261.758M472.31 250.186H420.607M472.31 250.186L462.093 261.758M420.607 250.186H368.903M420.607 250.186L407.879 261.758M368.903 250.186H317.198M368.903 250.186L353.665 261.759M317.198 250.186L299.451 261.759M213.791 250.186L191.022 261.759M6.97598 250.186H1M6.97598 250.186L1 252.295M126.329 115.636H118.316M118.316 115.636L127.59 113.932M55.0348 127.271L80.0729 127.27M9.76452 135.596L1 137.206M9.76452 135.596L1 135.595M80.0729 127.27L100.437 127.271M1 154.245L9.35288 152.5M9.35288 152.5H39.8645M9.35288 152.5L1 152.5M39.8645 152.5L56.9633 148.76M86.663 148.76L56.9633 148.76M188.898 145.213H217.827M268.236 138.643L240.732 138.642M323.246 138.643H350.752M323.246 138.643L331.889 135.595M350.752 138.643L358.732 135.595M370.154 135.595L358.732 135.595M358.732 135.595H331.889M358.732 135.595L366.338 132.691M1203.99 108.239L1211.98 109.716M1203.99 108.239L1206.09 109.716M1211.98 109.716L1206.09 109.716M652.563 141.845H624.363M624.363 141.845H596.164M596.164 141.845H567.964M567.964 141.845H539.765M429.594 156.452L398.225 156.453M390.002 160.631L398.225 156.453M293.177 160.631H260.901M293.177 160.631L304.121 156.453M260.901 160.631L272.752 156.453M8.81096 174.756L1 176.645M8.81096 174.756L1 174.757M650.09 152.501H619.579M619.579 152.501H589.067M589.067 152.501H558.556M558.556 152.501H528.045M304.121 156.453H272.752M604.643 185.765H566.915M604.643 185.765L601.912 191.846M566.915 185.765H529.187M566.915 185.765L562.864 191.846M529.187 185.765H491.459M529.187 185.765L523.817 191.846M491.459 185.765L484.77 191.846M484.77 191.846H445.723M484.77 191.846L477.598 198.369M484.77 191.846L523.817 191.846M445.723 191.846L437.135 198.369M437.135 198.369L477.598 198.369M437.135 198.369L396.674 198.369M417.946 212.942L374.321 212.941M417.946 212.942L461.569 212.941M353.665 261.759L407.879 261.758M353.665 261.759L299.451 261.759M318.274 288.635L297.561 304.365M318.274 288.635L378.319 288.635M318.274 288.635L258.228 288.635M297.561 304.365L274.353 321.99M297.561 304.365L361.019 304.364M297.561 304.365L234.103 304.365M274.353 321.99H207.072M274.353 321.99L341.633 321.989M274.353 321.99L248.168 341.875M207.072 321.99H139.791M207.072 321.99L234.103 304.365M207.072 321.99L176.573 341.875M139.791 321.99L104.978 341.875M104.978 341.875L65.395 364.486M104.978 341.875L33.3826 341.875M104.978 341.875L176.573 341.875M65.395 364.486L19.9891 390.422M65.395 364.486L1 364.485M65.395 364.486L141.895 364.486M19.9891 390.422L13.258 394.266M19.9891 390.422L1 390.421M19.9891 390.422L102.116 390.421M655.33 129.92H629.719M655.33 129.92L654.686 132.69M629.719 129.92H604.106M629.719 129.92L628.473 132.69M629.719 129.92L630.905 127.271L632.042 124.74M604.106 129.92H578.493M604.106 129.92L602.26 132.69M578.493 129.92H552.882M578.493 129.92L576.047 132.69M552.882 129.92L549.833 132.691M450.433 129.92H424.82M450.433 129.92L455.641 127.27M450.433 129.92L444.979 132.691M424.82 129.92L418.766 132.691M424.82 129.92L399.208 129.919M418.766 132.691H392.552M418.766 132.691L444.979 132.691M418.766 132.691L412.42 135.596M392.552 132.691H366.338M392.552 132.691L399.208 129.919M8.06585 205.381L1 207.408M8.06585 205.381L1 205.38M681.247 109.716H660.018M681.247 109.716L681.219 111.614M660.018 109.716H638.788M660.018 109.716L659.578 111.614M638.788 109.716L637.938 111.614M616.296 111.613L637.938 111.614M489.352 122.317L485.111 124.74M460.622 124.739L455.641 127.27M460.622 124.739L485.111 124.74M1152.75 132.69L1178.96 132.691M1152.75 132.69L1126.53 132.691M1201.46 145.213L1230.39 145.214M291.681 111.613H270.04M291.681 111.613H313.32M306.272 107.89H285.439M306.272 107.89H327.106M681.219 111.614H659.578M659.578 111.614H637.938M444.979 132.691L439.263 135.596M439.263 135.596L412.42 135.596M1174.71 394.266L1169.77 390.422M1169.77 390.422L1136.4 364.485M1136.4 364.485L1172.09 341.875M1136.4 364.485L1107.3 341.875M906.897 364.485L923.385 390.422M906.897 364.485L892.525 341.876M524.396 364.485H447.896M524.396 364.485L512.751 390.422M524.396 364.485L534.547 341.875M447.896 364.485H371.396M447.896 364.485L430.623 390.421M447.896 364.485L462.953 341.875M371.396 364.485L348.497 390.422M371.396 364.485L294.895 364.485M371.396 364.485L391.357 341.875M348.497 390.422L345.103 394.266M348.497 390.422L266.37 390.421M348.497 390.422L430.623 390.421M284.665 117.771H290.517M290.517 117.771L287.212 118.664M102.116 390.421H184.243M102.116 390.421L141.895 364.486M102.116 390.421L96.2192 394.267M184.243 390.421H266.37M184.243 390.421L218.395 364.485M184.243 390.421L179.179 394.266M266.37 390.421L294.895 364.485M266.37 390.421L262.14 394.266M430.623 390.421L512.751 390.422M430.623 390.421L428.064 394.266M462.953 341.875L476.196 321.989M462.953 341.875L534.547 341.875M462.953 341.875L391.357 341.875M476.196 321.989L487.933 304.364M476.196 321.989L543.476 321.989M476.196 321.989L408.914 321.989M487.933 304.364L498.408 288.635M487.933 304.364L551.39 304.364M487.933 304.364L424.476 304.365M498.408 288.635L558.453 288.635M498.408 288.635L438.364 288.635M516.307 261.758L570.52 261.758M516.307 261.758L462.093 261.758M548.817 212.941L505.192 212.942M548.817 212.941L592.439 212.941M558.522 198.368L562.864 191.846M558.522 198.368L598.983 198.369M558.522 198.368L518.059 198.369M562.864 191.846L523.817 191.846M562.864 191.846L601.912 191.846M600.326 135.595L602.26 132.69M600.326 135.595L627.169 135.595M600.326 135.595L573.481 135.595M602.26 132.69L628.473 132.69M602.26 132.69L576.047 132.69M607.555 124.739L609.168 122.317M607.555 124.739L583.066 124.739M607.555 124.739L632.042 124.74M609.168 122.317L610.713 119.996M609.168 122.317L585.205 122.317M609.168 122.317L633.131 122.317M610.713 119.996H634.173M634.173 119.996H657.633M634.173 119.996L633.131 122.317M634.173 119.996L635.172 117.771M657.633 119.996H681.092M657.633 119.996L657.094 122.317M657.633 119.996L658.148 117.771M681.092 119.996L681.126 117.771M681.092 119.996L681.058 122.317M1 116.364L5.74711 115.637M5.74711 115.637L1 115.636M925.83 394.266L923.385 390.422M512.751 390.422L511.024 394.266M1 96.8572L6.39052 96.7954L26.8426 106.132M26.8426 106.132H47.2946M892.525 341.876L879.883 321.99M892.525 341.876L914.644 321.989M879.883 321.99L868.678 304.365M879.883 321.99L914.644 321.989M868.678 304.365L858.678 288.636M868.678 304.365L932.135 304.365M841.592 261.759L895.806 261.759M810.558 212.942L805.752 205.381M805.752 205.381L801.294 198.369M801.294 198.369L786.609 191.847M598.983 198.369L601.912 191.846M518.059 198.369H477.598M518.059 198.369L523.817 191.846M4.95924 127.272L1 127.946M4.95924 127.272L1 127.271M1254.54 277.282L1242.33 288.635M1 358.333L33.3826 341.875M33.3826 341.875L1 341.875M176.573 341.875H248.168M176.573 341.875L141.895 364.486M248.168 341.875H319.762M248.168 341.875L218.395 364.485M319.762 341.875L341.633 321.989M319.762 341.875L391.357 341.875M319.762 341.875L294.895 364.485M341.633 321.989L361.019 304.364M341.633 321.989H408.914M361.019 304.364L378.319 288.635M361.019 304.364L424.476 304.365M378.319 288.635L438.364 288.635M407.879 261.758H462.093M461.569 212.941L505.192 212.942M573.481 135.595L576.047 132.69M573.481 135.595L546.638 135.595M576.047 132.69L549.833 132.691M583.066 124.739L585.205 122.317M583.066 124.739L558.577 124.74M633.131 122.317H657.094M633.131 122.317L632.042 124.74M657.094 122.317H681.058M657.094 122.317L656.531 124.74M681.058 122.317L681.021 124.74M1 142.414L3.9723 141.845M3.9723 141.845L1 141.845M90.2954 135.595H117.139M117.139 135.595L130.575 131.617L142.787 107.891M168.699 89.861L143.086 107.56M142.787 107.891L143.086 107.56M1363.39 274.844L1362.53 274.511M1362.53 274.511L1363.39 274.512M262.396 107.89H264.607M264.607 107.89H285.439M264.607 107.89L263.001 108.259M452.107 107.89H472.94M934.251 304.365H932.135M934.251 304.365L933.053 305.442M932.135 304.365L933.053 305.442M558.453 288.635L551.39 304.364M438.364 288.635L424.476 304.365M258.228 288.635L234.103 304.365M534.547 341.875L543.476 321.989M543.476 321.989L551.39 304.364M627.169 135.595L628.473 132.69M627.169 135.595H654.012M628.473 132.69H654.686M632.042 124.74H656.531M635.172 117.771H658.148M654.012 135.595L654.686 132.69M656.531 124.74H681.021M658.148 117.771H681.126M264.711 110.784L263.028 111.08M2.70001 160.631L1 161.003M2.70001 160.631L1 160.63M268.509 111.613H270.04M270.04 111.613L268.944 111.877M933.053 305.442L914.644 321.989M424.476 304.365L408.914 321.989M141.895 364.486L218.395 364.485M549.833 132.691L546.638 135.595M412.42 135.596H411.368M412.42 135.596L412.174 135.707M1 109.846L1.90209 109.716M1.90209 109.716H1M1363.39 148.687L1346.11 145.214M1346.11 145.214L1363.39 145.214M1126.53 132.691L1125.8 132.49M1126.53 132.691L1125.92 132.691M1125.8 132.49L1125.92 132.691M391.357 341.875L408.914 321.989M294.895 364.485L218.395 364.485M1172.09 341.875L1107.3 341.875" stroke="url(#paint0_linear_317_38)" stroke-linecap="round" stroke-linejoin="round"/>
<defs>
<linearGradient id="paint0_linear_317_38" x1="1076.22" y1="372.752" x2="1076.22" y2="-55.5271" gradientUnits="userSpaceOnUse">
<stop offset="0.078125" stop-color="#0F0D19" stop-opacity="0"/>
<stop offset="0.3125" stop-color="#4100CC" stop-opacity="0.5"/>
<stop offset="0.833333" stop-color="#FF6D44"/>
</linearGradient>
</defs>
</svg>
