<svg width="258" height="148" viewBox="0 0 258 148" fill="none" xmlns="http://www.w3.org/2000/svg">
<path d="M42.504 106.833L28.243 107.111M42.504 106.833L42.0726 109.312M42.504 106.833L43.1351 103.202M42.504 106.833L55.6337 80.9033M55.6337 80.9033L70.0294 80.6197M55.6337 80.9033L55.0982 84.4062M55.6337 80.9033L56.1587 77.4594M43.1351 103.202L28.9939 103.478M43.1351 103.202L43.756 99.6314M43.1351 103.202L56.1587 77.4594M56.1587 77.4594L70.433 77.1781M56.1587 77.4594L56.6762 74.0736M43.756 99.6314L29.7329 99.9059M43.756 99.6314L44.3666 96.1208M43.756 99.6314L56.6762 74.0736M56.6762 74.0736L70.8293 73.7948M56.6762 74.0736L57.1837 70.7448M195.747 49.012L191.179 49.1029M195.747 49.012L196.391 52.0937M195.747 49.012L201.809 60.2421M201.809 60.2421L203.594 62.1123M201.809 60.2421L204.137 64.5542M204.137 64.5542L204.412 65.0643M204.137 64.5542L203.594 62.1123M204.412 65.0643L206.022 68.0462M204.412 65.0643L217.108 64.8136M206.022 68.0462L207.656 71.0746M206.022 68.0462L217.873 67.8122M207.656 71.0746L209.271 74.0645M207.656 71.0746L218.652 70.8577M209.271 74.0645L210.02 77.3238M209.271 74.0645L219.42 73.8644M210.02 77.3238L223.777 77.0534M210.02 77.3238L210.781 80.6373M210.02 77.3238L196.391 52.0937M44.3666 96.1208L30.4583 96.3928M44.3666 96.1208L44.9668 92.6673M44.3666 96.1208L57.0614 70.9875L57.1837 70.7448M57.1837 70.7448L71.22 70.4676M57.1837 70.7448L57.6833 67.4708M44.9668 92.6673L31.1733 92.9374M44.9668 92.6673L45.5575 89.2699M44.9668 92.6673L57.6833 67.4708M57.6833 67.4708L71.603 67.1955M57.6833 67.4708L58.1748 64.2505M45.5575 89.2699L31.8759 89.5381M45.5575 89.2699L46.1387 85.9277M45.5575 89.2699L58.1748 64.2505M58.1748 64.2505L71.9806 63.9771M58.1748 64.2505L58.6023 61.2378L58.7277 61.0812L62.0842 61.0147M42.5325 109.201L43.9601 108.858M42.5325 109.201L42.0726 109.312M42.5325 109.201L55.0982 84.4062M55.0982 84.4062L69.6188 84.1207M55.0982 84.4062L54.5547 87.9703M43.9601 108.858L54.5547 87.9703M43.9601 108.858L54.6617 106.282M54.5547 87.9703L69.2017 87.6831M54.5547 87.9703L54.6617 106.282M223.972 124.09L222.736 147.302M223.972 124.09L225.211 124.191M223.972 124.09L209.15 122.881M222.736 147.302L238.337 147.002M222.736 147.302L207.354 123.275L191.621 123.579M255.726 123.601L253.944 146.703L238.337 147.002M255.726 123.601L257.378 123.569L256.054 119.326L246.083 119.519M255.726 123.601L241.291 123.88M239.844 123.908L238.337 147.002M239.844 123.908L241.291 123.88M239.844 123.908L225.211 124.191M201.219 75.1757L201.84 95.7571M201.219 75.1757L186.495 75.4658M201.219 75.1757L200.493 71.7066M201.219 75.1757L215.63 101.723M201.84 95.7571L202.585 99.4794M201.84 95.7571L187.073 96.0456M201.84 95.7571L216.328 118.541M202.585 99.4794L203.345 103.268M202.585 99.4794L187.689 99.7705M202.585 99.4794L215.141 119.204M203.345 103.268L204.118 107.126M203.345 103.268L188.315 103.561M203.345 103.268L213.407 119.062M204.118 107.126L204.905 111.053M204.118 107.126L188.952 107.421M204.118 107.126L211.637 118.918M204.905 111.053L205.706 115.052M204.905 111.053L189.601 111.35M204.905 111.053L209.731 118.615L209.831 118.77M205.706 115.052L208.005 118.649M205.706 115.052L190.262 115.352M205.706 115.052L206.433 118.68M208.005 118.649L208.283 118.644M208.005 118.649L206.433 118.68M100.901 54.6567L100.299 54.8285M100.901 54.6567L106.963 52.9296M100.901 54.6567L113.406 45.0301M113.406 45.0301L126.723 40.2689M113.406 45.0301L113.373 48.0002M113.406 45.0301L113.439 42.1068M126.723 40.2689L140.205 43.8767M126.723 40.2689L126.797 43.2059M126.723 40.2689L126.651 37.3787M140.205 43.8767L140.027 40.9617M140.205 43.8767L140.388 46.8388M140.205 43.8767L148.947 49.2048M148.947 49.2048L144.203 49.162M148.947 49.2048L153.426 49.2453M191.621 123.579L185.783 122.58M191.621 123.579L191.701 123.078M185.783 122.58L191.701 123.078M185.783 122.58L176.985 121.841M190.262 115.352L174.815 112.7M190.262 115.352L189.601 111.35M190.262 115.352L190.836 118.825M174.815 112.7L159.309 106.488M174.815 112.7L174.294 108.719M174.815 112.7L175.345 116.756M159.309 106.488L143.735 100.249M159.309 106.488L158.929 102.555M159.309 106.488L159.697 110.495M143.735 100.249L128.161 97.5691M143.735 100.249L143.496 96.3639M143.735 100.249L143.98 104.206M128.161 97.5691L112.734 102.113M128.161 97.5691L128.261 101.505M128.161 97.5691L128.065 93.705M112.734 102.113L112.779 98.2136M112.734 102.113L112.69 106.085M112.734 102.113L97.5077 111.697M97.5077 111.697L97.6905 107.724M97.5077 111.697L97.3221 115.745M97.5077 111.697L82.3841 121.217M82.3841 121.217L82.0586 125.339M82.3841 121.217L82.7029 117.171M82.3841 121.217L67.1577 125.686M67.1577 125.686L51.787 125.984M67.1577 125.686L66.6933 129.842M67.1577 125.686L67.615 121.605M51.787 125.984L36.5922 129.616M51.787 125.984L51.1806 130.142M51.787 125.984L52.3831 121.901M36.5922 129.616L21.2463 129.913M36.5922 129.616L35.8465 133.802M36.5922 129.616L37.3246 125.505M21.2463 129.913L5.90363 130.209M21.2463 129.913L20.3597 134.101M21.2463 129.913L22.1181 125.8M5.90363 130.209L4.87566 134.4M5.90363 130.209L6.91374 126.094M9.83686 114.184L24.6397 113.896M9.83686 114.184L8.87955 118.083M9.83686 114.184L10.7761 110.352L13.2856 110.303M24.6397 113.896L39.4451 113.608M24.6397 113.896L23.814 117.793M24.6397 113.896L25.4499 110.066M39.4451 113.608L54.1075 110.084M39.4451 113.608L38.7502 117.503M39.4451 113.608L40.1261 109.78M54.1075 110.084L68.9362 109.795M54.1075 110.084L53.5428 113.953M54.1075 110.084L54.6617 106.282M68.9362 109.795L83.627 105.46M68.9362 109.795L68.5035 113.662M68.9362 109.795L69.3609 105.996M83.627 105.46L83.3241 109.294M83.627 105.46L83.9236 101.693M83.627 105.46L98.2191 96.2259M98.2191 96.2259L98.4048 96.1087L112.907 86.9317M98.2191 96.2259L98.3884 92.5279M98.2191 96.2259L98.0458 99.9902M112.907 86.9317L127.785 82.5265M112.907 86.9317L112.947 83.3035M112.907 86.9317L112.865 90.6248M127.785 82.5265L142.805 85.1243M127.785 82.5265L127.876 86.1857M127.785 82.5265L127.694 78.9314M142.805 85.1243L157.828 91.1743M142.805 85.1243L142.582 81.5096M142.805 85.1243L143.031 88.8035M157.828 91.1743L157.473 87.5143M157.828 91.1743L158.188 94.8999M157.828 91.1743L172.786 97.1988M172.786 97.1988L187.689 99.7705M172.786 97.1988L172.301 93.4934M172.786 97.1988L173.28 100.97M187.689 99.7705L187.073 96.0456M187.689 99.7705L188.315 103.561M215.141 119.204L216.501 119.315M215.141 119.204L213.407 119.062M186.495 75.4658L171.774 75.5641M186.495 75.4658L185.897 71.9944M186.495 75.4658L187.073 96.0456M171.774 75.5641L157.051 75.4326M171.774 75.5641L171.303 72.0921M171.774 75.5641L172.301 93.4934M157.051 75.4326L142.327 75.3012M157.051 75.4326L156.708 71.9617M157.051 75.4326L157.473 87.5143M142.327 75.3012L127.606 75.3996M142.327 75.3012L142.112 71.8312M142.327 75.3012L142.582 81.5096M127.606 75.3996L112.932 77.4345M127.606 75.3996L127.694 78.9314M127.606 75.3996L127.518 71.9288M112.932 77.4345L98.3409 81.5546M112.932 77.4345L112.972 73.9485M112.932 77.4345L112.947 83.3035M98.3409 81.5546L83.7914 85.6627M98.3409 81.5546L98.5067 78.0378M98.3409 81.5546L98.3884 92.5279M83.7914 85.6627L69.2017 87.6831M83.7914 85.6627L83.9236 101.693M83.7914 85.6627L84.0826 82.1155M69.2017 87.6831L69.3609 105.996M69.2017 87.6831L69.6188 84.1207M245.635 117.972L230.98 118.256M245.635 117.972L244.818 101.153M245.635 117.972L246.083 119.519M230.98 118.256L216.328 118.541M230.98 118.256L230.221 101.438M230.98 118.256L231.376 119.804M216.328 118.541L215.63 101.723M216.328 118.541L216.501 119.315M187.073 96.0456L172.301 93.4934M172.301 93.4934L157.473 87.5143M157.473 87.5143L142.582 81.5096M142.582 81.5096L127.694 78.9314M127.694 78.9314L112.947 83.3035M112.947 83.3035L98.3884 92.5279M98.3884 92.5279L83.9236 101.693M98.0458 99.9902L97.8699 103.822M98.0458 99.9902L112.865 90.6248M98.0458 99.9902L83.3241 109.294M97.8699 103.822L97.6905 107.724M97.8699 103.822L112.822 94.3849M97.8699 103.822L83.0165 113.197M97.6905 107.724L112.779 98.2136M97.6905 107.724L82.7029 117.171M97.3221 115.745L97.1327 119.867M97.3221 115.745L112.69 106.085M97.3221 115.745L82.0586 125.339M97.1327 119.867L96.9021 122.826M97.1327 119.867L97.0361 119.928L81.7275 129.537M97.1327 119.867L112.63 110.14L112.644 110.131M96.9021 122.826L96.9999 122.77L112.588 113.864M96.9021 122.826L96.7054 127.096M96.9021 122.826L81.316 131.731M81.316 131.731L80.9713 136.073M81.316 131.731L81.7275 129.537M81.316 131.731L65.6343 135.927M65.6343 135.927L49.8166 136.232M65.6343 135.927L65.1415 140.302M65.6343 135.927L66.2201 134.076M49.8166 136.232L42.495 136.301M49.8166 136.232L49.1737 140.61M49.8166 136.232L50.5628 134.378M42.495 136.301L35.3896 136.367M42.495 136.301L50.5628 134.378M35.3896 136.367L33.9942 136.38M35.3896 136.367L35.8465 133.802M33.9942 136.38L19.8188 136.654M33.9942 136.38L33.2012 140.759M19.8188 136.654L18.1827 136.685M19.8188 136.654L20.3597 134.101M18.1827 136.685L4.24904 136.954M18.1827 136.685L17.2395 141.067M4.24904 136.954L2.37452 136.99L1.28125 141.374L17.2395 141.067M4.24904 136.954L4.87566 134.4M200.493 71.7066L185.897 71.9944M200.493 71.7066L199.78 68.2972M200.493 71.7066L214.787 98.0576M185.897 71.9944L171.303 72.0921M185.897 71.9944L185.31 68.5829M171.303 72.0921L156.708 71.9617M171.303 72.0921L170.841 68.68M156.708 71.9617L142.112 71.8312M156.708 71.9617L156.372 68.5505M142.112 71.8312L127.518 71.9288M142.112 71.8312L141.9 68.4207M127.518 71.9288L112.972 73.9485M127.518 71.9288L127.432 68.5177M112.972 73.9485L112.923 73.9625L98.5067 78.0378M112.972 73.9485L113.011 70.5225M98.5067 78.0378L84.0826 82.1155M98.5067 78.0378L98.6704 74.5816M84.0826 82.1155L69.6188 84.1207M84.0826 82.1155L84.3694 78.6293M69.6188 84.1207L70.0294 80.6197M244.818 101.153L230.221 101.438M244.818 101.153L243.722 97.4923M230.221 101.438L215.63 101.723M230.221 101.438L229.254 97.7747M215.63 101.723L214.787 98.0576M243.722 97.4923L229.254 97.7747M243.722 97.4923L242.649 93.8935M229.254 97.7747L214.787 98.0576M229.254 97.7747L228.302 94.1743M214.787 98.0576L213.958 94.4548M89.1184 58.0145L87.78 58.3956M89.1184 58.0145L94.9539 56.3516M89.1184 58.0145L100.554 49.1931M100.554 49.1931L100.42 52.1388M100.554 49.1931L100.686 46.2925M100.554 49.1931L113.471 39.2296M113.471 39.2296L126.579 34.534M113.471 39.2296L113.439 42.1068M113.471 39.2296L113.503 36.3966M126.579 34.534L126.651 37.3787M126.579 34.534L126.509 31.7327M126.579 34.534L139.85 38.0921M139.85 38.0921L139.677 35.267M139.85 38.0921L140.027 40.9617M139.85 38.0921L153.135 46.2041M153.135 46.2041L152.859 43.3238M153.135 46.2041L153.416 49.1299M153.135 46.2041L158.185 49.2881M158.185 49.2881L154.468 49.2544M158.185 49.2881L162.682 49.3284M70.0294 80.6197L84.3694 78.6293M70.0294 80.6197L70.433 77.1781M84.3694 78.6293L98.6704 74.5816M84.3694 78.6293L84.6518 75.2022M98.6704 74.5816L113.011 70.5225M98.6704 74.5816L98.831 71.1841M113.011 70.5225L127.432 68.5177M113.011 70.5225L113.05 67.1547M127.432 68.5177L141.9 68.4207M127.432 68.5177L127.348 65.1649M141.9 68.4207L156.372 68.5505M141.9 68.4207L141.693 65.0689M156.372 68.5505L170.841 68.68M156.372 68.5505L156.041 65.1973M170.841 68.68L185.31 68.5829M170.841 68.68L170.387 65.3259M185.31 68.5829L199.78 68.2972M185.31 68.5829L184.732 65.2298M199.78 68.2972L199.08 64.946M199.78 68.2972L213.958 94.4548M242.649 93.8935L228.302 94.1743M242.649 93.8935L241.593 90.3557M228.302 94.1743L213.958 94.4548M228.302 94.1743L227.366 90.6342M213.958 94.4548L213.145 90.9128M70.433 77.1781L84.6518 75.2022M70.433 77.1781L70.8293 73.7948M84.6518 75.2022L98.831 71.1841M84.6518 75.2022L84.9287 71.8332M98.831 71.1841L113.05 67.1547M98.831 71.1841L98.9888 67.8445M113.05 67.1547L127.348 65.1649M113.05 67.1547L113.088 63.8445M127.348 65.1649L141.693 65.0689M127.348 65.1649L127.265 61.869M141.693 65.0689L156.041 65.1973M141.693 65.0689L141.489 61.7736M156.041 65.1973L170.387 65.3259M156.041 65.1973L155.715 61.901M170.387 65.3259L184.732 65.2298M170.387 65.3259L169.941 62.0289M184.732 65.2298L199.08 64.946M184.732 65.2298L184.165 61.9332M199.08 64.946L198.391 61.6517M199.08 64.946L213.145 90.9128M28.243 107.111L13.9845 107.389M28.243 107.111L27.64 110.024M28.243 107.111L28.9939 103.478M13.9845 107.389L13.2856 110.303M13.9845 107.389L14.8554 103.754M241.593 90.3557L227.366 90.6342M241.593 90.3557L240.553 86.8772M227.366 90.6342L213.145 90.9128M227.366 90.6342L226.446 87.1538M213.145 90.9128L212.343 87.4303M70.8293 73.7948L84.9287 71.8332M70.8293 73.7948L71.22 70.4676M84.9287 71.8332L98.9888 67.8445M84.9287 71.8332L85.2018 68.5201M98.9888 67.8445L113.088 63.8445M98.9888 67.8445L99.1448 64.56M113.088 63.8445L127.265 61.869M113.088 63.8445L113.126 60.5892M127.265 61.869L141.489 61.7736M127.265 61.869L127.185 58.6282M141.489 61.7736L155.715 61.901M141.489 61.7736L141.289 58.5331M155.715 61.901L169.941 62.0289M155.715 61.901L155.396 58.6599M169.941 62.0289L184.165 61.9332M169.941 62.0289L169.502 58.7865M184.165 61.9332L198.391 61.6517M184.165 61.9332L183.607 58.6918M198.391 61.6517L197.713 58.4123M198.391 61.6517L212.343 87.4303M28.9939 103.478L14.8554 103.754M28.9939 103.478L29.7329 99.9059M14.8554 103.754L15.7121 100.18M240.553 86.8772L226.446 87.1538M240.553 86.8772L239.529 83.4565M226.446 87.1538L212.343 87.4303M226.446 87.1538L225.542 83.7311M212.343 87.4303L211.556 84.0056M71.22 70.4676L85.2018 68.5201M71.22 70.4676L71.603 67.1955M85.2018 68.5201L99.1448 64.56M85.2018 68.5201L85.4694 65.2619M99.1448 64.56L113.126 60.5892M99.1448 64.56L99.2968 61.3302M113.126 60.5892L127.185 58.6282M113.126 60.5892L113.162 57.3879M127.185 58.6282L141.289 58.5331M127.185 58.6282L127.104 55.4408M141.289 58.5331L155.396 58.6599M141.289 58.5331L141.091 55.3468M155.396 58.6599L169.502 58.7865M155.396 58.6599L155.081 55.4726M169.502 58.7865L183.607 58.6918M169.502 58.7865L169.07 55.5985M183.607 58.6918L197.713 58.4123M183.607 58.6918L183.057 55.5041M197.713 58.4123L197.047 55.2266M197.713 58.4123L211.556 84.0056M29.7329 99.9059L15.7121 100.18M29.7329 99.9059L30.4583 96.3928M15.7121 100.18L16.5537 96.6648M239.529 83.4565L225.542 83.7311M239.529 83.4565L238.526 80.0919M225.542 83.7311L211.556 84.0056M225.542 83.7311L224.651 80.3645M211.556 84.0056L210.781 80.6373M71.603 67.1955L85.4694 65.2619M71.603 67.1955L71.9806 63.9771M85.4694 65.2619L99.2968 61.3302M85.4694 65.2619L85.733 62.0572M99.2968 61.3302L113.162 57.3879M99.2968 61.3302L99.4473 58.1537M113.162 57.3879L127.104 55.4408M113.162 57.3879L113.199 54.2395M127.104 55.4408L141.091 55.3468M127.104 55.4408L127.025 52.3066M141.091 55.3468L155.081 55.4726M141.091 55.3468L140.897 52.213M155.081 55.4726L169.07 55.5985M155.081 55.4726L154.772 52.3377M169.07 55.5985L183.057 55.5041M169.07 55.5985L168.645 52.463M183.057 55.5041L197.047 55.2266M183.057 55.5041L182.518 52.3692M197.047 55.2266L196.391 52.0937M197.047 55.2266L210.781 80.6373M30.4583 96.3928L16.5537 96.6648M30.4583 96.3928L31.1733 92.9374M16.5537 96.6648L17.3826 93.2076M238.526 80.0919L224.651 80.3645M238.526 80.0919L237.536 76.7826M224.651 80.3645L210.781 80.6373M224.651 80.3645L223.777 77.0534M71.9806 63.9771L85.733 62.0572M71.9806 63.9771L72.3515 60.8113M85.733 62.0572L99.4473 58.1537M85.733 62.0572L85.9924 58.905M99.4473 58.1537L113.199 54.2395M99.4473 58.1537L99.5951 55.0289M113.199 54.2395L127.025 52.3066M113.199 54.2395L113.234 51.1426M127.025 52.3066L140.897 52.213M127.025 52.3066L126.948 49.2232M140.897 52.213L154.772 52.3377M140.897 52.213L140.706 49.1305M154.772 52.3377L168.645 52.463M154.772 52.3377L154.468 49.2544M168.645 52.463L182.518 52.3692M168.645 52.463L168.228 49.3783M182.518 52.3692L196.391 52.0937M182.518 52.3692L181.987 49.2855M31.1733 92.9374L17.3826 93.2076M31.1733 92.9374L31.8759 89.5381M17.3826 93.2076L18.1972 89.8063M237.536 76.7826L223.777 77.0534M237.536 76.7826L236.564 73.5269L232.577 73.6054M223.777 77.0534L222.916 73.7956M31.8759 89.5381L18.1972 89.8063M31.8759 89.5381L32.5679 86.194M18.1972 89.8063L18.9993 86.4606L20.2829 86.4351M47.2607 83.7004L34.1401 83.9584M47.2607 83.7004L46.1387 85.9277M47.2607 83.7004L47.5852 83.056M34.1401 83.9584L20.8069 84.2207M34.1401 83.9584L33.6887 86.1717M34.1401 83.9584L34.7967 80.742M20.8069 84.2207L20.2829 86.4351M20.8069 84.2207L21.5681 81.0023M23.0553 74.7157L36.0785 74.4588M23.0553 74.7157L22.3178 77.8344M23.0553 74.7157L23.7818 71.6447M36.0785 74.4588L49.1041 74.2018M36.0785 74.4588L35.4426 77.5758M36.0785 74.4588L36.7051 71.3894M49.1041 74.2018L48.5699 77.3172M49.1041 74.2018L49.6307 71.1344M49.1041 74.2018L54.0849 70.1582M54.0849 70.1582L56.3413 65.6814M54.0849 70.1582L51.796 74.7005M23.7818 71.6447L36.7051 71.3894M23.7818 71.6447L24.4972 68.6202M36.7051 71.3894L49.6307 71.1344M36.7051 71.3894L37.322 68.3669M49.6307 71.1344L50.1489 68.1132M49.6307 71.1344L56.3413 65.6814M56.3413 65.6814L58.6114 61.1756L58.7964 61.0802M24.4972 68.6202L37.322 68.3669M24.4972 68.6202L25.2014 65.6419M37.322 68.3669L50.1489 68.1132M37.322 68.3669L37.9292 65.3903M50.1489 68.1132L50.6594 65.1383M50.1489 68.1132L58.6811 61.174L58.8585 61.0293L62.5699 58.0109M62.5699 58.0109L75.4454 57.7553M62.5699 58.0109L62.1455 60.9644M62.5699 58.0109L62.9877 55.1022M75.4454 57.7553L75.1522 60.4199M75.4454 57.7553L75.7651 54.8486M75.4454 57.7553L88.1835 53.2M88.1835 53.2L87.9564 56.1212M88.1835 53.2L88.4068 50.3232M88.1835 53.2L100.816 43.4372M100.816 43.4372L100.686 46.2925M100.816 43.4372L100.944 40.6253M100.816 43.4372L113.534 33.6078M113.534 33.6078L113.579 33.5916L126.44 28.9758M113.534 33.6078L113.503 36.3966M113.534 33.6078L113.565 30.8617M126.44 28.9758L126.509 31.7327M126.44 28.9758L126.372 26.2608M126.44 28.9758L139.506 32.486M139.506 32.486L139.338 29.7474M139.506 32.486L139.677 35.267M139.506 32.486L152.494 40.4317L152.587 40.4884M152.587 40.4884L152.319 37.6963M152.587 40.4884L152.859 43.3238M152.587 40.4884L165.595 48.4472M165.595 48.4472L165.229 45.602M165.595 48.4472L165.713 49.3557M165.595 48.4472L169.052 49.373M169.052 49.373L168.228 49.3783M169.052 49.373L178.107 49.3117M24.6417 39.6054L37.3752 39.3512M24.6417 39.6054L25.2014 65.6419M24.6417 39.6054L25.3403 36.8665M37.3752 39.3512L50.1108 39.0968M37.3752 39.3512L37.9292 65.3903M37.3752 39.3512L37.9782 36.6138M50.1108 39.0968L62.7753 37.0563M50.1108 39.0968L50.6594 65.1383M50.1108 39.0968L50.6183 36.3615M62.7753 37.0563L75.5234 36.8017M62.7753 37.0563L62.9877 55.1022M62.7753 37.0563L63.188 34.3343M75.5234 36.8017L88.2123 34.6492M75.5234 36.8017L75.7651 54.8486M75.5234 36.8017L75.84 34.0812M88.2123 34.6492L100.856 30.2095M88.2123 34.6492L88.4068 50.3232M88.2123 34.6492L88.4336 31.9431M100.856 30.2095L113.539 25.7559M100.856 30.2095L100.944 40.6253M100.856 30.2095L100.982 27.5325M113.539 25.7559L126.304 23.5873M113.539 25.7559L113.565 30.8617M113.539 25.7559L113.57 23.1088M126.304 23.5873L126.372 26.2608M126.304 23.5873L126.239 20.9543M126.304 23.5873L139.165 26.5382M139.165 26.5382L139.002 23.8856M139.165 26.5382L139.338 29.7474M139.165 26.5382L152.038 33.3154M152.038 33.3154L151.779 30.6178M152.038 33.3154L152.319 37.6963M152.038 33.3154L164.853 40.0612M164.853 40.0612L164.497 37.3192M164.853 40.0612L165.229 45.602M164.853 40.0612L177.601 42.9785M177.601 42.9785L190.333 42.7249M177.601 42.9785L177.151 40.2174M177.601 42.9785L178.063 49.0423M190.333 42.7249L203.05 44.9521M190.333 42.7249L189.787 39.9654M190.333 42.7249L190.878 48.7874M203.05 44.9521L215.776 44.6991M203.05 44.9521L202.409 42.1784M203.05 44.9521L203.594 62.1123M215.776 44.6991L228.503 44.4458M215.776 44.6991L215.039 41.9267M215.776 44.6991L216.353 61.86M228.503 44.4458L227.671 41.6751M228.503 44.4458L229.114 61.6073M25.2014 65.6419L37.9292 65.3903M37.9292 65.3903L50.6594 65.1383M50.6594 65.1383L62.9877 55.1022M62.9877 55.1022L75.7651 54.8486M75.7651 54.8486L88.4068 50.3232M88.4068 50.3232L100.944 40.6253M100.944 40.6253L113.565 30.8617M113.565 30.8617L126.372 26.2608M126.372 26.2608L139.338 29.7474M139.338 29.7474L152.319 37.6963M152.319 37.6963L165.229 45.602M165.229 45.602L178.063 49.0423M178.063 49.0423L190.878 48.7874M178.063 49.0423L178.107 49.3117M190.878 48.7874L191.179 49.1029M190.878 48.7874L190.941 49.1076M191.179 49.1029L190.941 49.1076M217.108 64.8136L229.966 64.5595M217.108 64.8136L216.353 61.86M217.108 64.8136L217.873 67.8122M229.966 64.5595L229.114 61.6073M229.966 64.5595L230.831 67.5566M25.3403 36.8665L37.9782 36.6138M25.3403 36.8665L26.0279 34.168M37.9782 36.6138L50.6183 36.3615M37.9782 36.6138L38.5717 33.9173M50.6183 36.3615L63.188 34.3343M50.6183 36.3615L51.1175 33.6663M63.188 34.3343L75.84 34.0812M63.188 34.3343L63.5939 31.6522M75.84 34.0812L88.4336 31.9431M75.84 34.0812L76.1514 31.4008M88.4336 31.9431L88.6509 29.2766M88.4336 31.9431L100.982 27.5325M100.982 27.5325L113.57 23.1088M100.982 27.5325L101.106 24.8952M113.57 23.1088L126.239 20.9543M113.57 23.1088L113.6 20.5009M126.239 20.9543L126.173 18.3604M126.239 20.9543L139.002 23.8856M139.002 23.8856L139.023 23.8962L151.779 30.6178M139.002 23.8856L138.841 21.2725M151.779 30.6178L151.523 27.9603M151.779 30.6178L164.497 37.3192M164.497 37.3192L164.669 37.3582L177.151 40.2174M164.497 37.3192L164.147 34.6176M177.151 40.2174L189.787 39.9654M177.151 40.2174L176.706 37.4973M189.787 39.9654L202.409 42.1784M189.787 39.9654L189.249 37.2469M202.409 42.1784L215.039 41.9267M202.409 42.1784L201.777 39.445M215.039 41.9267L227.671 41.6751M215.039 41.9267L214.313 39.195M227.671 41.6751L226.851 38.9451M26.0279 34.168L38.5717 33.9173M26.0279 34.168L26.7059 31.5095M38.5717 33.9173L51.1175 33.6663M38.5717 33.9173L39.1567 31.2605M51.1175 33.6663L63.5939 31.6522M51.1175 33.6663L51.6098 31.0111M63.5939 31.6522L76.1514 31.4008M63.5939 31.6522L63.9934 29.0104M76.1514 31.4008L88.6509 29.2766M76.1514 31.4008L76.4585 28.7607M88.6509 29.2766L101.106 24.8952M88.6509 29.2766L88.8655 26.6502M101.106 24.8952L113.6 20.5009M101.106 24.8952L101.229 22.2974M113.6 20.5009L126.173 18.3604M113.6 20.5009L113.629 17.9316M126.173 18.3604L138.841 21.2725M126.173 18.3604L126.109 15.8056M138.841 21.2725L138.683 18.6981M138.841 21.2725L151.523 27.9603M151.523 27.9603L151.271 25.3422M151.523 27.9603L164.147 34.6176M164.147 34.6176L163.803 31.9562M164.147 34.6176L176.706 37.4973M176.706 37.4973L189.249 37.2469M176.706 37.4973L176.269 34.8173M189.249 37.2469L201.777 39.445M189.249 37.2469L188.719 34.5686M201.777 39.445L214.313 39.195M201.777 39.445L201.154 36.7525M214.313 39.195L226.851 38.9451M214.313 39.195L213.598 36.5042M226.851 38.9451L226.043 36.2558M162.797 24.2035L163.128 26.7504M162.797 24.2035L162.472 21.6936M162.797 24.2035L174.994 27.0096M162.797 24.2035L150.537 17.7164M174.994 27.0096L187.173 26.7656M174.994 27.0096L174.582 24.4824M174.994 27.0096L175.413 29.5744M187.173 26.7656L199.341 28.908M187.173 26.7656L186.673 24.2397M187.173 26.7656L187.681 29.329M199.341 28.908L211.513 28.6643M199.341 28.908L198.754 26.3689M199.341 28.908L199.936 31.4851M211.513 28.6643L223.689 28.4209M211.513 28.6643L210.839 26.1265M211.513 28.6643L212.198 31.2401M223.689 28.4209L222.926 25.8847M223.689 28.4209L224.462 30.9946M26.7059 31.5095L39.1567 31.2605M26.7059 31.5095L27.3736 28.8903M39.1567 31.2605L51.6098 31.0111M39.1567 31.2605L39.7331 28.6426M51.6098 31.0111L63.9934 29.0104M51.6098 31.0111L52.0943 28.3948M63.9934 29.0104L76.4585 28.7607M63.9934 29.0104L64.3874 26.407M76.4585 28.7607L88.8655 26.6502M76.4585 28.7607L76.7607 26.159M88.8655 26.6502L101.229 22.2974M88.8655 26.6502L89.0765 24.0622M101.229 22.2974L113.629 17.9316M101.229 22.2974L101.349 19.7377M113.629 17.9316L126.109 15.8056M113.629 17.9316L113.658 15.4004M126.109 15.8056L126.046 13.288M126.109 15.8056L138.683 18.6981M138.683 18.6981L138.527 16.1618M138.683 18.6981L151.271 25.3422M151.271 25.3422L151.023 22.7628M151.271 25.3422L163.803 31.9562M163.803 31.9562L176.269 34.8173M163.803 31.9562L163.462 29.334M176.269 34.8173L188.719 34.5686M176.269 34.8173L175.838 32.1762M188.719 34.5686L201.154 36.7525M188.719 34.5686L188.196 31.9292M201.154 36.7525L213.598 36.5042M201.154 36.7525L200.541 34.0992M213.598 36.5042L226.043 36.2558M213.598 36.5042L212.892 33.8525M226.043 36.2558L225.247 33.6057M27.3736 28.8903L39.7331 28.6426M27.3736 28.8903L28.0318 26.3093M39.7331 28.6426L52.0943 28.3948M39.7331 28.6426L40.3011 26.0632M52.0943 28.3948L64.3874 26.407M52.0943 28.3948L52.5724 25.8172M64.3874 26.407L76.7607 26.159M64.3874 26.407L64.7763 23.8419M76.7607 26.159L89.0765 24.0622M76.7607 26.159L77.0591 23.5955M89.0765 24.0622L101.349 19.7377M89.0765 24.0622L89.2851 21.5123M101.349 19.7377L113.658 15.4004M101.349 19.7377L101.468 17.2157M113.658 15.4004L126.046 13.288M113.658 15.4004L113.687 12.9066M126.046 13.288L138.527 16.1618M126.046 13.288L125.984 10.808M138.527 16.1618L138.374 13.6632M138.527 16.1618L151.023 22.7628M151.023 22.7628L150.778 20.2212M151.023 22.7628L163.462 29.334M163.462 29.334L163.128 26.7504M163.462 29.334L175.838 32.1762M175.838 32.1762L188.196 31.9292M175.838 32.1762L175.413 29.5744M188.196 31.9292L200.541 34.0992M188.196 31.9292L187.681 29.329M200.541 34.0992L212.892 33.8525M200.541 34.0992L199.936 31.4851M212.892 33.8525L225.247 33.6057M212.892 33.8525L212.198 31.2401M225.247 33.6057L224.462 30.9946M28.0318 26.3093L40.3011 26.0632M28.0318 26.3093L28.6805 23.7654M40.3011 26.0632L52.5724 25.8172M40.3011 26.0632L40.8605 23.5208M52.5724 25.8172L64.7763 23.8419M52.5724 25.8172L53.0431 23.2763M64.7763 23.8419L77.0591 23.5955M64.7763 23.8419L65.1587 21.314M77.0591 23.5955L89.2851 21.5123M77.0591 23.5955L77.3522 21.069M89.2851 21.5123L101.468 17.2157M89.2851 21.5123L89.4902 18.9989M101.468 17.2157L113.687 12.9066M101.468 17.2157L101.585 14.7299M113.687 12.9066L125.984 10.808M113.687 12.9066L113.715 10.4485M125.984 10.808L125.923 8.36327M125.984 10.808L138.374 13.6632M138.374 13.6632L138.222 11.2002M138.374 13.6632L150.778 20.2212M150.778 20.2212L150.537 17.7164M150.778 20.2212L163.128 26.7504M163.128 26.7504L175.413 29.5744M175.413 29.5744L187.681 29.329M187.681 29.329L199.936 31.4851M199.936 31.4851L212.198 31.2401M212.198 31.2401L224.462 30.9946M76.4215 60.2423L75.1522 60.4199M76.4215 60.2423L85.9924 58.905M76.4215 60.2423L87.9564 56.1212M87.9564 56.1212L87.78 58.3956M87.9564 56.1212L100.686 46.2925M100.686 46.2925L113.503 36.3966M113.503 36.3966L126.509 31.7327M126.509 31.7327L139.677 35.267M139.677 35.267L152.859 43.3238M152.859 43.3238L162.682 49.3284M162.682 49.3284L165.713 49.3557M28.6805 23.7654L40.8605 23.5208M28.6805 23.7654L29.3196 21.2586L41.4125 21.0156M40.8605 23.5208L53.0431 23.2763M40.8605 23.5208L41.4125 21.0156M53.0431 23.2763L65.1587 21.314M53.0431 23.2763L53.5071 20.7725M65.1587 21.314L77.3522 21.069M65.1587 21.314L65.5361 18.8228M77.3522 21.069L89.4902 18.9989M77.3522 21.069L77.6418 18.5793M89.4902 18.9989L101.585 14.7299M89.4902 18.9989L89.6924 16.5226M101.585 14.7299L113.715 10.4485M101.585 14.7299L101.7 12.2806M113.715 10.4485L125.923 8.36327M113.715 10.4485L113.743 8.02644M125.923 8.36327L138.222 11.2002M125.923 8.36327L125.862 5.95482M138.222 11.2002L138.073 8.77354M138.222 11.2002L150.537 17.7164M150.537 17.7164L150.299 15.248M165.713 49.3557L168.228 49.3783M41.4125 21.0156L53.5071 20.7725M53.5071 20.7725L62.6485 19.2907M62.6485 19.2907L64.1653 19.045M62.6485 19.2907L66.282 14.145M64.1653 19.045L65.5361 18.8228M64.1653 19.045L64.3043 18.8472L65.866 16.6371L65.9152 16.5679M65.5361 18.8228L77.6418 18.5793M65.5361 18.8228L65.9152 16.5679M77.6418 18.5793L89.6924 16.5226M77.6418 18.5793L77.9336 16.3258M89.6924 16.5226L89.7123 16.5154L101.7 12.2806M89.6924 16.5226L89.8965 14.2509M101.7 12.2806L113.743 8.02644M101.7 12.2806L101.816 9.96715M113.743 8.02644L125.862 5.95482M113.743 8.02644L113.77 5.67059M125.862 5.95482L125.802 3.58031M125.862 5.95482L138.007 8.75826L138.073 8.77354M138.073 8.77354L141.646 10.6656M138.073 8.77354L137.946 7.78061M141.646 10.6656L150.299 15.248M141.646 10.6656L138.014 7.8339L137.946 7.78061M150.299 15.248L150.621 15.418M153.416 49.1299L153.608 49.2471M153.416 49.1299L153.426 49.2453M153.416 49.1299L140.027 40.9617M153.608 49.2471L153.426 49.2453M153.608 49.2471L154.468 49.2544M209.586 13.9224L221.532 13.6823L222.275 16.1015M209.586 13.9224L197.642 14.1628M209.586 13.9224L210.243 16.3433M197.642 14.1628L188.68 24.5935M197.642 14.1628L198.214 16.585M188.68 24.5935L186.673 24.2397M188.68 24.5935L190.977 24.9984M217.873 67.8122L230.831 67.5566M217.873 67.8122L218.652 70.8577M230.831 67.5566L231.711 70.6001M137.952 49.1492L126.872 46.1901M137.952 49.1492L126.948 49.2232M137.952 49.1492L140.706 49.1305M126.872 46.1901L113.339 51.0185M126.872 46.1901L126.948 49.2232M126.872 46.1901L126.797 43.2059M113.339 51.0185L113.234 51.1426M113.339 51.0185L113.235 51.0981L113.165 51.152L113.144 51.168M113.339 51.0185L113.373 48.0002M113.234 51.1426L113.144 51.168M113.234 51.1426L113.338 51.128L126.948 49.2232M112.865 90.6248L112.822 94.3849M112.865 90.6248L127.876 86.1857M112.822 94.3849L112.779 98.2136M112.822 94.3849L127.97 89.9114M112.779 98.2136L128.065 93.705M112.69 106.085L112.644 110.131M112.69 106.085L128.261 101.505M112.644 110.131L112.588 113.864M112.644 110.131L128.361 105.515M112.588 113.864L112.54 118.062M112.588 113.864L128.464 109.601M112.54 118.062L96.7054 127.096M112.54 118.062L128.568 113.765M96.7054 127.096L80.9713 136.073M80.9713 136.073L65.1415 140.302M65.1415 140.302L49.1737 140.61M49.1737 140.61L33.2012 140.759M33.2012 140.759L17.2395 141.067M190.977 24.9984L198.214 16.585M190.977 24.9984L198.754 26.3689M198.214 16.585L210.243 16.3433M198.214 16.585L198.754 26.3689M210.243 16.3433L222.275 16.1015M210.243 16.3433L210.839 26.1265M222.275 16.1015L222.926 25.8847M218.652 70.8577L231.711 70.6001M218.652 70.8577L219.42 73.8644M231.711 70.6001L232.577 73.6054M106.963 52.9296L113.144 51.168M106.963 52.9296L113.373 48.0002M113.373 48.0002L126.797 43.2059M126.797 43.2059L140.388 46.8388M140.388 46.8388L140.526 49.0922M140.388 46.8388L144.113 49.1076L144.203 49.162M94.9539 56.3516L99.5951 55.0289M94.9539 56.3516L100.42 52.1388M100.42 52.1388L100.299 54.8285M100.42 52.1388L113.439 42.1068M113.439 42.1068L126.651 37.3787M126.651 37.3787L140.027 40.9617M50.5628 134.378L51.1806 130.142M50.5628 134.378L66.2201 134.076M51.1806 130.142L66.6933 129.842M51.1806 130.142L35.8465 133.802M52.3831 121.901L52.9682 117.891M52.3831 121.901L67.615 121.605M52.3831 121.901L37.3246 125.505M52.9682 117.891L53.5428 113.953M52.9682 117.891L68.0632 117.598M52.9682 117.891L38.0439 121.468M53.5428 113.953L68.5035 113.662M53.5428 113.953L38.7502 117.503M54.6617 106.282L69.3609 105.996M62.0842 61.0147L62.1389 61.0137M62.0842 61.0147L62.1455 60.9644M62.1389 61.0137L72.3515 60.8113M62.1389 61.0137L62.1455 60.9644M72.3515 60.8113L72.762 60.7541M72.762 60.7541L75.1522 60.4199M72.762 60.7541L62.1455 60.9644M85.9924 58.905L87.78 58.3956M99.5951 55.0289L100.299 54.8285M140.706 49.1305L144.203 49.162M178.107 49.3117L181.987 49.2855M181.987 49.2855L190.941 49.1076M240.122 119.635L241.291 123.88M240.122 119.635L246.083 119.519M240.122 119.635L231.376 119.804M66.2201 134.076L66.6933 129.842M66.2201 134.076L81.7275 129.537M66.6933 129.842L81.8458 125.402L82.0586 125.339M67.615 121.605L68.0632 117.598M67.615 121.605L82.7029 117.171M68.0632 117.598L68.5035 113.662M68.0632 117.598L83.0165 113.197M68.5035 113.662L83.3241 109.294M69.3609 105.996L83.9236 101.693M224.192 119.943L225.211 124.191M224.192 119.943L231.376 119.804M224.192 119.943L216.501 119.315M81.7275 129.537L82.0586 125.339M82.7029 117.171L83.0165 113.197M83.0165 113.197L83.3241 109.294M208.283 118.644L209.15 122.881M208.283 118.644L209.831 118.77M209.15 122.881L193.066 123.193M192.352 118.953L193.066 123.193M192.352 118.953L206.433 118.68M192.352 118.953L190.836 118.825M193.066 123.193L191.701 123.078M176.422 117.611L176.985 121.841M176.422 117.611L184.122 118.26M176.422 117.611L175.43 117.405M176.985 121.841L160.871 118.487M160.46 114.285L160.871 118.487M160.46 114.285L175.43 117.405M160.46 114.285L158.166 113.806M160.871 118.487L144.72 115.125M128.568 113.765L128.464 109.601M128.568 113.765L144.72 115.125M128.464 109.601L128.361 105.515M128.464 109.601L144.462 110.95M128.361 105.515L128.261 101.505M128.361 105.515L144.228 108.237M128.261 101.505L143.98 104.206M128.065 93.705L127.97 89.9114M128.065 93.705L143.496 96.3639M127.97 89.9114L127.876 86.1857M127.97 89.9114L143.262 92.5493M127.876 86.1857L143.031 88.8035M125.802 3.58031L125.743 1.23975M125.802 3.58031L113.77 5.67059M125.802 3.58031L137.946 7.78061M125.743 1.23975L113.798 3.31652M125.743 1.23975L137.801 5.41374M51.796 74.7005L48.5699 77.3172M51.796 74.7005L49.4733 79.3097M48.5699 77.3172L35.4426 77.5758M48.5699 77.3172L48.0269 80.4817M35.4426 77.5758L22.3178 77.8344M35.4426 77.5758L34.7967 80.742M22.3178 77.8344L21.5681 81.0023M222.916 73.7956L232.577 73.6054M222.916 73.7956L219.42 73.8644M188.315 103.561L188.952 107.421M188.315 103.561L173.28 100.97M188.952 107.421L189.601 111.35M188.952 107.421L173.782 104.81M189.601 111.35L174.294 108.719M190.836 118.825L184.122 118.26M42.0726 109.312L40.1261 109.78M40.1261 109.78L27.64 110.024M27.64 110.024L25.4499 110.066M25.4499 110.066L13.2856 110.303M173.28 100.97L173.782 104.81M173.28 100.97L158.188 94.8999M173.782 104.81L174.294 108.719M173.782 104.81L158.555 98.6929M174.294 108.719L158.929 102.555M175.345 116.756L175.43 117.405M175.345 116.756L184.122 118.26M175.345 116.756L159.697 110.495M158.188 94.8999L158.555 98.6929M158.188 94.8999L143.031 88.8035M158.555 98.6929L158.929 102.555M158.555 98.6929L143.262 92.5493M158.929 102.555L143.496 96.3639M159.697 110.495L160.049 114.131M159.697 110.495L143.98 104.206M143.031 88.8035L143.262 92.5493M143.262 92.5493L143.496 96.3639M143.98 104.206L144.228 108.237M144.228 108.237L144.462 110.95M144.228 108.237L158.166 113.806M144.462 110.95L144.72 115.125M144.462 110.95L158.166 113.806M65.9152 16.5679L77.9336 16.3258M65.9152 16.5679L66.282 14.145M77.9336 16.3258L89.8965 14.2509M77.9336 16.3258L78.2151 13.9051M89.8965 14.2509L101.808 9.96983L101.816 9.96715M89.8965 14.2509L90.093 11.843M101.816 9.96715L113.77 5.67059M101.816 9.96715L101.928 7.58609M113.77 5.67059L113.798 3.31652M137.946 7.78061L137.801 5.41374M32.5679 86.194L33.6887 86.1717M32.5679 86.194L20.2829 86.4351M101.928 7.58609L90.093 11.843M101.928 7.58609L113.798 3.31652M78.2151 13.9051L66.282 14.145M78.2151 13.9051L90.093 11.843M4.87566 134.4L20.3597 134.101M6.91374 126.094L7.90518 122.053M6.91374 126.094L22.1181 125.8M7.90518 122.053L8.87955 118.083M7.90518 122.053L22.9734 121.761M8.87955 118.083L23.814 117.793M47.5852 83.056L48.0269 80.4817M47.5852 83.056L49.4733 79.3097M48.0269 80.4817L49.4733 79.3097M48.0269 80.4817L34.7967 80.742M20.3597 134.101L35.8465 133.802M22.1181 125.8L22.9734 121.761M22.1181 125.8L37.3246 125.505M22.9734 121.761L23.814 117.793M22.9734 121.761L38.0439 121.468M23.814 117.793L38.7502 117.503M37.3246 125.505L38.0439 121.468M38.0439 121.468L38.7502 117.503M203.594 62.1123L216.353 61.86M216.353 61.86L229.114 61.6073M186.673 24.2397L174.582 24.4824M174.582 24.4824L162.472 21.6936M222.926 25.8847L210.839 26.1265M162.472 21.6936L150.621 15.418M46.1387 85.9277L33.6887 86.1717M210.839 26.1265L198.754 26.3689M137.801 5.41374L137.869 5.46644L150.621 15.418M21.5681 81.0023L34.7967 80.742M213.407 119.062L211.637 118.918M211.637 118.918L209.831 118.77" stroke="url(#paint0_linear_317_49)" stroke-linecap="round" stroke-linejoin="round"/>
<defs>
<linearGradient id="paint0_linear_317_49" x1="104.374" y1="100.676" x2="142.421" y2="-7.43784" gradientUnits="userSpaceOnUse">
<stop stop-color="#FF6D44"/>
<stop offset="0.296875" stop-color="#FFA959"/>
<stop offset="1" stop-color="#E7E7E8"/>
</linearGradient>
</defs>
</svg>
