<svg width="264" height="123" viewBox="0 0 264 123" fill="none" xmlns="http://www.w3.org/2000/svg">
<path d="M27.131 88.1284L33.8818 54.0005L39.9385 48.3135M39.9385 48.3135L45.386 49.2046M39.9385 48.3135L27.1653 22.4302L20.4163 34.8633L12.8706 68.9647L27.0299 88.1423L41.4427 95.477L55.8766 95.7054L70.4105 95.9173M39.9385 48.3135L52.7898 81.1715L57.4658 83.8091L69.8964 85.6318L73.6701 82.9204M190.613 121.894L215.072 117.386L217.604 122.498M190.613 121.894L189.254 122.498M190.613 121.894L186.869 114.531M190.613 121.894L190.789 122.498M32.2792 5.1084L44.9013 28.5106L46.1536 27.3464M245.619 121.075L238.208 96.5166L218.994 102.508L199.948 106.844L181.068 106.323L162.352 109.328M0.82358 115.952L8.13111 116.105L18.2649 109.829M18.2649 109.829L27.0321 102.593M18.2649 109.829L0.929879 109.494M18.2649 109.829L125.402 111.904M125.402 111.904L143.797 111.976M125.402 111.904L123.571 118.285L122.384 122.498M125.402 111.904L132.447 86.4656M143.797 111.976L162.352 109.328M143.797 111.976L143.229 122.498M143.797 111.976L145.181 86.6393M162.352 109.328L161.373 105.701L160.521 100.89L159.772 96.6976L159.111 93.432L157.991 86.8106M162.352 109.328L163.491 116.303L164.722 122.498M227.333 84.1825L221.487 75.8672L225.106 90.9219M227.333 84.1825L232.084 84.9359L244.765 85.0973M227.333 84.1825L232.109 90.9789L234.641 94.5233L246.858 94.7408L251.185 94.8054M251.185 94.8054L255.475 91.3086L255.489 91.2964M251.185 94.8054L248.005 97.3989M193.34 52.8707L193.353 52.8333L193.398 52.748M193.34 52.8707L193.398 52.748M193.34 52.8707L186.215 64.5769L178.185 65.0117M193.398 52.748L193.584 52.3493M193.584 52.3493L193.61 52.0883M193.584 52.3493L193.814 52.0897L194.275 51.3335M193.61 52.0883L193.766 51.6375M193.61 52.0883L193.255 52.0864M193.766 51.6375L194.134 50.5744M193.766 51.6375L192.541 51.6309M194.134 50.5744L190.991 49.45M194.134 50.5744L195.281 47.2597M195.281 47.2597L195.003 45.5477M195.281 47.2597L195.941 45.3514M195.941 45.3514L196.894 42.598M195.941 45.3514L195.003 45.5477M196.894 42.598L198.415 38.1999M196.894 42.598L194.119 41.3583M198.415 38.1999L197.931 32.6113L199.755 34.3273M198.415 38.1999L199.755 34.3273M199.755 34.3273L200.408 32.4405M200.408 32.4405L200.676 31.6677M200.408 32.4405L199.398 30.5339M253.546 42.9885L254.068 43.8293M253.546 42.9885L250.742 43.7524M253.546 42.9885L257.486 65.2061M257.486 65.2061L261.731 72.3553M257.486 65.2061L249.592 66.576M257.486 65.2061L263.232 63.4568M261.731 72.3553L263.232 73.0058M261.731 72.3553L257.488 72.415M261.731 72.3553L263.232 69.1692M263.234 121.443L245.621 121.075M245.621 121.075L247.13 122.498M245.621 121.075L224.796 114.676L212.037 115.336L209.136 113.89L198.415 114.199M176.786 95.553L160.522 100.889L144.38 101.488L128.359 101.235L112.458 100.967M176.786 95.553L175.038 94.8197M176.786 95.553L182.31 92.9033M112.458 100.967L109.994 105.895L93.1387 105.591M112.458 100.967L114.623 96.6347M112.458 100.967L96.6735 100.701M93.1387 105.591L96.6735 100.701M93.1387 105.591L76.4165 105.29M93.1387 105.591L80.9171 122.498M198.224 65.7837L206.092 47.4648M206.092 47.4648L211.278 40.3239M206.092 47.4648L208.155 58.4922L210.37 68.9194M254.068 43.8293L256.993 48.5509M254.068 43.8293L253.005 36.9734M256.993 48.5509L258.234 49.6153L258.306 49.6776M256.993 48.5509L259.911 53.2613M259.911 53.2613L258.306 49.6776M259.911 53.2613L261.175 55.2994M261.175 55.2994L261.542 55.8909L262.475 57.3992L262.74 57.8247L263.22 58.3258L263.232 58.3393M261.175 55.2994L263.232 52.0308M196.016 65.9523L204.168 51.0887M204.168 51.0887L202.366 38.183L200.677 31.6674L202.495 28.4136M204.168 51.0887L206.093 47.4648M202.495 28.4136L198.817 24.2831M202.495 28.4136L205.998 22.1427M205.998 22.1427L206.054 22.0447L206.083 21.9925L208.538 17.5955M205.998 22.1427L205.919 21.8467M229.857 87.772L236.492 87.8607M236.492 87.8607L241.388 91.11M236.492 87.8607L232.086 84.936L228.099 72.3467M236.492 87.8607L259.33 88.166M241.388 91.11L255.476 91.3087M241.388 91.11L232.11 90.979M241.388 91.11L249.289 96.353M0.82358 40.6438L7.03541 25.3606M7.03541 25.3606L20.4143 34.863L33.8799 54.0006L47.4328 82.6244M7.03541 25.3606L14.468 23.7571L19.5165 23.2294M7.03541 25.3606L0.82358 26.4488M19.5165 23.2294L27.1633 22.4302L33.2356 32.813L45.3842 49.205L55.7876 78.6833M19.5165 23.2294L21.7615 10.9082M55.7876 78.6833L61.9569 82.7714L65.9111 80.3227L69.519 76.6216M55.7876 78.6833L57.0595 82.2848M69.519 76.6216L80.2213 78.2124L90.978 78.337L93.3942 74.2155L95.6149 71.2522L100.721 72.6489M69.519 76.6216L58.8594 73.9906L48.2769 46.3901M100.721 72.6489L105.561 73.9727M100.721 72.6489L107.226 72.7153M105.561 73.9727L115.553 74.5819L116.831 72.8135M105.561 73.9727L103.755 74.3373L101.79 78.4624L97.2887 83.2212M105.561 73.9727L107.226 72.7153M116.831 72.8135L118.014 71.178L119.11 69.1041L120.13 68.2504M116.831 72.8135L126.481 72.9121M116.831 72.8135L107.226 72.7153M120.13 68.2504L128.772 68.3289M120.13 68.2504L111.524 68.1713M120.13 68.2504L122.802 64.5537M122.802 64.5537L115.007 64.4892M122.802 64.5537L130.628 64.6181M122.802 64.5537L124.319 62.4559M124.319 62.4559L125.011 61.4981M124.319 62.4559L116.983 62.3986M124.319 62.4559L131.679 62.5128M125.011 61.4981L117.886 61.4444L116.983 62.3986M125.011 61.4981L132.16 61.5524M125.011 61.4981L126.868 58.9302M126.868 58.9302L133.448 58.9758M126.868 58.9302L128.926 56.0824M126.868 58.9302L113.768 58.8389M128.926 56.0824L130.228 54.2818M128.926 56.0824L117.077 56.0081M128.926 56.0824L140.842 56.1571M130.228 54.2818L130.624 53.2295L131.002 52.768L131.365 51.9446L131.713 50.1501M130.228 54.2818L135.779 54.3142L136.054 53.4308M130.228 54.2818L124.693 54.2495M131.713 50.1501L132.047 48.1792L132.275 46.7074L132.676 46.6553M131.713 50.1501L136.808 52.2275M131.713 50.1501L126.63 47.8264L121.56 45.7989M132.676 46.6553L132.368 46.755M132.676 46.6553L135.251 47.8817M135.251 47.8817L138.685 48.4626L142.864 48.8408L147.202 49.2267L151.107 49.0751L151.675 49.0275M135.251 47.8817L137.476 48.9408M137.476 48.9408L137.262 49.5989L137.041 50.8628M137.476 48.9408L140.525 50.082L142.343 50.5635L147.107 50.8007M147.107 50.8007L148.623 50.2798L151.804 49.4949M147.107 50.8007L147.129 50.421M147.107 50.8007L147.06 51.7564L147.035 52.2973M151.804 49.4949L151.869 49.4918L151.939 49.6247L152.012 50.3071L152.166 51.9366M151.804 49.4949L151.904 49.558L155.723 48.0894L156.782 47.6598M151.804 49.4949L149.593 49.7854L147.161 49.9455L142.667 49.5678L138.926 49.3659M152.166 51.9366L152.248 52.2304L152.334 53.1635L152.423 53.8589L152.517 54.2236L152.614 54.762L152.77 55.0994L152.937 55.8562L153.055 57.1162L153.18 58.1861M152.166 51.9366L154.19 51.8931L157.501 51.3174L162.766 48.4721M152.166 51.9366L147.035 52.2973M153.18 58.1861L153.311 59.1137M153.18 58.1861L146.712 58.2932M153.18 58.1861L159.668 56.5957L164.271 56.6843M153.311 59.1137L153.45 59.8146L153.596 60.7989L153.751 61.5485M153.311 59.1137L146.67 59.0674M153.311 59.1137L159.974 57.8633L164.271 56.6843M153.751 61.5485L153.915 62.6861M153.751 61.5485L146.53 61.6095M153.751 61.5485L160.996 61.7698L168.266 61.8246M153.915 62.6861L154.089 63.5321L154.274 64.814M153.915 62.6861L146.477 62.5689M153.915 62.6861L160.064 62.7335L161.784 62.5037M154.274 64.814L146.363 64.7484M154.274 64.814L162.216 64.8113M154.274 64.814L154.909 68.5684M154.909 68.5684L155.151 70.0027L155.412 70.655M154.909 68.5684L163.693 68.6486M154.909 68.5684L146.161 68.4884M155.412 70.655L164.864 71.6387L165.52 73.3111M155.412 70.655L155.694 72.2842M165.52 73.3111L165.828 73.3622L166.029 73.3163M165.52 73.3111L166.029 73.3163M165.52 73.3111L155.694 72.2842M166.029 73.3163L166.999 73.0949L174.885 72.5877M174.885 72.5877L177.724 72.405M174.885 72.5877L174.36 71.7322M177.724 72.405L179.047 74.5942L180.125 79.889M177.724 72.405L182.468 70.1226M182.468 70.1226L185.124 68.8446M182.468 70.1226L181.368 68.8104M185.124 68.8446L181.368 68.8104M185.124 68.8446L188.492 67.2243L190.315 66.3891L195.767 65.9717M195.767 65.9717L194.275 51.3335M195.767 65.9717L201.641 65.5222L201.901 65.8032L204.166 70.717M204.166 70.717L206.942 71.341L215.963 79.6865M204.166 70.717L192.298 71.3412L183.658 78.9346M204.166 70.717L211.838 71.2084L212.096 71.2246M186.46 90.9128L173.492 93.6461M186.46 90.9128L182.31 92.9033M186.46 90.9128L187.701 90.3178M173.492 93.6461L172.115 90.1327M173.492 93.6461L175.038 94.8197M173.492 93.6461L116.542 92.7965M116.542 92.7965L102.538 92.5876L99.7827 96.3998M116.542 92.7965L114.623 96.6347M116.542 92.7965L118.253 89.3729M99.7827 96.3998L96.6735 100.701M99.7827 96.3998L85.0455 96.1669L70.4105 95.9173M99.7827 96.3998L114.623 96.6347M96.6735 100.701L81.0066 100.437L76.4165 105.29M76.4165 105.29L59.8263 104.443M76.4165 105.29L60.1403 122.498M59.8263 104.443L53.3761 110.509L39.3635 122.498M59.8263 104.443L65.455 100.175L70.4105 95.9173M59.8263 104.443L43.3657 104.695L18.5867 122.498M229.924 122.498L224.795 114.677L218.995 102.509L214.011 87.5645L209.685 87.3518M211.278 40.3239L210.484 33.5588M211.278 40.3239L214.78 35.5003L217.158 34.2126M210.484 33.5588L208.537 17.5955L212.132 21.0915M210.484 33.5588L202.364 38.1837L194.275 51.3335M210.484 33.5588L218.635 30.0276L226.815 32.9634M192.862 40.4075L197.028 26.063M226.201 40.1562L229.096 54.3066L234.588 63.3775M234.588 63.3775L235.588 63.2961M234.588 63.3775L232.217 63.5706L222.467 65.6494L213.914 71.3411M186.059 48.6327L185.343 34.1021M186.059 48.6327L186.857 48.9679M186.059 48.6327L184.859 48.1277M185.343 34.1021L184.675 32.8331L184.644 32.7734M185.343 34.1021L190.167 40.9008M185.343 34.1021L181.362 31.1695M184.644 32.7734L184.691 32.8241M184.644 32.7734L184.551 32.7284L181.362 31.1695M241.055 32.3699L242.315 35.4405M241.055 32.3699L244.395 45.4833L247.522 64.1082M241.055 32.3699L238.025 34.8262L232.262 39.8185M242.315 35.4405L246.231 44.9826M242.315 35.4405L240.278 28.1736M217.158 34.2126L219.714 47.6516M217.158 34.2126L208.156 58.4922L201.981 65.711M217.158 34.2126L226.2 40.1562L235.276 47.0491L244.394 45.4832L250.742 43.7524M219.714 47.6516L222.466 65.6494L225.437 70.9952L226.257 72.2137M219.714 47.6516L229.095 54.3063L232.215 63.5704M219.714 47.6516L210.37 68.9194M226.257 72.2137L228.097 72.3465L234.663 77.8369M226.257 72.2137L216.099 71.4811L212.096 71.2246M247.522 64.1082L245.786 62.0393M247.522 64.1082L253.472 71.1931M207.186 85.7552L196.886 81.6211L183.843 87.1563L157.991 86.8106M157.991 86.8106L145.181 86.6393M157.991 86.8106L157.515 83.9875M145.181 86.6393L132.447 86.4656M145.181 86.6393L145.333 83.7964M132.447 86.4656L133.221 83.6456M132.447 86.4656L107.204 86.1311M107.204 86.1311L94.6945 85.9636M107.204 86.1311L109.198 83.3728M107.204 86.1311L102.536 92.5878L88.6251 92.381M94.6945 85.9636L82.2583 85.7972M94.6945 85.9636L97.2887 83.2212M94.6945 85.9636L88.6251 92.381M82.2583 85.7972L69.8951 85.6319L65.7195 88.6319M82.2583 85.7972L78.7305 88.8153L65.7195 88.6319M82.2583 85.7972L85.4456 83.0704L97.2887 83.2212M65.7195 88.6319L61.0741 91.9696M65.7195 88.6319L57.4644 83.8091L52.7884 81.1715L47.4328 82.6244M61.0741 91.9696L50.0159 99.915M61.0741 91.9696L47.4328 82.6244M61.0741 91.9696L88.6251 92.381M50.0159 99.915L43.3639 104.695L27.0321 102.593M50.0159 99.915L34.6916 99.6569M50.0159 99.915L81.0046 100.437L88.6251 92.381M27.0321 102.593L10.8273 102.418M27.0321 102.593L34.6916 99.6569M0.929879 109.494L0.82358 109.552M0.929879 109.494L0.82358 109.491M0.929879 109.494L10.8273 102.418M232.262 39.8185L235.277 47.0492L237.551 63.0541M232.262 39.8185L225.959 39.0681M232.262 39.8185L229.449 30.8464L225.959 39.0681M42.0441 37.7127L40.5487 32.7194M40.5487 32.7194L32.2805 5.10839M40.5487 32.7194L46.5795 31.6227M32.2805 5.10839L22.2657 0.908691M32.2805 5.10839L27.2502 6.84961L16.8148 8.16301L10.8712 13.3675L4.16893 22.8937M209.474 84.1741L206.944 71.3408L194.48 75.0632M209.474 84.1741L205.894 86.6504M209.474 84.1741L218.087 78.2187M21.763 10.9081L27.249 6.84961L37.7375 32.9025M21.763 10.9081L10.87 13.3675M21.763 10.9081L32.7136 28.3195L37.7375 32.9025M10.87 13.3675L4.29252 23.0011L0.623047 26.5573V122.403M10.87 13.3675L7.48429 25.0825M235.588 63.2961L237.551 63.0541M235.588 63.2961L225.438 70.9954L222.143 71.9173M174.36 71.7322L164.866 71.6387L164.258 70.0887M174.36 71.7322L179.028 71.7781M174.36 71.7322L173.403 70.1754M4.37696 63.8848L12.869 68.9644L0.82358 49.231M4.37696 63.8848L0.82358 70.0182M4.37696 63.8848L0.82358 56.7316M4.37696 63.8848L19.4788 84.2004M245.786 62.0393L237.551 63.0541M245.786 62.0393L249.875 72.3894M232.297 22.4387L234.995 33.4206M232.297 22.4387L240.276 28.1734L246.393 34.9672M232.297 22.4387L227.086 24.6864M234.995 33.4206L229.447 30.8468L226.815 32.9634M234.995 33.4206L238.023 34.8265L241.053 32.3702M259.173 80.2857L263.233 79.5642M259.173 80.2857L263.233 82.1521M259.173 80.2857L247.546 76.0793L244.504 77.1152M259.173 80.2857L254.319 70.9109L253.541 71.2758L249.872 72.389L239.239 71.3059M78.6677 53.6106L75.8642 59.0129L72.8254 66.3894M78.6677 53.6106L73.9233 46.1045M78.6677 53.6106L80.5678 55.8358M72.8254 66.3894L69.5204 76.6217M72.8254 66.3894L62.6155 64.3826L52.4545 49.3438M72.8254 66.3894L83.0858 74.9385M239.239 71.3059L231.015 74.7869M239.239 71.3059L235.587 63.2961M239.239 71.3059L243.024 77.6186M58.2362 75.2331L65.9121 80.3224L77.0963 80.4579M77.0963 80.4579L88.3401 80.5943M77.0963 80.4579L73.6701 82.9204M77.0963 80.4579L80.223 78.2124L83.0858 74.9385M88.3401 80.5943L90.979 78.3367L112.658 78.5879M88.3401 80.5943L85.447 83.0704L73.6701 82.9204M88.3401 80.5943L111.009 80.8696L112.658 78.5879M112.658 78.5879L114.167 76.4998M112.658 78.5879L134.56 78.8424M114.167 76.4998L103.757 74.3371L93.396 74.2152L83.0858 74.9385M114.167 76.4998L115.555 74.5817L125.594 74.6883L135.681 74.7189L145.816 74.8168L156 74.001L165.315 73.4795M114.167 76.4998L135.144 76.7326M135.144 76.7326L145.711 76.8304M135.144 76.7326L134.56 78.8424M135.144 76.7326L135.68 74.7194L136.174 72.9244M145.711 76.8304L156.329 75.5308M145.711 76.8304L145.333 83.7964M145.711 76.8304L145.912 72.9713M156.329 75.5308L165.315 73.4795M156.329 75.5308L155.998 74.0013L155.694 72.2842M156.329 75.5308L156.689 78.4007M165.315 73.4795L165.83 73.362M58.8902 73.9704L62.6134 64.3829L66.0555 52.1923M66.0555 52.1923L69.2316 38.6846M66.0555 52.1923L75.8633 59.0126L85.7163 67.9969L94.6927 70.9485L95.6405 71.1051L96.0919 71.3119M66.0555 52.1923L56.2945 28.3171M222.415 122.498L215.074 117.386L209.137 113.89M27.1076 88.247L19.4807 84.2004M225.959 39.0681L224.231 38.8623M181.101 60.9633L175.564 57.9448L168.269 61.8243M16.8138 8.16322L22.2645 0.908691M193.958 41.236L194.119 41.3583M193.958 41.236L197.932 32.6113L197.026 26.063L199.398 30.5339M193.958 41.236L192.504 40.1395M201.97 18.0715L202.759 27.938M201.97 18.0715L205.032 20.938M201.97 18.0715L204.919 20.9032M201.97 18.0715L198.023 16.561M169.508 62.8084L177.258 63.9028L180.576 61.3647M180.576 61.3647L176.385 60.6203L168.927 62.7855M180.576 61.3647L182.572 59.8372M79.2116 54.2483L80.6817 55.4011L87.8924 62.1726L95.1278 62.2286M95.1278 62.2286L93.5089 63.232L86.8356 63.1784M95.1278 62.2286L116.983 62.3986M95.1278 62.2286L98.0944 60.392M116.983 62.3986L115.007 64.4892M131.679 62.5128L139.066 62.5702M131.679 62.5128L132.16 61.5524M131.679 62.5128L130.628 64.6181M139.066 62.5702L146.477 62.5689M139.066 62.5702L138.783 63.5945M139.066 62.5702L139.333 61.6063M146.477 62.5689L146.422 63.6556L146.363 64.7484M146.477 62.5689L146.53 61.6095M161.784 62.5037L168.856 62.7823M161.784 62.5037L162.216 64.8113M168.856 62.7823L168.266 61.8246M168.856 62.7823L168.925 62.7859L169.506 62.8086L170.186 64.0964M114.997 27.4282L115.472 29.1144M114.997 27.4282L114.506 30.0296L114.001 30.862L113.668 35.6374M114.997 27.4282L115.748 30.2418M115.472 29.1144L115.748 30.2418M115.472 29.1144L118.663 37.9261L121.825 40.5878L121.939 40.6807L122.195 40.9203L125.533 43.9791M182.572 59.8372L185.036 57.953M182.572 59.8372L181.898 55.2613M185.036 57.953L185.146 57.9016M185.036 57.953L186.216 64.5762L187.476 66.265M185.146 57.9016L188.102 56.5227M185.146 57.9016L181.898 55.2613M188.102 56.5227L188.844 56.1765M188.102 56.5227L187.901 55.541M188.844 56.1765L187.901 55.541M188.844 56.1765L192.314 54.5581M234.663 77.8369L242.139 77.9194M234.663 77.8369L236.895 79.7046L242.139 77.9194M242.139 77.9194L243.024 77.6186M181.29 45.4002L181.23 45.3548L178.461 43.2383L179.252 45.6538L180.086 48.0198M181.29 45.4002L184.859 48.1277M181.29 45.4002L181.161 43.9146M184.859 48.1277L185.868 50.4134M186.857 48.9679L190.991 49.45M186.857 48.9679L191.276 50.8256M191.276 50.8256L191.801 52.3023M191.276 50.8256L193.533 52.3144M182.31 92.9033L175.038 94.8197M175.038 94.8197L159.774 96.6972L144.617 97.096L114.623 96.6347M243.024 77.6186L244.502 77.1149L251.687 72.5742L253.54 71.2758L254.317 70.9109L263.232 76.7135M263.234 95.6607L259.988 87.6296L263.234 90.7013M216.315 25.1573L221.785 20.1483L222.035 19.9182M192.821 87.8625L185.794 88.3446M192.821 87.8625L187.701 90.3178M192.821 87.8625L193.173 87.6929M185.794 88.3446L172.115 90.1327M185.794 88.3446L183.845 87.1558L182.089 79.4961M185.794 88.3446L187.701 90.3178M172.115 90.1327L170.88 86.9828L169.767 81.9628L168.76 80.7632M172.115 90.1327L118.253 89.3729M118.253 89.3729L78.7323 88.8153L74.8063 92.1744L70.4105 95.9173M118.253 89.3729L122.435 81.0082L145.472 81.2877L157.084 81.1003L168.76 80.7632M247.547 76.0793L252.295 82.5835M252.295 82.5835L263.234 82.7161M252.295 82.5835L240.163 82.4365L236.897 79.7051M252.295 82.5835L257.522 85.26L263.234 85.3327M106.029 33.2703L106.659 23.6638L108.842 26.4458M106.029 33.2703L105.53 41.9874M106.029 33.2703L102.897 27.5031L102.31 26.7476M106.029 33.2703L109.753 36.4585L111.544 37.3434M257.593 98.262L263.233 103.045M185.868 50.4134L186.158 50.6265L186.832 50.9162L186.985 50.9585M185.868 50.4134L186.826 50.8912M185.868 50.4134L180.086 48.0198M176.886 44.9984L176.75 44.9454M176.75 44.9454L172.816 43.4231M176.75 44.9454L176.264 40.0418M172.816 43.4231L173.337 47.4541L173.501 48.7851M172.816 43.4231L168.414 47.8837L168.045 47.9159L167.177 48.0073M167.177 48.0073L162.766 48.4721M167.177 48.0073L166.864 46.1393L166.501 39.6162M162.766 48.4721L163.056 51.6064M147.035 52.2973L141.915 52.2818M147.035 52.2973L147.009 52.7936M141.915 52.2818L136.808 52.2275M141.915 52.2818L141.782 52.7624M141.915 52.2818L142.045 51.7096M136.808 52.2275L136.568 52.6936M136.808 52.2275L137.041 50.8628M121.56 45.7989L116.501 47.2327L115.836 48.1534L115.142 53.1217M121.56 45.7989L122.098 43.9167M121.56 45.7989L121.001 50.4735M115.142 53.1217L120.417 53.1509L121.001 50.4735M115.142 53.1217L109.883 53.0916M115.142 53.1217L113.662 54.1851M113.662 54.1851L112.871 54.3783L112.044 55.3479L106.296 54.4722L105.292 55.9343M113.662 54.1851L112.088 54.1758M113.662 54.1851L124.693 54.2495M105.292 55.9343L100.221 55.9024M105.292 55.9343L98.0944 60.392M105.292 55.9343L117.077 56.0081M98.0944 60.392L94.647 60.095M98.0944 60.392L104.954 60.442L107.248 58.7938L113.768 58.8389M203.368 114.056L199.949 106.844L196.323 91.2232L193.173 87.6929M193.173 87.6929L202.714 87.4959M42.5814 38.3148L46.5795 31.6227M46.5795 31.6227L47.9842 31.1449M47.9842 31.1449L48.3446 29.2363M47.9842 31.1449L56.0749 28.393M56.0749 28.393L56.2958 28.3177M56.0749 28.393L55.561 27.9844L50.8523 28.039L46.1536 27.3464M56.2958 28.3177L59.8411 28.2056L65.2772 34.2708M56.2958 28.3177L52.4545 49.3438M65.2772 34.2708L65.8139 34.8696M65.2772 34.2708L66.7097 32.0693M65.8139 34.8696L66.1493 35.2439M65.8139 34.8696L66.7097 32.0693M66.1493 35.2439L69.1404 32.3272M66.1493 35.2439L67.9132 37.2117M67.9132 37.2117L68.1608 37.488M67.9132 37.2117L68.6717 35.1528M68.1608 37.488L69.2335 38.6849L73.9233 46.1045M68.1608 37.488L68.6733 35.1532L70.564 34.1332M73.9233 46.1045L75.6276 31.4449L75.6338 31.3992M80.5678 55.8358L80.6839 55.4013L82.6179 41.5312M80.5678 55.8358L86.5865 62.8848M86.5865 62.8848L87.8938 62.1726L89.6253 57.1204M86.5865 62.8848L88.1451 64.71M88.1451 64.71L85.7176 67.9971L83.0858 74.9385M88.1451 64.71L95.667 70.9588L99.5593 70.9969M99.5593 70.9969L101.317 69.493M99.5593 70.9969L98.7927 71.6525M99.5593 70.9969L118.015 71.178L127.303 70.9683L136.632 71.2205M101.317 69.493L110.196 69.5766L119.111 69.104L128.065 69.7458L137.056 69.8014M101.317 69.493L96.7498 69.4492M101.317 69.493L104.478 66.7886M104.478 66.7886L105.904 65.5684M104.478 66.7886L96.2241 66.7152M104.478 66.7886L137.817 67.0825M105.904 65.5684L97.9154 65.5002M105.904 65.5684L107.239 64.4247M105.904 65.5684L138.161 65.8441M138.161 65.8441L137.817 67.0825M138.161 65.8441L138.481 64.6831M138.161 65.8441L162.677 66.0532M162.677 66.0532L170.911 66.1235M162.677 66.0532L162.216 64.8113M162.677 66.0532L163.168 67.3064M170.911 66.1235L170.186 64.0964M170.911 66.1235L171.685 67.3815M170.911 66.1235L187.476 66.265M187.476 66.265L191.492 66.2993M187.476 66.265L188.493 67.2239M155.694 72.2842L145.912 72.9713M145.912 72.9713L136.174 72.9244M145.912 72.9713L146.001 71.3296L146.161 68.4884M136.174 72.9244L126.481 72.9121M136.174 72.9244L136.632 71.2205M126.481 72.9121L127.302 70.9685L128.063 69.7462L128.772 68.3289M126.481 72.9121L122.433 81.0085L111.008 80.8699L109.198 83.3728M107.226 72.7153L111.524 68.1713M195.342 31.8614L194.812 23.7298M194.812 23.7298L194.082 20.1782M194.812 23.7298L198.817 24.2831M194.812 23.7298L190.815 30.2901M194.082 20.1782L197.253 16.5676M194.082 20.1782L196.705 17.7701M194.082 20.1782L190.148 28.4231M97.5867 37.9141L96.6491 42.2662L95.676 50.2354M97.5867 37.9141L94.6189 41.2648M97.5867 37.9141L100.942 39.5119M95.676 50.2354L100.302 50.3225M95.676 50.2354L91.0601 49.9574M102.798 27.6036L102.31 26.7476M102.31 26.7476L98.5988 30.8515M88.3754 44.479L87.6359 45.3579M255.988 32.2134L250.919 36.5549M255.988 32.2134L258.18 40.1864M255.988 32.2134L253.882 27.7183L248.916 37.7241L248.719 37.9017M250.919 36.5549L249.382 39.1798M250.919 36.5549L253.005 36.9734M250.919 36.5549L248.913 37.7242L248.216 36.5197L247.847 35.8842L246.987 34.3984M199.398 30.5339L198.817 24.2831M35.7117 34.9909L32.7122 28.3193L31.8763 29.3555M249.154 44.1859L248.499 37.9678L248.284 37.0674M216.101 71.4814L218.087 78.2187M218.087 78.2187L221.489 75.8673M253.005 36.9734L258.179 40.186L259.584 47.7357M253.005 36.9734L250.291 40.922M90.3213 35.2944L90.0089 35.8592M90.3213 35.2944L94.8933 33.2032L97.0324 31.8449M90.3213 35.2944L89.4194 38.7168M90.3213 35.2944L93.8786 35.4119M90.0089 35.8592L88.3477 39.1415L87.3548 41.0772M90.0089 35.8592L87.8792 39.3272L85.9392 42.5296L84.4436 40.0347L81.6105 40.0707M87.3548 41.0772L89.4194 38.7168M87.3548 41.0772L85.9979 42.6277M171.813 44.3685L171.377 37.5915L170.934 32.7319M170.934 32.7319L173.589 31.1229M170.934 32.7319L175.209 28.8604M170.934 32.7319L166.152 37.0561M179.915 30.4631L175.727 29.8274M179.915 30.4631L180.53 30.5566M179.915 30.4631L175.209 28.8604M175.727 29.8274L173.589 31.1229M175.727 29.8274L176.264 40.0418M175.727 29.8274L175.209 28.8604M173.589 31.1229L175.21 28.8604M226.815 32.9634L224.349 25.8672M224.349 25.8672L222.033 19.9182M224.349 25.8672L227.086 24.6864M224.349 25.8672L216.43 25.271L212.791 21.7328M222.033 19.9182L227.086 24.6864M222.033 19.9182L219.854 20.2123L212.409 20.4607M95.4022 35.699L94.9866 35.9165M95.4022 35.699L95.0462 38.8973M95.4022 35.699L95.7078 36.3105M94.9866 35.9165L93.4638 36.7133M94.9866 35.9165L94.0757 35.4184M93.4638 36.7133L91.4622 37.7607L91.3893 37.9361L89.019 43.6187M93.4638 36.7133L94.0757 35.4184M98.5988 30.8515L97.8575 37.2933M98.5988 30.8515L97.5735 31.5015M199.457 87.1776L196.888 81.6205L194.48 75.0632M194.48 75.0632L192.3 71.3411L190.317 66.3887L179.049 74.5944L167.84 78.5683L156.689 78.4007M194.48 75.0632L183.658 78.9346M116.486 36.4737L114.003 30.8621L113.269 30.2197M116.486 36.4737L117.186 36.6816M116.486 36.4737L113.669 35.6376L112.828 35.5574L111.544 37.3434M113.269 30.2197L112.841 30.0642L110.329 28.3379M113.269 30.2197L113.497 30.0503L114.508 30.0293L118.136 37.3124L118.377 37.6831M117.077 56.0081L117.808 55.3833M117.077 56.0081L116.311 56.6639M140.842 56.1571L146.825 56.1093M140.842 56.1571L140.659 56.8204M140.842 56.1571L141.018 55.5255L141.185 54.9228M146.825 56.1093L146.789 56.8477L146.712 58.2932M146.825 56.1093L146.859 55.5512L146.892 54.9566L146.953 53.8275L146.981 53.2806L147.009 52.7936M146.825 56.1093L152.672 55.1162M240.161 82.436L244.765 85.0973M244.765 85.0973L257.521 85.2596L263.233 88.1849M244.765 85.0973L255.489 91.2964M255.489 91.2964L259.986 87.6296M156.689 78.4007L157.082 81.1004L157.515 83.9875M156.689 78.4007L145.596 78.9613L134.56 78.8424M157.515 83.9875L145.333 83.7964M157.515 83.9875L169.765 81.9625L180.125 79.889M167.002 73.0947L167.841 78.5681L168.76 80.7632M168.76 80.7632L173.746 81.1664M198.817 24.2831L198.023 16.561M198.023 16.561L197.253 16.5676M198.023 16.561L196.705 17.7701M156.557 53.8708L152.471 54.0416L146.954 53.8277L141.497 53.7966M141.497 53.7966L136.054 53.4308M141.497 53.7966L141.642 53.2226L141.782 52.7624M141.497 53.7966L141.185 54.9228M136.054 53.4308L130.625 53.2297L125.209 53.7034M136.054 53.4308L136.316 52.846L136.568 52.6936M125.209 53.7034L124.693 54.2495M125.209 53.7034L119.808 53.6721M124.693 54.2495L124.153 54.8209M124.153 54.8209L123.587 55.4188L117.808 55.3833M124.153 54.8209L118.506 54.7869M124.153 54.8209L135.493 54.8883M117.808 55.3833L118.506 54.7869M117.808 55.3833L112.045 55.3478L110.268 56.6251M116.311 56.6639L115.506 57.3526L109.312 57.3118M116.311 56.6639L110.268 56.6251M116.311 56.6639L122.373 56.703M109.312 57.3118L110.268 56.6251M109.312 57.3118L108.307 58.0338M109.312 57.3118L98.2323 57.2386M154.191 51.8926L152.249 52.23L147.009 52.7936M147.009 52.7936L141.782 52.7624M141.782 52.7624L136.568 52.6936M136.568 52.6936L131.366 51.9442L126.177 50.9094L121.001 50.4735M121.001 50.4735L115.837 48.1528L110.686 51.707M110.686 51.707L109.883 53.0916M110.686 51.707L111.456 50.007M110.686 51.707L105.547 52.5668M109.883 53.0916L109.451 53.359M109.883 53.0916L104.635 52.7237M104.635 52.7237L99.4008 53.0329L94.5515 53.0059M104.635 52.7237L103.786 53.302M104.635 52.7237L105.547 52.5668M201.642 65.522L201.902 65.803L208.332 69.2523L211.839 71.2085M91.6241 52.0119L96.3873 52.0373M96.3873 52.0373L101.398 52.0643M96.3873 52.0373L94.3434 52.9319M96.3873 52.0373L98.4219 51.1463M101.398 52.0643L106.421 52.091M101.398 52.0643L102.338 51.6086M101.398 52.0643L100.421 52.5388M106.421 52.091L107.182 51.7214M106.421 52.091L105.547 52.5668M107.182 51.7214L108.577 51.1986L111.456 50.007M107.182 51.7214L108.75 49.9698L108.757 49.9625L112.195 46.1224M111.456 50.007L112.195 46.1224M111.456 50.007L116.502 47.2325L117.141 43.2612M117.141 43.2612L116.328 43.7318M117.141 43.2612L122.099 43.9169L123.247 43.9377M70.3113 28.6615L75.0022 28.092M106.657 23.6638L102.994 27.4023M91.3696 37.9441L89.4194 38.7168M89.4194 38.7168L88.4892 43.2278M182.186 70.2587L173.403 70.1754M173.403 70.1754L164.258 70.0887M173.403 70.1754L172.513 68.7291M164.258 70.0887L155.152 70.0025L146.085 69.847L137.056 69.8014M164.258 70.0887L163.693 68.6486M137.056 69.8014L136.632 71.2205M137.056 69.8014L137.449 68.4089M187.869 67.5245L171.685 67.3815M171.685 67.3815L163.168 67.3064M171.685 67.3815L172.513 68.7291M163.168 67.3064L163.693 68.6486M163.168 67.3064L137.817 67.0825M137.817 67.0825L137.449 68.4089M96.2241 66.7152L91.714 66.6755M96.2241 66.7152L97.9154 65.5002M96.2241 66.7152L94.4139 68.0148M105.542 21.2141L103.304 26.0428M105.542 21.2141L105.195 24.7016M105.542 21.2141L109.001 24.4775M147.211 49.0487L151.585 48.572M147.211 49.0487L147.191 49.4048L147.172 49.7739L147.151 50.1173L147.129 50.421M147.211 49.0487L147.229 48.6786L147.247 48.3683L147.265 48.0403L147.281 47.7426L147.297 47.4401L147.313 47.152L147.343 46.5984L147.357 46.334M151.585 48.572L151.626 48.3928L153.341 48.1328M151.585 48.572L151.675 49.0275M151.585 48.572L151.5 48.3923L147.239 48.5237L142.912 48.6625M180.53 30.5566L184.555 32.7261L186.222 31.6503M180.53 30.5566L181.362 31.1695M180.53 30.5566L181.161 43.9146M219.266 35.5983L218.636 30.0272L216.431 25.2712M147.232 48.6784L151.588 48.5717L152.787 48.4875M209.685 87.3518L202.714 87.4959M209.685 87.3518L205.894 86.6504M202.714 87.4959L205.894 86.6504M180.125 79.889L182.087 79.4962L183.658 78.9346M151.803 49.4857L151.793 49.305L151.675 49.0275M151.675 49.0275L152.262 48.8221M142.912 48.6625L142.817 49.0193L142.719 49.3839L142.617 49.7526L142.511 50.0845L142.401 50.3862L142.287 50.7412L142.168 51.2172M142.912 48.6625L143.004 48.3544M197.253 16.5676L196.705 17.7701M143.004 48.3544L147.257 48.2044L151.42 47.9156L153.907 47.771L154.533 47.4472M143.004 48.3544L143.178 47.7251L143.261 47.3997L143.341 47.1356L143.419 46.855M190.991 49.45L190.167 40.9008M190.991 49.45L191.618 51.0436M87.7633 64.2639L107.239 64.4247M107.239 64.4247L115.007 64.4892M107.239 64.4247L108.494 63.3518M115.007 64.4892L111.524 68.1713M130.628 64.6181L138.481 64.6831M130.628 64.6181L128.772 68.3289M138.481 64.6831L146.363 64.7484M138.481 64.6831L138.783 63.5945M146.363 64.7484L146.161 68.4884M162.216 64.8113L170.186 64.0964M170.186 64.0964L178.185 65.0117M176.264 40.0418L171.376 37.5913L166.501 39.6162M176.264 40.0418L181.161 43.9146M75.6338 31.3992L75.6044 31.4152L70.564 34.1332M75.6338 31.3992L82.6179 41.5312M82.6179 41.5312L84.4448 40.0347M82.6179 41.5312L89.6253 57.1204M89.6253 57.1204L96.6556 61.2842L103.71 61.3377M103.71 61.3377L110.787 61.3909M103.71 61.3377L104.955 60.4419L111.836 60.4927M103.71 61.3377L100.989 63.2914M110.787 61.3909L117.888 61.4447L118.74 60.5434M110.787 61.3909L111.836 60.4927M110.787 61.3909L108.494 63.3518M118.74 60.5434L119.546 59.691L146.627 59.8841L153.452 59.8143L160.297 59.5694M118.74 60.5434L111.836 60.4927M118.74 60.5434L160.638 60.8507M160.638 60.8507L167.701 59.4458L174.788 55.6073L181.898 55.2613M160.638 60.8507L160.297 59.5694M160.638 60.8507L161.311 62.5671M181.898 55.2613L180.967 53.5124M90.8275 50.683L99.3805 50.7264M99.3805 50.7264L104.105 50.7502M99.3805 50.7264L98.4219 51.1463M99.3805 50.7264L100.302 50.3225M104.105 50.7502L104.94 50.3454M104.105 50.7502L103.238 51.1712M104.105 50.7502L107.7 50.7687M104.94 50.3454L108.45 49.9934M104.94 50.3454L105.743 49.9557L106.518 48.6894M104.94 50.3454L100.302 50.3225M206.081 21.9928L205.919 21.8467M205.919 21.8467L205.032 20.938M205.032 20.938L204.919 20.9032M147.357 46.334L151.155 46.3483M147.357 46.334L147.371 46.0779L147.41 45.3525L147.422 45.0792L147.434 44.8869L147.446 44.6343L147.457 44.4038M185.666 48.4676L181.161 43.9146M166.501 39.6162L166.152 37.0561M166.501 39.6162L161.636 44.0638L156.782 47.6598M156.782 47.6598L156.62 46.3714L156.454 46.1391L156.461 46.1135M156.782 47.6598L156.952 49.0009M45.7525 49.9457L48.2789 46.3896M48.2789 46.3896L52.4545 49.3438M48.2789 46.3896L37.7375 32.9025M69.1404 32.3272L70.3102 28.6614M69.1404 32.3272L68.8476 35.058M70.3102 28.6614L66.7097 32.0693M70.3102 28.6614L73.9168 29.3816M180.967 53.5124L180.086 48.0198M180.967 53.5124L174.055 53.5017L167.527 55.3592M180.967 53.5124L187.901 55.541M180.086 48.0198L173.361 50.8508L167.896 55.0726M119.808 53.6721L119.172 54.217L118.506 54.7869M119.808 53.6721L120.418 53.151L125.705 52.5968M119.808 53.6721L110.787 53.6211M140.157 45.5602L143.742 45.6923L147.393 45.7085L154.621 45.4977L155.966 45.2241M140.157 45.5602L140.273 45.1125M140.157 45.5602L139.653 46.567M155.966 45.2241L154.714 45.7365L151.092 45.9678M155.966 45.2241L158.309 44.5184L158.572 44.3576M192.504 40.1395L194.123 36.0535M192.504 40.1395L191.683 39.5201M143.84 45.2913L147.412 45.3518L154.575 45.3794M60.3895 83.153L61.9586 82.7714L73.6701 82.9204M133.221 83.6456L133.921 81.1478L134.56 78.8424M133.221 83.6456L121.175 83.5246L109.198 83.3728M133.221 83.6456L145.333 83.7964M136.632 71.2205L146.002 71.3296L155.413 70.655M137.449 68.4089L146.161 68.4884M137.449 68.4089L128.772 68.3289M138.783 63.5945L146.423 63.6556L154.091 63.532L160.065 62.7339M138.783 63.5945L108.494 63.3518M139.333 61.6063L132.16 61.5524M139.333 61.6063L146.53 61.6095M139.333 61.6063L140.049 59.0218M140.049 59.0218L140.263 58.2499M140.049 59.0218L133.448 58.9758M140.049 59.0218L146.67 59.0674M140.263 58.2499L140.466 57.5172M140.263 58.2499L133.833 58.2063L133.448 58.9758M140.263 58.2499L146.712 58.2932M140.466 57.5172L140.659 56.8204M140.466 57.5172L146.752 57.5584L153.057 57.1163L159.38 54.4672M140.466 57.5172L121.72 57.3936M140.659 56.8204L146.79 56.8481L152.938 55.8566L157.642 53.8738L157.889 53.6967L158.842 53.3492L159.104 53.2576L159.38 54.4672M140.659 56.8204L122.373 56.703M141.185 54.9228L146.893 54.9566L152.616 54.762L153.777 54.8152M141.185 54.9228L135.493 54.8883M142.045 51.7096L142.168 51.2172M142.045 51.7096L137.041 50.8628M142.045 51.7096L147.061 51.7564L157.128 50.4503M142.168 51.2172L147.086 51.2687L152.013 50.3071L156.952 49.0009M142.168 51.2172L137.264 49.5992L132.37 46.7557L129.329 45.9004M143.419 46.855L143.495 46.583L143.707 45.8152L143.774 45.57L143.839 45.2917L143.902 45.0586M143.419 46.855L140.293 46.834L139.552 46.7615M143.419 46.855L147.329 46.8699M143.902 45.0586L143.963 44.8255M143.902 45.0586L140.441 44.4643M143.902 45.0586L147.429 44.9829M143.963 44.8255L144.022 44.5747L144.08 44.3762L147.457 44.4038M143.963 44.8255L140.441 44.4643M195.003 45.5477L194.119 41.3583M195.003 45.5477L190.167 40.9008M191.683 39.5201L189.376 37.7787M191.683 39.5201L191.503 36.7556M189.376 37.7787L190.167 40.9008M189.376 37.7787L187.558 35.8563M187.558 35.8563L186.66 34.9061M187.558 35.8563L187.447 34.1807M186.66 34.9061L187.448 34.1805M186.66 34.9061L184.691 32.8241M184.691 32.8241L186.065 32.0765M166.152 37.0561L161.947 40.9366M161.947 40.9366L161.381 41.4599M161.947 40.9366L161.2 41.0313M161.381 41.4599L161.259 41.5857M161.381 41.4599L161.637 44.0639L161.903 47.49M161.259 41.5857L160.034 42.8491M161.259 41.5857L161.2 41.0313M160.034 42.8491L158.986 43.9307M160.034 42.8491L157.887 43.0137M158.986 43.9307L158.572 44.3576M158.986 43.9307L158.023 44.0142M158.572 44.3576L158.327 44.6102M158.327 44.6102L158.32 44.6174L158.301 44.6368L156.992 45.8366L156.565 46.2426L156.464 46.152M158.327 44.6102L158.32 44.6161M156.464 46.152L156.313 46.2334L156.101 46.3689L155.74 46.6321M156.464 46.152L156.16 46.3683L156.021 46.4678L155.74 46.6321M155.74 46.6321L155.412 46.9039L155.206 46.995M155.74 46.6321L155.265 46.9027L155.206 46.995M155.206 46.995L154.826 47.1832M155.206 46.995L155.021 47.1837L154.533 47.4472M154.826 47.1832L154.533 47.4472M154.826 47.1832L151.318 47.2531L147.29 47.5913L143.135 47.8797L138.928 47.8332L134.771 46.3347L130.623 43.6736M154.533 47.4472L154.342 47.7726L153.684 48.2173L152.826 48.6059L152.262 48.8221M152.262 48.8221L152.155 48.8903L151.737 49.1571M161.2 41.0313L157.753 41.9332L157.887 43.0137M161.2 41.0313L161.025 39.605M113.768 58.8389L114.66 58.0767L121.032 58.1198L121.72 57.3936M113.768 58.8389L111.836 60.4927M133.448 58.9758L132.16 61.5524M146.67 59.0674L146.712 58.2932M146.67 59.0674L146.579 60.7475L146.53 61.6095M164.271 56.6843L165.838 56.2544L166.112 56.0908M171.214 44.9331L166.865 46.1395L161.903 47.49M161.903 47.49L156.952 49.0009M161.903 47.49L162.011 48.8811M156.952 49.0009L157.128 50.4503M129.329 45.9004L127.068 44.0066M129.329 45.9004L132.048 48.1792L137.041 50.8628M127.068 44.0066L126.165 43.9906M127.068 44.0066L126.633 47.8264L126.179 50.91L125.705 52.5968M126.165 43.9906L125.533 43.9791M126.165 43.9906L126.483 40.8731M125.533 43.9791L123.42 43.9407M123.42 43.9407L123.247 43.9377M123.42 43.9407L121.629 41.3623M123.247 43.9377L121.629 41.3623M116.328 43.7318L116.639 40.558M116.328 43.7318L112.195 46.1224M105.547 52.5668L100.421 52.5388M100.421 52.5388L91.9127 52.492M100.421 52.5388L98.3381 53.5494M147.457 44.4038L150.841 44.1019M150.841 44.1019L154.229 43.1486M150.841 44.1019L150.877 44.3922L150.913 44.9082M154.229 43.1486L157.322 42.1284M154.229 43.1486L154.312 43.4931L154.397 44.5345L154.484 44.9199L154.573 45.3799L155.189 46.951M91.7534 57.9422L92.805 53.9807M246.987 34.3984L250.201 35.1323M246.987 34.3984L246.393 34.9672M136.918 45.7891L139.973 45.9248L147.35 46.4663L151.177 46.4815L154.908 46.2358L156.461 46.1135M156.461 46.1135L156.803 45.8384M147.129 50.421L142.454 50.2353L141.073 49.9968M166.112 56.0908L165.721 52.2428M166.112 56.0908L167.163 55.4617M165.721 52.2428L165.287 50.6748M165.721 52.2428L159.38 54.4672M165.721 52.2428L172.081 50.3744L172.267 50.2173L172.705 49.8015M134.015 44.1266L137.035 44.0406M137.035 44.0406L140.441 44.4643M137.035 44.0406L137.19 42.8989L137.341 42.6584M137.035 44.0406L136.876 44.4921M140.441 44.4643L136.876 44.4921M147.429 44.9829L150.913 44.9082M147.429 44.9829L143.993 44.6998L140.605 43.8134M147.429 44.9829L150.951 45.1388M150.913 44.9082L154.441 44.7275M150.913 44.9082L150.951 45.1388M154.441 44.7275L158.023 44.0142M154.441 44.7275L150.951 45.1388M154.441 44.7275L157.887 43.0137M158.023 44.0142L157.887 43.0137M158.023 44.0142L158.207 44.549L158.32 44.6161M110.329 28.3379L109.754 36.4585L109.535 40.1402M110.329 28.3379L108.842 26.4458M187.448 34.1805L186.825 31.6621L186.065 32.0765M187.448 34.1805L191.503 36.7556M191.503 36.7556L194.204 35.7781M191.503 36.7556L190.815 30.2901M92.1188 40.031L96.6511 42.2664L101.193 47.2492L105.744 49.9557L108.475 49.9689M260.556 73.8708L262.513 74.3025M260.556 73.8708L261.034 74.2873L263.234 76.2109M260.556 73.8708L258.408 73.573M262.513 74.3025L263.233 74.3098M262.513 74.3025L263.233 74.4611M102.048 40.0388L102.873 40.9691L103.718 42.4377M102.048 40.0388L100.942 39.5119M102.048 40.0388L106.518 48.6894M106.518 48.6894L109.186 49.2325M106.518 48.6894L107.287 48.4201L107.984 42.9293M263.232 88.2182L260.571 88.1826M95.6516 55.6896L98.2316 55.564L104.241 56.5865L110.268 56.6251M122.373 56.703L121.72 57.3936M122.373 56.703L123.588 55.4188L135.193 55.4896L135.493 54.8883M73.9168 29.3816L75.001 28.092L78.222 33.936L78.7149 34.4192L82.1295 36.3825M73.9168 29.3816L73.4467 32.5776M73.9168 29.3816L75.6027 31.4145M91.0824 51.1087L98.4219 51.1463M98.4219 51.1463L103.238 51.1712M103.238 51.1712L102.338 51.6086M103.238 51.1712L107.291 51.1917M83.479 39.0886L82.1295 36.3825M82.1295 36.3825L83.0956 38.7129M82.1295 36.3825L79.1704 34.8655M82.1295 36.3825L81.7023 37.3481M117.186 36.6816L116.639 40.558M117.186 36.6816L120.715 40.3428L120.98 40.3287L121.371 40.9179L121.925 40.6685L122.35 40.919L126.483 40.8731M116.639 40.558L120.848 40.3355L121.104 40.6773L121.358 40.9296L121.629 41.3623M116.639 40.558L112.307 39.6699L107.984 42.9293M135.493 54.8883L135.781 54.3144L146.925 54.3795L152.472 54.0415L156.558 53.8708L157.25 53.8101M118.506 54.7869L112.874 54.378L107.256 52.928M108.307 58.0338L114.661 58.0768L115.507 57.3526L121.72 57.3936M108.307 58.0338L107.25 58.7942L98.4853 58.7331M108.307 58.0338L99.458 57.9738M126.483 40.8731L126.841 39.2864L131.195 41.7707L130.914 42.8367L130.623 43.6736M126.483 40.8731L130.623 43.6736M140.204 49.7406L142.565 49.9184L147.142 50.2691L148.625 50.2797L151.906 49.5581L153.604 48.3538M66.7097 32.0693L62.9909 31.7204M137.565 46.0396L139.849 46.1764L147.338 46.7347L151.224 46.7503L155.012 46.4969L156.102 46.369M186.065 32.0765L186.222 31.6503M106.866 51.6322L102.338 51.6086M102.338 51.6086L92.5252 51.5568M98.3381 53.5494L96.0339 53.5365M98.3381 53.5494L97.3758 54.0164M98.3381 53.5494L102.914 53.3962M113.698 29.7015L114.999 27.4282L112.346 29.1543L112.009 29.0181M259.584 47.7357L258.766 48.9806M259.584 47.7357L263.233 42.1958M190.815 30.2901L190.148 28.4231M208.331 69.2521L210.37 68.9194M210.37 68.9194L212.096 71.2246M136.876 44.4921L134.855 44.8275M136.876 44.4921L136.712 45.3136M134.855 44.8275L135.103 45.2596M134.855 44.8275L133.692 43.8554M93.8786 35.4119L93.9158 35.331L94.8943 33.2036L94.0757 35.4184M93.8786 35.4119L94.0757 35.4184M70.564 34.1332L69.1418 32.3274M151.447 48.0708L153.425 48.0786M151.447 48.0708L151.394 47.7603L151.343 47.3375L151.294 47.1689L151.029 45.6018L150.989 45.3672L150.951 45.1388M151.447 48.0708L151.529 48.3978L151.615 48.7405M153.425 48.0786L153.342 48.1326L152.828 48.6058L151.794 49.3047L149.816 49.4172L147.183 49.5892L142.769 49.2015L138.518 48.8222M153.425 48.0786L153.838 47.9259L154.343 47.7725L154.961 47.4615L156.221 46.6339L156.566 46.2425L156.993 45.8364L158.302 44.6367M95.7078 36.3105L97.5213 37.3018M95.7078 36.3105L96.6812 38.2645M167.163 55.4617L167.699 59.4454L168.266 61.8246M167.163 55.4617L167.525 55.3589L167.866 55.0171L170.579 52.0542L172.135 50.4045L172.266 50.2171L172.447 49.9638L172.681 49.765L173.569 49.2534L179.251 45.6541L185.818 50.3044L186.826 50.8912M106.971 42.5408L108.68 41.3289M108.68 41.3289L107.984 42.9293M108.68 41.3289L111.544 37.3434M168.261 50.3726L168.046 47.9155M100.942 39.5119L101.605 37.1992L97.838 37.474L97.0519 37.3131M198.415 114.199L183.735 110.261L163.493 116.303L143.439 118.619L123.572 118.284L103.888 118.109L101.656 122.498M198.415 114.199L186.869 114.531M204.919 20.9032L205.925 21.87L206.052 22.0447M190.148 28.4231L186.222 31.6503M50.0124 30.0847L50.8503 28.0391M261.543 55.8906L263.234 56.6797M73.4954 29.2975L74.9997 28.092M136.847 48.6403L138.518 48.8222M138.518 48.8222L138.769 48.2885L143.049 48.1942L147.274 47.891L151.369 47.5485L154.42 47.4431M138.518 48.8222L137.696 49.0049M258.766 48.9806L257.441 47.6963M258.766 48.9806L258.306 49.6776M130.623 43.6736L130.434 45.7525M45.1734 29.0149L46.1536 27.3464M157.128 50.4503L158.744 50.646M157.128 50.4503L157.375 51.3393L157.701 52.0427L157.881 53.6268M108.842 26.4458L109.001 24.4775M109.001 24.4775L112.008 29.0181M138.23 46.2976L139.72 46.4354L143.497 46.5825M172.703 49.8015L173.36 50.8512L174.053 53.5016L174.786 55.6072L175.561 57.9453L176.383 60.6204L177.256 63.9029L178.185 65.0117M178.185 65.0117L181.368 68.8104M181.368 68.8104L172.513 68.7291M58.8715 74.0209L57.4528 73.6479M97.5651 54.0843L98.9927 54.0654M98.9927 54.0654L101.653 53.532M98.9927 54.0654L98.0449 54.2557M101.653 53.532L100.567 55.1582M101.653 53.532L102.914 53.3962M258.224 49.5876L257.442 47.6964L256.129 47.1533M163.693 68.6486L172.513 68.7291M121.742 40.5168L122.778 39.5002M122.778 39.5002L126.842 39.2863L129.46 41.5689M122.778 39.5002L121.953 40.6605M122.778 39.5002L122.422 40.6826M129.46 41.5689L131.196 41.7706L132.674 43.005M129.46 41.5689L130.916 42.8368L134.251 44.9281L135.103 45.2596M132.674 43.005L133.491 43.6874L133.512 43.7048M132.674 43.005L133.979 42.9399M133.512 43.7048L133.692 43.8554M133.512 43.7048L133.782 43.625M133.692 43.8554L133.782 43.625M135.103 45.2596L136.233 45.977L136.408 45.8486M135.103 45.2596L135.641 45.3094L136.189 45.5454L136.408 45.8486M136.408 45.8486L136.753 45.7881L138.861 46.6961M136.408 45.8486L136.904 46.2926L139.084 47.3174M138.861 46.6961L139.233 46.8562M138.861 46.6961L139.304 46.8004L143.302 47.2673L147.315 47.152M139.233 46.8562L139.377 46.7441L139.556 46.7553L139.653 46.567M139.233 46.8562L139.084 47.3174M139.653 46.567L138.914 46.5645M140.273 45.1125L140.387 44.6131L140.497 44.3148L140.605 43.8134M140.273 45.1125L143.807 45.4303L147.392 45.7083L151.092 45.9678M140.273 45.1125L136.712 45.3136M140.605 43.8134L140.709 43.6862M140.605 43.8134L137.265 42.7786M140.709 43.6862L144.052 44.475L147.448 44.6341L150.878 44.3919L154.314 43.4933L157.755 41.9328L161.025 39.605M140.709 43.6862L137.265 42.7786M161.025 39.605L164.429 38.2153M164.429 38.2153L164.673 38.4225M164.429 38.2153L164.466 38.6127M133.979 42.9399L136.543 42.7253L137.265 42.7786M133.979 42.9399L133.782 43.625M137.265 42.7786L133.782 43.625M92.3962 53.2971L93.5762 52.6565M93.5762 52.6565L92.9791 54.0851M93.5762 52.6565L98.1573 55.1937L100.567 55.1582M100.567 55.1582L99.8141 55.6466M100.567 55.1582L106.299 54.4718L107.256 52.928M102.914 53.3962L103.786 53.302M103.786 53.302L107.256 52.928M125.705 52.5968L131.005 52.7679L136.318 52.8463L141.644 53.2223L146.984 53.2805L152.336 53.1634L157.703 52.0427L162.373 51.8923M125.705 52.5968L125.211 53.7034M162.373 51.8923L159.106 53.2569L158.986 53.3076L157.891 53.6961L157.251 53.8096L152.828 55.0897L152.719 55.1084L152.674 55.116L146.862 55.5509L141.02 55.525L135.194 55.4891L133.836 58.206L121.034 58.1193L119.547 59.691L99.4602 59.5478L92.8064 53.9803L86.1735 44.3632L85.5899 43.1166L84.4448 40.0347M162.373 51.8923L165.29 50.6746L171.491 50.0443L172.083 50.374L172.257 50.2143L172.684 49.7647L173.504 48.7846L173.51 48.7776L178.462 43.2383M168.917 47.0942L167.829 47.934L167.823 47.9386M158.32 44.6161L156.803 45.8384M156.803 45.8384L154.81 45.9821L151.092 45.9678M263.234 56.865L262.061 56.7253M91.3485 51.5507L92.5252 51.5568M92.5252 51.5568L91.5791 51.9345M92.5252 51.5568L94.6674 50.7023L95.6776 50.2354M212.409 20.4607L212.791 21.7328M212.409 20.4607L212.237 21.1932M212.409 20.4607L212.132 21.0915M212.791 21.7328L212.237 21.1932M97.5735 31.5015L97.3274 31.658L97.282 31.6865L97.0324 31.8449M97.5735 31.5015L97.342 31.5733L97.0324 31.8449M88.4892 43.2278L87.6509 44.0225M88.4892 43.2278L88.7424 43.1304M88.4892 43.2278L88.3031 43.998M87.6509 44.0225L86.3371 43.1933M87.6509 44.0225L88.2929 44.4278L88.9416 43.8048L92.1165 40.031L91.0601 49.9574M135.687 45.3095L136.628 45.43L143.673 45.939L147.373 46.0778L151.092 45.9678M100.302 50.3225L101.191 47.249L102.047 40.0388M135.211 45.1245L134.995 45.3952L134.772 46.3348L134.579 47.5608M112.619 45.8763L111.664 45.7539M115.748 30.2418L116.212 31.9802M111.469 46.8713L111.663 45.7539M96.197 37.2892L97.0519 37.3131M97.0519 37.3131L99.2363 38.6988M187.901 55.541L186.826 50.8912M262.477 57.3989L263.234 57.4399M171.489 50.0447L172.229 50.209M246.393 34.9672L248.282 37.0671L248.497 37.9675L248.62 37.9876L250.742 43.7524M92.2125 52.9929L92.9222 52.9962M159.38 54.4672L159.67 56.5954L159.975 57.8631L160.297 59.5694M160.297 59.5694L165.84 56.2542M96.9616 38.1565L97.0507 37.3135M136.712 45.3136L136.544 45.5463L136.294 45.5455M107.984 42.9293L103.718 42.4377M91.0601 49.9574L90.4171 49.9987M91.0601 49.9574L90.5802 50.2724M121.936 40.6836L121.909 40.6587L121.275 40.7594M139.084 47.3174L143.222 47.5622L147.308 47.2961L155.119 46.7661L155.691 46.6319M139.084 47.3174L138.93 47.833L138.77 48.2885M212.237 21.1932L212.132 21.0915M186.22 31.65L186.823 31.6619L190.813 30.2896M55.3069 28.6528L55.5592 27.9841M89.4482 65.4278L89.957 65.4322M89.957 65.4322L97.9154 65.5002M89.957 65.4322L89.7218 65.5776M89.957 65.4322L93.5107 63.2315L100.989 63.2914M97.9154 65.5002L100.989 63.2914M108.494 63.3518L100.989 63.2914M176.785 95.553L178.778 101.488L181.07 106.323L183.734 110.261L186.869 114.531M186.869 114.531L166.238 122.498M84.4448 40.0347L83.4809 39.0886M111.524 68.1713L94.4139 68.0148M94.4139 68.0148L94.141 68.0125M94.4139 68.0148L94.2985 68.099M138.339 49.1932L138.432 49.0079L138.603 48.6357M10.8273 102.418L19.4788 84.2004M10.8273 102.418L0.82358 88.7859M19.4788 84.2004L34.6916 99.6569M37.7375 32.9025L42.3424 38.7139L52.4545 49.3438M186.826 50.8912L186.983 50.9587L193.383 52.7441M107.266 48.6022L111.665 45.7538L112.309 39.6699L112.93 35.4172L112.729 35.6982M226.41 122.498L212.038 115.336M34.6916 99.6569L41.4408 95.477L47.4328 82.6244M97.2887 83.2212L109.198 83.3728M107.117 48.347L103.718 42.4377M103.305 26.043L102.312 26.7477L101.606 37.1995L103.681 41.2786M168.415 47.8832L173.338 47.4536L174.975 47.1372M116.212 31.9802L117.061 35.1573M116.212 31.9802L118.548 37.8285M90.4411 57.4357L85.6992 43.6805L85.5865 43.1167L84.4423 40.0347M140.296 46.8347L143.344 47.1356M91.0412 41.3118L91.4641 37.7607M120.651 43.7255L120.954 40.5913M98.8855 55.598L98.7757 55.5369L98.1932 55.3787L97.3627 56.7167M50.451 30.3062L48.3457 29.2368L45.9886 30.5243M140.528 50.0818L142.289 50.7408M263.113 122.403H0.89105M263.378 42.0818V122.403" stroke="url(#paint0_linear_317_51)" stroke-linecap="round" stroke-linejoin="round"/>
<defs>
<linearGradient id="paint0_linear_317_51" x1="106.397" y1="83.6842" x2="133.1" y2="-9.83646" gradientUnits="userSpaceOnUse">
<stop stop-color="#FF6D44"/>
<stop offset="0.296875" stop-color="#FFA959"/>
<stop offset="1" stop-color="#E7E7E8"/>
</linearGradient>
</defs>
</svg>
