<svg width="200" height="194" viewBox="0 0 200 194" fill="none" xmlns="http://www.w3.org/2000/svg">
<path d="M139.919 57.8255L139.971 88.9303M139.919 57.8255L151.329 73.3554M139.919 57.8255L128.563 73.358M139.919 57.8255L128.541 42.3356M139.919 57.8255L152.653 60.6991M139.971 88.9303L140.024 120.201M139.971 88.9303L128.563 73.358M139.971 88.9303L151.411 104.544M139.971 88.9303L151.327 73.3554M139.971 88.9303L128.585 104.546M140.024 120.201L151.411 104.544M140.024 120.201L128.608 135.899M140.024 120.201L128.585 104.546M140.024 120.201L152.822 121.96M117.185 57.8282L117.177 88.9327M117.177 88.9327L128.563 73.358M117.177 88.9327L117.169 120.202M117.177 88.9327L128.585 104.546M117.177 88.9327L61.8565 88.9385M128.541 42.3356L128.563 73.358M128.541 42.3356L142.956 45.8494M128.541 42.3356L117.193 26.8877M128.541 42.3356L117.186 57.8283M128.563 73.358L117.186 57.8283M128.563 73.358L128.608 135.899M117.169 120.202L128.608 135.899M117.169 120.202L128.585 104.546M117.169 120.202L117.16 151.639L123.439 172.423M117.169 120.202L98.685 117.211M128.608 135.899L143.135 137.546M128.608 135.899L117.161 151.64M143.135 137.546L157.087 139.129M143.135 137.546L152.822 121.96M143.135 137.546L133.465 153.108M157.087 139.129L170.496 140.649M157.087 139.129L149.056 154.511M157.087 139.129L181.465 92.4383M170.496 140.649L183.393 142.112M170.496 140.649L177.076 125.294M170.496 140.649L163.979 155.855M183.393 142.112L178.278 157.142M183.393 142.112L199.167 95.7619M16.0783 125.395L16.3397 95.7801M16.0783 125.395L22.6092 121.279M16.0783 125.395L15.8148 155.16M16.0783 125.395L12.0062 140.89M16.0783 125.395L12.2763 111.442M16.3397 95.7801L16.6001 66.3137M16.3397 95.7801L12.2763 111.442M16.3397 95.7801L12.545 82.1398M16.6001 66.3137L16.8589 36.9942M16.6001 66.3137L12.545 82.1398M16.6001 66.3137L12.8122 52.9834M16.6001 66.3137L23.0579 67.1251M16.8589 36.9942L23.2806 40.2343M16.8589 36.9942L12.8122 52.9834M16.8589 36.9942L30.2408 29.4983M12.0062 140.89L12.2763 111.442M12.0062 140.89L8.26841 126.888M12.0062 140.89L15.8148 155.16M12.2763 111.442L12.545 82.1398M12.2763 111.442L8.26841 126.888M12.2763 111.442L8.54477 97.749M12.545 82.1398L12.8122 52.9834M12.545 82.1398L8.54477 97.749M12.545 82.1398L8.82033 68.7538M12.8122 52.9834L8.82033 68.7538M8.26841 126.888L8.54477 97.749M8.26841 126.888L4.59968 113.145M8.54477 97.749L8.82033 68.7538M8.54477 97.749L4.59968 113.145M8.54477 97.749L4.88303 84.3093M8.82033 68.7538L4.88303 84.3093M4.59968 113.145L4.88303 84.3093M4.59968 113.145L1 99.655L4.88303 84.3093M98.8393 32.7874L98.7882 60.7937M98.8393 32.7874L80.4677 38.6921M98.8393 32.7874L117.193 26.8877M98.8393 32.7874L72.9563 35.3382M98.7882 60.7937L80.3825 63.7603M98.7882 60.7937L117.186 57.8283M98.7882 60.7937L98.685 117.211M98.685 117.211L98.6331 145.624M98.685 117.211L80.2112 114.221M98.6331 145.624L90.7633 152.557M98.6331 145.624L72.5071 146.625M98.6331 145.624L117.161 151.64M98.6331 145.624L80.1237 139.614M90.7633 152.557L65.0923 153.449M90.7633 152.557L72.5071 146.625M90.7633 152.557L117.161 151.64M90.7633 152.557L96.7027 162.857M65.0923 153.449L40.1186 154.316M65.0923 153.449L72.5071 146.625M65.0923 153.449L73.6476 163.528M65.0923 153.449L47.0999 147.597M40.1186 154.316L15.8148 155.16M40.1186 154.316L47.0999 147.597M40.1186 154.316L51.1528 164.183M40.1186 154.316L22.3837 148.544M22.3837 148.544L22.6092 121.279M22.3837 148.544L29.1269 141.752M22.3837 148.544L47.0999 147.597M22.3837 148.544L15.8148 155.16M22.6092 121.279L22.834 94.1396M22.6092 121.279L29.3176 117.051M22.834 94.1396L23.0579 67.1251M22.834 94.1396L16.3382 95.7801M22.834 94.1396L29.5073 92.4539M23.0579 67.1251L23.2806 40.2343M23.0579 67.1251L29.6964 67.959M23.2806 40.2343L47.7804 37.8193M23.2806 40.2343L40.9306 34.5697L51.9529 27.2377M23.2806 40.2343L29.8847 43.5658M72.5071 146.625L54.2698 140.698M72.5071 146.625L80.125 139.614L80.2112 114.221M72.5071 146.625L47.0999 147.597M54.2698 140.698L36.0519 134.778M54.2698 140.698L80.1237 139.614M54.2698 140.698L47.0999 147.597M54.2698 140.698L61.6344 133.612M54.2698 140.698L29.1269 141.752M36.0519 134.778L36.2091 112.709M36.0519 134.778L61.6344 133.612M36.0519 134.778L29.1269 141.752M36.0519 134.778L43.1641 127.614M80.1237 139.614L61.6344 133.612M47.0999 147.597L29.1269 141.752M36.677 46.9927L62.0756 44.6026L43.6687 50.5194M36.677 46.9927L36.5224 68.8166M36.677 46.9927L43.6687 50.5194M80.4677 38.6921L80.3825 63.7603M80.4677 38.6921L54.8259 41.1627M80.4677 38.6921L62.077 44.6024M80.4677 38.6921L72.9563 35.3382M80.3825 63.7603L80.2112 114.221M80.3825 63.7603L43.5433 69.6982M80.2112 114.221L61.7457 111.233M29.8847 43.5658L54.8259 41.1627M29.8847 43.5658L29.6964 67.959M29.8847 43.5658L47.7804 37.8193M29.8847 43.5658L36.6784 46.9926L54.8259 41.1627M54.8259 41.1627L47.7804 37.8193M54.8259 41.1627L62.077 44.6024M54.8259 41.1627L72.9563 35.3382M40.929 34.5696L65.657 32.0789M40.929 34.5696L16.8579 36.9943M40.929 34.5696L47.7804 37.8193M65.657 32.0789L91.0682 29.5193M65.657 32.0789L47.7804 37.8193M65.657 32.0789L74.1926 24.9218M91.0682 29.5193L96.9805 22.5483L120.339 20.116L133.327 31.1009M91.0682 29.5193L98.8379 32.7871M133.327 31.1009L142.956 45.8494M133.327 31.1009L138.943 17.9205M142.956 45.8494L156.805 49.2243L164.934 63.4718M142.956 45.8494L152.653 60.6991M164.934 63.4718L173.153 77.8757L183.56 80.0305M164.934 63.4718L152.653 60.6991M164.934 63.4718L176.791 66.1479M183.56 80.0305L193.651 82.1201M183.56 80.0305L176.791 66.1479M183.56 80.0305L190.434 94.1232L183.722 109.786M29.1269 141.752L29.3176 117.051M29.3176 117.051L29.5073 92.4539M29.3176 117.051L36.2091 112.709M29.5073 92.4539L29.6964 67.959M29.5073 92.4539L36.3663 90.7217M29.6964 67.959L36.5224 68.8166M47.7804 37.8193L72.9563 35.3382M62.077 44.6024L61.8565 88.9385M117.193 26.8877L117.186 57.8283M117.193 26.8877L120.34 20.1161M117.193 26.8877L91.0697 29.5194L72.9563 35.3382M117.193 26.8877L148.765 35.1309M148.765 35.1309L163.547 38.9909M148.765 35.1309L136.176 24.4166M148.765 35.1309L156.807 49.2243L170.12 52.4693M163.547 38.9909L177.716 42.6905M163.547 38.9909L151.336 28.5334M163.547 38.9909L170.12 52.4693M163.547 38.9909L165.863 32.4784M177.716 42.6905L165.863 32.4784M177.716 42.6905L182.93 55.5911M15.8148 155.16L29.2007 164.822L51.1528 164.183M117.161 151.64L133.465 153.108M120.34 20.1161L123.397 13.539M120.34 20.1161L136.176 24.4166M123.397 13.539L126.366 7.14819M123.397 13.539L102.741 15.758M123.397 13.539L136.176 24.4166M123.397 13.539L138.943 17.9205M126.366 7.14819L129.253 0.936523M126.366 7.14819L108.353 9.14123M126.366 7.14819L138.943 17.9205M126.366 7.14819L141.635 11.6043M129.253 0.936523L113.823 2.69071M129.253 0.936523L141.635 11.6043M74.1926 24.9218L82.5305 17.9296M74.1926 24.9218L51.9529 27.2377M74.1926 24.9218L96.982 22.5484L102.741 15.758M82.5305 17.9296L90.6786 11.0966M82.5305 17.9296L62.752 20.0546M82.5305 17.9296L102.741 15.758M90.6786 11.0966L108.353 9.14123M90.6786 11.0966L73.3332 13.0151M90.6786 11.0966L98.6427 4.41744M108.353 9.14123L102.741 15.758M108.353 9.14123L113.823 2.69071M138.943 17.9205L151.336 28.5334M138.943 17.9205L153.837 22.1174M138.943 17.9205L141.635 11.6043M151.336 28.5334L136.176 24.4166M151.336 28.5334L165.863 32.4784M151.336 28.5334L153.836 22.1176M151.336 28.5334L148.763 35.1314M170.12 52.4693L176.791 66.1479M170.12 52.4693L182.93 55.5911M176.791 66.1479L188.241 68.7319M183.722 109.786L177.076 125.294M183.722 109.786L193.835 111.426M183.722 109.786L162.525 106.347M177.076 125.294L188.578 126.875M177.076 125.294L152.822 121.96M163.979 155.855L151.698 164.549M163.979 155.855L178.278 157.142M163.979 155.855L149.056 154.511M163.979 155.855L166.382 165.665L151.698 164.549M151.698 164.549L139.193 173.402M151.698 164.549L136.366 163.385M151.698 164.549L149.056 154.511M151.698 164.549L154.275 174.338M139.193 173.402L126.458 182.417M139.193 173.402L136.366 163.385M139.193 173.402L141.95 183.168M139.193 173.402L154.275 174.338M139.193 173.402L123.44 172.424M126.458 182.417L108.177 182.753M126.458 182.417L123.439 172.423M126.458 182.417L129.4 192.157M126.458 182.417L141.95 183.168M108.177 182.753L90.2437 183.082M108.177 182.753L113.72 192.365M108.177 182.753L102.505 172.919M90.2437 183.082L72.6492 183.405M90.2437 183.082L98.2951 192.568M90.2437 183.082L73.6476 163.528M72.6492 183.405L61.9947 173.878M72.6492 183.405L83.1207 192.769M72.6492 183.405L55.384 183.722M61.9947 173.878L51.1528 164.183M61.9947 173.878L42.3882 174.342M61.9947 173.878L102.505 172.919M51.1528 164.183L73.6476 163.528M61.8565 88.9385L61.7457 111.233M61.8565 88.9385L43.4175 88.9402M61.7457 111.233L61.6344 133.612M61.7457 111.233L43.2917 108.245M61.6344 133.612L43.1641 127.614M36.2091 112.709L36.3663 90.7217M36.2091 112.709L43.2917 108.245M36.3663 90.7217L36.5224 68.8166M36.3663 90.7217L43.4175 88.9402M36.5224 68.8166L43.5433 69.6982M43.1641 127.614L43.2917 108.245M151.329 73.3554L162.768 88.9277L172.246 90.7073M151.329 73.3554L151.411 104.544M151.329 73.3554L162.416 75.6513M172.246 90.7073L162.416 75.6513M172.246 90.7073L181.465 92.4383M162.767 88.9282L151.411 104.544M151.411 104.544L162.525 106.347M162.525 106.347L172.245 90.7078M162.525 106.347L152.822 121.96M123.439 172.423L136.366 163.385M123.439 172.423L102.505 172.919M72.9563 35.3382L65.658 32.0792M43.2917 108.245L43.4175 88.9402M51.9529 27.2377L62.752 20.0546M51.9529 27.2377L30.2408 29.4983M62.752 20.0546L43.3888 22.1343M62.752 20.0546L73.3332 13.0151M165.863 32.4784L153.837 22.1174M133.465 153.108L136.366 163.385M133.465 153.108L120.342 162.168M133.465 153.108L149.056 154.511M136.366 163.385L149.056 154.511M136.366 163.385L120.342 162.168M141.95 183.168L154.275 174.338M141.95 183.168L129.401 192.157L113.72 192.365M182.93 55.5911L188.241 68.7319M153.837 22.1174L141.635 11.6043M120.342 162.168L96.7027 162.857M98.2951 192.568L83.1207 192.769M98.2951 192.568L113.72 192.365M83.1207 192.769L68.1908 192.966L55.384 183.722M55.384 183.722L42.3882 174.342M42.3882 174.342L29.1996 164.822M154.275 174.338L178.278 157.142M30.2408 29.4983L43.3888 22.1343M43.3888 22.1343L56.3082 14.8989L73.3332 13.0151M73.3332 13.0151L83.7046 6.11641M83.7046 6.11641L98.6427 4.41744M83.7046 6.11641L69.0025 7.78862L56.3072 14.8989M98.6427 4.41744L113.823 2.69071M152.653 60.6991L162.416 75.6513M188.241 68.7319L199.167 95.7619M102.505 172.919L96.7027 162.857M162.416 75.6513L173.155 77.8758L181.465 92.4383M181.465 92.4383L199.167 95.7619M96.7027 162.857L73.6476 163.528M43.4175 88.9402L43.5433 69.6982M43.5433 69.6982L43.6687 50.5194" stroke="url(#paint0_linear_317_52)" stroke-linecap="round" stroke-linejoin="round"/>
<defs>
<linearGradient id="paint0_linear_317_52" x1="80.7732" y1="131.666" x2="151.132" y2="13.9937" gradientUnits="userSpaceOnUse">
<stop stop-color="#FF6D44"/>
<stop offset="0.296875" stop-color="#FFA959"/>
<stop offset="1" stop-color="#E7E7E8"/>
</linearGradient>
</defs>
</svg>
