<svg width="463" height="327" viewBox="0 0 463 327" fill="none" xmlns="http://www.w3.org/2000/svg">
<path d="M54.5706 238.892L1 326.295H42.8864M54.5706 238.892L88.414 183.674M54.5706 238.892L87.0052 238.892M88.414 183.674L111.733 145.628M88.414 183.674H114.877M111.733 145.628L128.776 117.821M111.733 145.628L134.082 145.628M128.776 117.821L141.776 96.6107M128.776 117.821L148.117 117.821M141.776 96.6107H158.824M141.776 96.6107L152.021 79.8983M158.824 96.6107H175.871M158.824 96.6107L148.117 117.821M158.824 96.6107L167.26 79.8983M175.871 96.6107H192.917M175.871 96.6107L182.499 79.8983M175.871 96.6107L167.458 117.821M192.917 96.6107H209.963M192.917 96.6107L186.798 117.821M192.917 96.6107L197.738 79.8983M209.963 96.6107H227.01M209.963 96.6107L212.976 79.8983M209.963 96.6107L206.138 117.821M227.01 96.6107H244.057M227.01 96.6107L225.479 117.821M227.01 96.6107L228.216 79.8983M244.057 96.6107H261.102M244.057 96.6107L244.82 117.821M244.057 96.6107L243.455 79.8983M261.102 96.6107H278.15M261.102 96.6107L258.695 79.8983M261.102 96.6107L264.16 117.821M278.15 96.6107H295.197M278.15 96.6107L283.501 117.821M278.15 96.6107L273.933 79.8983M295.197 96.6107H312.243M295.197 96.6107L289.172 79.8983M295.197 96.6107L302.842 117.821M312.243 96.6107H329.29M312.243 96.6107L304.412 79.8983M312.243 96.6107L322.182 117.821M329.29 96.6107L341.522 117.821M329.29 96.6107L319.651 79.8983M42.8864 326.295L87.0052 238.892M42.8864 326.295H84.7738M87.0052 238.892L114.877 183.674M87.0052 238.892H119.439M114.877 183.674L134.082 145.628M114.877 183.674H141.34M134.082 145.628L148.117 117.821M134.082 145.628H156.429M148.117 117.821H167.458M167.26 79.8983L174.078 66.3902M167.26 79.8983H182.499M167.26 79.8983L152.021 79.8983M174.078 66.3902L179.704 55.2451M174.078 66.3902H187.857M174.078 66.3902L160.3 66.3902M179.704 55.2451L184.424 45.8932M179.704 55.2451H192.277M179.704 55.2451L167.13 55.2451M184.424 45.8932L188.442 37.9347M184.424 45.8932H195.985M184.424 45.8932H172.862M188.442 37.9347L191.902 31.0779M188.442 37.9347H199.142M188.442 37.9347H177.741M191.902 31.0779L194.914 25.1109M191.902 31.0779H201.862M191.902 31.0779L181.943 31.0779M194.914 25.1109L197.56 19.8691M194.914 25.1109H204.229M194.914 25.1109L185.601 25.1109M197.56 19.8691L199.902 15.23M197.56 19.8691H206.308M197.56 19.8691L188.812 19.8691M199.902 15.23L201.989 11.0935M199.902 15.23H208.147M199.902 15.23L191.657 15.23M201.989 11.0935L203.864 7.38238M201.989 11.0935H209.788M201.989 11.0935H194.191M203.864 7.38238L205.552 4.03497M203.864 7.38238H211.259M203.864 7.38238L196.467 7.38238M205.552 4.03497L207.084 1M205.552 4.03497H212.587M205.552 4.03497L198.518 4.03497L196.467 7.38238M207.084 1H213.791M207.084 1H200.379L198.519 4.03497M213.791 1L212.587 4.03497M213.791 1H220.497M212.587 4.03497L211.259 7.38238M212.587 4.03497H219.621M211.259 7.38238L209.788 11.0935M211.259 7.38238H218.656M209.788 11.0935L208.147 15.23M209.788 11.0935H217.585M208.147 15.23L206.308 19.8691M208.147 15.23H216.392M206.308 19.8691L204.229 25.1109M206.308 19.8691H215.054M204.229 25.1109L201.862 31.0779M204.229 25.1109H213.542M201.862 31.0779L199.142 37.9347M201.862 31.0779H211.82M199.142 37.9347L195.985 45.8932M199.142 37.9347H209.843M195.985 45.8932L192.277 55.2451M195.985 45.8932H207.546M192.277 55.2451L187.857 66.3902M192.277 55.2451H204.849M187.857 66.3902L182.499 79.8983M187.857 66.3902H201.635M182.499 79.8983H197.738M167.458 117.821L156.429 145.628M167.458 117.821H186.798M156.429 145.628L141.34 183.674M156.429 145.628H178.777M141.34 183.674L119.439 238.892M141.34 183.674H167.802M119.439 238.892L84.7738 326.295M119.439 238.892H151.873M84.7738 326.295H126.66M126.66 326.295L151.873 238.892M126.66 326.295H168.548M151.873 238.892L167.802 183.674M151.873 238.892H184.308M167.802 183.674L178.777 145.628M167.802 183.674H194.264M178.777 145.628L186.798 117.821M178.777 145.628H201.125M186.798 117.821H206.138M197.738 79.8983L201.635 66.3902M197.738 79.8983H212.976M201.635 66.3902L204.849 55.2451M201.635 66.3902H215.412M204.849 55.2451L207.546 45.8932M204.849 55.2451H217.422M207.546 45.8932L209.843 37.9347M207.546 45.8932H219.109M209.843 37.9347L211.82 31.0779M209.843 37.9347H220.544M211.82 31.0779L213.542 25.1109M211.82 31.0779H221.78M213.542 25.1109L215.054 19.8691M213.542 25.1109H222.856M215.054 19.8691L216.392 15.23M215.054 19.8691H223.801M216.392 15.23L217.585 11.0935M216.392 15.23H224.638M217.585 11.0935L218.656 7.38238M217.585 11.0935H225.383M218.656 7.38238L219.621 4.03497M218.656 7.38238H226.052M219.621 4.03497L220.497 1M219.621 4.03497H226.656M220.497 1H227.203M227.203 1L226.656 4.03497M227.203 1H233.909M226.656 4.03497L226.052 7.38238M226.656 4.03497H233.69M226.052 7.38238L225.383 11.0935M226.052 7.38238H233.449M225.383 11.0935L224.638 15.23M225.383 11.0935H233.18M224.638 15.23L223.801 19.8691M224.638 15.23H232.883M223.801 19.8691L222.856 25.1109M223.801 19.8691H232.548M222.856 25.1109L221.78 31.0779M222.856 25.1109H232.17M221.78 31.0779L220.544 37.9347M221.78 31.0779H231.739M220.544 37.9347L219.109 45.8932M220.544 37.9347H231.244M219.109 45.8932L217.422 55.2451M219.109 45.8932H230.67M217.422 55.2451L215.412 66.3902M217.422 55.2451H229.995M215.412 66.3902L212.976 79.8983M215.412 66.3902H229.19M212.976 79.8983H228.216M206.138 117.821L201.125 145.628M206.138 117.821H225.479M201.125 145.628L194.264 183.674M201.125 145.628H223.472M194.264 183.674L184.308 238.892M194.264 183.674H220.727M184.308 238.892L168.548 326.295M184.308 238.892H216.743M168.548 326.295H210.435M210.435 326.295L216.743 238.892M210.435 326.295H252.322M216.743 238.892L220.727 183.674M216.743 238.892L249.177 238.892M220.727 183.674L223.472 145.628M220.727 183.674H247.19M223.472 145.628L225.479 117.821M223.472 145.628L245.821 145.628M225.479 117.821L244.82 117.821M228.216 79.8983L229.19 66.3902M228.216 79.8983L243.455 79.8983M229.19 66.3902L229.995 55.2451M229.19 66.3902L242.969 66.3902M229.995 55.2451L230.67 45.8932M229.995 55.2451L242.568 55.2451M230.67 45.8932L231.244 37.9347M230.67 45.8932H242.232M231.244 37.9347L231.739 31.0779M231.244 37.9347H241.945M231.739 31.0779L232.17 25.1109M231.739 31.0779L241.699 31.0779M232.17 25.1109L232.548 19.8691M232.17 25.1109L241.484 25.1109M232.548 19.8691L232.883 15.23M232.548 19.8691L241.294 19.8691M232.883 15.23L233.18 11.0935M232.883 15.23L241.128 15.23M233.18 11.0935L233.449 7.38238M233.18 11.0935H240.979M233.449 7.38238L233.69 4.03497M233.449 7.38238L240.846 7.38238M233.69 4.03497L233.909 1M233.69 4.03497L240.725 4.03497M233.909 1H240.616M419.871 326.295H461.757L379.502 183.674M419.871 326.295H377.983M419.871 326.295L353.039 183.674M377.983 326.295H336.097M377.983 326.295L326.577 183.674M336.097 326.295H294.209M336.097 326.295L314.046 238.892M294.209 326.295H252.322M294.209 326.295L281.612 238.892M252.322 326.295L249.177 238.892M411.349 238.892H314.046M314.046 238.892H281.612M314.046 238.892L300.115 183.674M281.612 238.892H249.177M281.612 238.892L273.652 183.674M249.177 238.892L247.19 183.674M379.502 183.674H353.039M379.502 183.674L357.559 145.628M353.039 183.674H326.577M353.039 183.674L335.212 145.628M326.577 183.674H300.115M326.577 183.674L312.864 145.628M300.115 183.674H273.652M300.115 183.674L290.516 145.628M273.652 183.674H247.19M273.652 183.674L268.168 145.628M247.19 183.674L245.821 145.628M245.821 145.628H268.168M245.821 145.628L244.82 117.821M268.168 145.628H290.516M268.168 145.628L264.16 117.821M290.516 145.628H312.864M290.516 145.628L283.501 117.821M312.864 145.628H335.212M312.864 145.628L302.842 117.821M335.212 145.628H357.559M335.212 145.628L322.182 117.821M357.559 145.628L341.522 117.821M319.651 79.8983H304.412M319.651 79.8983L305.433 55.2451M304.412 79.8983H289.172M304.412 79.8983L298.082 66.3902M289.172 79.8983H273.933M289.172 79.8983L284.304 66.3902M273.933 79.8983H258.695M273.933 79.8983L270.525 66.3902M258.695 79.8983H243.455M258.695 79.8983L256.747 66.3902M243.455 79.8983L242.969 66.3902M152.021 79.8983L160.3 66.3902M244.82 117.821H264.16M264.16 117.821H283.501M283.501 117.821H302.842M302.842 117.821H322.182M322.182 117.821H341.522M311.86 66.3902H298.082M298.082 66.3902H284.304M298.082 66.3902L292.86 55.2451M284.304 66.3902H270.525M284.304 66.3902L280.287 55.2451M270.525 66.3902H256.747M270.525 66.3902L267.714 55.2451M256.747 66.3902H242.969M256.747 66.3902L255.141 55.2451M242.969 66.3902L242.568 55.2451M160.3 66.3902L167.13 55.2451M305.433 55.2451H292.86M305.433 55.2451L295.449 37.9347M292.86 55.2451H280.287M292.86 55.2451L288.477 45.8932M280.287 55.2451H267.714M280.287 55.2451L276.916 45.8932M267.714 55.2451H255.141M267.714 55.2451L265.355 45.8932M255.141 55.2451H242.568M255.141 55.2451L253.793 45.8932M242.568 55.2451L242.232 45.8932M167.13 55.2451L172.862 45.8932M300.039 45.8932H288.477M288.477 45.8932H276.916M288.477 45.8932L284.748 37.9347M276.916 45.8932H265.355M276.916 45.8932L274.047 37.9347M265.355 45.8932H253.793M265.355 45.8932L263.347 37.9347M253.793 45.8932H242.232M253.793 45.8932L252.646 37.9347M242.232 45.8932L241.945 37.9347M172.862 45.8932L177.741 37.9347M295.449 37.9347H284.748M295.449 37.9347L291.494 31.0779M284.748 37.9347H274.047M284.748 37.9347L281.536 31.0779M274.047 37.9347H263.347M274.047 37.9347L271.576 31.0779M263.347 37.9347H252.646M263.347 37.9347L261.617 31.0779M252.646 37.9347H241.945M252.646 37.9347L251.657 31.0779M241.945 37.9347L241.699 31.0779M177.741 37.9347L181.943 31.0779M291.494 31.0779H281.536M291.494 31.0779L288.053 25.1109M281.536 31.0779H271.576M281.536 31.0779L278.738 25.1109M271.576 31.0779H261.617M271.576 31.0779L269.425 25.1109M261.617 31.0779H251.657M261.617 31.0779L260.111 25.1109M251.657 31.0779H241.699M251.657 31.0779L250.798 25.1109M241.699 31.0779L241.484 25.1109M181.943 31.0779L185.601 25.1109M288.053 25.1109H278.738M288.053 25.1109L285.029 19.8691M278.738 25.1109H269.425M278.738 25.1109L276.282 19.8691M269.425 25.1109H260.111M269.425 25.1109L267.536 19.8691M260.111 25.1109H250.798M260.111 25.1109L258.789 19.8691M250.798 25.1109H241.484M250.798 25.1109L250.042 19.8691M241.484 25.1109L241.294 19.8691M185.601 25.1109L188.812 19.8691M285.029 19.8691H276.282M285.029 19.8691L282.354 15.23M276.282 19.8691H267.536M276.282 19.8691L274.109 15.23M267.536 19.8691H258.789M267.536 19.8691L265.863 15.23M258.789 19.8691H250.042M258.789 19.8691L257.617 15.23M250.042 19.8691H241.294M250.042 19.8691L249.373 15.23M241.294 19.8691L241.128 15.23M188.812 19.8691L191.657 15.23M282.354 15.23H274.109M282.354 15.23L279.969 11.0935M274.109 15.23H265.863M274.109 15.23L272.171 11.0935M265.863 15.23H257.617M265.863 15.23L264.372 11.0935M257.617 15.23H249.373M257.617 15.23L256.575 11.0935M249.373 15.23H241.128M249.373 15.23L248.776 11.0935M241.128 15.23L240.979 11.0935M191.657 15.23L194.191 11.0935M279.969 11.0935H272.171M279.969 11.0935L277.828 7.38238M272.171 11.0935H264.372M272.171 11.0935L270.431 7.38238M264.372 11.0935H256.575M264.372 11.0935L263.035 7.38238M256.575 11.0935H248.776M256.575 11.0935L255.639 7.38238M248.776 11.0935H240.979M248.776 11.0935L248.242 7.38238M240.979 11.0935L240.846 7.38238M194.191 11.0935L196.467 7.38238M277.828 7.38238H270.431M277.828 7.38238L275.897 4.03497M270.431 7.38238H263.035M270.431 7.38238L268.862 4.03497M263.035 7.38238H255.639M263.035 7.38238L261.828 4.03497M255.639 7.38238H248.242M255.639 7.38238L254.794 4.03497M248.242 7.38238H240.846M248.242 7.38238L247.759 4.03497M240.846 7.38238L240.725 4.03497M275.897 4.03497H268.862M275.897 4.03497L274.147 1M268.862 4.03497H261.828M268.862 4.03497L267.441 1M261.828 4.03497H254.794M261.828 4.03497L260.735 1M254.794 4.03497H247.759M254.794 4.03497L254.028 1M247.759 4.03497H240.725M247.759 4.03497L247.323 1M240.725 4.03497L240.616 1M274.148 1H247.323M247.323 1H240.616" stroke="url(#paint0_linear_317_42)" stroke-linecap="round" stroke-linejoin="round"/>
<defs>
<linearGradient id="paint0_linear_317_42" x1="349.964" y1="326.295" x2="324.089" y2="-31.3424" gradientUnits="userSpaceOnUse">
<stop offset="0.078125" stop-color="#0F0D19" stop-opacity="0"/>
<stop offset="0.3125" stop-color="#4100CC" stop-opacity="0.5"/>
<stop offset="0.833333" stop-color="#FF6D44"/>
</linearGradient>
</defs>
</svg>
