<svg width="1386" height="610" viewBox="0 0 1386 610" fill="none" xmlns="http://www.w3.org/2000/svg">
<path d="M140.589 465.806L176.139 323.751M176.139 323.751L208.034 300.079M176.139 323.751L105.228 244.092M176.139 323.751L247.508 442.896M208.034 300.079L236.721 303.789M208.034 300.079L140.768 141.461M208.034 300.079L275.711 436.847M236.721 303.789L172.745 235.558L140.768 141.461M236.721 303.789L291.504 426.49M1130.29 587.59L1001.49 606.352M1130.29 587.59L1168.95 608.866M1130.29 587.59L1143.63 608.866M1130.29 587.59L1099.03 573.038M1001.49 606.352L994.335 608.866M1001.49 606.352L981.778 575.706M1001.49 606.352L1002.42 608.866M167.701 18.4809L234.169 166.771L240.763 161.924M167.701 18.4809L211.242 235.169M167.701 18.4809L114.963 1L86.2589 82.0757M167.701 18.4809L141.212 76.6088M1291.16 602.942L1252.13 500.721L1150.95 525.662M1291.16 602.942L1383.91 604.476M1291.16 602.942L1299.11 608.866M1291.16 602.942L1181.5 576.309M2.06213 581.62L40.5438 582.256L93.9085 556.134M93.9085 556.134L185.964 557.543M93.9085 556.134L140.077 526.014M93.9085 556.134L2.62191 554.737M185.964 557.543L278.795 558.964M185.964 557.543L226.08 534.76M185.964 557.543L95.595 608.866M278.795 558.964L372.414 560.397M278.795 558.964L312.763 533.715M278.795 558.964L205.005 608.865M372.414 560.397L466.83 561.842M372.414 560.397L400.128 537.238M372.414 560.397L314.416 608.865M466.83 561.842L488.186 538.494M466.83 561.842L658.097 564.77M466.83 561.842L423.826 608.866M658.097 564.77L754.966 565.07M658.097 564.77L648.448 591.328M658.097 564.77L673.658 520.361M754.966 565.07L852.677 554.049M754.966 565.07L753.07 592.718M754.966 565.07L758.026 521.413M852.677 554.049L951.236 541.54M852.677 554.049L847.518 538.95L843.03 518.922M852.677 554.049L858.672 583.078M951.236 541.54L1050.66 543.707M951.236 541.54L939.168 521.415L928.676 496.71M951.236 541.54L965.268 557.931M1050.66 543.707L1150.95 525.662M1050.66 543.707L1068.66 573.728M1050.66 543.707L1031.56 478.687L1014.97 463.992M1150.95 525.662L1124.71 463.457L1101.92 462.574M1150.95 525.662L1181.5 576.309M1164.08 414.769L1194.86 449.381M1164.08 414.769L1183.14 477.433M1164.08 414.769L1146.17 424.556M1194.86 449.381L1208.15 464.321M1194.86 449.381L1219.88 452.517M1208.15 464.321L1220.01 477.67M1208.15 464.321L1243.09 464.69M1220.01 477.67L1233.35 492.424L1297.68 493.329M1220.01 477.67L1268.87 478.215M1297.68 493.329L1320.47 493.598M1297.68 493.329L1310.48 500.039M1297.68 493.329L1268.87 478.215M1320.47 493.598L1343.06 479.042M1320.47 493.598L1310.48 500.039M1015.85 319.047L1015.92 318.892L1016.16 318.536M1015.85 319.047L1010.45 326.071M1015.85 319.047L1016.16 318.536M1016.16 318.536L1017.14 316.877M1017.14 316.877L1017.28 315.791M1017.14 316.877L1018.36 315.796L1020.78 312.649M1017.28 315.791L1018.1 313.914M1017.28 315.791L1015.41 315.783M1018.1 313.914L1020.04 309.489M1018.1 313.914L1011.64 313.887M1020.04 309.489L1020.29 308.898L1026.08 295.692M1020.04 309.489L1003.48 304.809M1026.08 295.692L1024.61 288.566M1026.08 295.692L1029.55 287.749M1029.55 287.749L1034.57 276.288M1029.55 287.749L1024.61 288.566M1034.57 276.288L1042.58 257.981M1034.57 276.288L1019.96 271.128M1042.58 257.981L1040.03 234.72M1042.58 257.981L1049.64 241.861M1049.64 241.861L1053.08 234.008M1049.64 241.861L1040.03 234.72M1053.08 234.008L1054.48 230.791M1053.08 234.008L1047.75 226.073M1054.48 230.791L1063.38 257.912M1054.48 230.791L1064.06 217.247M1332.9 277.913L1335.65 281.413M1332.9 277.913L1318.14 281.094M1332.9 277.913L1353.65 370.392M1353.65 370.392L1376 400.15M1353.65 370.392L1312.09 376.094M1353.65 370.392L1383.91 363.11M1376 400.15L1383.91 402.858M1376 400.15L1353.66 400.399M1376 400.15L1383.91 386.888M928.676 496.71L843.03 518.922M928.676 496.71L919.471 493.658M928.676 496.71L957.765 485.681M843.03 518.922L758.026 521.413M843.03 518.922L839.089 501.473M758.026 521.413L673.658 520.361M758.026 521.413L759.275 503.133M673.658 520.361L589.919 519.246M673.658 520.361L680.023 502.197M589.919 519.246L576.946 539.758L488.186 538.494M589.919 519.246L601.323 501.212M589.919 519.246L506.801 518.138M488.186 538.494L506.801 518.138M488.186 538.494L400.128 537.238M1041.57 372.796L1029.94 373.499M1041.57 372.796L1059.57 371.708L1060.94 372.877M1041.57 372.796L1083.01 296.545M1083.01 296.545L1072.87 311.631M1083.01 296.545L1110.32 266.823M1083.01 296.545L1093.87 342.447M1335.65 281.413L1346.5 295.248M1335.65 281.413L1330.05 252.877M1346.5 295.248L1351.06 301.066M1346.5 295.248L1353.41 297.508M1351.06 301.066L1357.59 305.497L1357.97 305.756M1351.06 301.066L1366.42 320.673M1366.42 320.673L1357.97 305.756M1366.42 320.673L1373.07 329.156M1373.07 329.156L1375.01 331.618M1373.07 329.156L1383.91 315.552M1375.01 331.618L1377.73 335.092M1375.01 331.618L1383.91 334.902M1377.73 335.092L1379.92 337.897M1377.73 335.092L1383.91 335.673M1379.92 337.897L1381.32 339.668L1383.85 341.754L1383.91 341.81M1379.92 337.897L1383.91 338.068M1029.94 373.499L1072.87 311.631M1029.94 373.499L1028.64 373.578M1072.87 311.631L1063.38 257.912M1063.38 257.912L1106.14 238.664M1063.38 257.912L1020.78 312.649M1064.06 217.247L1065.46 215.267M1064.06 217.247L1044.69 200.054M1065.46 215.267L1082.51 191.145M1065.46 215.267L1061.3 184.374M1082.51 191.145L1082.8 190.737M1082.51 191.145L1082.09 189.912M1082.8 190.737L1082.95 190.52M1082.8 190.737L1082.13 190.01L1076.83 196.161M1082.95 190.52L1095.88 182.394M1082.95 190.52L1082.09 189.912M1095.88 182.394L1106.14 238.664M1095.88 182.394L1114.81 196.945M1243.09 464.69L1268.87 478.215M1243.09 464.69L1219.88 452.517M1243.09 464.69L1313.46 465.435M1268.87 478.215L1343.06 479.042M1343.06 479.042L1343.14 478.993M2.06213 268.153L34.7738 153.658M34.7738 153.658L105.228 244.092M34.7738 153.658L73.9138 146.984L100.5 144.788M34.7738 153.658L2.06213 209.069M100.5 144.788L140.768 141.461M100.5 144.788L112.323 93.5023M140.768 141.461L105.228 244.092M291.504 426.49L323.992 443.506M291.504 426.49L298.198 441.482M323.992 443.506L344.815 433.314M323.992 443.506L315.729 445.095M323.992 443.506L385.665 444.127M344.815 433.314L363.814 417.908M344.815 433.314L304.393 412.13M344.815 433.314L403.711 433.877M363.814 417.908L420.172 424.53M363.814 417.908L307.679 406.957L251.952 292.072M363.814 417.908L381.219 375.317M420.172 424.53L476.818 425.048M420.172 424.53L403.711 433.877M420.172 424.53L435.248 410.903M476.818 425.048L489.541 407.893M476.818 425.048L462.921 434.445M476.818 425.048L533.752 425.57M489.541 407.893L501.236 395.558L528.123 401.372M489.541 407.893L435.248 410.903M489.541 407.893L544.103 408.401M528.123 401.372L553.61 406.882M528.123 401.372L562.378 401.65M553.61 406.882L606.23 409.418M553.61 406.882L544.103 408.401M553.61 406.882L562.378 401.65M606.23 409.418L612.962 402.057M606.23 409.418L598.928 417.402M606.23 409.418L659.101 409.863M612.962 402.057L619.188 395.249M612.962 402.057L663.778 402.469M612.962 402.057L562.378 401.65M619.188 395.249L624.962 386.617M619.188 395.249L668.102 394.377M619.188 395.249L570.489 394.872M624.962 386.617L630.332 383.064M624.962 386.617L672.112 389.289M624.962 386.617L578.012 388.585M630.332 383.064L635.341 377.588M630.332 383.064L585.01 382.736M630.332 383.064L721.534 383.723M635.341 377.588L640.021 372.47M635.341 377.588L679.318 377.895M635.341 377.588L591.536 377.282M640.021 372.47L644.405 367.676M640.021 372.47L597.637 372.185M640.021 372.47L682.568 372.759M644.405 367.676L648.52 363.176M644.405 367.676L603.352 367.408M644.405 367.676L685.612 367.945M648.52 363.176L652.39 358.944M648.52 363.176L688.466 363.429M648.52 363.176L608.716 362.925M652.39 358.944L656.038 354.958M652.39 358.944L613.762 358.707M652.39 358.944L691.152 359.183M656.038 354.958L659.478 351.195M656.038 354.958L618.518 354.735M656.038 354.958L693.683 355.183M659.478 351.195L662.732 347.637M659.478 351.195L623.006 350.984M659.478 351.195L696.071 351.407M662.732 347.637L665.813 344.269M662.732 347.637L698.328 347.838M662.732 347.637L627.249 347.438M665.813 344.269L668.733 341.076M665.813 344.269L631.269 344.079M665.813 344.269L700.466 344.459M668.733 341.076L671.507 338.043M668.733 341.076L635.079 340.896M668.733 341.076L702.491 341.256M671.507 338.043L674.143 335.159M671.507 338.043L638.696 337.873M671.507 338.043L704.417 338.214M674.143 335.159L676.653 332.415M674.143 335.159L642.135 334.998M674.143 335.159L706.243 335.323M676.653 332.415L679.046 329.799M676.653 332.415L645.411 332.26M676.653 332.415L707.985 332.57M679.046 329.799L681.327 327.303M679.046 329.799L709.644 329.948M679.046 329.799L648.531 329.653M681.327 327.303L683.508 324.92M681.327 327.303L711.226 327.445M681.327 327.303L651.51 327.164M683.508 324.92L685.592 320.54M683.508 324.92L712.739 325.056M683.508 324.92L654.355 324.785M685.592 320.54L687.587 318.619M685.592 320.54L714.183 321.378M685.592 320.54L657.075 322.512M687.587 318.619L689.498 315.192M687.587 318.619L659.679 317.908M687.587 318.619L715.566 318.946M689.498 315.192L691.33 307.722M689.498 315.192L716.893 318.311M689.498 315.192L662.174 310.884M691.33 307.722L693.089 299.519M691.33 307.722L718.16 316.369L745.055 316.595M691.33 307.722L664.564 298.05M693.089 299.519L694.289 293.392L696.402 293.176M693.089 299.519L678.765 290.034M693.089 299.519L719.38 310.69M696.402 293.176L706.413 296.944M696.402 293.176L694.779 293.594M706.413 296.944L709.963 298.28M706.413 296.944L707.429 291.841M709.963 298.28L718.356 301.438M709.963 298.28L728.043 300.699L750.049 302.273L772.89 303.88L793.455 303.249L796.447 303.05M718.356 301.438L721.676 302.689M718.356 301.438L727.157 302.196M721.676 302.689L720.55 305.431M721.676 302.689L737.734 307.439M737.734 307.439L747.306 309.443L772.395 310.431M737.734 307.439L747.007 310.183M772.395 310.431L780.38 308.262M772.395 310.431L772.274 312.378L772.146 314.408M772.395 310.431L772.512 308.849M780.38 308.262L797.126 304.995M780.38 308.262L772.57 308.219L748.466 306.759L736.032 306.019M780.38 308.262L797.655 305.259M797.126 304.995L797.471 304.982L797.84 305.536L798.222 308.376M797.126 304.995L797.655 305.259M797.126 304.995L785.483 306.206L772.68 306.872L749.013 305.3L729.31 304.46M798.222 308.376L798.62 311.69M798.222 308.376L824.232 302.94M798.222 308.376L772.273 312.38L746.382 312.164M798.62 311.69L799.035 315.159M798.62 311.69L825.159 308.972M798.62 311.69L772.146 314.408M799.035 315.159L799.467 316.382M799.035 315.159L809.694 314.977M799.035 315.159L772.013 316.66M799.467 316.382L799.919 320.266M799.467 316.382L809.694 314.977M799.467 316.382L771.877 318.727M799.919 320.266L800.391 323.16L800.883 324.678L801.397 326.919M799.919 320.266L771.732 320.752M799.919 320.266L828.179 315.601M801.397 326.919L802.216 328.323L803.096 331.474M801.397 326.919L807.508 327.14M801.397 326.919L771.262 327.728M803.096 331.474L803.719 336.718M803.096 331.474L770.719 335.602L738.436 335.487M803.096 331.474L827.866 323.222L829.167 322.485M803.719 336.718L804.375 341.172M803.719 336.718L770.521 338.558M803.719 336.718L837.016 325.693M804.375 341.172L805.066 345.033M804.375 341.172L770.313 341.617M804.375 341.172L838.543 334.551M805.066 345.033L805.795 347.95M805.066 345.033L770.093 344.84M805.066 345.033L840.151 339.828M805.795 347.95L806.566 352.047M805.795 347.95L841.847 346.931M805.795 347.95L769.86 348.24M806.566 352.047L807.38 355.167M806.566 352.047L843.64 352.263M806.566 352.047L732.783 351.62M807.38 355.167L808.245 359.903M807.38 355.167L769.354 355.422L731.455 355.408M807.38 355.167L845.536 356.089L883.82 356.316M808.245 359.903L809.163 363.424M808.245 359.903L769.079 359.416M808.245 359.903L840.625 360.101M809.163 363.424L810.138 368.76M809.163 363.424L840.625 360.101M809.163 363.424L768.788 363.937M810.138 368.76L811.178 373.625M810.138 368.76L768.477 368.488M810.138 368.76L851.956 368.749M811.178 373.625L812.29 378.823M811.178 373.625L854.377 373.918M811.178 373.625L725.276 373.047M812.29 378.823L813.479 384.387M812.29 378.823L856.965 379.135M812.29 378.823L767.792 378.512M813.479 384.387L814.755 390.357M813.479 384.387L859.736 384.722M813.479 384.387L767.414 384.053M814.755 390.357L816.128 393.073M814.755 390.357L862.708 390.717M814.755 390.357L767.008 389.711M816.128 393.073L865.906 397.167M816.128 393.073L817.611 399.855M816.128 393.073L766.57 395.88M865.906 397.167L869.358 404.128M865.906 397.167L915.902 397.556M869.358 404.128L870.982 404.341M869.358 404.128L872.04 404.15M869.358 404.128L817.611 399.855M870.982 404.341L868.272 404.83M870.982 404.341L872.04 404.15M872.04 404.15L877.148 403.229M877.148 403.229L918.672 401.117M877.148 403.229L881.569 426.012M918.672 401.117L933.625 400.357M918.672 401.117L915.902 397.556M933.625 400.357L940.487 397.747M933.625 400.357L940.593 409.47M940.487 397.747L957.115 391.424M940.487 397.747L915.902 397.556M957.115 391.424L958.605 390.857M957.115 391.424L910.862 391.078M958.605 390.857L972.594 385.537M958.605 390.857L952.814 385.394M972.594 385.537L987.04 380.043M972.594 385.537L952.814 385.394M987.04 380.043L990.327 378.793M987.04 380.043L946.845 379.762M990.327 378.793L984.968 374.799M990.327 378.793L999.928 375.316M999.928 375.316L1006.12 374.941M999.928 375.316L1010.37 395.929M999.928 375.316L940.593 409.47M1006.12 374.941L1028.64 373.578M1006.12 374.941L984.968 374.799M1028.64 373.578L1020.78 312.649M1060.94 372.877L1072.87 393.331M1060.94 372.877L1094.8 387.235M1072.87 393.331L1087.49 395.928M1072.87 393.331L1010.37 395.929M1072.87 393.331L1113.27 395.377M1087.49 395.928L1100.81 449.346M1087.49 395.928L1021.85 411.423M1087.49 395.928L1134.99 430.665M1134.99 430.665L1100.81 449.346M1134.99 430.665L1146.17 424.556M979.618 477.396L911.33 488.773M979.618 477.396L957.765 485.681M979.618 477.396L986.152 474.919M911.33 488.773L835.604 487.88M911.33 488.773L904.076 474.147M911.33 488.773L919.471 493.658M835.604 487.88L760.382 486.992M835.604 487.88L832.498 473.35M835.604 487.88L839.089 501.473M760.382 486.992L685.659 486.112M760.382 486.992L759.275 503.133M760.382 486.992L761.368 472.556M685.659 486.112L611.429 485.237M685.659 486.112L680.023 502.197M685.659 486.112L690.684 471.768M611.429 485.237L537.686 484.367M611.429 485.237L601.323 501.212M611.429 485.237L620.442 470.985M537.686 484.367L523.174 500.235M537.686 484.367L464.427 483.505M537.686 484.367L550.638 470.207M523.174 500.235L506.801 518.138M523.174 500.235L445.567 499.264M523.174 500.235L601.323 501.212M506.801 518.138L424.298 517.039M400.128 537.238L312.763 533.715M400.128 537.238L424.298 517.039M312.763 533.715L342.404 515.948M312.763 533.715L226.08 534.76M1181.5 576.309L1208.51 608.866M1181.5 576.309L1114.31 579.054M1110.32 266.823L1106.14 238.664M1110.32 266.823L1128.76 246.744L1141.28 241.385M1106.14 238.664L1149.06 223.962M1013.33 267.171L1019.98 249.047M1013.33 267.171L1019.11 270.619M1013.33 267.171L1011.45 266.055M1019.98 249.047L1020.41 247.901M1019.98 249.047L1011.45 266.055M1020.41 247.901L1026.4 231.597M1020.41 247.901L1006.18 251.97M1026.4 231.597L1035.26 207.463M1026.4 231.597L1023.6 197.75M1035.26 207.463L1040.03 234.72M1035.26 207.463L1047.75 226.073M1188.9 266.124L1204.14 325.024M1188.9 266.124L1236.69 294.815M1188.9 266.124L1178.52 260.738M1204.14 325.024L1233.06 362.781M1204.14 325.024L1220.58 363.585M1204.14 325.024L1154.75 297.323M1233.06 362.781L1238.33 362.443M1233.06 362.781L1220.58 363.585M977.511 301.408L973.745 240.925M977.511 301.408L975.445 300.721M977.511 301.408L981.713 302.804M973.745 240.925L970.225 235.643L970.058 235.394M973.745 240.925L999.15 269.223M973.745 240.925L952.777 228.718M970.058 235.394L970.311 235.605M970.058 235.394L952.777 228.718M1267.12 233.714L1273.75 246.496M1267.12 233.714L1284.71 288.298M1267.12 233.714L1251.16 243.938M1273.75 246.496L1294.38 286.214M1273.75 246.496L1263.02 216.248M1294.38 286.214L1309.76 282.897M1294.38 286.214L1284.71 288.298M1141.28 241.385L1154.75 297.323M1141.28 241.385L1152.38 247.151M1141.28 241.385L1093.87 342.447M1154.75 297.323L1169.23 372.238M1154.75 297.323L1105.54 385.85M1169.23 372.238L1184.88 394.489M1169.23 372.238L1220.58 363.585M1169.23 372.238L1124.19 395.93M1184.88 394.489L1189.2 399.561M1184.88 394.489L1167.53 398.326M1184.88 394.489L1238.33 362.443M1189.2 399.561L1167.53 398.326M1189.2 399.561L1198.89 400.115M1301.17 365.823L1284.71 288.298M1301.17 365.823L1312.09 376.094M1301.17 365.823L1292.02 357.21M1284.71 288.298L1236.69 294.815M251.952 292.072L238.647 306.873M251.952 292.072L273.944 304.368M251.952 292.072L196.444 235.932M1088.77 455.927L1034.53 438.719L965.847 461.759L897.574 461.037M1088.77 455.927L1081.96 459.652M1088.77 455.927L1100.81 449.346M897.574 461.037L829.71 460.319M897.574 461.037L891.714 440.141M897.574 461.037L904.076 474.147M829.71 460.319L827.2 448.569M829.71 460.319L832.498 473.35M829.71 460.319L695.194 458.884M695.194 458.884L628.533 458.192M695.194 458.884L690.684 471.768M695.194 458.884L699.265 447.145M628.533 458.192L562.267 457.491M628.533 458.192L620.442 470.985M628.533 458.192L635.837 446.643M562.267 457.491L496.389 456.794M562.267 457.491L550.638 470.207M562.267 457.491L572.767 446.009M496.389 456.794L430.9 456.101M496.389 456.794L481.265 469.433M496.389 456.794L510.05 445.378M430.9 456.101L365.794 455.414M430.9 456.101L412.323 468.664M430.9 456.101L447.684 444.751M365.794 455.414L343.806 467.901M365.794 455.414L300.334 447.826M365.794 455.414L385.665 444.127M343.806 467.901L319.343 481.794M343.806 467.901L300.334 447.826M343.806 467.901L412.323 468.664M319.343 481.794L291.962 497.344M319.343 481.794L391.648 482.646M319.343 481.794L247.508 442.896M291.962 497.344L261.11 514.866M291.962 497.344L215.953 496.392M291.962 497.344L368.5 498.225M261.11 514.866L226.08 534.76M261.11 514.866L180.412 513.791M261.11 514.866L342.404 515.948M226.08 534.76L140.077 526.014M140.077 526.014L54.742 525.286M140.077 526.014L180.412 513.791M2.62191 554.737L2.06213 554.978M2.62191 554.737L2.06213 554.727M2.62191 554.737L54.742 525.286M1198.89 400.115L1219.88 452.517M1198.89 400.115L1214.25 410.273M1219.88 452.517L1286.66 453.19M1313.46 465.435L1363.35 465.962M1313.46 465.435L1286.66 453.19M1313.46 465.435L1343.14 478.993M1363.35 465.962L1366.82 463.729M1363.35 465.962L1343.14 478.993M1251.16 243.938L1220.81 264.719M1251.16 243.938L1235.21 238.088M1220.81 264.719L1236.69 294.815M1220.81 264.719L1187.62 261.595M1220.81 264.719L1206 227.373M219.116 255.953L211.242 235.169M211.242 235.169L243.006 230.603M141.212 76.6088L86.2589 82.0757M141.212 76.6088L112.323 93.5023M141.212 76.6088L196.444 235.932M86.2589 82.0757L54.96 103.739M54.96 103.739L19.6655 143.391M54.96 103.739L112.323 93.5023M54.96 103.739L20.3236 143.838L1 209.52V608.469M54.96 103.739L37.1311 152.501M112.323 93.5023L169.987 165.976M1238.33 362.443L1257.56 395.783M1238.33 362.443L1248.67 361.435M1124.19 395.93L1114.63 395.445M1124.19 395.93L1135.71 396.513M915.902 397.556L910.862 391.078M65.4929 386.037L20.7736 364.893M65.4929 386.037L105.228 244.092M65.4929 386.037L2.06213 303.896M65.4929 386.037L140.055 465.862L215.953 496.392M20.7736 364.893L2.06296 390.423M20.7736 364.893L2.06213 335.117M20.7736 364.893L100.302 449.456M1310.48 500.039L1303.72 504.393M1292.02 357.21L1248.67 361.435M1292.02 357.21L1313.55 400.291M1313.55 400.291L1332.87 395.658M1313.55 400.291L1257.56 395.783M1221.01 192.376L1235.21 238.088M1221.01 192.376L1263.02 216.248M1221.01 192.376L1193.56 201.733M1235.21 238.088L1206 227.373M1362.53 433.161L1343.13 403.533L1336.97 394.139M1362.53 433.161L1383.91 430.159M1362.53 433.161L1383.91 440.929M1362.53 433.161L1301.3 415.652M1336.97 394.139L1332.87 395.658M1336.97 394.139L1358.5 405.218M411.985 322.126L397.222 344.613M411.985 322.126L387 290.883M411.985 322.126L414.855 324.782M397.222 344.613L381.219 375.317M397.222 344.613L345.577 316.222M397.222 344.613L449.107 382.01M381.219 375.317L327.451 366.965M381.219 375.317L435.248 410.903M1332.87 395.658L1323.12 401.062L1285.28 419.964M1257.56 395.783L1214.25 410.273M1257.56 395.783L1277.49 422.059M1214.25 410.273L1233.46 422.967M403.711 433.877L462.921 434.445M403.711 433.877L385.665 444.127M462.921 434.445L447.684 444.751M462.921 434.445L522.449 435.016M533.752 425.57L590.979 426.094M533.752 425.57L522.449 435.016M533.752 425.57L544.103 408.401M590.979 426.094L598.928 417.402M590.979 426.094L582.294 435.591M590.979 426.094L648.499 426.622M598.928 417.402L654.025 417.886M598.928 417.402L544.103 408.401M654.025 417.886L709.393 418.371M654.025 417.886L648.499 426.622M654.025 417.886L659.101 409.863M709.393 418.371L765.035 418.778M709.393 418.371L706.317 427.152M709.393 418.371L712.218 409.99M765.035 418.778L820.953 413.369M765.035 418.778L764.433 427.646M765.035 418.778L765.589 410.396M820.953 413.369L868.272 404.83M820.953 413.369L819.215 407.002M820.953 413.369L822.85 425.314M868.272 404.83L819.215 407.002M307.845 406.872L327.451 366.965M327.451 366.965L345.577 316.222M327.451 366.965L273.944 304.368M345.577 316.222L362.302 259.997M345.577 316.222L303.331 125.263M362.302 259.997L356.654 255.017M362.302 259.997L387 290.883M1061.36 372.494L1093.87 342.447M1093.87 342.447L1105.54 385.85M1099.03 573.038L1114.31 579.054M1099.03 573.038L1068.66 573.728M140.465 466.3L100.302 449.456M100.302 449.456L54.742 525.286M100.302 449.456L180.412 513.791M1248.67 361.435L1236.69 294.815M1187.62 261.595L1178.52 260.738M1187.62 261.595L1206 227.373M1178.52 260.738L1152.38 247.151M1312.09 376.094L1332.51 395.312M951.394 352.733L948.634 354.403M951.394 352.733L959.149 348.045M951.394 352.733L922.234 340.168M922.234 340.168L883.82 356.316M922.234 340.168L918.152 330.438M922.234 340.168L926.563 351.304M883.82 356.316L880.834 346.415M883.82 356.316L886.923 360.304M1019.11 270.619L1019.96 271.128M1019.11 270.619L1040.03 234.72M1061.3 184.374L1077.42 196.305M1061.3 184.374L1076.83 196.161M1061.3 184.374L1040.51 178.087M890.349 360.412L931.161 364.967M890.349 360.412L887.291 360.317M890.349 360.412L893.927 365.774M931.161 364.967L926.563 351.304M931.161 364.967L936.054 369.582M931.161 364.967L948.634 354.403M948.634 354.403L926.563 351.304M414.855 324.782L422.597 329.581M414.855 324.782L421.99 331.389M422.597 329.581L460.568 357.767M422.597 329.581L432.784 271.847M422.597 329.581L421.99 331.389M460.568 357.767L498.67 358M460.568 357.767L453.684 360.729M460.568 357.767L469.685 336.736M498.67 358L536.902 358.236M498.67 358L506.706 354.067M498.67 358L490.146 362.174M536.902 358.236L575.267 358.471M536.902 358.236L543.853 354.29M536.902 358.236L529.529 362.424M575.267 358.471L613.762 358.707M575.267 358.471L569.054 362.673M575.267 358.471L581.124 354.511M613.762 358.707L608.716 362.925M613.762 358.707L618.518 354.735M691.152 359.183L730.048 359.421M691.152 359.183L688.466 363.429M691.152 359.183L693.683 355.183M730.048 359.421L769.079 359.416M730.048 359.421L728.555 363.684M730.048 359.421L731.455 355.408M769.079 359.416L768.788 363.937M769.079 359.416L769.355 355.42L769.615 351.833L769.86 348.24M840.625 360.101L847.183 359.409M847.183 359.409L849.683 359.145L886.923 360.304M847.183 359.409L843.64 352.263M886.923 360.304L887.291 360.317M603.297 162.264L605.803 169.283M603.297 162.264L600.719 173.092M603.297 162.264L596.447 171.727M603.297 162.264L589.33 169.449L587.557 168.882L571.72 149.983M603.297 162.264L607.255 173.977M605.803 169.283L607.255 173.977M605.803 169.283L622.606 256.841L639.253 267.92L639.852 268.307L641.199 269.304L658.779 282.037M887.291 360.317L926.563 351.304M959.149 348.045L972.12 340.202M959.149 348.045L955.593 328.997M972.12 340.202L972.701 339.988M972.12 340.202L978.339 367.772M972.701 339.988L988.266 334.248M972.701 339.988L955.593 328.997M988.266 334.248L992.173 332.807M988.266 334.248L987.209 330.162M992.173 332.807L987.209 330.162M992.173 332.807L1010.45 326.071M1010.45 326.071L978.339 367.772M1206 227.373L1192.14 236.185M1233.46 422.967L1272.83 423.312M1233.46 422.967L1245.22 430.742M1272.83 423.312L1245.22 430.742M1272.83 423.312L1277.49 422.059M937.498 278.954L952.083 287.764L952.395 287.953M937.498 278.954L941.665 289.009M937.498 278.954L929.213 286.278M952.395 287.953L971.19 299.306M952.395 287.953L951.723 281.769M971.19 299.306L975.445 300.721M971.19 299.306L976.503 308.819M975.445 300.721L951.723 281.769M981.713 302.804L1003.48 304.809M981.713 302.804L1004.98 310.536M1004.98 310.536L1007.75 316.681M1004.98 310.536L1016.87 316.733M957.765 485.681L919.471 493.658M919.471 493.658L839.089 501.473M839.089 501.473L759.275 503.133M759.275 503.133L680.023 502.197M680.023 502.197L601.323 501.212M424.298 517.039L342.404 515.948M424.298 517.039L445.567 499.264M1277.49 422.059L1285.28 419.964M1366.82 463.729L1369.9 466.031M1366.82 463.729L1383.91 497.158M1136.83 203.693L1165.64 193.019L1166.95 192.062M1136.83 203.693L1137.45 204.166M1136.83 203.693L1118.28 189.438M1166.95 192.062L1179.15 206.648M1166.95 192.062L1193.56 201.733M1166.95 192.062L1155.48 193.286L1116.27 194.318M1013.12 464.698L976.111 466.704M1013.12 464.698L986.152 474.919M1013.12 464.698L1014.97 463.992M976.111 466.704L904.076 474.147M976.111 466.704L965.848 461.757L956.598 429.874M976.111 466.704L986.152 474.919M904.076 474.147L832.498 473.35M832.498 473.35L761.368 472.556M761.368 472.556L690.684 471.768M761.368 472.556L763.051 447.772M690.684 471.768L620.442 470.985M620.442 470.985L550.638 470.207M550.638 470.207L481.265 469.433M481.265 469.433L412.323 468.664M481.265 469.433L464.427 483.505M412.323 468.664L391.648 482.646M391.648 482.646L368.5 498.225M391.648 482.646L464.427 483.505M368.5 498.225L342.404 515.948M368.5 498.225L445.567 499.264M1301.3 415.652L1326.3 442.725M1301.3 415.652L1285.28 419.964M1326.3 442.725L1383.91 443.277M1326.3 442.725L1262.42 442.112M1326.3 442.725L1353.83 453.864M559.382 146.597L556.066 237.463M559.382 146.597L570.883 158.176M559.382 146.597L540.094 162.159M556.066 237.463L553.438 273.748M556.066 237.463L539.576 162.576L536.487 159.432M556.066 237.463L575.678 250.732M1354.21 507.985L1383.91 527.893M976.503 308.819L978.028 309.706L981.58 310.912L982.383 311.088M976.503 308.819L981.55 310.808M976.503 308.819L946.059 298.857M982.383 311.088L981.55 310.808M982.383 311.088L1007.75 316.681M929.213 286.278L928.494 286.058M929.213 286.278L919.143 295.183M928.494 286.058L907.777 279.721M928.494 286.058L925.931 265.648M907.777 279.721L910.519 296.5M907.777 279.721L884.597 298.289M884.597 298.289L882.654 298.422M884.597 298.289L910.519 296.5M882.654 298.422L881.481 298.52M882.654 298.422L883.788 308.649M881.481 298.52L878.085 298.803M881.481 298.52L881.513 298.499L887.245 295.004M878.085 298.803L854.857 300.738M878.085 298.803L876.432 291.03M854.857 300.738L850.869 302.441M854.857 300.738L856.38 313.784M850.869 302.441L833.671 309.787M850.869 302.441L850.303 296.651M833.671 309.787L827.128 312.581L809.694 314.977M833.671 309.787L825.159 308.972M772.013 316.66L745.055 316.595M772.013 316.66L771.877 318.727M772.013 316.66L772.146 314.408M745.055 316.595L744.351 318.597M745.055 316.595L745.733 314.214M664.564 298.05L637.862 289.61M664.564 298.05L662.174 310.884M664.564 298.05L666.861 282.152M637.862 289.61L611.223 295.579M637.862 289.61L640.693 281.778M637.862 289.61L634.914 309.07M611.223 295.579L607.72 299.411M611.223 295.579L614.587 279.049M611.223 295.579L584.648 307.128M607.72 299.411L604.068 320.091M607.72 299.411L634.914 309.07M607.72 299.411L580.595 314.204M604.068 320.091L600.255 322.256M604.068 320.091L631.84 320.214M604.068 320.091L576.367 319.968M600.255 322.256L596.274 324.517M600.255 322.256L628.631 322.384M600.255 322.256L581.126 322.17M596.274 324.517L592.109 325.322M596.274 324.517L625.277 324.65M596.274 324.517L587.981 324.479M592.109 325.322L587.75 329.358M592.109 325.322L587.981 324.479M592.109 325.322L621.771 327.023M587.75 329.358L557.483 325.712M587.75 329.358L618.101 329.505M587.75 329.358L583.184 331.951M557.483 325.712L552.198 331.798M557.483 325.712L527.299 328.569M557.483 325.712L562.527 319.287M552.198 331.798L546.654 334.513M552.198 331.798L525.489 331.666M552.198 331.798L583.184 331.951M546.654 334.513L540.832 337.363M546.654 334.513L525.489 331.666M546.654 334.513L578.39 334.674M540.832 337.363L534.71 340.36M540.832 337.363L573.358 337.532M540.832 337.363L515.014 337.228M534.71 340.36L528.265 343.514M534.71 340.36L568.067 340.538M534.71 340.36L521.465 340.288M528.265 343.514L521.469 346.841M528.265 343.514L562.494 343.701M528.265 343.514L516.341 343.448M521.469 346.841L516.341 343.448M521.469 346.841L556.619 347.038M521.469 346.841L506.706 354.067M506.706 354.067L496.137 349.119M506.706 354.067L543.853 354.29M490.146 362.174L455.004 361.952M490.146 362.174L529.529 362.424M490.146 362.174L481.085 366.609M455.004 361.952L453.684 360.729M455.004 361.952L459.888 366.472M1068.66 573.728L1042.57 574.322M1014.97 463.992L1065.21 463.173M221.952 258.459L243.006 230.603M243.006 230.603L250.403 228.614M250.403 228.614L263.386 143.716M250.403 228.614L252.299 169.792M263.386 143.716L288.973 136.837M263.386 143.716L261.093 142.795M288.973 136.837L293.009 135.752M288.973 136.837L290.302 113.701M293.009 135.752L303.331 125.263M293.009 135.752L290.302 113.701M303.331 125.263L312.842 134.972L329.434 231.013M303.331 125.263L273.944 304.368M329.434 231.013L341.469 241.626M329.434 231.013L349.015 232.463M341.469 241.626L344.295 244.118M341.469 241.626L349.015 232.463M344.295 244.118L346.061 245.676M344.295 244.118L349.015 232.463M346.061 245.676L361.814 233.538M346.061 245.676L355.35 253.867M355.35 253.867L356.654 255.017M355.35 253.867L359.348 245.299M356.654 255.017L359.348 245.299M387 290.883L395.977 229.863L396.005 229.673M421.99 331.389L453.684 360.729M459.888 366.472L461.892 368.327M459.888 366.472L481.085 366.609M461.892 368.327L449.107 382.01M461.892 368.327L501.502 394.337L521.999 394.495M521.999 394.495L531.256 388.235M521.999 394.495L570.489 394.872M521.999 394.495L517.963 397.225M531.256 388.235L539.869 382.411M531.256 388.235L578.012 388.585M531.256 388.235L507.206 388.055M539.869 382.411L547.9 376.979M539.869 382.411L585.01 382.736M539.869 382.411L494.909 382.084M547.9 376.979L555.411 371.9M547.9 376.979L591.536 377.282M547.9 376.979L504.437 376.674M555.411 371.9L597.637 372.185M555.411 371.9L513.346 371.616M555.411 371.9L562.448 367.14M597.637 372.185L591.536 377.282M597.637 372.185L603.352 367.408M682.568 372.759L725.276 373.047M682.568 372.759L679.318 377.895M682.568 372.759L685.612 367.945M725.276 373.047L723.468 378.203M725.276 373.047L726.968 368.216M854.377 373.918L897.74 374.21M854.377 373.918L851.956 368.749M854.377 373.918L856.965 379.135M897.74 374.21L941.27 374.504M897.74 374.21L893.927 365.774M897.74 374.21L901.816 379.448M941.27 374.504L984.968 374.799M941.27 374.504L936.054 369.582M941.27 374.504L946.845 379.762M984.968 374.799L978.339 367.772M817.611 399.855L766.099 402.715M817.611 399.855L819.215 407.002M766.099 402.715L714.822 402.52M766.099 402.715L765.589 410.396M766.099 402.715L766.57 395.88M714.822 402.52L663.778 402.469M714.822 402.52L712.218 409.99M714.822 402.52L717.229 395.427M663.778 402.469L659.101 409.863M663.778 402.469L668.102 394.377M562.378 401.65L570.489 394.872M1023.6 197.75L1019.76 193.143M1023.6 197.75L1044.69 200.054M1023.6 197.75L1002.55 225.057M1019.76 193.143L1036.46 178.114M1019.76 193.143L1033.57 183.12M1019.76 193.143L999.041 217.286M511.617 256.792L520.295 260.058M511.617 256.792L506.68 274.907M511.617 256.792L495.986 270.739M506.68 274.907L501.555 308.078M506.68 274.907L495.986 270.739M506.68 274.907L530.597 295.648M501.555 308.078L496.236 310.022M501.555 308.078L525.919 308.441M501.555 308.078L477.245 306.921M539.057 162.995L536.487 159.432M536.487 159.432L516.942 176.513M536.487 159.432L541.72 156.498L553.505 136.399M536.487 159.432L532.769 253.816M463.103 284.117L459.209 287.776M1345.76 233.061L1319.06 251.132M1345.76 233.061L1357.3 266.25M1345.76 233.061L1334.67 214.352L1315.28 245.212M1319.06 251.132L1310.97 262.059M1319.06 251.132L1330.05 252.877M1319.06 251.132L1308.51 256M1263.02 216.248L1295.23 244.524M1047.75 226.073L1044.69 200.054M169.987 165.976L185.783 244.625M169.987 165.976L165.588 170.289M169.987 165.976L196.444 235.932M1309.76 282.897L1306.32 257.014M1309.76 282.897L1318.14 281.094M1306.32 257.014L1305.18 253.266L1295.23 244.524M1306.32 257.014L1306.96 257.098L1318.14 281.094M1135.71 396.513L1146.17 424.556M1135.71 396.513L1167.53 398.326M1330.05 252.877L1357.3 266.25M1330.05 252.877L1315.76 269.313M473.354 245.888L471.709 248.239M473.354 245.888L497.434 237.183M473.354 245.888L468.607 260.133M473.354 245.888L492.086 246.375M471.709 248.239L462.961 261.901L457.732 269.958M471.709 248.239L460.493 262.674L450.278 276.004L442.402 265.619M457.732 269.958L468.607 260.133M457.732 269.958L450.589 276.411M902.491 283.657L900.197 255.448M900.197 255.448L897.863 235.221M900.197 255.448L925.931 265.648M900.197 255.448L874.521 263.877M897.863 235.221L911.845 228.524M897.863 235.221L920.377 219.106M897.863 235.221L872.681 253.22M945.158 225.778L923.101 223.132M945.158 225.778L948.395 226.165M945.158 225.778L920.377 219.106M923.101 223.132L911.845 228.524M923.101 223.132L925.931 265.648M923.101 223.132L920.377 219.106M911.845 228.524L920.377 219.106M1192.14 236.185L1179.15 206.648M1192.14 236.185L1149.06 223.962M1179.15 206.648L1193.56 201.733M1179.15 206.648L1137.45 204.166M500.112 247.571L497.924 248.477M500.112 247.571L498.235 260.884M500.112 247.571L501.717 250.116M497.924 248.477L489.904 251.794M497.924 248.477L493.124 246.402M489.904 251.794L479.364 256.153M489.904 251.794L493.124 246.402M479.364 256.153L478.98 256.883L466.498 280.537M479.364 256.153L477.137 270.935M516.942 176.513L513.039 254.206M516.942 176.513L511.548 230.1M1048.06 461.848L1034.53 438.717L1021.85 411.423M1021.85 411.423L1010.37 395.929M1021.85 411.423L964.867 427.536M1010.37 395.929L964.867 427.536M611.135 250.795L598.061 176.558M611.135 250.795L614.826 251.662M611.135 250.795L596.305 247.314M598.061 176.558L594.192 173.884M598.061 176.558L600.719 173.092M598.061 176.558L596.305 247.314M594.192 173.884L591.942 173.237L578.705 166.051M594.192 173.884L595.396 173.181L600.719 173.092M525.489 331.666L515.008 330.257L501.422 330.78M583.184 331.951L614.253 332.106M583.184 331.951L578.39 334.674M614.253 332.106L645.411 332.26M614.253 332.106L618.101 329.505M614.253 332.106L610.218 334.835M645.411 332.26L648.531 329.653M645.411 332.26L642.135 334.998M707.985 332.57L739.403 332.726M707.985 332.57L706.243 335.323M707.985 332.57L709.644 329.948M739.403 332.726L770.909 332.527M739.403 332.726L738.436 335.487M739.403 332.726L740.325 330.097M770.909 332.527L770.72 335.6L770.521 338.558M770.909 332.527L771.089 330.203M770.909 332.527L801.697 328.394M801.697 328.394L771.089 330.203M801.697 328.394L801.931 328.362L802.503 328.284L807.508 327.14M1262.42 442.112L1286.66 453.19M1262.42 442.112L1245.22 430.742M1286.66 453.19L1353.83 453.864M819.215 407.002L765.589 410.396M822.85 425.314L824.923 436.551M822.85 425.314L764.433 427.646M822.85 425.314L881.569 426.012M824.923 436.551L827.2 448.569M824.923 436.551L763.774 437.33M824.923 436.551L886.404 435.149M827.2 448.569L763.051 447.772M827.2 448.569L891.714 440.141M858.672 583.078L865.153 608.866M858.672 583.078L965.268 557.931M858.672 583.078L753.07 592.718M881.569 426.012L886.404 435.149M881.569 426.012L940.593 409.47M886.404 435.149L912.663 436.827M886.404 435.149L891.714 440.141M912.663 436.827L891.714 440.141M912.663 436.827L946.266 431.51M1044.69 200.054L1040.51 178.087M1040.51 178.087L1036.46 178.114M1040.51 178.087L1033.57 183.12M800.637 323.92L822.153 323.209L825.797 322.957M800.637 323.92L771.582 323.03M800.637 323.92L771.425 325.325M771.582 323.03L742.846 322.9M771.582 323.03L771.425 325.325M771.582 323.03L771.732 320.752M742.846 322.9L714.183 321.378M742.846 322.9L742.044 325.192M742.846 322.9L743.614 320.512M714.183 321.378L712.739 325.056M714.183 321.378L715.566 318.946M657.075 322.512L654.355 324.785M657.075 322.512L628.631 322.384M657.075 322.512L659.679 317.908M654.355 324.785L651.51 327.164M654.355 324.785L625.277 324.65M651.51 327.164L648.531 329.653M651.51 327.164L621.771 327.023M648.531 329.653L618.101 329.505M618.101 329.505L621.771 327.023M610.218 334.835L605.98 337.702M610.218 334.835L578.39 334.674M610.218 334.835L642.135 334.998M605.98 337.702L573.358 337.532M605.98 337.702L638.696 337.873M605.98 337.702L601.521 340.716M573.358 337.532L578.39 334.674M573.358 337.532L568.067 340.538M771.877 318.727L744.351 318.597M771.877 318.727L771.732 320.752M744.351 318.597L716.893 318.311M744.351 318.597L743.614 320.512M716.893 318.311L715.566 318.946M716.893 318.311L718.161 316.368L719.38 310.69M662.174 310.884L634.914 309.07M662.174 310.884L659.679 317.908M634.914 309.07L631.84 320.214M580.595 314.204L576.367 319.968M580.595 314.204L584.648 307.128M580.595 314.204L553.531 317.783M576.367 319.968L574.096 321.08M576.367 319.968L548.733 318.437M548.733 318.437L521.169 319.723M548.733 318.437L544.253 320.843M548.733 318.437L553.531 317.783M521.169 319.723L495.632 319.611M521.169 319.723L526.536 317.666M521.169 319.723L515.566 321.873M1094.8 387.235L1105.54 385.85M1094.8 387.235L1113.27 395.377M1113.27 395.377L1114.63 395.445M1383.91 466.041L1353.83 453.864M1353.83 453.864L1383.91 454.168M688.599 272.844L665.67 262.504M688.599 272.844L687.115 277.282M688.599 272.844L679.457 272.004M688.599 272.844L696.381 277.982M665.67 262.504L663.779 269.109M665.67 262.504L644.266 263.393M665.67 262.504L679.457 272.004M480.214 315.473L505.297 315.579M505.297 315.579L531.685 315.691M505.297 315.579L499.605 317.55M505.297 315.579L510.762 313.685M531.685 315.691L558.136 315.803M531.685 315.691L536.628 313.794M531.685 315.691L526.536 317.666M558.136 315.803L562.144 314.264M558.136 315.803L553.531 317.783M562.144 314.264L569.489 312.088L584.648 307.128M562.144 314.264L570.399 306.973L570.435 306.943L588.539 290.958M584.648 307.128L588.539 290.958M614.587 279.049L633.073 280.982M614.587 279.049L610.301 281.008M367.975 136.872L392.678 103.973M367.975 136.872L361.814 233.538M367.975 136.872L384.756 139.519M367.975 136.872L349.015 232.463M392.678 103.973L386.968 139.869M392.678 103.973L384.756 139.519M392.678 103.973L409.638 240.234L412.234 242.245L430.215 250.417M478.876 256.916L468.607 260.133M468.607 260.133L463.709 278.91M910.862 391.078L862.708 390.717M910.862 391.078L906.179 385.057M862.708 390.717L859.736 384.722M862.708 390.717L865.907 397.168M767.008 389.711L719.459 389.521M767.008 389.711L766.57 395.88M767.008 389.711L767.414 384.053M719.459 389.521L672.112 389.289M719.459 389.521L717.229 395.427M719.459 389.521L721.534 383.723M672.112 389.289L668.102 394.377M672.112 389.289L679.318 377.895M578.012 388.585L570.489 394.872M578.012 388.585L585.01 382.736M946.845 379.762L901.816 379.448M946.845 379.762L952.814 385.394M901.816 379.448L856.965 379.135M901.816 379.448L906.179 385.057M856.965 379.135L859.736 384.722M767.792 378.512L723.468 378.203M767.792 378.512L767.414 384.053M767.792 378.512L768.477 368.488M723.468 378.203L679.318 377.895M723.468 378.203L721.534 383.723M591.536 377.282L585.01 382.736M504.437 376.674L480.686 376.509M504.437 376.674L513.346 371.616M504.437 376.674L494.909 382.084M553.505 136.399L551.679 150.916M553.505 136.399L571.72 149.983M772.942 303.139L795.977 301.154M772.942 303.139L772.84 304.62L772.735 306.156L772.626 307.585L772.512 308.849M772.942 303.139L773.039 301.597M795.977 301.154L796.193 300.408L805.219 299.326M795.977 301.154L773.039 301.597M795.977 301.154L802.295 300.803M795.977 301.154L796.447 303.05M795.977 301.154L795.527 300.406L750.3 301.531M805.219 299.326L802.51 301.295M805.219 299.326L805.658 299.104M948.395 226.165L969.592 235.195L978.365 230.719M948.395 226.165L952.777 228.718M948.395 226.165L951.723 281.769M1152.38 247.151L1149.06 223.962M1149.06 223.962L1137.45 204.166M773.039 301.597L773.133 300.305L773.225 298.94L773.312 297.701L773.397 296.442L773.481 295.242M1101.92 462.574L1065.21 463.173M1101.92 462.574L1081.96 459.652M1065.21 463.173L1081.96 459.652M946.266 431.51L940.593 409.47M946.266 431.51L956.598 429.874M797.118 304.957L797.07 304.205M797.07 304.205L796.447 303.05M797.07 304.205L786.652 304.672L772.787 305.389L749.54 303.774L727.157 302.196M797.07 304.205L802.51 301.295M796.447 303.05L799.539 302.196M750.3 301.531L749.8 303.016L749.281 304.533L748.745 306.068L748.187 307.45L747.609 308.705L747.007 310.183M750.3 301.531L750.783 300.248M1036.46 178.114L1033.57 183.12M750.783 300.248L773.179 299.624L795.102 298.422L808.201 297.82L811.498 296.472M750.783 300.248L751.701 297.628L752.138 296.274L752.56 295.175M1003.48 304.809L999.15 269.223M1003.48 304.809L1006.78 311.443M1357.3 266.25L1364.7 297.674M1383.91 476.514L1369.9 466.031M1369.9 466.031L1383.91 466.18M481.085 366.609L521.693 366.874M481.085 366.609L471.437 371.333M521.693 366.874L562.448 367.14M521.693 366.874L529.529 362.424M521.693 366.874L513.346 371.616M562.448 367.14L603.352 367.408M562.448 367.14L569.054 362.673M603.352 367.408L608.716 362.925M685.612 367.945L726.968 368.216M685.612 367.945L688.466 363.429M726.968 368.216L768.477 368.488M726.968 368.216L728.555 363.684M768.477 368.488L768.788 363.937M851.956 368.749L893.927 365.774M851.956 368.749L849.684 359.146M893.927 365.774L936.054 369.582M495.986 270.739L482.813 265.603M925.931 265.648L951.723 281.769M396.005 229.673L395.847 229.739M396.005 229.673L427.483 265.769M427.483 265.769L432.784 271.847M427.483 265.769L442.402 265.619M432.784 271.847L442.402 265.619M432.784 271.847L469.685 336.736M469.685 336.736L496.137 349.119M496.137 349.119L514.294 350.352L550.414 350.562L556.619 347.038M543.853 354.29L581.124 354.511M543.853 354.29L550.413 350.563L586.652 350.772M581.124 354.511L618.518 354.735M581.124 354.511L586.652 350.772M618.518 354.735L623.006 350.984M623.006 350.984L627.249 347.438M623.006 350.984L586.652 350.772M696.071 351.407L732.783 351.62M696.071 351.407L693.683 355.183M696.071 351.407L698.328 347.838M732.783 351.62L731.455 355.408M732.783 351.62L734.037 348.04M843.64 352.263L880.834 346.415M843.64 352.263L841.847 346.931M880.834 346.415L918.152 330.438M880.834 346.415L878.013 329.831M918.152 330.438L955.593 328.997M918.152 330.438L914.295 321.673M955.593 328.997L950.694 321.719M476.022 309.941L496.236 310.022M496.236 310.022L521.062 310.121M496.236 310.022L490.706 311.767M521.062 310.121L545.942 310.22M521.062 310.121L516.013 311.869M521.062 310.121L525.919 308.441M545.942 310.22L550.336 308.535M545.942 310.22L541.376 311.973M545.942 310.22L564.872 310.297M550.336 308.535L568.821 307.07M550.336 308.535L554.566 306.914M550.336 308.535L525.919 308.441M1082.09 189.912L1077.42 196.305M1077.42 196.305L1076.83 196.161M773.713 291.839L793.709 291.902M773.713 291.839L773.637 292.938L773.561 294.071M773.713 291.839L773.785 290.772M793.709 291.902L793.48 290.834L793.043 288.79M793.709 291.902L793.944 293.004L794.187 294.14L794.438 295.313L794.697 296.015L794.964 297.775L795.24 299.068M874.521 263.877L872.681 253.22M874.521 263.877L876.432 291.03M874.521 263.877L848.902 282.39M848.902 282.39L850.303 296.651M848.902 282.39L847.557 271.551M848.902 282.39L823.343 297.358M823.343 297.358L817.767 299.146L797.655 305.259M823.343 297.358L822.486 291.995L821.614 291.028L821.653 290.921M823.343 297.358L824.232 302.94M797.655 305.259L806.596 300.246M600.719 173.092L614.17 245.317M596.305 247.314L591.874 246.981L585.114 254.415M361.814 233.538L360.274 244.904M361.814 233.538L369.304 241.054M950.694 321.719L946.059 298.857M950.694 321.719L914.295 321.673M950.694 321.719L987.209 330.162M946.059 298.857L941.665 289.009M946.059 298.857L910.645 310.641M941.665 289.009L911.743 303.991L907.066 306.12M941.665 289.009L976.248 308.365L981.55 310.808M628.631 322.384L625.277 324.65M628.631 322.384L631.84 320.214M735.783 288.619L754.662 289.168L773.89 289.236M735.783 288.619L735.151 289.619L734.498 290.65L733.132 292.809M735.783 288.619L736.398 286.754M773.89 289.236L793.043 288.79M773.89 289.236L793.37 290.315M773.89 289.236L755.008 288.078L736.398 286.754M793.043 288.79L811.953 288.358L819.037 287.22M793.043 288.79L792.835 287.813M819.037 287.22L812.445 289.352L793.37 290.315M819.037 287.22L831.38 284.282L832.765 283.612M1011.45 266.055L1007.13 263.476M755.179 287.499L773.992 287.752M755.179 287.499L754.838 288.658L754.486 289.679L753.368 292.875M755.179 287.499L755.511 286.53M773.992 287.752L792.835 287.813M773.992 287.752L774.056 286.615L774.119 285.814L774.181 284.762M773.992 287.752L773.785 290.772M792.835 287.813L811.71 287.868M792.835 287.813L792.632 286.864M811.71 287.868L811.239 285.953L810.78 284.349L810.335 280.015M811.71 287.868L814.953 294.408M385.665 444.127L447.684 444.751M435.248 410.903L449.107 382.01M449.107 382.01L496.378 394.295L501.369 394.946L503.746 395.807M642.201 608.866L648.448 591.328M648.448 591.328L753.07 592.718M648.448 591.328L544.791 590.598L533.04 608.866M699.265 447.145L702.955 436.748M699.265 447.145L635.837 446.643M699.265 447.145L763.051 447.772M702.955 436.748L706.317 427.152M702.955 436.748L642.462 436.167M702.955 436.748L763.774 437.33M706.317 427.152L648.499 426.622M706.317 427.152L764.433 427.646M712.218 409.99L659.101 409.863M712.218 409.99L765.589 410.396M717.229 395.427L766.57 395.88M717.229 395.427L668.102 394.377M721.534 383.723L767.414 384.053M728.555 363.684L768.788 363.937M728.555 363.684L688.466 363.429M731.455 355.408L693.683 355.183M734.037 348.04L735.225 344.65M734.037 348.04L769.86 348.24M734.037 348.04L698.328 347.838M735.225 344.65L736.351 341.437M735.225 344.65L700.466 344.459M735.225 344.65L770.093 344.84M736.351 341.437L737.419 338.387M736.351 341.437L702.491 341.256M736.351 341.437L770.313 341.617M737.419 338.387L738.436 335.487M737.419 338.387L704.417 338.214M737.419 338.387L770.521 338.558M738.436 335.487L706.243 335.323M740.325 330.097L741.204 327.588M740.325 330.097L709.644 329.948M740.325 330.097L771.089 330.203M741.204 327.588L742.044 325.192M741.204 327.588L771.262 327.728M741.204 327.588L711.226 327.445M742.044 325.192L771.425 325.325M742.044 325.192L712.739 325.056M743.614 320.512L715.566 318.946M743.614 320.512L771.732 320.752M745.733 314.214L746.382 312.164M745.733 314.214L719.38 310.69M745.733 314.214L772.146 314.408M746.382 312.164L747.007 310.183M746.382 312.164L720.55 305.431M752.56 295.175L752.97 294.007M752.56 295.175L736.508 293.921M752.97 294.007L753.368 292.875M752.97 294.007L736.508 293.921M752.97 294.007L773.561 294.071M753.368 292.875L733.479 292.261L725.636 291.688M755.511 286.53L755.833 285.559M755.511 286.53L737.286 284.056M755.511 286.53L774.087 286.215M755.833 285.559L756.146 284.515L756.452 283.689L774.24 283.805M755.833 285.559L737.286 284.056M1024.61 288.566L1019.96 271.128M1024.61 288.566L999.15 269.223M1007.13 263.476L994.981 256.228M1007.13 263.476L1006.18 251.97M994.981 256.228L999.15 269.223M994.981 256.228L985.409 248.226M985.409 248.226L980.677 244.271M985.409 248.226L984.828 241.251M980.677 244.271L984.828 241.251M980.677 244.271L970.311 235.605M970.311 235.605L977.538 232.493M872.681 253.22L864.885 258.909M864.885 258.909L863.8 259.699M864.885 258.909L863.604 258.045M863.8 259.699L850.541 269.372M863.8 259.699L863.604 258.045M850.541 269.372L847.557 271.551M850.541 269.372L846.605 269.766M847.557 271.551L846.914 272.074M846.914 272.074L840.465 277.333M846.914 272.074L846.605 269.766M840.465 277.333L834.945 281.835M840.465 277.333L829.155 278.018M834.945 281.835L832.765 283.612M834.945 281.835L829.875 282.183M832.765 283.612L831.477 284.664M831.477 284.664L831.439 284.694L831.341 284.775L824.445 289.768L822.197 291.458M831.477 284.664L831.437 284.688M822.197 291.458L821.663 291.081M822.197 291.458L820.382 293.087L813.746 296.532L810.489 297.827M821.663 291.081L820.868 291.42L819.752 291.984M821.663 291.081L820.064 291.983L819.333 292.397L817.855 293.08M819.752 291.984L817.855 293.08M819.752 291.984L814.014 292.517L794.065 293.571L773.599 293.507L734.161 291.183L722.135 290.613M817.855 293.08L816.125 294.211L815.042 294.59M817.855 293.08L815.349 294.208L815.042 294.59M815.042 294.59L813.041 295.374M815.042 294.59L814.063 295.377L811.498 296.472M813.041 295.374L811.498 296.472M813.041 295.374L794.567 295.664L773.354 297.072L751.475 298.272L729.318 298.079M811.498 296.472L810.489 297.827M810.489 297.827L807.027 299.678L802.51 301.295M810.489 297.827L807.83 298.465L805.658 299.104M802.51 301.295L799.539 302.196M799.539 302.196L798.975 302.48L796.776 303.59M846.605 269.766L828.456 273.52M846.605 269.766L845.675 263.83M828.456 273.52L826.187 274.334M828.456 273.52L845.675 263.83M828.456 273.52L829.155 278.018M556.619 347.038L562.494 343.701M556.619 347.038L591.879 347.238M562.494 343.701L596.829 343.889M562.494 343.701L568.067 340.538M596.829 343.889L631.269 344.079M596.829 343.889L591.879 347.238M596.829 343.889L601.521 340.716M631.269 344.079L627.249 347.438M631.269 344.079L635.079 340.896M700.466 344.459L698.328 347.838M700.466 344.459L702.491 341.256M770.093 344.84L769.86 348.24M770.093 344.84L770.313 341.617M840.151 339.828L862.779 334.921M840.151 339.828L838.543 334.551M840.151 339.828L841.847 346.931M862.779 334.921L838.543 334.551M862.779 334.921L871.035 333.132M899.332 286.008L876.432 291.03M876.432 291.03L850.303 296.651M850.303 296.651L824.232 302.94M824.232 302.94L825.159 308.972M720.55 305.431L719.38 310.69M720.55 305.431L694.779 293.594M694.779 293.594L678.765 290.034M678.765 290.034L666.861 282.152M666.861 282.152L662.104 282.085M662.104 282.085L658.779 282.037M662.104 282.085L663.779 269.109M658.779 282.037L647.649 281.877M647.649 281.877L646.741 281.865M647.649 281.877L638.223 271.145M646.741 281.865L640.693 281.778M646.741 281.865L638.223 271.145M640.693 281.778L633.073 280.982M633.073 280.982L634.67 267.935M610.301 281.008L590.769 289.938M610.301 281.008L611.945 267.797M590.769 289.938L588.539 290.958M590.769 289.938L585.743 289.425M553.531 317.783L526.536 317.666M526.536 317.666L499.605 317.55M499.605 317.55L481.731 317.472M499.605 317.55L494.538 319.303M774.24 283.805L792.056 282.548M774.24 283.805L774.181 284.762M792.056 282.548L809.901 278.58M792.056 282.548L792.243 283.755M809.901 278.58L826.187 274.334M809.901 278.58L810.335 280.015M826.187 274.334L810.335 280.015M480.893 340.156L486.431 323.667M486.431 323.667L451.501 283.636L448.428 278.448M486.431 323.667L516.341 343.448M1298.36 242.157L1302.89 248.341L1304.84 250.986L1308.51 256M1298.36 242.157L1315.28 245.212M1298.36 242.157L1295.23 244.524M1308.51 256L1307.47 256.74M1308.51 256L1315.28 245.212M718.742 289.57L734.825 290.135L773.675 292.389L793.828 292.453L813.476 291.43L821.653 290.921M821.653 290.921L823.449 289.776M751.972 608.865L753.07 592.718M763.051 447.772L763.774 437.33M763.774 437.33L764.433 427.646M770.313 341.617L770.521 338.558M771.089 330.203L771.262 327.728M771.262 327.728L771.425 325.325M772.512 308.849L747.896 308.077L740.623 307.084M773.481 295.242L773.561 294.071M773.481 295.242L752.349 295.723L731.299 293.78L728.959 293.346M773.785 290.772L754.306 290.195L717.205 288.076L712.249 287.575M773.785 290.772L793.37 290.315M774.181 284.762L756.299 284.1L738.691 280.817M774.181 284.762L792.243 283.755M872.474 332.451L870.411 316.434M872.474 332.451L871.035 333.132M872.474 332.451L878.013 329.831M870.411 316.434L868.129 309.907M870.411 316.434L837.016 325.693M870.411 316.434L903.906 308.656M868.129 309.907L856.38 313.784M868.129 309.907L883.788 308.649M703.449 282.651L719.349 282.293M703.449 282.651L701.741 281.521M703.449 282.651L707.869 285.569M719.349 282.293L737.286 284.056M719.349 282.293L720.164 277.539L720.959 276.539M719.349 282.293L718.512 284.173M737.286 284.056L718.512 284.173M774.087 286.215L792.435 285.904M774.087 286.215L755.99 285.036L738.143 281.347M774.087 286.215L792.632 286.864M792.435 285.904L811.009 285.152M792.435 285.904L792.243 283.755M792.435 285.904L792.632 286.864M811.009 285.152L829.875 282.183M811.009 285.152L792.632 286.864M811.009 285.152L829.155 278.018M829.875 282.183L829.155 278.018M829.875 282.183L830.845 284.408L831.437 284.688M578.705 166.051L575.678 250.732M578.705 166.051L570.883 158.176M575.678 250.732L574.526 266.057M575.678 250.732L585.114 254.415M574.526 266.057L585.114 254.415M574.526 266.057L570.028 271.004M442.402 265.619L448.428 278.448M442.402 265.619L437.322 261.681L430.215 250.417M981.545 230.768L984.828 241.251M981.545 230.768L977.538 232.493M981.545 230.768L978.365 230.719M981.545 230.768L1002.55 225.057M984.828 241.251L1006.18 251.97M1006.18 251.97L1002.55 225.057M482.813 265.603L477.245 306.921M482.813 265.603L477.137 270.935M530.597 295.648L554.566 306.914M530.597 295.648L525.919 308.441M530.597 295.648L535.105 265.636M554.566 306.914L568.945 306.969M554.566 306.914L558.641 301.644M1369.81 406.458L1380.12 408.255M1369.81 406.458L1372.33 408.192L1383.91 416.199M1369.81 406.458L1358.5 405.218M1380.12 408.255L1383.91 408.285M1380.12 408.255L1383.91 408.916M535.105 265.636L539.452 269.508L543.902 275.622M535.105 265.636L529.281 263.443M535.105 265.636L558.641 301.644M558.641 301.644L572.695 303.905M558.641 301.644L562.696 300.521L566.365 277.667M642.135 334.998L638.696 337.873M706.243 335.323L704.417 338.214M829.167 322.485L834.185 321.038L835.565 320.657M829.167 322.485L825.797 322.957M829.167 322.485L834.933 320.866L835.566 320.655M386.968 139.869L384.492 234.58M386.968 139.869L395.847 229.739M386.968 139.869L384.756 139.519M384.492 234.58L395.847 229.739M384.492 234.58L369.304 241.054M477.363 311.713L490.706 311.767M490.706 311.767L516.013 311.869M490.706 311.767L484.957 313.578M516.013 311.869L541.376 311.973M516.013 311.869L510.762 313.685M541.376 311.973L536.628 313.794M541.376 311.973L562.716 312.058M430.215 250.417L435.301 260.117M430.215 250.417L414.63 244.102M430.215 250.417L427.97 254.436M614.826 251.662L611.945 267.797M614.826 251.662L633.407 266.9L634.802 266.842L636.862 269.294L639.779 268.256L642.017 269.299L663.779 269.109M611.945 267.797L634.107 266.871L635.456 268.293L636.792 269.344L638.223 271.145M611.945 267.797L589.132 264.1M807.508 327.14L825.797 322.957M711.226 327.445L712.739 325.056M711.226 327.445L709.644 329.948M621.771 327.023L625.277 324.65M568.067 340.538L601.521 340.716M856.38 313.784L852.775 314.976M663.779 269.109L685.583 280.765M956.598 429.874L964.867 427.536M977.538 232.493L978.365 230.719M560.472 313.892L536.628 313.794M536.628 313.794L510.762 313.685M515.566 321.873L503.432 321.819M515.566 321.873L510.498 323.817M515.566 321.873L539.658 321.235M638.696 337.873L635.079 340.896M601.521 340.716L635.079 340.896M1364.7 297.674L1360.39 302.854M1364.7 297.674L1383.91 274.613M631.84 320.214L659.679 317.908M1002.55 225.057L999.041 217.286M360.274 244.904L369.304 241.054M360.274 244.904L359.348 245.299M1358.5 405.218L1383.91 418.292M1105.54 385.85L1114.63 395.445M718.512 284.173L707.869 285.569M718.512 284.173L717.648 287.59M707.869 285.569L709.171 287.366M497.434 237.183L492.281 246.039L492.086 246.375M497.434 237.183L493.124 246.402M497.434 237.183L508.698 231.53M492.086 246.375L493.124 246.402M795.24 299.068L805.658 299.104M795.24 299.068L796.129 301.855M501.717 250.116L511.267 254.242M501.717 250.116L504.287 254.191M878.013 329.831L879.917 329.404M561.032 276.049L570.028 271.004M570.028 271.004L566.365 277.667M883.788 308.649L900.785 307.283M532.769 253.816L529.281 263.443M532.769 253.816L512.929 254.96L508.789 254.29M532.769 253.816L543.696 270.796M529.281 263.443L520.295 260.058M1114.31 579.054L1189.99 608.866M1042.57 574.322L965.268 557.931M1042.57 574.322L981.778 575.706M965.268 557.931L981.778 575.706M999.041 217.286L978.365 230.719M261.093 142.795L265.505 134.28M261.093 142.795L252.299 169.792M265.505 134.28L290.302 113.701M265.505 134.28L240.763 161.924M727.157 302.196L728.478 299.975M727.157 302.196L722.83 302.957M1360.39 302.854L1353.41 297.508M1360.39 302.854L1357.97 305.756M1353.41 297.508L1357.53 305.38M687.115 277.282L685.583 280.765M687.115 277.282L679.457 272.004M687.115 277.282L704.681 285.987L709.171 287.366M685.583 280.765L684.588 289.418M685.583 280.765L707.429 291.841M235.601 168.869L240.763 161.924M825.159 308.972L826.464 312.673L828.179 315.601M587.981 324.479L562.527 319.287M570.883 158.176L571.72 149.983M252.299 169.792L239.887 175.151M910.645 310.641L907.187 306.271L904.883 308.002M910.645 310.641L914.295 321.673M910.645 310.641L881.866 328.213M914.295 321.673L879.917 329.404M936.054 369.582L978.339 367.772M952.814 385.394L906.179 385.057M307.743 407.083L300.271 405.531M511.495 324.099L519.013 324.02M519.013 324.02L533.024 321.8M519.013 324.02L514.017 324.812M533.024 321.8L527.299 328.569M533.024 321.8L539.658 321.235M859.736 384.722L906.179 385.057M638.809 267.625L644.266 263.393M644.266 263.393L639.926 268.225M644.266 263.393L642.391 268.316M696.381 277.982L700.682 280.822L700.794 280.895M696.381 277.982L703.255 277.711M700.794 280.895L701.741 281.521M700.794 280.895L702.218 280.563M701.741 281.521L702.218 280.563M709.171 287.366L715.122 290.353L716.044 289.818M709.171 287.366L712.002 287.575L714.887 288.557L716.044 289.818M716.044 289.818L717.857 289.566L728.959 293.346M716.044 289.818L718.653 291.667L730.131 295.933M728.959 293.346L730.919 294.012M730.919 294.012L731.68 293.545L732.621 293.592L733.132 292.809M730.919 294.012L730.131 295.933M733.132 292.809L729.244 292.797M736.398 286.754L736.996 284.675L737.577 283.434L738.143 281.347M736.398 286.754L717.648 287.59M738.143 281.347L738.691 280.817M738.143 281.347L720.562 277.039M738.691 280.817L720.562 277.039M792.243 283.755L810.335 280.015M845.675 263.83L863.604 258.045M703.255 277.711L716.756 276.818L720.562 277.039M703.255 277.711L702.218 280.563M720.562 277.039L702.218 280.563M484.273 320.823L490.487 318.156M490.487 318.156L487.346 324.101M490.487 318.156L514.611 328.717L527.299 328.569M527.299 328.569L523.333 330.602M539.658 321.235L544.253 320.843M544.253 320.843L562.527 319.287M828.179 315.601L852.775 314.976M828.179 315.601L829.125 322.195M852.775 314.976L835.566 320.655M1007.75 316.681L1016.08 318.52M831.437 284.688L823.449 289.776M823.449 289.776L812.953 290.375L793.37 290.315M478.761 313.552L484.957 313.578M484.957 313.578L510.762 313.685M484.957 313.578L479.972 315.15M1116.27 194.318L1118.28 189.438M1116.27 194.318L1115.36 197.367M1116.27 194.318L1114.81 196.945M1118.28 189.438L1115.36 197.367M911.387 302.041L910.519 296.5M911.387 302.041L907.066 306.12M911.387 302.041L911.42 302.011L919.143 295.183M910.519 296.5L919.143 295.183M511.548 230.1L510.251 230.752L510.012 230.871L508.698 231.53M511.548 230.1L510.327 230.399L508.698 231.53M463.709 278.91L459.295 282.218M463.709 278.91L465.04 278.505M463.709 278.91L462.727 282.116M459.295 282.218L452.374 278.766M459.295 282.218L462.673 283.904L466.09 281.311L477.137 270.935M709.739 286.804L708.603 287.93L707.429 291.841M707.429 291.841L729.318 298.079M585.743 289.425L584.722 294.076M585.743 289.425L589.132 264.1M585.743 289.425L562.573 301.28M607.255 173.977L609.7 232.091M504.287 254.191L508.789 254.29M504.287 254.191L506.846 258.25M508.789 254.29L508.321 257.8M508.789 254.29L520.295 260.058M987.209 330.162L981.55 310.808M900.785 307.283L904.683 307.967M900.785 307.283L903.906 308.656M810.9 296.456L794.83 296.894L773.268 298.32L751.016 299.582L728.478 299.975M728.478 299.975L729.318 298.079M483.313 319.556L487.05 319.573M835.566 320.655L837.016 325.693M837.016 325.693L838.543 334.551M841.847 346.931L871.035 333.132M717.648 287.59L716.761 288.561L715.448 288.558M729.318 298.079L730.131 295.933M566.365 277.667L589.132 264.1M566.365 277.667L543.902 275.622M477.245 306.921L473.859 307.093M477.245 306.921L474.723 308.232M639.839 268.32L639.694 268.215L636.357 268.637M730.131 295.933L751.92 296.951L773.438 295.844L814.571 293.638L817.585 293.079M1115.36 197.367L1114.81 196.945M468.757 371.314L471.437 371.333M471.437 371.333L513.346 371.616M471.437 371.333L470.193 371.94M569.054 362.673L608.716 362.925M569.054 362.673L529.529 362.424M586.652 350.772L591.879 347.238M591.879 347.238L627.249 347.438M704.417 338.214L702.491 341.256M903.906 308.656L904.883 308.002M903.906 308.656L904.819 307.991L907.066 306.12M904.883 308.002L904.19 308.782L895.996 315.649L881.711 327.981L879.917 329.404M904.883 308.002L905.836 306.948L907.066 306.12M981.778 575.706L873.129 608.865M621.091 255.831L619.825 254.288L614.17 245.317M614.17 245.317L609.7 232.091M494.909 382.084L493.472 382.074M494.909 382.084L494.296 382.433M726.217 303.741L726.706 302.97L727.607 301.421M54.742 525.286L2.06213 468.542M196.444 235.932L220.694 260.121L273.944 304.368M589.132 264.1L592.403 246.399L591.345 247.564M215.953 496.392L180.412 513.791M215.953 496.392L247.508 442.896M445.567 499.264L464.427 483.505M635.837 446.643L642.462 436.167M635.837 446.643L572.767 446.009M642.462 436.167L582.294 435.591M642.462 436.167L648.499 426.622M510.05 445.378L572.767 446.009M510.05 445.378L447.684 444.751M510.05 445.378L522.449 435.016M572.767 446.009L582.294 435.591M582.294 435.591L522.449 435.016M247.508 442.896L275.711 436.847M275.711 436.847L300.334 447.826M561.802 300.219L543.902 275.622M609.7 232.091L621.998 256.436M473.992 338.049L449.021 280.794L448.428 278.448M732.604 293.617L736.508 293.921M518.456 330.4L517.877 330.146L514.81 329.487L510.437 335.057M1383.27 608.47H2.40499M1384.68 274.139V608.47" stroke="url(#paint0_linear_317_45)" stroke-linecap="round" stroke-linejoin="round"/>
<defs>
<linearGradient id="paint0_linear_317_45" x1="708.25" y1="608.866" x2="719.311" y2="-33.9799" gradientUnits="userSpaceOnUse">
<stop offset="0.078125" stop-color="#0F0D19" stop-opacity="0"/>
<stop offset="0.3125" stop-color="#4100CC" stop-opacity="0.5"/>
<stop offset="0.833333" stop-color="#FF6D44"/>
</linearGradient>
</defs>
</svg>
