<svg width="545" height="385" viewBox="0 0 545 385" fill="none" xmlns="http://www.w3.org/2000/svg">
<path d="M64.1343 281.362L1 384.369H50.3643M64.1343 281.362L104.02 216.286M64.1343 281.362L102.359 281.362M104.02 216.286L131.502 171.447M104.02 216.286H135.207M131.502 171.447L151.588 138.677M131.502 171.447L157.84 171.447M151.588 138.677L166.909 113.68M151.588 138.677L174.381 138.677M166.909 113.68H187M166.909 113.68L178.982 93.9838M187 113.68H207.09M187 113.68L174.381 138.677M187 113.68L196.941 93.9837M207.09 113.68H227.179M207.09 113.68L214.901 93.9837M207.09 113.68L197.175 138.677M227.179 113.68H247.269M227.179 113.68L219.967 138.677M227.179 113.68L232.861 93.9837M247.269 113.68H267.359M247.269 113.68L250.82 93.9837M247.269 113.68L242.761 138.677M267.359 113.68H287.449M267.359 113.68L265.555 138.677M267.359 113.68L268.78 93.9837M287.449 113.68H307.538M287.449 113.68L288.349 138.677M287.449 113.68L286.739 93.9838M307.538 113.68H327.629M307.538 113.68L304.7 93.9838M307.538 113.68L311.141 138.677M327.629 113.68H347.719M327.629 113.68L333.935 138.677M327.629 113.68L322.658 93.9838M347.719 113.68H367.808M347.719 113.68L340.619 93.9838M347.719 113.68L356.728 138.677M367.808 113.68H387.899M367.808 113.68L358.579 93.9838M367.808 113.68L379.521 138.677M387.899 113.68L402.315 138.677M387.899 113.68L376.539 93.9838M50.3643 384.369L102.359 281.362M50.3643 384.369H99.7296M102.359 281.362L135.207 216.286M102.359 281.362H140.583M135.207 216.286L157.84 171.447M135.207 216.286H166.395M157.84 171.447L174.381 138.677M157.84 171.447H184.177M174.381 138.677H197.175M196.941 93.9837L204.977 78.0641M196.941 93.9837H214.901M196.941 93.9837L178.982 93.9838M204.977 78.0641L211.607 64.9293M204.977 78.0641H221.215M204.977 78.0641L188.74 78.0641M211.607 64.9293L217.17 53.9078M211.607 64.9293H226.425M211.607 64.9293L196.789 64.9293M217.17 53.9078L221.905 44.5285M217.17 53.9078H230.795M217.17 53.9078H203.544M221.905 44.5285L225.983 36.4475M221.905 44.5285H234.515M221.905 44.5285H209.294M225.983 36.4475L229.533 29.4153M225.983 36.4475H237.721M225.983 36.4475L214.247 36.4476M229.533 29.4153L232.651 23.2377M229.533 29.4153H240.511M229.533 29.4153L218.557 29.4153M232.651 23.2377L235.412 17.7704M232.651 23.2377H242.96M232.651 23.2377L222.342 23.2377M235.412 17.7704L237.871 12.8954M235.412 17.7704H245.129M235.412 17.7704L225.694 17.7704M237.871 12.8954L240.08 8.5218M237.871 12.8954H247.062M237.871 12.8954H228.681M240.08 8.5218L242.07 4.57679M240.08 8.5218H248.796M240.08 8.5218L231.363 8.5218M242.07 4.57679L243.875 1M242.07 4.57679H250.361M242.07 4.57679L233.78 4.57679L231.363 8.5218M243.875 1H251.779M243.875 1H235.974L233.781 4.57679M251.779 1L250.361 4.57679M251.779 1H259.683M250.361 4.57679L248.796 8.5218M250.361 4.57679H258.651M248.796 8.5218L247.062 12.8954M248.796 8.5218H257.513M247.062 12.8954L245.129 17.7704M247.062 12.8954H256.252M245.129 17.7704L242.96 23.2377M245.129 17.7704H254.845M242.96 23.2377L240.511 29.4153M242.96 23.2377H253.268M240.511 29.4153L237.721 36.4475M240.511 29.4153H251.487M237.721 36.4475L234.515 44.5285M237.721 36.4475H249.457M234.515 44.5285L230.795 53.9078M234.515 44.5285H247.127M230.795 53.9078L226.425 64.9293M230.795 53.9078H244.42M226.425 64.9293L221.215 78.0641M226.425 64.9293H241.241M221.215 78.0641L214.901 93.9837M221.215 78.0641H237.453M214.901 93.9837H232.861M197.175 138.677L184.177 171.447M197.175 138.677H219.967M184.177 171.447L166.395 216.286M184.177 171.447H210.515M166.395 216.286L140.583 281.362M166.395 216.286H197.581M140.583 281.362L99.7296 384.369M140.583 281.362H178.808M99.7296 384.369H149.094M149.094 384.369L178.808 281.362M149.094 384.369H198.46M178.808 281.362L197.581 216.286M178.808 281.362H217.033M197.581 216.286L210.515 171.447M197.581 216.286H228.767M210.515 171.447L219.967 138.677M210.515 171.447H236.852M219.967 138.677H242.761M232.861 93.9837L237.453 78.0641M232.861 93.9837H250.82M237.453 78.0641L241.241 64.9293M237.453 78.0641H253.69M241.241 64.9293L244.42 53.9078M241.241 64.9293H256.059M244.42 53.9078L247.127 44.5285M244.42 53.9078H258.047M247.127 44.5285L249.457 36.4475M247.127 44.5285H259.738M249.457 36.4475L251.487 29.4153M249.457 36.4475H261.195M251.487 29.4153L253.268 23.2377M251.487 29.4153H262.463M253.268 23.2377L254.845 17.7704M253.268 23.2377H263.576M254.845 17.7704L256.252 12.8954M254.845 17.7704H264.563M256.252 12.8954L257.513 8.5218M256.252 12.8954H265.441M257.513 8.5218L258.651 4.57679M257.513 8.5218H266.23M258.651 4.57679L259.683 1M258.651 4.57679H266.942M259.683 1H267.587M267.587 1L266.942 4.57679M267.587 1H275.49M266.942 4.57679L266.23 8.5218M266.942 4.57679H275.232M266.23 8.5218L265.441 12.8954M266.23 8.5218H274.947M265.441 12.8954L264.563 17.7704M265.441 12.8954H274.631M264.563 17.7704L263.576 23.2377M264.563 17.7704H274.28M263.576 23.2377L262.463 29.4153M263.576 23.2377H273.885M262.463 29.4153L261.195 36.4475M262.463 29.4153H273.44M261.195 36.4475L259.738 44.5285M261.195 36.4475H272.932M259.738 44.5285L258.047 53.9078M259.738 44.5285H272.349M258.047 53.9078L256.059 64.9293M258.047 53.9078H271.672M256.059 64.9293L253.69 78.0641M256.059 64.9293H270.876M253.69 78.0641L250.82 93.9837M253.69 78.0641H269.928M250.82 93.9837H268.78M242.761 138.677L236.852 171.447M242.761 138.677H265.555M236.852 171.447L228.767 216.286M236.852 171.447H263.189M228.767 216.286L217.033 281.362M228.767 216.286H259.955M217.033 281.362L198.46 384.369M217.033 281.362H255.259M198.46 384.369H247.824M247.824 384.369L255.259 281.362M247.824 384.369H297.19M255.259 281.362L259.955 216.286M255.259 281.362L293.483 281.362M259.955 216.286L263.189 171.447M259.955 216.286H291.141M263.189 171.447L265.555 138.677M263.189 171.447L289.528 171.447M265.555 138.677L288.349 138.677M268.78 93.9837L269.928 78.0641M268.78 93.9837L286.739 93.9838M269.928 78.0641L270.876 64.9293M269.928 78.0641L286.167 78.0641M270.876 64.9293L271.672 53.9078M270.876 64.9293L285.694 64.9293M271.672 53.9078L272.349 44.5285M271.672 53.9078H285.298M272.349 44.5285L272.932 36.4475M272.349 44.5285H284.96M272.932 36.4475L273.44 29.4153M272.932 36.4475L284.67 36.4476M273.44 29.4153L273.885 23.2377M273.44 29.4153L284.416 29.4153M273.885 23.2377L274.28 17.7704M273.885 23.2377L284.193 23.2377M274.28 17.7704L274.631 12.8954M274.28 17.7704L283.997 17.7704M274.631 12.8954L274.947 8.5218M274.631 12.8954H283.821M274.947 8.5218L275.232 4.57679M274.947 8.5218L283.665 8.5218M275.232 4.57679L275.49 1M275.232 4.57679L283.522 4.57679M275.49 1H283.394M494.65 384.369H544.015L447.075 216.286M494.65 384.369H445.285M494.65 384.369L415.887 216.286M445.285 384.369H395.921M445.285 384.369L384.701 216.286M395.921 384.369H346.554M395.921 384.369L369.933 281.362M346.554 384.369H297.19M346.554 384.369L331.708 281.362M297.19 384.369L293.483 281.362M484.607 281.362H369.933M369.933 281.362H331.708M369.933 281.362L353.515 216.286M331.708 281.362H293.483M331.708 281.362L322.327 216.286M293.483 281.362L291.141 216.286M447.075 216.286H415.887M447.075 216.286L421.215 171.447M415.887 216.286H384.701M415.887 216.286L394.878 171.447M384.701 216.286H353.515M384.701 216.286L368.54 171.447M353.515 216.286H322.327M353.515 216.286L342.202 171.447M322.327 216.286H291.141M322.327 216.286L315.865 171.447M291.141 216.286L289.528 171.447M289.528 171.447H315.865M289.528 171.447L288.349 138.677M315.865 171.447H342.202M315.865 171.447L311.141 138.677M342.202 171.447H368.54M342.202 171.447L333.935 138.677M368.54 171.447H394.878M368.54 171.447L356.728 138.677M394.878 171.447H421.215M394.878 171.447L379.521 138.677M421.215 171.447L402.315 138.677M376.539 93.9838H358.579M376.539 93.9838L359.782 64.9293M358.579 93.9838H340.619M358.579 93.9838L351.119 78.0641M340.619 93.9838H322.658M340.619 93.9838L334.881 78.0641M322.658 93.9838H304.7M322.658 93.9838L318.643 78.0641M304.7 93.9838H286.739M304.7 93.9838L302.405 78.0641M286.739 93.9838L286.167 78.0641M178.982 93.9838L188.74 78.0641M288.349 138.677H311.141M311.141 138.677H333.935M333.935 138.677H356.728M356.728 138.677H379.521M379.521 138.677H402.315M367.357 78.0641H351.119M351.119 78.0641H334.881M351.119 78.0641L344.964 64.9293M334.881 78.0641H318.643M334.881 78.0641L330.147 64.9293M318.643 78.0641H302.405M318.643 78.0641L315.329 64.9293M302.405 78.0641H286.167M302.405 78.0641L300.511 64.9293M286.167 78.0641L285.694 64.9293M188.74 78.0641L196.789 64.9293M359.782 64.9293H344.964M359.782 64.9293L348.015 44.5285M344.964 64.9293H330.147M344.964 64.9293L339.8 53.9078M330.147 64.9293H315.329M330.147 64.9293L326.174 53.9078M315.329 64.9293H300.511M315.329 64.9293L312.549 53.9078M300.511 64.9293H285.694M300.511 64.9293L298.923 53.9078M285.694 64.9293L285.298 53.9078M196.789 64.9293L203.544 53.9078M353.425 53.9078H339.8M339.8 53.9078H326.174M339.8 53.9078L335.404 44.5285M326.174 53.9078H312.549M326.174 53.9078L322.793 44.5285M312.549 53.9078H298.923M312.549 53.9078L310.182 44.5285M298.923 53.9078H285.298M298.923 53.9078L297.571 44.5285M285.298 53.9078L284.96 44.5285M203.544 53.9078L209.294 44.5285M348.015 44.5285H335.404M348.015 44.5285L343.355 36.4476M335.404 44.5285H322.793M335.404 44.5285L331.619 36.4476M322.793 44.5285H310.182M322.793 44.5285L319.881 36.4476M310.182 44.5285H297.571M310.182 44.5285L308.144 36.4476M297.571 44.5285H284.96M297.571 44.5285L296.406 36.4476M284.96 44.5285L284.67 36.4476M209.294 44.5285L214.247 36.4476M343.355 36.4476H331.619M343.355 36.4476L339.299 29.4153M331.619 36.4476H319.881M331.619 36.4476L328.322 29.4153M319.881 36.4476H308.144M319.881 36.4476L317.345 29.4153M308.144 36.4476H296.406M308.144 36.4476L306.369 29.4153M296.406 36.4476H284.67M296.406 36.4476L295.394 29.4153M284.67 36.4476L284.416 29.4153M214.247 36.4476L218.557 29.4153M339.299 29.4153H328.322M339.299 29.4153L335.736 23.2377M328.322 29.4153H317.345M328.322 29.4153L325.427 23.2377M317.345 29.4153H306.369M317.345 29.4153L315.12 23.2377M306.369 29.4153H295.394M306.369 29.4153L304.811 23.2377M295.394 29.4153H284.416M295.394 29.4153L294.502 23.2377M284.416 29.4153L284.193 23.2377M218.557 29.4153L222.342 23.2377M335.736 23.2377H325.427M335.736 23.2377L332.583 17.7704M325.427 23.2377H315.12M325.427 23.2377L322.866 17.7704M315.12 23.2377H304.811M315.12 23.2377L313.148 17.7704M304.811 23.2377H294.502M304.811 23.2377L303.43 17.7704M294.502 23.2377H284.193M294.502 23.2377L293.714 17.7704M284.193 23.2377L283.997 17.7704M222.342 23.2377L225.694 17.7704M332.583 17.7704H322.866M332.583 17.7704L329.772 12.8954M322.866 17.7704H313.148M322.866 17.7704L320.582 12.8954M313.148 17.7704H303.43M313.148 17.7704L311.391 12.8954M303.43 17.7704H293.714M303.43 17.7704L302.202 12.8954M293.714 17.7704H283.997M293.714 17.7704L293.011 12.8954M283.997 17.7704L283.821 12.8954M225.694 17.7704L228.681 12.8954M329.772 12.8954H320.582M329.772 12.8954L327.249 8.5218M320.582 12.8954H311.391M320.582 12.8954L318.532 8.5218M311.391 12.8954H302.202M311.391 12.8954L309.815 8.5218M302.202 12.8954H293.011M302.202 12.8954L301.098 8.5218M293.011 12.8954H283.821M293.011 12.8954L292.381 8.5218M283.821 12.8954L283.665 8.5218M228.681 12.8954L231.363 8.5218M327.249 8.5218H318.532M327.249 8.5218L324.974 4.57679M318.532 8.5218H309.815M318.532 8.5218L316.683 4.57679M309.815 8.5218H301.098M309.815 8.5218L308.393 4.57679M301.098 8.5218H292.381M301.098 8.5218L300.103 4.57679M292.381 8.5218H283.665M292.381 8.5218L291.812 4.57679M283.665 8.5218L283.522 4.57679M324.974 4.57679H316.683M324.974 4.57679L322.911 1M316.683 4.57679H308.393M316.683 4.57679L315.008 1M308.393 4.57679H300.103M308.393 4.57679L307.105 1M300.103 4.57679H291.812M300.103 4.57679L299.2 1M291.812 4.57679H283.522M291.812 4.57679L291.298 1M283.522 4.57679L283.394 1M322.912 1H291.298M291.298 1H283.394" stroke="url(#paint0_linear_317_40)" stroke-linecap="round" stroke-linejoin="round"/>
<defs>
<linearGradient id="paint0_linear_317_40" x1="252.929" y1="-45.2405" x2="263.503" y2="384.369" gradientUnits="userSpaceOnUse">
<stop offset="0.078125" stop-color="#0F0D19" stop-opacity="0"/>
<stop offset="0.3125" stop-color="#4100CC" stop-opacity="0.5"/>
<stop offset="0.833333" stop-color="#FF6D44"/>
</linearGradient>
</defs>
</svg>
