<svg width="2063" height="1069" viewBox="0 0 2063 1069" fill="none" xmlns="http://www.w3.org/2000/svg">
<path d="M29.3986 715.616C174.537 587.328 397.424 486.639 615.812 507.621C710.954 516.762 806.382 510.312 900.825 523.658C978.477 534.631 1056.49 544.304 1133.94 556.599C1187.29 565.069 1241.1 579.822 1296.15 587.6C1367.61 597.699 1452 614.402 1522.21 633.909C1675.4 676.469 1829.74 665.269 1979.84 643.816" stroke="url(#paint0_linear_374_10)" stroke-width="30" stroke-linecap="round"/>
<path d="M69.3984 746C140.496 711.148 206.045 694.771 282.287 677.555C363.252 659.273 445.939 642 528.954 642C665.269 642 794.137 620.396 926.287 662.444C1042.49 699.416 1161.11 728.773 1277.4 762C1390.64 794.355 1504.51 794 1621.4 794C1712.07 812.666 1920.6 829.2 2029.4 746" stroke="#FF6D44" stroke-width="30" stroke-linecap="round"/>
<path d="M15.1271 241.624C102.62 227.307 176.275 207.105 261.187 229.005C321.684 244.607 375.277 274.505 432.775 296.317C600.703 360.021 830.252 400.108 1009.64 324.956" stroke="url(#paint1_linear_374_10)" stroke-width="30" stroke-linecap="round"/>
<path d="M210.526 157.099C298.019 142.782 371.673 122.58 456.585 144.479C517.082 160.082 570.676 189.98 628.173 211.792C796.102 275.496 1025.65 315.583 1205.04 240.431" stroke="#4100CC" stroke-width="10" stroke-linecap="round"/>
<path d="M2010.93 249.321C1964.03 255.877 1919.56 272.664 1872.78 279.203C1838.53 283.991 1808.27 269.852 1773.34 261.978C1730.94 252.421 1686.73 210.072 1644.94 215.913C1590.63 223.505 1535.88 220.587 1481.81 228.146C1453.78 232.064 1426.71 235.268 1400.69 249.469C1361.78 270.698 1329.73 312.83 1287.46 318.739C1246.77 328.106 1146.97 339.859 1073.28 311.94" stroke="url(#paint2_linear_374_10)" stroke-width="30" stroke-linecap="round"/>
<path d="M2030.81 383.321C1985.86 389.605 1943.3 406.125 1898.46 412.393C1865.62 416.983 1836.51 402.683 1802.96 394.617C1762.23 384.827 1719.58 342.259 1679.52 347.859C1627.46 355.136 1574.92 351.909 1523.09 359.155C1496.22 362.91 1470.28 365.958 1445.39 379.999C1408.19 400.99 1377.68 442.906 1337.16 448.571" stroke="#4100CC" stroke-width="20" stroke-linecap="round"/>
<path d="M2052 956C1937.33 1009.33 1653.6 1100 1436 1036" stroke="#FF6D44" stroke-width="20" stroke-linecap="round"/>
<defs>
<linearGradient id="paint0_linear_374_10" x1="-83.771" y1="465.319" x2="2186.99" y2="935.398" gradientUnits="userSpaceOnUse">
<stop stop-color="#FF6D44"/>
<stop offset="1" stop-color="#4100CC"/>
</linearGradient>
<linearGradient id="paint1_linear_374_10" x1="746.783" y1="769.277" x2="556.15" y2="404.806" gradientUnits="userSpaceOnUse">
<stop stop-color="#4100CC"/>
<stop offset="1" stop-color="#FF6D44"/>
</linearGradient>
<linearGradient id="paint2_linear_374_10" x1="1347.57" y1="-56.4594" x2="1616.29" y2="382.488" gradientUnits="userSpaceOnUse">
<stop offset="0.0520833" stop-color="#FFA959"/>
<stop offset="0.984375" stop-color="#FF6D44"/>
</linearGradient>
</defs>
</svg>
