<svg width="70" height="164" viewBox="0 0 70 164" fill="none" xmlns="http://www.w3.org/2000/svg">
<path d="M1.89648 7.19691L5.54481 14.1869M5.54481 14.1869L9.15979 21.1118M5.54481 14.1869L4.64649 15.7438M5.54481 14.1869L10.4728 12.4444L19.0078 10.5201L30.0603 8.45092M9.15979 21.1118L8.27539 22.5407M9.15979 21.1118L13.5886 19.5092M9.15979 21.1118L16.2911 34.7752L15.5601 35.9371M7.31055 5.27994L1.89455 7.19741L1 8.91594L11.8885 29.3097M7.31055 5.27994L16.8164 3.19385M7.31055 5.27994L13.5886 19.5092M13.5886 19.5092L16.6631 26.4768M13.5886 19.5092L21.1585 17.7183L30.8936 15.7578M16.6631 26.4768L19.6961 33.3503M16.6631 26.4768L12.74 27.9755L11.8885 29.3097M16.6631 26.4768L23.2711 24.7928M19.6961 33.3503L20.4753 35.1163M19.6961 33.3503L16.2891 34.7755L16.7881 35.7317M19.6961 33.3503L25.3491 31.7453M20.4753 35.1163L16.7881 35.7317M20.4753 35.1163L24.8828 34.3809M16.8164 3.19385L29.2082 1M16.8164 3.19385L23.2711 24.7928M23.2711 24.7928L25.3491 31.7453M23.2711 24.7928L31.7107 22.9235M25.3491 31.7453L26.0769 34.1808M25.3491 31.7453L32.5128 29.9532M26.0769 34.1808L24.8828 34.3809M26.0769 34.1808L32.8643 33.0426M29.207 1.00009L31.4795 20.9095M31.4795 20.9095L32.4254 21.0338M31.4795 20.9095L32.8643 33.0426M32.8643 33.0426L33.353 32.9606M15.4381 35.9576L11.8885 29.3097M15.4381 35.9576L14.752 36.0718M15.4381 35.9576L15.5579 35.9372L16.7881 35.7317M61.8255 19.101L59.5518 25.8013M61.8255 19.101L67.0803 21.0033L68.5035 23.113L65.5391 29.995M61.8255 19.101L53.5179 17.4099M59.5518 25.8013L58.8887 27.7545M59.5518 25.8013L52.0287 24.0247M59.5518 25.8013L61.7978 26.7477M58.8887 27.7545L58.8194 27.7781M58.8887 27.7545L61.7978 26.7477M36.791 32.3843L37.2695 63.8888M37.2695 63.8888L32.0591 64.8541L30.5504 65.0841M37.2695 63.8888L43.1978 62.79M63.5253 61.2975L61.243 67.8319M63.5253 61.2975L59.4159 64.1425M63.5253 61.2975L65.8237 54.7147M61.243 67.8319L57.5039 70.6579M61.243 67.8319L58.9762 74.3192L55.611 77.1059M57.5039 70.6579L55.611 77.1059M57.5039 70.6579L50.9526 73.3562M57.5039 70.6579L59.4159 64.1425M55.611 77.1059L49.7244 79.7561M55.611 77.1059L53.7369 83.4874L48.5113 86.0751L47.3142 92.3147L45.832 92.8732M49.7244 79.7561L42.0928 82.1117L33.7781 84.0455M49.7244 79.7561L50.9526 73.3562M49.7244 79.7561L48.5127 86.0749L41.7349 88.3738L34.3355 90.2659M33.7781 84.0455L25.9981 85.5013M33.7781 84.0455L34.3355 90.2659M33.7781 84.0455L32.0605 64.854M25.9981 85.5013L19.8346 86.4915M25.9981 85.5013L27.3863 91.7004M25.9981 85.5013L24.5931 79.2232M19.8346 86.4915L16.0982 87.1111L15.1855 87.4967M19.8346 86.4915L21.8467 92.6899M19.8346 86.4915L17.8022 80.229M15.1855 87.4967L12.7849 81.2311M15.1855 87.4967L18.9341 97.2833M45.832 92.8732L47.2712 92.5425M45.832 92.8732L41.418 93.8873M63.2816 49.399L61.2321 55.9262M63.2816 49.399L57.9863 47.5221M63.2816 49.399L66.4302 51.9503L65.8237 54.7147M61.2321 55.9262L60.6426 57.8038M61.2321 55.9262L55.4115 53.6343M61.2321 55.9262L62.3428 56.9269M60.6426 57.8038L61.3488 57.5578M60.6426 57.8038L53.4548 60.3077L49.5527 61.2521M53.5179 17.4099L52.0287 24.0247M53.5179 17.4099L43.1719 15.8957M52.0287 24.0247L50.7578 29.6696M52.0287 24.0247L42.6394 22.4496M50.7578 29.6696L48.7121 30.149L41.9102 31.4244M50.7578 29.6696L58.8194 27.7781M53.4559 60.3079L50.9526 73.3562M50.9526 73.3562L42.4553 75.7612M34.3355 90.2659L27.3863 91.7004M34.3355 90.2659L34.775 95.17M27.3863 91.7004L21.8467 92.6899M27.3863 91.7004L28.3968 96.2135M21.8467 92.6899L18.4514 93.3249L17.5762 93.736M21.8467 92.6899L23.1865 96.818M43.1719 15.8957L42.6394 22.4496M43.1719 15.8957L31.918 14.5089M42.6394 22.4496L32.4254 21.0338M42.6394 22.4496L41.9102 31.4244M41.9102 31.4244L36.7919 32.3838L33.353 32.9606M31.918 14.5089L32.4254 21.0338M31.918 14.5089L30.7338 14.3654M32.4254 21.0338L33.353 32.9606M43.1978 62.79L42.8239 69.3214M43.1978 62.79L48.8433 61.4237M42.8239 69.3214L42.4553 75.7612M42.8239 69.3214L32.6399 71.3417L23.1688 72.8663L15.7476 73.9022L11.3403 74.5464L10.375 74.9399M42.8239 69.3214L52.1951 66.8745L59.4159 64.1425M42.4553 75.7612L33.2129 77.7374L24.5931 79.2232M42.4553 75.7612L41.418 93.8873M41.418 93.8873L38.4668 94.5662M65.4705 82.8662L63.6171 89.1525L61.4203 92.4166L56.0057 95.5822L48.0212 98.4164L38.5733 100.72M65.4705 82.8662L64.2055 79.7176M65.4705 82.8662L63.1128 86.1514L62.2891 86.6027M38.5733 100.72L29.0313 102.369M38.5733 100.72L38.4668 94.5662M38.5733 100.72L38.781 112.807M29.0313 102.369L20.8009 103.352M29.0313 102.369L28.1875 96.2479M29.0313 102.369L30.6897 114.401M20.8009 103.352L14.9992 103.758M20.8009 103.352L19.3496 97.2554M20.8009 103.352L23.6618 115.364M14.9992 103.758L12.3242 103.772M14.9992 103.758L13.1543 97.6764M14.9992 103.758L18.6464 115.779M12.3242 103.772L10.3359 97.6994M12.3242 103.772L16.2676 115.82M64.2055 79.7176L59.6446 76.8789L58.2466 76.41M64.2055 79.7176L62.2891 86.6027M62.2891 86.6027L57.2775 89.3495M63.6162 89.1519L59.938 101.627M59.938 101.627L58.0727 104.8L56.4189 110.92M59.938 101.627L58.1124 107.817L56.4189 110.92M56.4189 110.92L52.2635 113.907M56.4189 110.92L54.7777 116.992L51.0408 119.893M52.2635 113.907L46.1421 116.571M52.2635 113.907L51.0408 119.893M52.2635 113.907L57.221 89.6233L57.2775 89.3495M46.1421 116.571L38.8828 118.742M46.1421 116.571L45.5303 122.486M46.1421 116.571L48.6608 92.2228M38.8828 118.742L31.5039 120.314M38.8828 118.742L38.781 112.807M38.8828 118.742L38.9841 124.608M31.5039 120.314L25.0694 121.28L20.4476 121.718L18.2227 121.797M31.5039 120.314L30.6897 114.401M31.5039 120.314L33.8954 137.658M18.2227 121.797L20.1686 127.742M18.2227 121.797L16.2676 115.82M59.6459 76.878L58.2244 83.1676M58.2244 83.1676L56.803 89.4583M58.2244 83.1676L56.1504 82.4156M58.2244 83.1676L62.455 86.0105L62.6094 86.4274M56.803 89.4583L56.791 89.5114M56.803 89.4583L54.0645 88.3855M56.803 89.4583L56.8489 89.4918M48.6608 92.2228L47.2712 92.5425M48.6608 92.2228L53.259 90.6897M45.5303 122.486L45.457 123.193M45.5303 122.486L51.0408 119.893M45.5303 122.486L38.9841 124.608M45.457 123.193L44.3328 123.535L44.1289 129.402M45.457 123.193L53.5472 120.739M62.0279 106.534L60.752 112.586L62.8541 115.213M38.4668 94.5662L28.3961 96.2142L28.1875 96.2479M38.781 112.807L46.7621 110.59L53.4991 107.86L58.0737 104.8L59.7404 98.6327L61.7734 95.4061M38.781 112.807L30.6897 114.401M38.9841 124.608L39.084 130.404M38.9841 124.608L32.3095 126.161L26.4641 127.138L22.2355 127.613L20.1686 127.742M39.084 130.404L39.1827 136.132M39.084 130.404L44.1552 128.606M39.084 130.404L33.1063 131.942L27.8455 132.939L24.0101 133.462L22.1035 133.655M39.1827 136.132L39.6737 135.94M39.1827 136.132L34.1712 137.578M64.499 113.67L63.0606 119.668M64.499 113.67L64.947 109.975L62.0294 106.535L58.9597 104.95M64.499 113.67L60.5722 117.358M63.0606 119.668L61.631 125.631M63.0606 119.668L59.3684 123.314M61.631 125.631L58.1747 129.222M61.631 125.631L60.209 131.557M58.1747 129.222L56.9901 135.083M58.1747 129.222L59.3684 123.314M58.1747 129.222L52.0085 132.502M56.9901 135.083L55.8147 140.898M56.9901 135.083L60.209 131.557M56.9901 135.083L51.2505 138.3M55.8147 140.898L54.6487 146.666M55.8147 140.898L58.7962 137.449M55.8147 140.898L50.4992 144.042M54.6487 146.666L53.4919 152.389M54.6487 146.666L57.3919 143.306M54.6487 146.666L49.7551 149.731M53.4919 152.389L49.0182 155.366M53.4919 152.389L55.9957 149.128M53.4919 152.389L52.3433 158.067M49.0182 155.366L43.1426 157.841M49.0182 155.366L49.7551 149.731M49.0182 155.366L48.2871 160.949M43.1426 157.841L43.3359 152.27M43.1426 157.841L42.9512 163.356L48.2871 160.949M60.209 131.557L58.7962 137.449M58.7962 137.449L57.3919 143.306M57.3919 143.306L55.9957 149.128M55.9957 149.128L54.6083 154.916L52.3433 158.067M52.3433 158.067L48.2871 160.949M60.5722 117.358L59.3684 123.314M60.5722 117.358L59.6543 117.8M59.3684 123.314L52.7737 126.649M52.7737 126.649L44.1289 129.402M52.7737 126.649L53.5472 120.739M52.7737 126.649L52.0085 132.502M44.1289 129.402L43.9277 135.208M25.7723 139.265L18.6464 115.779M25.7723 139.265L29.2139 138.683L33.8954 137.658M25.7723 139.265L24.0293 139.538M18.6464 115.779L23.6618 115.364M18.6464 115.779L16.2676 115.82M13.1543 97.6764L16.1311 97.4744M13.1543 97.6764L10.3359 97.6994M29.2151 138.683L23.6618 115.364M23.6618 115.364L30.6897 114.401M33.8954 137.658L34.1712 137.578M28.1875 96.2479L23.1865 96.818M60.7537 112.586L59.6543 117.8M59.6543 117.8L54.4296 120.314M57.9863 47.5221L56.7467 50.3977L54.9554 52.7813L52.3378 59.4555L49.5527 61.2521M57.9863 47.5221L59.6593 43.6375M22.1035 133.655L24.0293 139.538M22.1035 133.655L20.1686 127.742M52.0085 132.502L43.9277 135.208M52.0085 132.502L51.2505 138.3M43.9277 135.208L43.7285 140.954M67.0814 21.0036L65.2031 25.5695M43.9597 134.259L39.7539 135.908M39.7539 135.908L39.6849 135.935L39.6737 135.94M39.7539 135.908L39.7546 135.956M39.6737 135.94L39.7546 135.956M34.1712 137.578L34.5156 140.915M24.0293 139.538L24.187 139.66L26.1955 139.822L29.7867 140.191L34.5156 140.915M24.5931 79.2232L17.8022 80.229M24.5931 79.2232L21.7285 66.4265M51.2505 138.3L43.7285 140.954M51.2505 138.3L50.4992 144.042M43.7285 140.954L43.5312 146.641M50.4992 144.042L43.5312 146.641M50.4992 144.042L49.7551 149.731M43.5312 146.641L43.3359 152.27M64.9454 109.975L63.9219 114.21M23.1865 96.818L19.3484 97.2559L18.9341 97.2833M17.8022 80.229L13.7278 80.8512L12.7849 81.2311M17.8022 80.229L13.6738 67.5088M49.7551 149.731L43.3359 152.27M19.9163 97.191L8.9375 68.1942M43.8588 137.17L39.7546 135.956M39.7546 135.956L39.8252 142.101M30.5504 65.0841L29.843 61.2519M30.5504 65.0841L24.539 65.9987M29.843 61.2519L23.4595 62.698M29.843 61.2519L37.2038 59.4853L44.5074 57.4315L50.7009 55.1615M29.843 61.2519L26.1527 41.2597M26.1527 41.2597L24.8828 34.3809M26.1527 41.2597L16.9733 42.8641M26.1527 41.2597L36.8976 39.3312L47.6356 37.1349L56.7479 34.7659M18.9341 97.2833L16.1311 97.4744M12.7849 81.2311L10.375 74.9399M10.375 74.9399L7.95508 68.6227L8.93531 68.1939L13.6728 67.5085L17.7917 66.9557M60.7526 112.587L57.2695 110.681M57.2695 110.681L56.2977 113.976L54.7786 116.992L53.7997 120.618M57.2695 110.681L58.1134 107.818M43.6448 143.331L39.8252 142.101M39.8252 142.101L34.5156 140.915M10.3359 97.6994L11.0739 97.5439L15.0728 97.4477L16.1311 97.4744M58.7763 118.222L55.5898 116.374M24.539 65.9987L23.4595 62.698M24.539 65.9987L21.7274 66.4266L20.107 66.6447M23.4595 62.698L18.9281 63.8481M23.4595 62.698L16.9733 42.8641M16.9733 42.8641L14.752 36.0718M16.9733 42.8641L10.625 44.1524M14.752 36.0718L7.80078 37.4532M54.4296 120.314L54.3845 120.336M54.4296 120.314L54.4924 120.102M54.3845 120.336L53.7997 120.618M54.3845 120.336L54.4924 120.102M53.7997 120.618L53.5472 120.739M66.4324 51.9503L65.3418 55.0221M49.5527 61.2521L48.8433 61.4237M20.107 66.6447L18.9281 63.8481M20.107 66.6447L17.8017 66.9542M18.9281 63.8481L16.8004 64.768M18.9281 63.8481L10.625 44.1524M10.625 44.1524L7.80078 37.4532M10.625 44.1524L7.83008 45.1813M7.80078 37.4532L4.80274 38.5709L7.83008 45.1813M58.8194 27.7781L56.7479 34.7659M7.83008 45.1813L16.8004 64.768M56.7479 34.7659L54.7057 41.6572M56.7479 34.7659L62.9711 32.3487L65.5391 29.995M61.7978 26.7477L65.6971 25.3984M54.0645 88.3855L54.4956 87.1529M54.0645 88.3855L53.259 90.6897M10.8398 51.7501L13.4219 50.7836L19.1663 49.5646L27.4034 48.0291L37.0024 46.1614L46.5772 44.0084M46.5772 44.0084L54.7057 41.6572M46.5772 44.0084L45.5345 50.7736M46.5772 44.0084L48.7136 30.1497M54.7057 41.6572L60.2734 39.2287M54.7057 41.6572L50.7009 55.1615M60.2734 39.2287L62.5916 36.8364L65.5391 29.995M60.2734 39.2287L57.6023 46.0396L52.6902 48.4557L45.5345 50.7736M60.2734 39.2287L65.6984 25.3985L68.5045 23.1134M17.8017 66.9542L16.8004 64.768M17.8017 66.9542L17.7917 66.9557M16.8004 64.768L17.7917 66.9557M13.8301 58.2794L16.1895 57.3489L21.3283 56.1758L28.6334 54.6928L37.1045 52.8791L45.5345 50.7736M45.5345 50.7736L43.7012 62.6691M50.7009 55.1615L54.9565 52.7813L57.6008 46.0395L59.6604 43.6375L62.5902 36.8367M50.7009 55.1615L48.8433 61.4237M56.1504 82.4156L56.7288 80.759M56.1504 82.4156L54.4956 87.1529M29.7881 140.192L29.4902 138.623M58.2466 76.41L58.9772 74.3189M58.2466 76.41L56.7276 80.7594L53.7379 83.4871L51.8837 89.8032L47.3152 92.3145L47.2712 92.5425M57.2775 89.3495L56.8479 89.4926L56.7898 89.5122L53.259 90.6897M52.6914 59.8131L53.8909 60.1378M52.6914 59.8131L53.8538 57.1175M52.6914 59.8131L52.3652 60.5719M53.8909 60.1378L53.9143 60.1481M53.8909 60.1378L55.4115 53.6343M53.8909 60.1378L53.8867 60.1578M61.3488 57.5578L59.4159 64.1425M61.3488 57.5578L65.8237 54.7147M32.2344 27.5063L32.938 27.6091L42.1044 29.0499L48.2533 30.2355M26.1969 139.822L26.0391 139.221M55.4796 53.343L55.4115 53.6343M55.4796 53.343L56.749 50.3973M55.4796 53.343L55.3594 53.6215M55.4115 53.6343L55.3594 53.6215M54.4924 120.102L55.5919 116.373L55.5965 116.358L56.2989 113.975M55.3594 53.6215L53.8538 57.1175M51.0408 119.893L50.6914 121.605M53.8538 57.1175L52.3402 59.4551L51.8535 60.6954M54.4956 87.1529L51.8849 89.8028L51.4473 91.2936M63.1151 86.1508L59.7419 98.6326L54.7476 101.752L47.3895 104.538L38.6795 106.8L29.8668 108.419L22.2398 109.388L16.8315 109.792L14.3027 109.812" stroke="url(#paint0_linear_317_44)" stroke-linecap="round" stroke-linejoin="round"/>
<defs>
<linearGradient id="paint0_linear_317_44" x1="28.1743" y1="111.528" x2="90.7624" y2="69.354" gradientUnits="userSpaceOnUse">
<stop stop-color="#FF6D44"/>
<stop offset="0.296875" stop-color="#FFA959"/>
<stop offset="1" stop-color="#E7E7E8"/>
</linearGradient>
</defs>
</svg>
