<svg width="194" height="161" viewBox="0 0 194 161" fill="none" xmlns="http://www.w3.org/2000/svg">
<path d="M24.0741 26.4596L40.8484 20.9621M24.0741 26.4596L41.6483 28.8167M24.0741 26.4596L24.2539 36.1674M40.8484 20.9621L58.1673 23.2074M40.8484 20.9621L56.8416 15.721M58.1673 23.2074L75.835 25.4979M58.1673 23.2074L73.9084 17.8627M58.1673 23.2074L41.6483 28.8167M75.835 25.4979L93.8624 27.8352M75.835 25.4979L91.3114 20.0459M75.835 25.4979L59.5869 31.2222M93.8624 27.8352L112.261 30.2205M93.8624 27.8352L77.8978 33.678M93.8624 27.8352L123.546 16.9711M112.261 30.2205L131.042 32.6555M112.261 30.2205L127.166 24.5442M112.261 30.2205L96.5967 36.1855M131.042 32.6555L115.694 38.7466L96.5967 36.1855M131.042 32.6555L145.639 26.8622M167.84 9.05481L150.573 7.07958L137.369 11.9121M167.84 9.05481L185.433 11.0676M167.84 9.05481L154.908 13.9795M137.369 11.9121L120.159 9.88354L106.07 14.8469M137.369 11.9121L154.908 13.9795M137.369 11.9121L123.546 16.9711M106.07 14.8469L91.3114 20.0459M106.07 14.8469L123.546 16.9711M106.07 14.8469L88.9271 12.7633M91.3114 20.0459L73.9084 17.8627M91.3114 20.0459L127.166 24.5442M73.9084 17.8627L88.9271 12.7633M73.9084 17.8627L56.8416 15.721M41.6483 28.8167L59.5869 31.2222M41.6483 28.8167L41.7855 38.6175M145.639 26.8622L127.166 24.5442M145.639 26.8622L159.537 21.3457M145.639 26.8622L145.51 36.5858M127.166 24.5442L141.365 19.1369M59.5869 31.2222L77.8978 33.678M59.5869 31.2222L59.6785 41.1177M172.786 16.0869L154.908 13.9795M172.786 16.0869L159.537 21.3457M172.786 16.0869L185.433 11.0676M172.786 16.0869L172.411 34.6361M154.908 13.9795L141.365 19.1369M123.546 16.9711L141.365 19.1369M77.8978 33.678L96.5967 36.1855M77.8978 33.678L77.9872 53.6105M72.107 10.7185L88.9271 12.7633M72.107 10.7185L86.6923 5.93872M72.107 10.7185L56.8416 15.721M88.9271 12.7633L103.27 7.89288M103.27 7.89288L116.983 3.23645M103.27 7.89288L120.16 9.8836L133.624 5.14041M103.27 7.89288L86.6923 5.93872M116.983 3.23645L133.624 5.14041M116.983 3.23645L100.642 1.36719L86.6923 5.93872M133.624 5.14041L150.574 7.07963M159.537 21.3457L141.365 19.1369M159.537 21.3457L159.378 30.8514M185.433 11.0676L185.22 20.1652M96.5967 36.1855L96.5936 46.276M32.8491 47.0498L24.4322 45.8261L24.2539 36.1674M32.8491 47.0498L41.9212 48.3681M32.8491 47.0498L32.5402 47.4795M41.9212 48.3681L59.7696 50.9621M41.9212 48.3681L41.7855 38.6175M59.7696 50.9621L59.6785 41.1177M59.7696 50.9621L96.5893 56.3138M96.5893 56.3138L115.586 59.0747M96.5893 56.3138L96.5936 46.276M115.586 59.0747L115.64 48.9379M115.586 59.0747L143.62 47.0185M143.62 47.0185L145.383 46.2603M143.62 47.0185L143.605 48.2109L139.763 62.1715M145.383 46.2603L159.22 40.3102M145.383 46.2603L145.51 36.5858M159.22 40.3102L159.378 30.8514M159.22 40.3102L185.008 29.2197L185.22 20.1652M24.2539 36.1674L41.7855 38.6175M41.7855 38.6175L59.6785 41.1177M59.6785 41.1177L96.5936 46.276M96.5936 46.276L115.64 48.9379M115.64 48.9379L115.695 38.7465M115.64 48.9379L145.51 36.5858M145.51 36.5858L159.378 30.8514M159.378 30.8514L185.22 20.1652M130.857 52.5076L131.044 32.6555M133.338 65.6918L110.805 65.0609M110.805 65.0609L88.3762 64.4326M110.805 65.0609L113.209 58.7303M110.805 65.0609L110.762 75.3565M88.3762 64.4326L92.0299 56.5621M88.3762 64.4326L88.3947 74.7067M88.3762 64.4326L21.7142 62.566M21.7142 62.566L21.9114 72.7736M21.7142 62.566L27.2847 54.803L92.0299 56.5621M133.234 76.01L110.762 75.3565M133.234 76.01L135.578 67.7847M133.234 76.01L133.132 86.2726L135.472 77.7682M110.762 75.3565L88.3947 74.7067M110.762 75.3565L110.719 85.5967M88.3947 74.7067L66.1309 74.059M88.3947 74.7067L88.4118 84.9249M66.1309 74.059L43.9701 73.4147M66.1309 74.059L66.0528 63.8077L72.1157 52.7576M66.1309 74.059L66.2087 84.2551M43.9701 73.4147L21.9114 72.7736M43.9701 73.4147L43.8331 63.185L52.2623 49.8713M43.9701 73.4147L44.1078 83.5892M21.9114 72.7736L22.107 82.9262L88.4118 84.9249M133.131 86.2726L110.719 85.5967M110.719 85.5967L88.4118 84.9249M119.681 57.3137L135.686 57.7484M135.686 57.7484L133.34 65.6918L133.236 76.01M135.686 57.7484L135.578 67.7847M135.686 57.7484L137.897 50.2597M99.739 56.7717L92.0299 56.5621M92.0299 56.5621L92.4263 55.7092M36.5313 47.5852L32.5411 47.4795L27.2857 54.8029M135.472 77.7682L135.578 67.7847M135.472 77.7682L136.583 73.7269M135.578 67.7847L137.787 60.0289M137.897 50.2597L136.189 50.2144M137.897 50.2597L138.161 49.3663M137.897 50.2597L137.787 60.0289M141.735 55.0029L141.824 47.7909M136.583 73.7269L137.678 69.7482M136.583 73.7269L137.911 74.6754M137.678 69.7482L139.763 62.1715M137.678 69.7482L137.787 60.0289M139.763 62.1715L139.874 52.7032M139.874 52.7032L141.197 48.0603M139.874 52.7032L139.922 48.6086M139.874 52.7032L137.787 60.0289M41.6357 92.221L50.5506 101.213M41.6357 92.221L33.2319 83.7443M41.6357 92.221L63.6866 90.2497M41.6357 92.221L41.7831 102.62M50.5506 101.213L73.2046 99.1205M50.5506 101.213L50.6772 111.901M56.9557 83.9769L63.6866 90.2497M63.6866 90.2497L73.2057 99.1205M63.6866 90.2497L85.4447 88.3043M73.2057 99.1205L95.5509 97.0562M73.2057 99.1205L73.2665 109.742M95.5509 97.0562L85.4447 88.3043M95.5509 97.0562L117.593 95.0203M81.2956 84.7109L85.4447 88.3043M85.4447 88.3043L106.918 86.3846M117.593 95.0203L106.918 86.3846M117.593 95.0203L139.34 93.0115M117.593 95.0203L117.53 105.51M32.7389 83.2468L33.2319 83.7443M33.2319 83.7443L37.3648 83.3859M33.2319 83.7443L33.5618 103.94M106.918 86.3846L105.76 85.4475M106.918 86.3846L114.463 85.71M139.34 93.0115L160.797 91.0295M139.34 93.0115L139.217 103.436M139.34 93.0115L130.349 86.189M160.797 91.0295L160.615 101.39M160.797 91.0295L149.028 82.6193M22.9336 82.9513L25.4756 85.6039M25.4756 85.6039L25.6561 95.4174M25.4756 85.6039L25.4275 83.0263M25.4756 85.6039L41.7831 102.62M41.7831 102.62L50.6772 111.901M41.7831 102.62L41.9303 112.963M50.6772 111.901L73.2665 109.742M50.6772 111.901L50.8033 122.53M73.2665 109.742L95.5481 107.611M73.2665 109.742L73.3281 120.303M95.5481 107.611L117.53 105.51M95.5481 107.611L95.5494 97.0563M95.5481 107.611L95.5462 118.107M117.53 105.51L139.217 103.436M117.53 105.51L117.468 115.941M139.217 103.436L160.615 101.39M139.217 103.436L139.096 113.803M160.615 101.39L160.576 103.634M10.6753 60.9931L17.7872 68.1665M10.6753 60.9931L23.5775 59.9711M10.6753 60.9931L10.8836 70.3761M17.7872 68.1665L17.9827 77.7845M17.7872 68.1665L21.9029 72.3183M17.7872 68.1665L21.8162 67.8375M17.9827 77.7845L18.1772 87.3537M17.9827 77.7845L10.8836 70.3761M17.9827 77.7845L22.0918 82.0715M18.1772 87.3537L25.0829 94.7987M18.1772 87.3537L11.0906 79.7127L10.8836 70.3761M25.0829 94.7987L18.6146 96.3671M25.0829 94.7987L33.5618 103.94M33.5618 103.94L41.9303 112.963M41.9303 112.963L44.1582 115.365M44.1582 115.365L50.8033 122.53M44.1582 115.365L41.5584 114.465M50.8033 122.53L73.3281 120.303M73.3281 120.303L117.468 115.941M117.468 115.941L139.096 113.803M139.096 113.803L160.437 111.694L160.576 103.634M149.028 82.6193L133.761 83.9842M149.028 82.6193L137.911 74.6754M160.576 103.634L168.698 106.038M137.911 74.6754L136.283 74.8168M192.518 113.089L168.698 106.038M192.518 113.089L176.845 117.757M192.518 113.089L192.25 123.378M168.698 106.038L160.494 108.375M157.808 111.954L176.845 117.757M176.845 117.757L160.705 122.565M109.255 137.891L85.6099 129.709L85.6636 151.205M109.255 137.891L126.934 132.625M109.255 137.891L109.211 148.91M126.934 132.625L144.075 127.519M126.934 132.625L86.2945 119.022M126.934 132.625L126.748 154.291M30.1048 100.214L18.6146 96.3671M18.6146 96.3671L1.35742 100.553M1.35742 100.553L1.6035 110.47M1.35742 100.553L21.0091 107.354M21.4067 127.537L1.84958 120.334L1.6035 110.47M21.4067 127.537L41.8528 135.068M21.4067 127.537L21.2081 117.473M41.8528 135.068L63.2491 142.949M41.8528 135.068L41.7057 124.795M63.2491 142.949L85.6636 151.205M63.2491 142.949L63.0699 121.909L66.4678 120.981M85.6636 151.205L109.171 159.863M109.171 159.863L126.748 154.291M109.171 159.863L109.211 148.91M126.748 154.291L160.336 143.644M160.336 143.644L176.392 138.554M160.336 143.644L160.706 122.565M176.392 138.554L191.985 133.611M176.392 138.554L176.847 117.757M1.6035 110.47L21.2081 117.473M21.2081 117.473L41.7057 124.795M21.2081 117.473L21.0091 107.354M41.7057 124.795L41.5584 114.465M41.7057 124.795L109.211 148.91M109.211 148.91L143.934 138.234M143.934 138.234L143.794 148.887M143.934 138.234L144.074 127.519M143.934 138.234L192.25 123.378M192.25 123.378L191.984 133.611M61.7385 121.449L85.6086 129.709L120.321 119.82M120.321 119.82L144.074 127.519M120.321 119.82L136.918 115.092L160.705 122.565M120.321 119.82L110.484 116.631M144.074 127.519L160.705 122.565M21.0091 107.354L33.7504 104.144M21.0091 107.354L41.5584 114.465M41.5584 114.465L42.9781 114.093M134.321 114.275L136.919 115.092L142.687 113.448" stroke="url(#paint0_linear_317_46)" stroke-linecap="round" stroke-linejoin="round"/>
<defs>
<linearGradient id="paint0_linear_317_46" x1="78.31" y1="109.268" x2="131.77" y2="4.77161" gradientUnits="userSpaceOnUse">
<stop stop-color="#FF6D44"/>
<stop offset="0.296875" stop-color="#FFA959"/>
<stop offset="1" stop-color="#E7E7E8"/>
</linearGradient>
</defs>
</svg>
