<svg width="1659" height="545" viewBox="0 0 1659 545" fill="none" xmlns="http://www.w3.org/2000/svg">
<path d="M73.7651 1.57796L0.999854 1.46026L20.2623 45.0036M73.7651 1.57796L146.469 1.69577M73.7651 1.57796L91.1171 45.099M146.469 1.69577L219.097 1.81467M146.469 1.69577L161.896 45.1955M219.097 1.81467L364.178 2.0554M219.097 1.81467L245.503 86.5665L257.792 125.804M364.178 2.0554L436.624 2.17998M364.178 2.0554L373.943 45.5094M436.624 2.17998L509.007 2.30888M436.624 2.17998L444.521 45.6297M509.007 2.30888L581.324 2.44247M509.007 2.30888L515.039 45.7647M581.324 2.44247L653.566 2.57852M581.324 2.44247L585.486 45.9105M653.566 2.57852L725.732 2.71532M653.566 2.57852L655.845 46.0592L658.217 87.3785L660.862 125.442M725.732 2.71532L726.097 46.1966M725.732 2.71532L869.835 2.965M869.835 2.965L941.789 3.0755M869.835 2.965L866.32 46.4315M941.789 3.0755L1013.69 3.17603M941.789 3.0755L936.336 46.5102M1013.69 3.17603L1006.33 46.5714L999.091 87.8244L991.768 125.783M1013.69 3.17603L1157.34 3.36485M1157.34 3.36485L1229.08 3.46297M1157.34 3.36485L1146.27 46.6404M1229.08 3.46297L1216.19 46.6837M1229.08 3.46297L1372.37 3.67527M1372.37 3.67527L1443.9 3.78719M1372.37 3.67527L1355.82 46.8125M1443.9 3.78719L1515.37 3.90192M1443.9 3.78719L1425.52 46.894M1515.37 3.90192L1586.78 4.01751M1515.37 3.90192L1495.15 46.9843M1586.78 4.01751L1658.12 4.13146L1634.22 47.1681M1586.78 4.01751L1564.72 47.0749M1495.15 46.9843L1475.95 87.889M1495.15 46.9843L1425.52 46.894M1495.15 46.9843L1564.72 47.0749M1475.95 87.889L1457.67 126.779M1475.95 87.889L1408.05 87.828M1475.95 87.889L1611.52 88.0311M1457.67 126.779L1440.27 163.802M1457.67 126.779L1523.85 126.824M1457.67 126.779L1325.01 126.761M1440.27 163.802L1423.67 199.085L1407.82 232.613L1378.26 294.798L1364.47 323.975M1440.27 163.802L1375.52 163.814M1440.27 163.802L1504.88 163.822M1364.47 323.975L1351.26 352.342L1338.58 379.689L1326.42 405.868M1364.47 323.975L1306.22 321.135M1364.47 323.975L1422.29 324.758M1326.42 405.868L1314.74 430.874M1326.42 405.868L1380.73 405.982M1326.42 405.868L1271.87 405.263L1216.95 403.072L1161.54 397.295L1105.93 385.454L1050.81 366.586L996.76 342.719M1314.74 430.874L1367.97 430.864M1314.74 430.874L1261.35 430.7M1314.74 430.874L1292.78 477.835M1292.78 477.835L1343.94 477.792L1367.97 430.864M1292.78 477.835L1282.42 500M1292.78 477.835L1190.22 477.85M1190.22 477.85L1138.84 477.786L1087.43 477.578L1036.02 477.203M1190.22 477.85L1198.83 454.647L1207.73 430.033M1190.22 477.85L1181.89 500.075M1036.02 477.203L984.693 476.603M1036.02 477.203L1041.04 450.884M1036.02 477.203L1030.86 500.054L1025.69 521.577L1020.52 542.213M984.693 476.603L933.488 475.901M984.693 476.603L988.554 447.656M984.693 476.603L980.532 500.009M933.488 475.901L882.428 475.286M933.488 475.901L936.356 443.829L938.998 392.236M933.488 475.901L930.253 499.944M882.428 475.286L831.459 474.979M882.428 475.286L884.515 440.377L886.471 381.316M882.428 475.286L880.013 499.919M831.459 474.979L780.487 475.102M831.459 474.979L832.961 438.448L834.242 374.813M831.459 474.979L829.788 499.929M780.487 475.102L729.417 475.635M780.487 475.102L779.536 500.022L778.659 521.863M780.487 475.102L781.485 438.705L782.26 375.268M729.417 475.635L678.178 476.417M729.417 475.635L729.218 500.189M729.417 475.635L729.882 441.031M678.178 476.417L626.74 477.232M678.178 476.417L678.807 500.383M678.178 476.417L677.94 444.63M626.74 477.232L575.125 477.928L523.378 478.4M626.74 477.232L628.296 500.599M626.74 477.232L625.573 448.444L624.664 405.353M523.378 478.4L471.562 478.718M523.378 478.4L527.011 500.951M523.378 478.4L519.855 453.832M471.562 478.718L476.273 501.091L480.909 522.574M471.562 478.718L466.802 455.044L462.023 428.775M471.562 478.718L367.878 479.038M367.878 479.038L316.055 479.151M367.878 479.038L374.708 501.327M367.878 479.038L360.801 455.867M316.055 479.151L264.237 479.245M316.055 479.151L323.903 501.429M316.055 479.151L299.403 431.928M264.237 479.245L212.418 479.323M264.237 479.245L273.078 501.52M264.237 479.245L245.461 432.032M212.418 479.323L222.267 501.602M212.418 479.323L191.565 432.105M191.565 432.105L180.485 407.061M191.565 432.105L245.461 432.032M180.485 407.061L235.497 406.992L290.569 406.769M180.485 407.061L156.936 353.803L144.421 325.41L117.616 264.88M117.616 264.88L178.892 264.835M117.616 264.88L72.4543 162.948M72.4543 162.948L55.9191 125.588M72.4543 162.948L138.144 162.997M55.9191 125.588L38.5429 86.3234M55.9191 125.588L123.231 125.65M38.5429 86.3234L20.2623 45.0036M38.5429 86.3234L107.579 86.4005M20.2623 45.0036L91.1171 45.099M91.1171 45.099L161.896 45.1955M91.1171 45.099L107.579 86.4005M161.896 45.1955L176.57 86.4804M161.896 45.1955L373.943 45.5094M373.943 45.5094L444.521 45.6297M373.943 45.5094L383.293 86.788M444.521 45.6297L515.039 45.7647M444.521 45.6297L452.145 86.9337L459.638 126.126M515.039 45.7647L585.486 45.9105M515.039 45.7647L520.945 87.0898M585.486 45.9105L589.653 87.2523L594.019 125.854M585.486 45.9105L726.097 46.1966M726.097 46.1966L726.599 87.5063M726.097 46.1966L866.32 46.4315M866.32 46.4315L936.336 46.5102M866.32 46.4315L862.911 87.6899L859.507 124.811M936.336 46.5102L930.973 87.7839M936.336 46.5102L1146.27 46.6404M1146.27 46.6404L1216.19 46.6837M1146.27 46.6404L1135.55 87.8132M1216.19 46.6837L1203.8 87.7838M1216.19 46.6837L1355.82 46.8125M1355.82 46.8125L1425.52 46.894M1355.82 46.8125L1340.07 87.7843M1425.52 46.894L1408.05 87.828M1564.72 47.0749L1634.22 47.1681M1564.72 47.0749L1523.85 126.824M107.579 86.4005L176.57 86.4804M107.579 86.4005L123.231 125.65M176.57 86.4804L190.526 125.72M176.57 86.4804L383.293 86.788M383.293 86.788L392.335 126.055L401.186 163.074M383.293 86.788L520.945 87.0898M520.945 87.0898L526.9 126.104L533.142 160.669M520.945 87.0898L726.599 87.5063M726.599 87.5063L727.358 125M726.599 87.5063L930.973 87.7839M930.973 87.7839L925.526 125.198L919.73 149.905M930.973 87.7839L1067.29 87.8446M1067.29 87.8446L1135.55 87.8132M1067.29 87.8446L1076.3 46.6079L1085.54 3.27188M1067.29 87.8446L1058.28 126.328L1048.96 157.966M1135.55 87.8132L1203.8 87.7838M1135.55 87.8132L1125 126.684L1114.34 161.085M1203.8 87.7838L1191.77 126.792L1179.89 162.881M1203.8 87.7838L1340.07 87.7843M1340.07 87.7843L1408.05 87.828M1340.07 87.7843L1325.01 126.761M1408.05 87.828L1375.52 163.814M123.231 125.65L190.526 125.72M123.231 125.65L138.144 162.997M190.526 125.72L257.792 125.804M190.526 125.72L203.836 163.063M257.792 125.804L269.529 163.156L280.807 198.598L291.639 231.932L301.962 262.988M257.792 125.804L459.638 126.126M459.638 126.126L526.902 126.104L594.019 125.854M459.638 126.126L467.173 162.384L474.857 192.379L482.262 211.951L488.32 224.282M594.019 125.854L660.862 125.442M594.019 125.854L598.858 157.686L603.991 172.024M660.862 125.442L727.358 125M660.862 125.442L664.026 153.798M727.358 125L793.527 124.748L859.507 124.811M727.358 125L728.522 149.958M859.507 124.811L925.527 125.198L991.768 125.783M859.507 124.811L855.967 147.557M991.768 125.783L1058.29 126.327L1125 126.684L1191.77 126.793L1325.01 126.761M991.768 125.783L984.037 153.896L976.145 157.691M1325.01 126.761L1310.56 163.797M1523.85 126.824L1589.94 126.876M1523.85 126.824L1504.88 163.822M1589.94 126.876L1634.22 47.1681M1589.94 126.876L1549.83 199.095M138.144 162.997L203.836 163.063M138.144 162.997L178.892 264.835M203.836 163.063L216.552 198.642M203.836 163.063L335.305 163.202L401.186 163.074M401.186 163.074L467.171 162.383L533.142 160.669M401.186 163.074L409.941 196.554M533.142 160.669L598.856 157.686L664.024 153.798M533.142 160.669L539.705 184.257M664.024 153.798L667.337 157.754M664.024 153.798L694.579 151.979M667.337 157.754L694.579 151.979M667.337 157.754L608.022 171.117M694.579 151.979L728.522 149.958M728.522 149.958L781.564 148.016M781.564 148.016L792.41 147.618L841.194 147.57M781.564 148.016L781.278 184.579L782.26 375.268M841.194 147.57L855.966 147.557L919.73 149.905M841.194 147.57L839.748 184.668M919.73 149.905L939.09 151.108M939.09 151.108L948.249 151.675M939.09 151.108L958.811 162.572M948.249 151.675L959.829 154.172M948.249 151.675L1048.96 157.966M959.829 154.172L976.144 157.691L1017.48 167.147L1018.21 167.315L1039.27 172.133L1058.72 175.886L1074.02 182.772M959.829 154.172L958.811 162.572M1074.02 182.772L1085.06 190.648L1092.99 191.313M1074.02 182.772L1092.99 191.313M1092.99 191.313L1103.33 184.489L1114.34 161.085M1092.99 191.313L1156.14 212.17M1114.34 161.085L1179.89 162.881M1114.34 161.085L1048.96 157.966M1179.89 162.881L1245.34 163.623L1310.56 163.797M1179.89 162.881L1167.92 192.722L1156.14 212.17M1310.56 163.797L1375.52 163.814M1310.56 163.797L1296.63 198.57L1283.2 230.13M1375.52 163.814L1360.32 198.993L1345.79 232.109M1504.88 163.822L1569.4 163.856M1504.88 163.822L1469.55 232.719M1048.96 157.966L1039.27 172.134M88.2088 198.538L216.552 198.642M216.552 198.642L280.806 198.597L345.248 198.188L409.941 196.554M216.552 198.642L228.702 232.434L240.302 264.499M409.941 196.554L474.856 192.378L539.705 184.257M409.941 196.554L418.518 224.197L426.444 246.502L433.467 268.318L439.903 294.436L446.088 326.573M539.705 184.257L545.322 191.361L548.405 190.557L553.025 187.909L577.016 177.157L603.989 172.024L608.022 171.117M608.022 171.117L612.45 214.699M612.45 214.699L558.694 259.687L503.326 298.352L446.088 326.573M612.45 214.699L617.295 274.464L622.219 343.412M612.45 214.699L664.29 162.643L674.174 156.882M446.088 326.573L387.8 342.968L329.588 350.321L271.811 352.913M446.088 326.573L451.893 362.503L457.15 397.862L462.023 428.775M271.811 352.913L214.314 353.625L156.935 353.802M271.811 352.913L281.37 380.428L290.569 406.769M271.811 352.913L261.815 324.379L251.323 295.031L240.302 264.499M604.807 171.84L604.77 171.875L553.916 220.463L498.006 263.108L439.905 294.434L380.429 312.931L320.897 321.364L261.816 324.378L203.038 325.238L144.422 325.408M103.246 232.481L165.943 232.508L228.7 232.434L291.637 231.931L354.878 229.887L418.516 224.197L482.26 211.95L545.321 191.361L548.241 190.053M178.892 264.835L240.302 264.499M178.892 264.835L191.245 295.694L203.037 325.24L225.109 380.871L245.461 432.032M240.302 264.499L301.962 262.988M301.962 262.988L364.046 258.208L426.445 246.501L488.32 224.282M301.962 262.988L311.723 292.471M488.32 224.282L493.247 239.123M488.32 224.282L548.571 191.062L550.609 189.62M1449.31 380.051L1394.02 380.027M1449.31 380.051L1434.91 405.948L1380.73 405.982M1449.31 380.051L1479.94 324.878L1496.26 295.535M1394.02 380.027L1338.59 379.688L1282.84 378.19L1226.54 373.547L1169.64 362.286M1394.02 380.027L1380.73 405.982M1394.02 380.027L1422.29 324.758M1169.64 362.286L1112.87 341.218L1057.39 310.557M1169.64 362.286L1178.37 326.782L1187.61 294.94L1197.37 268.81M1169.64 362.286L1161.55 397.296L1153.85 428.015L1146.29 454.183M1057.39 310.557L1003.61 273.838M1057.39 310.557L1064.76 259.303L1072.15 219.839L1078.53 197.95L1085.06 190.649M1057.39 310.557L1050.81 366.588L1045.75 415.537L1041.04 450.884M1003.61 273.838L951.036 234.484L897.078 200.95M1003.61 273.838L1010.61 213.924L1018.11 167.759L1018.21 167.315M1003.61 273.838L996.76 342.719M897.078 200.95L839.748 184.668M897.078 200.95L900.721 149.205M897.078 200.95L890.055 298.169M839.748 184.668L781.28 184.578L723.684 200.906M839.748 184.668L836.472 282.565M723.684 200.906L669.653 234.939M723.684 200.906L728.615 298.888M723.684 200.906L722.346 150.746M669.653 234.939L617.296 274.464L563.782 310.955L508.569 341.41M669.653 234.939L675.461 319.056L677.783 393.242L677.94 444.63M669.653 234.939L664.291 162.644L664.072 158.491M508.569 341.41L451.895 362.502L394.742 373.957L337.868 378.794M508.569 341.41L513.001 385.988M508.569 341.41L503.327 298.353L498.005 263.11L493.247 239.123M337.868 378.794L281.371 380.428L225.11 380.87L168.953 380.982M337.868 378.794L345.81 406.05M337.868 378.794L329.589 350.322L320.896 321.366L311.723 292.471M1421.08 430.821L1367.97 430.864M1421.08 430.821L1434.91 405.949M1421.08 430.821L1395.02 477.736L1343.94 477.793L1321.69 521.287L1223.15 521.412M1367.97 430.864L1380.73 405.982M1261.35 430.7L1207.73 430.033M1261.35 430.7L1271.87 405.263L1294.28 349.913M1261.35 430.7L1251.25 454.798L1232.18 500.044M1207.73 430.033L1153.85 428.015L1099.77 423.491L1045.74 415.537L992.081 404.468M1207.73 430.033L1216.95 403.073L1226.54 373.548L1236.61 342.869M992.081 404.468L938.998 392.236M992.081 404.468L996.76 342.719M992.081 404.468L988.554 447.656M938.998 392.236L886.471 381.316M938.998 392.236L943.446 318.277L951.034 234.485L958.811 162.572M886.471 381.316L834.242 374.813M886.471 381.316L890.055 298.169M834.242 374.813L782.26 375.268M834.242 374.813L836.472 282.565M782.26 375.268L730.19 382.293M730.19 382.293L677.781 393.241L624.664 405.353M730.19 382.293L729.882 441.031M730.19 382.293L728.615 298.888M624.664 405.353L570.829 416.303L516.506 424.22M624.664 405.353L622.219 343.412M516.506 424.22L462.023 428.775M516.506 424.22L519.855 453.832M516.506 424.22L513.001 385.988M462.023 428.775L407.643 430.87L353.449 431.64M353.449 431.64L299.403 431.928M353.449 431.64L360.801 455.867M353.449 431.64L345.81 406.05M299.403 431.928L245.461 432.032M299.403 431.928L290.569 406.769M1407.8 454.733L1251.25 454.798L1198.83 454.647L1146.29 454.183M1146.29 454.183L1093.66 453.044L1041.04 450.884M1146.29 454.183L1138.85 477.786L1131.57 500.087L1124.46 521.507L1117.5 542.11M1041.04 450.884L988.554 447.656M988.554 447.656L936.358 443.829L884.516 440.377L832.962 438.448L781.487 438.705L729.882 441.031M729.882 441.031L677.94 444.63M677.94 444.63L625.575 448.445L572.828 451.65L519.855 453.832M519.855 453.832L466.804 455.043L413.772 455.603M413.772 455.603L360.801 455.867M413.772 455.603L419.72 478.904L425.503 501.217L431.128 522.683L436.629 543.349M413.772 455.603L407.646 430.87L401.324 403.74L394.743 373.958L387.803 342.969L380.43 312.932L372.56 285.059L364.048 258.208L354.882 229.887L345.251 198.189L335.308 163.203L325.059 125.918L314.419 86.6673L291.666 1.93451M360.801 455.867L202.195 456.173M1370.89 521.213L1321.69 521.287L1311.15 541.854M1370.89 521.213L1382.73 499.878M1370.89 521.213L1359.48 541.779L1311.15 541.854M1311.15 541.854L1262.79 541.929M1469.55 232.719L1407.82 232.612L1345.79 232.109M1469.55 232.719L1531.15 232.719M1469.55 232.719L1422.29 324.758M1422.29 324.758L1479.94 324.878M1282.42 500L1272.44 521.352L1262.79 541.929M1282.42 500L1232.18 500.044M1282.42 500L1382.73 499.878M1262.79 541.929L1214.39 541.995M1214.39 541.995L1165.96 542.055M1214.39 541.995L1223.15 521.412M1165.96 542.055L1173.82 521.463M1165.96 542.055L972.018 542.263M972.018 542.263L923.506 542.32M972.018 542.263L976.293 521.611L980.532 500.009M923.506 542.32L874.985 542.387M923.506 542.32L926.9 521.654M874.985 542.387L826.446 542.467M874.985 542.387L877.507 521.703L880.013 499.919M826.446 542.467L777.875 542.559M826.446 542.467L828.098 521.775L829.788 499.929M777.875 542.559L729.265 542.664M777.875 542.559L778.659 521.863M729.265 542.664L680.605 542.775M729.265 542.664L729.176 521.968L729.218 500.189M680.605 542.775L631.894 542.893M680.605 542.775L679.634 522.092L678.807 500.383M631.894 542.893L630.03 522.212L628.296 500.599M631.894 542.893L534.336 543.127M534.336 543.127L530.664 522.457L527.011 500.951M534.336 543.127L387.726 543.452M387.726 543.452L338.801 543.551M387.726 543.452L381.311 522.786L374.708 501.327M338.801 543.551L289.853 543.647M338.801 543.551L331.471 522.883M289.853 543.647L240.876 543.736L222.267 501.602M289.853 543.647L281.605 522.974M222.267 501.602L273.078 501.52M890.055 298.169L943.447 318.276L996.76 342.719M890.055 298.169L836.472 282.565M880.013 499.919L930.253 499.944M880.013 499.919L829.788 499.929M1549.83 199.095L1513.31 264.832M1549.83 199.095L1423.67 199.084L1360.33 198.994L1296.64 198.57L1232.48 196.94M1513.31 264.832L1496.26 295.535M1513.31 264.832L1453.09 264.785L1392.69 264.452L1331.92 263.004L1270.41 258.411L1208.05 246.876L1145.76 224.454L1085.06 190.647M1496.26 295.535L1437.35 295.416L1378.26 294.797L1318.74 292.373L1258.41 285.275L1197.37 268.81M836.472 282.565L781.816 282.787L728.615 298.888M728.615 298.888L675.461 319.055L622.219 343.412M622.219 343.412L568.192 367.181L513.001 385.988M513.001 385.988L457.152 397.86L401.323 403.739L345.81 406.05M345.81 406.05L290.569 406.769M1345.79 232.109L1283.2 230.13M1345.79 232.109L1318.74 292.373L1306.22 321.135M1306.22 321.135L1294.28 349.913M1306.22 321.135L1247.21 313.079M1294.28 349.913L1236.61 342.869M1294.28 349.913L1351.26 352.341L1407.86 352.958L1464.3 353.064M1232.18 500.044L1223.15 521.412M1232.18 500.044L1181.89 500.075M1223.15 521.412L1173.82 521.463M1283.2 230.13L1270.4 258.412L1258.41 285.275L1247.21 313.079M1283.2 230.13L1219.89 224.51L1156.14 212.17M1247.21 313.079L1236.61 342.869M1247.21 313.079L1187.61 294.939L1128.81 263.367M1236.61 342.869L1178.36 326.782L1120.69 298.442M1181.89 500.075L1173.82 521.463M1181.89 500.075L980.532 500.009M1173.82 521.463L926.9 521.654M1300.76 3.56801L1286.04 46.7396L1271.98 87.7672L1258.46 126.806L1245.34 163.624L1232.48 196.94M1232.48 196.94L1219.89 224.51L1208.05 246.878L1197.37 268.81M1232.48 196.94L1167.93 192.723L1103.33 184.489L1058.72 175.887M1197.37 268.81L1136.93 239.299L1078.53 197.949L1051.29 174.452M1156.14 212.17L1145.76 224.455L1136.92 239.299L1128.81 263.367M1128.81 263.367L1120.69 298.442M1128.81 263.367L1072.15 219.838L1018.11 167.759L1017.49 167.151M1120.69 298.442L1112.87 341.218L1105.93 385.454L1099.77 423.49L1093.66 453.043L1087.43 477.577L1081.21 500.085L1075.08 521.541L1069.02 542.16M1120.69 298.442L1064.76 259.302L1010.61 213.924L958.811 162.572M829.788 499.929L779.537 500.021L729.218 500.189M926.9 521.654L930.253 499.944M926.9 521.654L778.659 521.863M778.659 521.863L580.371 522.337M580.371 522.337L583.135 543.011M580.371 522.337L577.688 500.784L575.122 477.928L572.825 451.65L570.827 416.303L568.189 367.182L563.778 310.956L558.693 259.688L553.913 220.465L551.013 198.558L548.568 191.062M580.371 522.337L480.909 522.574M480.909 522.574L485.497 543.24M480.909 522.574L331.471 522.883M331.471 522.883L281.605 522.974M331.471 522.883L323.903 501.429M281.605 522.974L231.742 523.059M281.605 522.974L273.078 501.52M1395.02 477.735L1382.73 499.878M980.532 500.009L930.253 499.944M729.218 500.189L678.807 500.383M678.807 500.383L628.296 500.599M628.296 500.599L527.011 500.951M527.011 500.951L374.708 501.327M374.708 501.327L323.903 501.429M323.903 501.429L273.078 501.52M568.407 183.754L551.016 198.557L493.247 239.123M493.247 239.123L433.47 268.317L372.558 285.058L311.723 292.471M311.723 292.471L251.325 295.031L191.247 295.693L131.316 295.838M792.408 147.618L793.524 124.747L796.248 46.3241L797.818 2.8445M539.707 184.257L577.018 177.157" stroke="url(#paint0_linear_317_59)" stroke-linecap="round" stroke-linejoin="round"/>
<defs>
<linearGradient id="paint0_linear_317_59" x1="525.164" y1="571.34" x2="530.798" y2="-31.5318" gradientUnits="userSpaceOnUse">
<stop offset="0.078125" stop-color="#0F0D19" stop-opacity="0"/>
<stop offset="0.3125" stop-color="#4100CC" stop-opacity="0.5"/>
<stop offset="0.833333" stop-color="#FF6D44"/>
</linearGradient>
</defs>
</svg>
