<svg width="570" height="278" viewBox="0 0 570 278" fill="none" xmlns="http://www.w3.org/2000/svg">
<path d="M257.069 68.9735H295.473M257.069 68.9735L256.299 79.9718M257.069 68.9735L257.815 58.3279M257.069 68.9735L218.666 68.9734M257.069 68.9735L298.627 58.5123M295.473 68.9735L316.133 62.0191M295.473 68.9735L333.879 68.9736M295.473 68.9735L295.341 79.9718M316.133 62.0191L335.354 65.8693M316.133 62.0191L298.627 58.5123M316.133 62.0191L328.201 60.6359L330.497 56.7578M335.354 65.8693L372.36 67.9712M335.354 65.8693L341.633 63.3202M335.354 65.8693L333.879 68.9736M372.36 67.9712L407.56 66.649M372.36 67.9712L371.794 65.1298M372.36 67.9712L372.282 68.9736M407.56 66.649L410.686 68.9735M407.56 66.649L401.581 63.3202M407.56 66.649L430.139 61.6249M410.686 68.9735L372.282 68.9736M410.686 68.9735L412.463 79.9718M410.686 68.9735H487.494M487.494 68.9735L525.898 68.9736M487.494 68.9735L484.542 58.3277M487.494 68.9735L490.545 79.9718M487.494 68.9735L444.129 58.5124M333.879 68.9736H372.282M333.879 68.9736L334.381 79.9716M372.282 68.9736L373.423 79.9715M521.75 276.787H559.437L555.405 263.062M521.75 276.787H484.062M521.75 276.787L518.311 263.062M484.062 276.787H446.374M484.062 276.787L481.218 263.062M446.374 276.787H408.687M446.374 276.787L444.124 263.062M408.687 276.787H370.999M408.687 276.787L407.03 263.062M370.999 276.787H333.312M370.999 276.787L369.936 263.062M333.312 276.787H295.624M333.312 276.787L332.842 263.062M295.624 276.787H257.936M295.624 276.787L295.748 263.062M257.936 276.787H220.248M257.936 276.787L258.654 263.062M220.248 276.787H182.561M220.248 276.787L221.558 263.062M182.561 276.787H144.873M182.561 276.787L184.466 263.062M144.873 276.787H107.185M144.873 276.787L147.371 263.062M107.185 276.787L69.5742 272.922M107.185 276.787L110.278 263.062M69.5742 272.922L35.926 255.826M69.5742 272.922L73.2618 259.249M35.926 255.826L11.9039 227.697M35.926 255.826L40.1571 242.382M11.9039 227.697L1 180.115M11.9039 227.697L16.538 214.632M1 180.115L5.8485 167.702M1 180.115L6.84393 131.707M6.84393 131.707L11.6391 119.971M6.84393 131.707L10.8811 126.212M11.6391 119.971L16.2817 108.607M11.6391 119.971L32.9294 90.9725M16.2817 108.607L20.7796 97.6008M16.2817 108.607L37.2562 80.016M20.7796 97.6008L25.1381 86.9333M20.7796 97.6008L41.4464 69.403M25.1381 86.9333L29.3641 76.5896M25.1381 86.9333L25.4258 86.5392L45.5046 59.1206M29.3641 76.5896L33.4644 66.5553M29.3641 76.5896L49.4412 49.1512M33.4644 66.5553L37.4441 56.8161M33.4644 66.5553L53.2586 39.4818M53.2586 39.4818L49.4412 49.1512M53.2586 39.4818L56.9637 30.0981M53.2586 39.4818L83.404 22.7642M83.404 22.7642L118.538 18.9568M83.404 22.7642L80.0363 32.2059M83.404 22.7642L86.672 13.6018M118.538 18.9568H154.046M118.538 18.9568L115.706 28.3469M118.538 18.9568L121.285 9.84497M154.046 18.9568H189.554M154.046 18.9568L151.758 28.3469M154.046 18.9568L156.267 9.84497M189.554 18.9568H225.063M189.554 18.9568L187.809 28.3469M189.554 18.9568L191.248 9.84497M225.063 18.9568H260.571M225.063 18.9568L223.862 28.3469M225.063 18.9568L226.228 9.84497M260.571 18.9568L290.096 23.5918M260.571 18.9568L259.914 28.3469M260.571 18.9568L261.208 9.84518M290.096 23.5918L307.273 30.358M290.096 23.5918L281.678 27.8875M290.096 23.5918L298.92 19.0879M307.273 30.358L321.92 40.9136M307.273 30.358L299.434 33.7392M307.273 30.358L315.516 26.802M321.92 40.9136L334.749 54.8154M321.92 40.9136L316.009 43.533M321.92 40.9136L328.153 38.1509M334.749 54.8154L339.83 62.9597M334.749 54.8154L330.497 56.7578M334.749 54.8154L339.242 52.7614M339.83 62.9597L341.633 63.3202M339.83 62.9597L334.191 61.8328M341.633 63.3202L344.848 63.5136M344.848 63.5136L350.493 63.8517M344.848 63.5136L339.242 52.7614M350.493 63.8517L356.256 64.1976M350.493 63.8517L345.543 51.4935M356.256 64.1976L368.132 64.9103M356.256 64.1976L352.378 50.1188M368.132 64.9103L371.794 65.1298M368.132 64.9103L367.953 49.1963M371.794 65.1298L380.005 64.6315M380.005 64.6315L385.632 64.2895M380.005 64.6315L383.712 50.1188M385.632 64.2895L391.689 63.9212M385.632 64.2895L390.503 51.433M391.689 63.9212L396.587 63.624M391.689 63.9212L397.377 52.7614M396.587 63.624L401.581 63.3202M396.587 63.624L402.055 54.7203M401.581 63.3202L402.225 63.1865M430.139 61.6249L444.129 58.5124M430.139 61.6249L416.552 60.1668L416.224 60.2677M430.139 61.6249L449.091 68.9735L451.505 79.972M444.129 58.5124L426.035 58.2214M444.129 58.5124L453.548 53.3848M525.898 68.9736H564.299M525.898 68.9736L522.33 58.3277M525.898 68.9736L529.587 79.9718M564.299 68.9736L560.113 58.3277M564.299 68.9736L568.625 79.9718H529.587M444.124 263.062H407.03M444.124 263.062L481.218 263.062M444.124 263.062L422.412 254.23M407.03 263.062H369.936M407.03 263.062L405.358 258.832M369.936 263.062H332.842M369.936 263.062L370.02 261.455M332.842 263.062H295.748M332.842 263.062L334.275 258.832M295.748 263.062L315.679 254.016M295.748 263.062L258.654 263.062M481.218 263.062L478.462 249.764M481.218 263.062L439.413 249.644M481.218 263.062L518.311 263.062M422.412 254.23L405.358 258.832M422.412 254.23L410.267 243.637M422.412 254.23L439.413 249.644M405.358 258.832L370.02 261.455M405.358 258.832L398.421 246.793M370.02 261.455L334.275 258.832M370.02 261.455L369.587 249.033M334.275 258.832L315.679 254.016M334.275 258.832L340.403 246.793M315.679 254.016L327.488 243.49M315.679 254.016L298.789 249.643M258.654 263.062L259.349 249.764M258.654 263.062L298.789 249.643M258.654 263.062L221.558 263.062M551.5 249.764H514.98M551.5 249.764L547.709 236.871M551.5 249.764L555.405 263.062M514.98 249.764H478.462M514.98 249.764L511.749 236.871M514.98 249.764L518.311 263.062M478.462 249.764L448.765 243.088M478.462 249.764L475.79 236.871M448.765 243.088L429.438 235.896M448.765 243.088L439.413 249.644M448.765 243.088L458.285 236.413M429.438 235.896L414.507 224.661M429.438 235.896L436.926 231.207M429.438 235.896L422.117 240.48M414.507 224.661L401.636 210.43M414.507 224.661L420.255 221.15M414.507 224.661L408.902 228.085M401.636 210.43L391.42 193.895M401.636 210.43L405.842 207.93M401.636 210.43L397.544 212.862M391.42 193.895L388.556 195.55M391.42 193.895L394.37 192.19M391.42 193.895L384.337 175.838M384.337 175.838L380.73 157.11M384.337 175.838L386.394 174.683M384.337 175.838L382.344 176.958M380.73 157.11L380.815 135.502M380.73 157.11L382.314 156.244M380.73 157.11L379.195 157.949M380.815 135.502L381.292 113.813M380.815 135.502L379.315 136.299M380.815 135.502L382.396 134.662L383.327 132.742M381.292 113.813L379.781 114.593M381.292 113.813L382.923 112.974M381.292 113.813L385.442 96.41M10.8811 126.212L14.7828 120.903M10.8811 126.212L5.8485 167.702M465.869 189.014L431.465 200.286M465.869 189.014H431.979M465.869 189.014L499.758 189.014M465.869 189.014L463.564 177.899M465.869 189.014L468.24 200.454M431.465 200.286L416.579 201.511M431.465 200.286L442.115 206.051M431.465 200.286L417.673 196.856M416.579 201.511L409.392 199.737M416.579 201.511L424.672 205.626M544.636 18.9568H509.129M509.129 18.9568H473.621M509.129 18.9568L512.277 28.347M509.129 18.9568L503.108 1M473.621 18.9568L446.927 23.7922M473.621 18.9568L471.092 9.84518M473.621 18.9568L476.225 28.347M446.927 23.7922L428.698 30.1934M446.927 23.7922L435.636 19.0883M446.927 23.7922L458.785 28.7343M428.698 30.1934L414.551 40.7861L402.055 54.7203M428.698 30.1934L420.134 26.8022M428.698 30.1934L437.653 33.7393M402.055 54.7203L397.377 52.7614M402.055 54.7203L406.923 56.7585M37.2562 80.016L32.9294 90.9725M37.2562 80.016L41.4464 69.403M37.2562 80.016L69.2846 62.3516M69.2846 62.3516L106.664 58.3279M69.2846 62.3516L65.4673 73.0548M69.2846 62.3516L72.9825 51.9855M106.664 58.3279H144.452M106.664 58.3279L103.453 68.9734M106.664 58.3279L109.774 48.0179M144.452 58.3279H182.24M144.452 58.3279L141.858 68.9734M144.452 58.3279L146.965 48.0179M182.24 58.3279H220.028M182.24 58.3279L180.262 68.9734M182.24 58.3279L184.156 48.0179M220.028 58.3279H257.815M220.028 58.3279L218.666 68.9734M220.028 58.3279L221.347 48.0179M257.815 58.3279L287.19 52.9196M257.815 58.3279L258.538 48.0179M287.19 52.9196L298.627 58.5123M287.19 52.9196L276.987 47.9286M287.19 52.9196L307.266 54.2743M298.627 58.5123L316.124 58.2214M316.124 58.2214L323.011 59.5984M316.124 58.2214L307.266 54.2743M323.011 59.5984L322.34 59.2985M323.011 59.5984L325.575 60.1106M325.575 60.1106L334.191 61.8328M325.575 60.1106L311.754 50.0001M334.191 61.8328L330.497 56.7578M544.035 224.367H508.618M544.035 224.367L540.474 212.233M544.035 224.367L547.709 236.871M508.618 224.367H473.197M508.618 224.367L511.749 236.871M508.618 224.367L502.625 200.454M473.197 224.367L461.667 224.221M473.197 224.367L470.683 212.233M473.197 224.367L475.79 236.871M461.667 224.221L440.792 220.53M461.667 224.221L458.285 236.413M461.667 224.221L453.807 212.382L442.115 206.051M440.792 220.53L423.364 213.118M440.792 220.53L433.52 210.126M440.792 220.53L436.926 231.207M423.364 213.118L408.203 202.189M423.364 213.118L417.979 205.243M423.364 213.118L420.255 221.15M408.203 202.189L404.386 196.529M408.203 202.189L405.842 207.93M408.203 202.189L396.728 189.014L396.219 187.931L394.85 185.915M394.85 185.915L390.671 177.899M394.85 185.915L396.074 188.264L394.37 192.19M261.208 9.84518H296.188M261.208 9.84518L261.827 1M261.208 9.84518L226.228 9.84497M261.208 9.84518L298.92 19.0879M296.188 9.84518L315.22 16.0287M296.188 9.84518H331.169M296.188 9.84518L296.296 1M315.22 16.0287L332.79 12.7312M315.22 16.0287L298.92 19.0879M315.22 16.0287L326.92 24.6161M332.79 12.7312L366.433 10.9656M332.79 12.7312L331.169 9.84518M332.79 12.7312L339.251 22.2521M366.433 10.9656L400.445 12.7312M366.433 10.9656L366.15 9.84518M366.433 10.9656L367.189 20.6696M400.445 12.7312L417.88 15.8808M400.445 12.7312L401.13 9.84518M400.445 12.7312L395.455 22.2521M417.88 15.8808L436.111 9.84518M417.88 15.8808L435.636 19.0883M417.88 15.8808L407.701 24.5106M436.111 9.84518H471.092M436.111 9.84518H401.13M436.111 9.84518L434.171 1M471.092 9.84518L468.639 1M471.092 9.84518H541.054M471.092 9.84518L435.636 19.0883M541.054 9.84518L537.578 1H503.108M541.054 9.84518L548.328 28.347M435.636 19.0883L420.134 26.8022M407.701 24.5106L398.596 36.3674M407.701 24.5106L395.455 22.2521M407.701 24.5106L420.134 26.8022M398.596 36.3674L390.503 51.433M398.596 36.3674L389.252 34.6061M398.596 36.3674L408.069 38.1509M390.503 51.433L383.712 50.1188M390.503 51.433L397.377 52.7614M331.169 9.84518H366.15M331.169 9.84518L330.765 1M366.15 9.84518H401.13M366.15 9.84518L365.233 1M401.13 9.84518L399.702 1M41.4464 69.403L45.5046 59.1206M41.4464 69.403L72.9825 51.9855M72.9825 51.9855L109.774 48.0179M72.9825 51.9855L76.5637 41.9424M109.774 48.0179H146.965M109.774 48.0179L112.786 38.0298M146.965 48.0179H184.156M146.965 48.0179L149.398 38.0298M184.156 48.0179H221.347M184.156 48.0179L186.01 38.0298M221.347 48.0179H258.538M221.347 48.0179L222.623 38.0298M258.538 48.0179L276.987 47.9286M258.538 48.0179L259.236 38.0298M276.987 47.9286L271.545 38.1861M276.987 47.9286L299.325 50.7358M307.266 54.2743L299.325 50.7358M307.266 54.2743L322.34 59.2985M322.34 59.2985L316.266 56.5999M45.5046 59.1206L49.4412 49.1512M45.5046 59.1206L76.5637 41.9424M76.5637 41.9424L112.786 38.0298M76.5637 41.9424L80.0363 32.2059M112.786 38.0298H149.398M112.786 38.0298L115.706 28.3469M149.398 38.0298H186.01M149.398 38.0298L151.758 28.3469M186.01 38.0298H222.623M186.01 38.0298L187.809 28.3469M222.623 38.0298H259.236M222.623 38.0298L223.862 28.3469M259.236 38.0298L271.545 38.1861M259.236 38.0298L259.914 28.3469M271.545 38.1861L281.678 27.8875M271.545 38.1861L293.61 42.1243M281.678 27.8875L259.914 28.3469M281.678 27.8875L299.434 33.7392M298.92 19.0879L315.516 26.802M326.92 24.6161L339.251 22.2521M326.92 24.6161L336.838 36.449M326.92 24.6161L315.516 26.802M339.251 22.2521L367.189 20.6696M339.251 22.2521L346.245 34.6061M367.189 20.6696L395.455 22.2521M367.189 20.6696L367.622 33.3701M395.455 22.2521L389.252 34.6061M420.134 26.8022L408.069 38.1509M437.653 33.7393L458.785 28.7343M437.653 33.7393L445.214 42.1245M437.653 33.7393L421.312 43.5337M458.785 28.7343L476.225 28.347M458.785 28.7343L466.983 38.1862M476.225 28.347H512.277M476.225 28.347L478.911 38.03M512.277 28.347H548.328M512.277 28.347L515.524 38.03M548.328 28.347L552.137 38.03M537.009 200.454H502.625M537.009 200.454L533.646 189.014M537.009 200.454L540.474 212.233M502.625 200.454H468.24M502.625 200.454L499.758 189.014M468.24 200.454L442.115 206.051M468.24 200.454L470.683 212.233M442.115 206.051L424.672 205.626M424.672 205.626L433.52 210.126M424.672 205.626L413.73 202.519M413.73 202.519L417.979 205.243M413.73 202.519L409.392 199.737M49.4412 49.1512L80.0363 32.2059M80.0363 32.2059L115.706 28.3469M115.706 28.3469H151.758M151.758 28.3469H187.809M187.809 28.3469H223.862M223.862 28.3469H259.914M299.434 33.7392L316.009 43.533M299.434 33.7392L293.61 42.1243M316.009 43.533L330.497 56.7578M316.009 43.533L311.754 50.0001M496.974 177.899H530.383L533.646 189.014M496.974 177.899H463.564M496.974 177.899L499.758 189.014M463.564 177.899H430.155M430.155 177.899H396.746M430.155 177.899L431.979 189.014M396.746 177.899H390.671M396.746 177.899L397.975 189.141L398.158 189.596M390.671 177.899L387.605 172.015M293.61 42.1243L311.754 50.0001M293.61 42.1243L299.325 50.7358M311.754 50.0001L316.266 56.5999M421.312 43.5337L406.923 56.7585M421.312 43.5337L426.889 50.0002M421.312 43.5337L408.067 38.1517M406.923 56.7585L402.225 63.1865M406.923 56.7585L410.946 61.3678L416.224 60.2677M402.225 63.1865L410.748 61.4088L411.143 61.3259L426.889 50.0002M328.153 38.1509L339.242 52.7614M328.153 38.1509L315.516 26.802M328.153 38.1509L336.838 36.449M339.242 52.7614L345.543 51.4935M387.572 95.3364L385.442 96.41M387.572 95.3364L388.696 93.2783M387.572 95.3364L382.923 112.974M382.923 112.974L382.397 134.662L382.314 156.244M382.923 112.974L383.871 111.073M382.314 156.244L386.394 174.683M382.314 156.244L383.257 154.243M386.394 174.683L387.605 172.015M386.394 174.683L394.37 192.19M394.37 192.19L405.842 207.93M408.069 38.1509L397.377 52.7614M342.726 79.9719H342.117M342.726 79.9719H343.474M342.726 79.9719L350.542 95.3361M350.542 95.3361L352.678 96.3194M350.542 95.3361L348.855 92.9109M350.542 95.3361L354.661 112.974M352.678 96.3194L355.04 97.406M352.678 96.3194L356.297 113.743M352.678 96.3194L346.226 82.3194L345.585 80.9265M356.297 113.743L356.298 135.447M356.297 113.743L354.661 112.974M356.297 113.743L358.102 114.593M356.298 135.447L355.922 157.07M356.298 135.447L354.679 134.662M356.298 135.447L358.053 136.299M355.922 157.07L352.028 175.784M355.922 157.07L357.683 157.949L360.087 158.496M355.922 157.07L354.269 156.244M352.028 175.784L354.316 176.958M352.028 175.784L349.882 174.683M352.028 175.784L344.807 193.815M344.807 193.815L334.607 210.314M344.807 193.815L341.728 192.19M344.807 193.815L348.094 195.55L352.604 196.631M334.607 210.314L321.907 224.496M334.607 210.314L339.305 212.862M334.607 210.314L330.214 207.93M321.907 224.496L307.294 235.676M321.907 224.496L328.348 228.085M321.907 224.496L315.896 221.15M307.294 235.676L289.912 243.395M307.294 235.676L299.455 231.207M307.294 235.676L315.719 240.48M289.912 243.395L259.349 249.764M289.912 243.395L298.789 249.643M289.912 243.395L281.677 237.6M259.349 249.764L260.023 236.871M259.349 249.764H186.312M186.312 249.764H149.793M186.312 249.764L184.466 263.062M186.312 249.764L188.102 236.871M149.793 249.764H113.275M149.793 249.764L147.371 263.062M149.793 249.764L152.141 236.871M113.275 249.764L76.8358 246.001M113.275 249.764L110.278 263.062M113.275 249.764L116.18 236.871M76.8358 246.001L44.2572 229.356M76.8358 246.001L73.2618 259.249M76.8358 246.001L80.2992 233.157M44.2572 229.356L21.0281 201.975M44.2572 229.356L40.1571 242.382M44.2572 229.356L48.2298 216.729M21.0281 201.975L25.3798 189.709M21.0281 201.975L16.538 214.632M21.0281 201.975L10.5434 155.681M25.3798 189.709L29.5987 177.815M25.3798 189.709L48.2298 216.729M25.3798 189.709L15.0927 144.033M29.5987 177.815L33.6912 166.277M29.5987 177.815L52.0858 204.484L83.6611 220.7L118.998 224.367M29.5987 177.815L19.5054 132.741L22.2008 110.809M33.6912 166.277L37.664 155.078M33.6912 166.277L55.8237 192.604M33.6912 166.277L23.7812 121.79M37.664 155.078L41.5212 144.204M37.664 155.078L59.453 181.07M37.664 155.078L27.9319 111.163M41.5212 144.204L45.268 133.642M41.5212 144.204L62.9775 169.871M41.5212 144.204L31.9619 100.848M45.268 133.642L37.3205 97.42M45.268 133.642L66.4035 158.99M37.3205 97.42L32.2005 100.236M37.3205 97.42L61.5228 84.1133M431.979 189.014L417.673 196.856M431.979 189.014L398.087 189.014M417.673 196.856L408.358 199.075L404.386 196.529M417.673 196.856L400.945 192.697M400.945 192.697L404.386 196.529M400.945 192.697L398.01 189.433L398.087 189.014M336.838 36.449L345.543 51.4935M336.838 36.449L346.245 34.6061M345.543 51.4935L352.378 50.1188M344.893 177.899H329.927M329.927 177.899H296.518M329.927 177.899L330.307 189.014M296.518 177.899H263.108M296.518 177.899L296.417 189.014M263.108 177.899L262.526 189.014M263.108 177.899H196.289M196.289 177.899H162.88M196.289 177.899L194.745 189.014M162.88 177.899H129.47M162.88 177.899L160.855 189.014M129.47 177.899L96.1457 174.411M129.47 177.899L126.965 189.014M96.1457 174.411L66.4035 158.99M96.1457 174.411L93.1582 185.484M66.4035 158.99L62.9775 169.871M342.117 79.9719L348.855 92.9109M342.117 79.9719L334.381 79.9716M348.855 92.9109L353.363 111.074M353.363 111.074L353.405 132.741M353.363 111.074L354.661 112.974M353.405 132.741L352.982 154.243M353.405 132.741L354.679 134.662M352.982 154.243L348.328 171.621L348.192 171.969M352.982 154.243L354.269 156.244M348.192 171.969L344.956 177.899L341.558 184.26L341.348 184.376M348.192 171.969L349.882 174.683M341.348 184.376L339.38 188.263M341.348 184.376L336.953 189.014M336.953 189.014L330.307 189.014M336.953 189.014L333.966 192.166M333.966 192.166L333.15 193.029M333.966 192.166L331.874 192.308M333.15 193.029L331.874 192.308M333.15 193.029L329.834 196.529M329.834 196.529L326.173 198.779M329.834 196.529L326.93 202.188M326.173 198.779L326.105 198.82M326.173 198.779L314.88 196.441M326.105 198.82L325.646 199.102M326.105 198.82L315.148 201.511M325.646 199.102L315.148 201.511M325.646 199.102L320.317 202.377M315.148 201.511L307.015 206.006M315.148 201.511L299.064 200.286M307.015 206.006L299.558 210.126M307.015 206.006L288.412 206.583M307.015 206.006L320.317 202.377M299.558 210.126L293.918 220.53L299.455 231.207M299.558 210.126L278.602 212.382M299.558 210.126L315.654 205.243M299.455 231.207L315.896 221.15M299.455 231.207L281.677 237.6M315.719 240.48L327.488 243.49M315.719 240.48L328.348 228.085M315.719 240.48L298.789 249.643M327.488 243.49L340.403 246.793M327.488 243.49L337.285 230.328M340.403 246.793L369.587 249.033M340.403 246.793L347.075 232.785M369.587 249.033L398.421 246.793M369.587 249.033L369.129 234.448M398.421 246.793L410.267 243.637M398.421 246.793L390.92 232.785M410.267 243.637L399.901 230.436M410.267 243.637L422.117 240.48M439.413 249.644L422.117 240.48M458.285 236.413L436.926 231.207M458.285 236.413L475.79 236.871M398.087 189.014L397.635 189.014L396.362 187.598M499.758 189.014H533.646M73.2618 259.249L110.278 263.062M73.2618 259.249L40.1571 242.382M80.2992 233.157L116.18 236.871M80.2992 233.157L48.2298 216.729M80.2992 233.157L86.9189 208.613M86.9189 208.613L90.0846 196.879M86.9189 208.613L121.732 212.233M86.9189 208.613L55.8237 192.604M90.0846 196.879L93.1582 185.484M90.0846 196.879L124.387 200.454M90.0846 196.879L59.453 181.07M93.1582 185.484L126.965 189.014M93.1582 185.484L62.9775 169.871M40.1571 242.382L16.538 214.632M48.2298 216.729L55.8237 192.604M55.8237 192.604L59.453 181.07M59.453 181.07L62.9775 169.871M110.278 263.062H147.371M116.18 236.871L118.998 224.367M116.18 236.871H152.141M118.998 224.367L121.732 212.233M118.998 224.367H154.418M121.732 212.233L124.387 200.454M121.732 212.233H156.627M124.387 200.454L126.965 189.014M124.387 200.454H158.772M126.965 189.014H160.855M147.371 263.062H184.466M152.141 236.871L154.418 224.367M152.141 236.871H188.102M154.418 224.367L156.627 212.233M154.418 224.367H189.837M156.627 212.233L158.772 200.454M156.627 212.233H191.522M158.772 200.454L160.855 189.014M158.772 200.454H193.157M160.855 189.014H194.745M16.538 214.632L5.8485 167.702M10.5434 155.681L15.0927 144.033M10.5434 155.681L5.8485 167.702M10.5434 155.681L14.7828 120.903M15.0927 144.033L18.5531 115.772M15.0927 144.033L23.7812 121.79M18.5531 115.772L14.7828 120.903M18.5531 115.772L22.2008 110.809M184.466 263.062H221.558M188.102 236.871L189.837 224.367M188.102 236.871H224.061M189.837 224.367L191.522 212.233M189.837 224.367H260.677M191.522 212.233L193.157 200.454M191.522 212.233H226.415M193.157 200.454L194.745 189.014M193.157 200.454L227.542 200.454M194.745 189.014H228.635M320.317 202.377L315.654 205.243M288.412 206.583L261.928 200.454M288.412 206.583L299.064 200.286M288.412 206.583L278.602 212.382M261.928 200.454H227.542M261.928 200.454L261.311 212.233M261.928 200.454L262.526 189.014M227.542 200.454L226.415 212.233M227.542 200.454L228.635 189.014M27.9319 111.163L29.0739 101.954M27.9319 111.163L23.7812 121.79M27.9319 111.163L31.9619 100.848M29.0739 101.954L28.4606 102.291M29.0739 101.954L32.0257 100.331M221.558 263.062L224.061 236.871M224.061 236.871H260.023M224.061 236.871L226.415 212.233M226.415 212.233H261.311M228.635 189.014L229.697 177.899M228.635 189.014H262.526M260.023 236.871L260.677 224.367M260.023 236.871L281.677 237.6M260.677 224.367L261.311 212.233M260.677 224.367L272.584 224.221M261.311 212.233L278.602 212.382M262.526 189.014L299.064 200.286M262.526 189.014L296.417 189.014M61.5228 84.1133L65.4673 73.0548M61.5228 84.1133L100.136 79.9718M65.4673 73.0548L103.453 68.9734M65.4673 73.0548L32.9294 90.9725M86.672 13.6018L89.8437 4.70756M86.672 13.6018L121.285 9.84497M86.672 13.6018L56.9637 30.0981M89.8437 4.70756L123.953 1M89.8437 4.70756L60.5606 20.9883M540.474 212.233H470.683M547.709 236.871H511.749M555.405 263.062H518.311M314.88 196.441L296.417 189.014M314.88 196.441L331.874 192.308M314.88 196.441L299.064 200.286M296.417 189.014L330.307 189.014M100.136 79.9718L103.453 68.9734M100.136 79.9718H139.178M103.453 68.9734H141.858M121.285 9.84497L123.953 1M121.285 9.84497H156.267M123.953 1H158.421M511.749 236.871H475.79M470.683 212.233L453.809 212.381L433.52 210.126M139.178 79.9718L141.858 68.9734M139.178 79.9718H178.219M141.858 68.9734H180.262M156.267 9.84497L158.421 1M156.267 9.84497H191.248M158.421 1H192.891M445.214 42.1245L441.283 50.736M445.214 42.1245L426.889 50.0002M445.214 42.1245L466.983 38.1862M178.219 79.9718L180.262 68.9734M178.219 79.9718H217.259M180.262 68.9734H218.666M191.248 9.84497L192.891 1M191.248 9.84497H226.228M192.891 1H227.359M299.325 50.7358L316.266 56.5999M412.463 79.9718L395.969 79.972M412.463 79.9718L451.505 79.972M330.307 189.014L331.874 192.308M217.259 79.9718L218.666 68.9734M217.259 79.9718H256.299M226.228 9.84497L227.359 1M227.359 1H261.827M256.299 79.9718L295.341 79.9718M261.827 1H296.296M295.341 79.9718L334.381 79.9716M281.677 237.6L272.584 224.221M272.584 224.221L278.602 212.382M272.584 224.221L293.92 220.529L311.519 213.118M37.4441 56.8161L41.3074 47.3608L60.5606 20.9883M37.4441 56.8161L56.9637 30.0981M56.9637 30.0981L60.5606 20.9883M296.296 1H330.765M330.765 1H365.233M365.233 1H399.702M399.702 1H434.171M434.171 1H468.639M468.639 1H503.108M466.983 38.1862L463.569 47.929M466.983 38.1862L478.911 38.03M463.569 47.929L441.283 50.736M463.569 47.929L453.548 53.3848M463.569 47.929L481.682 48.0183M552.137 38.03L556.061 48.0183M552.137 38.03H515.524M556.061 48.0183L560.113 58.3277M556.061 48.0183H518.874M560.113 58.3277H522.33M441.283 50.736L433.404 54.6035M441.283 50.736L423.726 56.5998M433.404 54.6035L426.035 58.2214M433.404 54.6035L453.548 53.3848M433.404 54.6035L417.691 59.5491M426.035 58.2214L416.652 60.1777L416.224 60.2677M515.524 38.03L518.874 48.0183M515.524 38.03H478.911M518.874 48.0183L522.33 58.3277M518.874 48.0183H481.682M522.33 58.3277H484.542M529.587 79.9718H490.545M478.911 38.03L481.682 48.0183M481.682 48.0183L484.542 58.3277M484.542 58.3277L453.548 53.3848M490.545 79.9718L451.505 79.972M389.252 34.6061L383.712 50.1188M389.252 34.6061L367.622 33.3701M383.712 50.1188L367.953 49.1963M367.622 33.3701L367.953 49.1963M367.622 33.3701L346.245 34.6061M367.953 49.1963L352.378 50.1188M346.245 34.6061L352.378 50.1188M426.889 50.0002L423.726 56.5998M423.726 56.5998L417.691 59.5491M405.842 207.93L420.255 221.15M397.544 212.862L391.019 214.53M397.544 212.862L388.556 195.55M397.544 212.862L408.902 228.085M391.019 214.53L384.517 216.193M391.019 214.53L384.013 196.683M391.019 214.53L399.901 230.436M384.517 216.193L368.787 217.368M384.517 216.193L379.491 197.811M384.517 216.193L390.92 232.785M368.787 217.368L352.868 216.193M368.787 217.368L368.575 198.608M368.787 217.368L369.129 234.448M352.868 216.193L345.783 214.453M352.868 216.193L357.53 197.811M352.868 216.193L347.075 232.785M345.783 214.453L339.305 212.862M345.783 214.453L352.604 196.631M345.783 214.453L337.285 230.328M339.305 212.862L348.092 195.55L354.316 176.958M339.305 212.862L328.348 228.085M330.214 207.93L326.93 202.188M330.214 207.93L315.896 221.15M330.214 207.93L341.728 192.19M326.93 202.188L311.519 213.118M326.93 202.188L339.38 188.263M417.691 59.5491L416.451 60.1554M31.9619 100.848L32.0257 100.331M31.9619 100.848L32.2005 100.236M32.0257 100.331L32.2005 100.236M370.176 79.9719L369.903 85.1436M369.903 85.1436L369.431 99.2858M369.903 85.1436L358.631 84.4467M369.903 85.1436L381.04 84.4467M369.431 99.2858L369.077 116.06M369.431 99.2858L361.678 98.7964M369.431 99.2858L377.094 98.7964M369.077 116.06L368.816 137.782M369.077 116.06L363.166 115.678M369.077 116.06L374.917 115.678M368.816 137.782L368.572 159.494M368.816 137.782L363.02 137.396M368.816 137.782L374.545 137.396M368.572 159.494L368.502 179.024M368.572 159.494L374.368 159.093M368.572 159.494L362.707 159.093M368.502 179.024L368.575 198.608M368.502 179.024L376.058 178.486M368.502 179.024L360.858 178.486M368.575 198.608L357.53 197.811M368.575 198.608L379.491 197.811M369.129 234.448L390.92 232.785M369.129 234.448L347.075 232.785M383.288 79.9719L381.04 84.4467M383.288 79.9719L373.423 79.9715M383.288 79.9719L389.002 79.972M381.04 84.4467L377.094 98.7964M381.04 84.4467L386.728 83.2307M377.094 98.7964L374.917 115.678M377.094 98.7964L381.013 97.9414M374.917 115.678L374.545 137.396M374.917 115.678L377.907 115.011M374.545 137.396L374.368 159.093M374.545 137.396L377.199 136.785M374.368 159.093L376.058 178.486M374.368 159.093L376.775 158.522M376.058 178.486L379.491 197.811M376.058 178.486L379.191 177.724M379.491 197.811L384.013 196.683M390.92 232.785L399.901 230.436M356.818 79.9719L358.631 84.4467M358.631 84.4467L361.678 98.7964M358.631 84.4467L353.613 83.4162M361.678 98.7964L363.166 115.678M361.678 98.7964L358.22 98.0721M363.166 115.678L363.02 137.396M363.166 115.678L360.528 115.113M363.02 137.396L362.707 159.093M363.02 137.396L360.43 136.824M362.707 159.093L360.858 178.486M362.707 159.093L360.087 158.496M360.858 178.486L357.53 197.811M360.858 178.486L357.444 177.688M357.53 197.811L352.604 196.631M347.075 232.785L337.285 230.328M339.38 188.263L341.728 192.19M339.38 188.263L341.454 184.317L344.958 177.899L348.224 172.015M341.728 192.19L349.882 174.683M352.604 196.631L357.444 177.688M384.013 196.683L388.556 195.55M384.013 196.683L379.191 177.724M388.556 195.55L382.344 176.958M392.312 79.9719L390.285 82.47M392.312 79.9719L389.002 79.972M392.312 79.9719L394.083 79.972M390.285 82.47L386.728 83.2307M390.285 82.47L393.139 81.0554M390.285 82.47L383.467 97.406M383.467 97.406L385.442 96.41M383.467 97.406L381.013 97.9414M383.467 97.406L379.781 114.593M379.781 114.593L379.315 136.299M379.781 114.593L377.907 115.011M379.315 136.299L379.195 157.949M379.315 136.299L377.199 136.785M379.195 157.949L382.344 176.958M379.195 157.949L376.775 158.522M382.344 176.958L379.191 177.724M408.902 228.085L422.117 240.48M408.902 228.085L399.901 230.436M347.162 79.9719L349.001 82.47M347.162 79.9719H344.804M347.162 79.9719L351.599 79.972L353.613 83.4162M349.001 82.47L353.613 83.4162M349.001 82.47L345.585 80.9265M349.001 82.47L355.04 97.406M353.613 83.4162L358.22 98.0721M386.728 83.2307L389.002 79.972M386.728 83.2307L381.013 97.9414M393.139 81.0554L395.324 79.9719M393.139 81.0554L394.083 79.972M393.139 81.0554L385.442 96.41M395.324 79.9719L394.083 79.972M395.324 79.9719L395.969 79.972M354.661 112.974L354.679 134.662M354.679 134.662L354.269 156.244M354.269 156.244L349.882 174.683M315.896 221.15L311.519 213.118M23.7812 121.79L25.731 106.006M387.605 172.015L383.257 154.243M379.191 177.724L376.775 158.522M357.444 177.688L354.316 176.958M357.444 177.688L360.087 158.496M354.316 176.958L357.681 157.949L358.053 136.299M373.423 79.9715L351.601 79.9719M343.474 79.9719L345.585 80.9265M343.474 79.9719H344.804M345.585 80.9265L344.804 79.9719M355.04 97.406L358.22 98.0721M355.04 97.406L358.102 114.593M358.22 98.0721L360.528 115.113M381.013 97.9414L377.907 115.011M395.969 79.972L388.696 93.2783M358.053 136.299L360.43 136.824M358.053 136.299L358.102 114.593M360.43 136.824L360.528 115.113M360.43 136.824L360.087 158.496M377.199 136.785L377.907 115.011M377.199 136.785L376.775 158.522M383.327 132.742L383.871 111.073M383.327 132.742L383.257 154.243M358.102 114.593L360.528 115.113M388.696 93.2783L383.871 111.073M25.731 106.006L22.2008 110.809M25.731 106.006L28.4606 102.291M328.348 228.085L337.285 230.328M28.4606 102.291L32.9294 90.9725M315.654 205.243L311.519 213.118M420.255 221.15L436.926 231.207M417.979 205.243L433.52 210.126M408.359 199.074L409.392 199.737" stroke="url(#paint0_linear_317_60)" stroke-linecap="round" stroke-linejoin="round"/>
<defs>
<linearGradient id="paint0_linear_317_60" x1="229.501" y1="188.749" x2="292.605" y2="-21.7473" gradientUnits="userSpaceOnUse">
<stop stop-color="#FF6D44"/>
<stop offset="0.296875" stop-color="#FFA959"/>
<stop offset="1" stop-color="#E7E7E8"/>
</linearGradient>
</defs>
</svg>
